G04*
G04 #@! TF.GenerationSoftware,Altium Limited,Altium Designer,20.2.3 (150)*
G04*
G04 Layer_Color=32768*
%FSLAX24Y24*%
%MOIN*%
G70*
G04*
G04 #@! TF.SameCoordinates,D33FF55B-48EF-4710-8091-CBF0DB89F5B4*
G04*
G04*
G04 #@! TF.FilePolarity,Positive*
G04*
G01*
G75*
%ADD46C,0.0020*%
%ADD47C,0.0050*%
D46*
X17929Y-15839D02*
G03*
X17929Y-15839I-138J0D01*
G01*
X22382Y-9449D02*
G03*
X22382Y-9449I-138J0D01*
G01*
X17594Y-15839D02*
X17988D01*
X17791Y-16035D02*
Y-15642D01*
X22047Y-9449D02*
X22441D01*
X22244Y-9646D02*
Y-9252D01*
D47*
X6887Y-32677D02*
X7287D01*
X7087Y-32877D02*
Y-32477D01*
X31580Y-7165D02*
X31980D01*
X31780Y-7365D02*
Y-6965D01*
X33296Y-7165D02*
X33696D01*
X33496Y-7365D02*
Y-6965D01*
X36729Y-7165D02*
X37129D01*
X36929Y-7365D02*
Y-6965D01*
X35013Y-7165D02*
X35413D01*
X35213Y-7365D02*
Y-6965D01*
X29721Y-7480D02*
X30121D01*
X29921Y-7680D02*
Y-7280D01*
X28146Y-7480D02*
X28546D01*
X28346Y-7680D02*
Y-7280D01*
X8934Y-26929D02*
X9334D01*
X9134Y-27129D02*
Y-26729D01*
X22638Y-15554D02*
Y-15154D01*
X22438Y-15354D02*
X22838D01*
X25394Y-17523D02*
Y-17123D01*
X25194Y-17323D02*
X25594D01*
M02*
