M48
;Layer_Color=9474304
;FILE_FORMAT=2:5
INCH,LZ
;TYPE=PLATED
T1F00S00C0.02362
T2F00S00C0.02756
T3F00S00C0.02800
T4F00S00C0.03150
T5F00S00C0.03268
T6F00S00C0.03543
T7F00S00C0.04331
T8F00S00C0.05906
T9F00S00C0.11811
%
T01
X0070866Y-0344488
Y-0309055
X0073622Y-0269291
X0109055
X0116142Y-0190945
X0126142
X0208661Y-0153543
X0244094
X023622Y-0173228
X0271654
X0283465Y-009252
X0299213
X0317795Y-008937
X0334961
X0352126
Y-0053937
X0334961
X0317795
X0299213Y-0057087
X0283465
X0228346Y-0122047
X0218346
X0369291Y-008937
Y-0053937
T02
X0051181Y-033874
Y-032874
Y-031874
X0315748Y-0124803
Y-0114803
X0334908Y-0114803
Y-0124803
X0354068Y-0124803
Y-0114803
X0373228Y-0114803
Y-0124803
T03
X0088583Y-0242126
X0098425Y-0232283
X0119145Y-0226083
X0112205Y-0218504
X0099523Y-016161
X0129921Y-0124016
X0124016Y-0114173
X0124016Y-0084646
X013189
X0124016Y-0076772
X0145669Y-0088583
X007874
X0250547Y-0083395
X0244094Y-0070866
X0246063Y-0059055
X0238189Y-0124016
X028937Y-0133858
X0320866Y-0165354
T04
X0116063Y-0253543
X0126063
X0136063
X0146063
X0156063
X0166063
Y-0203543
X0156063
X0146063
X0136063
X0126063
X0116063
X0162913Y-0173386
Y-0163386
Y-0153386
Y-0143386
X0192913
Y-0153386
Y-0163386
Y-0173386
X0207441Y-0109488
Y-0099488
Y-0089488
Y-0079488
X0237441
Y-0089488
Y-0099488
Y-0109488
T05
X0039213Y-005315
X0049213
T06
X017126Y-0348425
X0246063Y-0348583
X0318898Y-0348898
Y-0338898
Y-0328898
Y-0318898
X0361417Y-0303465
Y-0293465
Y-0283465
Y-0273465
Y-0263465
Y-0253465
Y-0243465
X0361811Y-0216772
Y-0206772
Y-0196772
X0246063Y-0318583
Y-0328583
Y-0338583
X017126Y-0338425
Y-0328425
Y-0318425
X0165354Y-0273622
X0155354
X0145354
X0135354
X0090551Y-0287402
X0080551
X0086457Y-0309055
X0096457
X0081102Y-0253543
X0071102
Y-0230709
X0081102
Y-0210236
X0071102
X0041169Y-0210472
Y-0220472
Y-0230472
X0041339Y-0259685
Y-0269685
Y-0279685
X0029527Y-031874
Y-032874
X0033465Y-0162205
Y-0152205
Y-0142205
Y-0132205
Y-0122205
Y-0112205
Y-0102205
X0055118Y-0102047
Y-0112047
Y-0122047
Y-0132047
Y-0142047
Y-0152047
Y-0162047
X0089413Y-012926
X0099413
Y-011926
X0089413
Y-010926
X0099413
Y-009926
X0089413
Y-008926
X0099413
Y-007926
X0089413
Y-006926
X0099413
Y-005926
X0089413
Y-004926
X0099413
Y-003926
X0089413
X0220315Y-003937
X0230315
X0259413Y-003926
Y-004926
Y-005926
Y-006926
Y-007926
Y-008926
Y-009926
Y-010926
Y-011926
Y-012926
X0269413
Y-011926
Y-010926
Y-009926
Y-008926
Y-007926
Y-006926
Y-005926
Y-004926
Y-003926
X0283307Y-0041339
X0293307
X0330394
X0340394
X0350394
X0360394
X0361811Y-0146772
Y-0156772
Y-0166772
Y-0176772
Y-0186772
X0271486Y-0153404
Y-0143404
X0255906Y-0143701
Y-0153701
X0214567Y-0174409
Y-0184409
T07
X0237667Y-0291759
X0237567Y-0274459
X0237667Y-0239226
X0237567Y-0221926
X0280725Y-0222126
Y-0239226
X0307762
X0307662Y-0221926
Y-0274459
X0307762Y-0291759
X0280725
Y-0274659
X021063
Y-0291759
Y-0239226
Y-0222126
T08
X0226378Y-0332677
X0279528
X0299528
X0206378
X0151575
X0131575
T09
X0019685Y-0374016
X0374016
Y-0019685
X0019685
M30
