G04*
G04 #@! TF.GenerationSoftware,Altium Limited,Altium Designer,20.2.3 (150)*
G04*
G04 Layer_Physical_Order=1*
G04 Layer_Color=255*
%FSLAX24Y24*%
%MOIN*%
G70*
G04*
G04 #@! TF.SameCoordinates,D33FF55B-48EF-4710-8091-CBF0DB89F5B4*
G04*
G04*
G04 #@! TF.FilePolarity,Positive*
G04*
G01*
G75*
%ADD15C,0.0394*%
%ADD17C,0.0197*%
%ADD33C,0.0472*%
%ADD34R,0.0669X0.0669*%
%ADD35C,0.0669*%
%ADD36R,0.0669X0.0669*%
%ADD37R,0.0591X0.0591*%
%ADD38C,0.0591*%
%ADD39R,0.0591X0.0591*%
%ADD40C,0.0630*%
%ADD41C,0.0551*%
%ADD42C,0.0472*%
%ADD43R,0.1181X0.1181*%
%ADD44C,0.1181*%
%ADD45C,0.0500*%
G36*
X1969Y-153D02*
X37402D01*
X37408Y-152D01*
X37639Y-167D01*
X37872Y-213D01*
X38097Y-289D01*
X38310Y-395D01*
X38508Y-527D01*
X38687Y-683D01*
X38843Y-862D01*
X38975Y-1060D01*
X39081Y-1273D01*
X39157Y-1498D01*
X39203Y-1731D01*
X39216Y-1919D01*
X39217Y-1969D01*
X39217Y-1969D01*
X39217Y-2018D01*
Y-37352D01*
X39217Y-37352D01*
X39217Y-37402D01*
X39216Y-37451D01*
X39203Y-37639D01*
X39157Y-37872D01*
X39081Y-38097D01*
X38975Y-38310D01*
X38843Y-38508D01*
X38687Y-38687D01*
X38508Y-38843D01*
X38310Y-38975D01*
X38097Y-39081D01*
X37872Y-39157D01*
X37639Y-39203D01*
X37451Y-39216D01*
X37402Y-39217D01*
X37402Y-39217D01*
X37352Y-39217D01*
X2018D01*
X2018Y-39217D01*
X1969Y-39217D01*
X1919Y-39216D01*
X1731Y-39203D01*
X1498Y-39157D01*
X1273Y-39081D01*
X1060Y-38975D01*
X862Y-38843D01*
X683Y-38687D01*
X527Y-38508D01*
X395Y-38310D01*
X289Y-38097D01*
X213Y-37872D01*
X167Y-37639D01*
X152Y-37408D01*
X153Y-37402D01*
Y-1969D01*
X152Y-1962D01*
X167Y-1731D01*
X213Y-1498D01*
X289Y-1273D01*
X395Y-1060D01*
X527Y-862D01*
X683Y-683D01*
X862Y-527D01*
X1060Y-395D01*
X1273Y-289D01*
X1498Y-213D01*
X1731Y-167D01*
X1962Y-152D01*
X1969Y-153D01*
D02*
G37*
%LPC*%
G36*
X37402Y-1275D02*
X37266Y-1288D01*
X37136Y-1327D01*
X37016Y-1392D01*
X36911Y-1478D01*
X36825Y-1583D01*
X36761Y-1703D01*
X36721Y-1833D01*
X36708Y-1969D01*
X36721Y-2104D01*
X36761Y-2234D01*
X36825Y-2354D01*
X36911Y-2459D01*
X37016Y-2545D01*
X37136Y-2610D01*
X37266Y-2649D01*
X37402Y-2662D01*
X37537Y-2649D01*
X37667Y-2610D01*
X37787Y-2545D01*
X37892Y-2459D01*
X37979Y-2354D01*
X38043Y-2234D01*
X38082Y-2104D01*
X38095Y-1969D01*
X38082Y-1833D01*
X38043Y-1703D01*
X37979Y-1583D01*
X37892Y-1478D01*
X37787Y-1392D01*
X37667Y-1327D01*
X37537Y-1288D01*
X37402Y-1275D01*
D02*
G37*
G36*
X1969D02*
X1833Y-1288D01*
X1703Y-1327D01*
X1583Y-1392D01*
X1478Y-1478D01*
X1392Y-1583D01*
X1327Y-1703D01*
X1288Y-1833D01*
X1275Y-1969D01*
X1288Y-2104D01*
X1327Y-2234D01*
X1392Y-2354D01*
X1478Y-2459D01*
X1583Y-2545D01*
X1703Y-2610D01*
X1833Y-2649D01*
X1969Y-2662D01*
X2104Y-2649D01*
X2234Y-2610D01*
X2354Y-2545D01*
X2459Y-2459D01*
X2545Y-2354D01*
X2610Y-2234D01*
X2649Y-2104D01*
X2662Y-1969D01*
X2649Y-1833D01*
X2610Y-1703D01*
X2545Y-1583D01*
X2459Y-1478D01*
X2354Y-1392D01*
X2234Y-1327D01*
X2104Y-1288D01*
X1969Y-1275D01*
D02*
G37*
G36*
X6299Y-2220D02*
X6211Y-2231D01*
X6169Y-2249D01*
X6130Y-2265D01*
X6059Y-2319D01*
X4681Y-3697D01*
X4681Y-3697D01*
X4655Y-3731D01*
X4628Y-3767D01*
X4594Y-3849D01*
X4582Y-3937D01*
Y-4929D01*
X4580Y-4974D01*
X4576Y-5021D01*
X4573Y-5038D01*
X4571Y-5050D01*
X4569Y-5057D01*
X4568Y-5058D01*
X4566Y-5061D01*
X4565Y-5065D01*
X4542Y-5096D01*
X4498Y-5201D01*
X4489Y-5265D01*
X5353D01*
X5345Y-5201D01*
X5301Y-5096D01*
X5278Y-5065D01*
X5276Y-5061D01*
X5274Y-5058D01*
X5274Y-5057D01*
X5272Y-5050D01*
X5269Y-5038D01*
X5267Y-5023D01*
X5260Y-4921D01*
Y-4077D01*
X6440Y-2898D01*
X9505D01*
X10129Y-3522D01*
X10100Y-3564D01*
X10045Y-3541D01*
X9941Y-3527D01*
X9838Y-3541D01*
X9742Y-3581D01*
X9659Y-3644D01*
X9596Y-3727D01*
X9556Y-3823D01*
X9543Y-3926D01*
X9556Y-4029D01*
X9596Y-4125D01*
X9659Y-4208D01*
X9742Y-4271D01*
X9838Y-4311D01*
X9941Y-4325D01*
X9963Y-4322D01*
X9987Y-4369D01*
X9798Y-4557D01*
X9742Y-4581D01*
X9659Y-4644D01*
X9596Y-4727D01*
X9556Y-4823D01*
X9549Y-4876D01*
X9941D01*
Y-4976D01*
X9549D01*
X9556Y-5029D01*
X9596Y-5125D01*
X9659Y-5208D01*
X9742Y-5271D01*
X9838Y-5311D01*
X9848Y-5312D01*
X10023Y-5488D01*
X10000Y-5535D01*
X9941Y-5527D01*
X9838Y-5541D01*
X9742Y-5581D01*
X9659Y-5644D01*
X9596Y-5727D01*
X9556Y-5823D01*
X9543Y-5926D01*
X9556Y-6029D01*
X9596Y-6125D01*
X9659Y-6208D01*
X9742Y-6271D01*
X9838Y-6311D01*
X9941Y-6325D01*
X10045Y-6311D01*
X10141Y-6271D01*
X10223Y-6208D01*
X10287Y-6125D01*
X10326Y-6029D01*
X10340Y-5926D01*
X10332Y-5867D01*
X10380Y-5844D01*
X11261Y-6726D01*
Y-18965D01*
X11248Y-18996D01*
X11242Y-19044D01*
X11614D01*
X11986D01*
X11980Y-18996D01*
X11942Y-18905D01*
X11940Y-18901D01*
Y-6585D01*
X11928Y-6497D01*
X11894Y-6415D01*
X11840Y-6345D01*
X10405Y-4910D01*
X10820Y-4495D01*
X10820Y-4495D01*
X10874Y-4425D01*
X10908Y-4343D01*
X10913Y-4299D01*
X10919Y-4255D01*
X10919Y-4255D01*
Y-3493D01*
X10908Y-3406D01*
X10894Y-3372D01*
X10874Y-3324D01*
X10820Y-3254D01*
X9885Y-2319D01*
X9815Y-2265D01*
X9767Y-2246D01*
X9733Y-2231D01*
X9646Y-2220D01*
X6299D01*
X6299Y-2220D01*
D02*
G37*
G36*
X26378Y-2810D02*
X24803D01*
X24715Y-2822D01*
X24682Y-2836D01*
X24634Y-2856D01*
X24563Y-2910D01*
X23516Y-3957D01*
X23466Y-3936D01*
Y-3502D01*
X22597D01*
Y-4372D01*
X23375D01*
Y-4908D01*
X23386Y-4996D01*
X23405Y-5041D01*
Y-7563D01*
X23403Y-7608D01*
X23399Y-7655D01*
X23396Y-7671D01*
X23394Y-7684D01*
X23391Y-7691D01*
X23391Y-7692D01*
X23389Y-7695D01*
X23388Y-7699D01*
X23364Y-7730D01*
X23321Y-7835D01*
X23312Y-7903D01*
X23309Y-7909D01*
X23308Y-7920D01*
X23306Y-7926D01*
X23302Y-7936D01*
X23296Y-7948D01*
X23287Y-7963D01*
X23276Y-7979D01*
X23224Y-8040D01*
X22792Y-8473D01*
X22738Y-8543D01*
X22718Y-8591D01*
X22704Y-8625D01*
X22692Y-8713D01*
Y-10185D01*
X22704Y-10273D01*
X22718Y-10307D01*
X22738Y-10355D01*
X22792Y-10425D01*
X23228Y-10861D01*
X23242Y-10876D01*
X23276Y-10918D01*
X23287Y-10934D01*
X23296Y-10949D01*
X23302Y-10962D01*
X23306Y-10972D01*
X23308Y-10978D01*
X23309Y-10988D01*
X23312Y-10994D01*
X23321Y-11062D01*
X23364Y-11168D01*
X23367Y-11172D01*
Y-11192D01*
X22710Y-11850D01*
X22645Y-11877D01*
X22567Y-11937D01*
X22507Y-12015D01*
X22469Y-12107D01*
X22462Y-12155D01*
X22835D01*
Y-12255D01*
X22462D01*
X22469Y-12303D01*
X22507Y-12394D01*
X22567Y-12473D01*
X22612Y-12508D01*
Y-21387D01*
X22624Y-21475D01*
X22638Y-21509D01*
X22658Y-21557D01*
X22712Y-21627D01*
X23244Y-22160D01*
X23274Y-22192D01*
X23305Y-22229D01*
X23315Y-22242D01*
X23322Y-22253D01*
X23325Y-22260D01*
X23326Y-22261D01*
X23326Y-22264D01*
X23328Y-22268D01*
X23333Y-22306D01*
X23377Y-22412D01*
X23447Y-22503D01*
X23537Y-22572D01*
X23643Y-22616D01*
X23707Y-22624D01*
Y-22193D01*
X23757D01*
Y-22143D01*
X24189D01*
X24180Y-22079D01*
X24136Y-21973D01*
X24067Y-21883D01*
X23976Y-21813D01*
X23870Y-21769D01*
X23832Y-21764D01*
X23828Y-21762D01*
X23825Y-21761D01*
X23824Y-21761D01*
X23817Y-21757D01*
X23806Y-21750D01*
X23794Y-21742D01*
X23718Y-21674D01*
X23291Y-21247D01*
Y-17650D01*
X23341Y-17630D01*
X23413Y-17685D01*
X23514Y-17727D01*
X23622Y-17741D01*
X23730Y-17727D01*
X23831Y-17685D01*
X23918Y-17619D01*
X23985Y-17532D01*
X24026Y-17431D01*
X24041Y-17323D01*
X24026Y-17215D01*
X23985Y-17114D01*
X23918Y-17027D01*
X23831Y-16960D01*
X23730Y-16919D01*
X23622Y-16904D01*
X23514Y-16919D01*
X23413Y-16960D01*
X23341Y-17016D01*
X23291Y-16996D01*
Y-12343D01*
X23291Y-12343D01*
X23279Y-12255D01*
X23275Y-12244D01*
X23946Y-11573D01*
X24000Y-11502D01*
X24034Y-11421D01*
X24046Y-11333D01*
Y-11265D01*
X24054Y-11259D01*
X24124Y-11168D01*
X24168Y-11062D01*
X24176Y-10999D01*
X23744D01*
Y-10899D01*
X24176D01*
X24168Y-10835D01*
X24124Y-10730D01*
X24054Y-10639D01*
X23963Y-10569D01*
X23862Y-10527D01*
X23776Y-10448D01*
X23800Y-10401D01*
X23823Y-10406D01*
X23894Y-10424D01*
X23920Y-10433D01*
X23941Y-10442D01*
X23957Y-10450D01*
X23962Y-10453D01*
X24072Y-10563D01*
X24138Y-10607D01*
X24215Y-10622D01*
X25613D01*
X25638Y-10672D01*
X25596Y-10727D01*
X25556Y-10823D01*
X25543Y-10926D01*
X25556Y-11029D01*
X25596Y-11125D01*
X25638Y-11180D01*
X25613Y-11230D01*
X24788D01*
X24711Y-11245D01*
X24645Y-11289D01*
X23932Y-12002D01*
X23930Y-12004D01*
X23919Y-12011D01*
X23905Y-12018D01*
X23889Y-12024D01*
X23870Y-12031D01*
X23850Y-12037D01*
X23797Y-12049D01*
X23768Y-12053D01*
X23760Y-12056D01*
X23728Y-12061D01*
X23642Y-12096D01*
X23569Y-12152D01*
X23513Y-12225D01*
X23478Y-12310D01*
X23466Y-12402D01*
X23478Y-12493D01*
X23513Y-12578D01*
X23569Y-12651D01*
X23642Y-12707D01*
X23728Y-12743D01*
X23819Y-12755D01*
X23910Y-12743D01*
X23995Y-12707D01*
X24069Y-12651D01*
X24125Y-12578D01*
X24160Y-12493D01*
X24164Y-12461D01*
X24167Y-12453D01*
X24172Y-12423D01*
X24183Y-12371D01*
X24189Y-12350D01*
X24196Y-12331D01*
X24203Y-12315D01*
X24210Y-12301D01*
X24217Y-12290D01*
X24218Y-12289D01*
X24872Y-11635D01*
X25604D01*
X25628Y-11685D01*
X25596Y-11727D01*
X25556Y-11823D01*
X25543Y-11926D01*
X25556Y-12029D01*
X25596Y-12125D01*
X25659Y-12208D01*
X25742Y-12271D01*
X25838Y-12311D01*
X25875Y-12316D01*
X25883Y-12319D01*
X25964Y-12333D01*
X26029Y-12348D01*
X26054Y-12356D01*
X26076Y-12364D01*
X26094Y-12372D01*
X26107Y-12379D01*
X26111Y-12382D01*
X26305Y-12575D01*
X26370Y-12619D01*
X26448Y-12635D01*
X26604D01*
X26628Y-12685D01*
X26596Y-12727D01*
X26556Y-12823D01*
X26543Y-12926D01*
X26556Y-13029D01*
X26596Y-13125D01*
X26619Y-13155D01*
X26622Y-13162D01*
X26670Y-13229D01*
X26705Y-13286D01*
X26717Y-13310D01*
X26727Y-13331D01*
X26734Y-13349D01*
X26738Y-13364D01*
X26739Y-13368D01*
Y-13533D01*
X26754Y-13610D01*
X26798Y-13676D01*
X26946Y-13824D01*
Y-13854D01*
X26945Y-13869D01*
X26942Y-13890D01*
X26938Y-13904D01*
X26937Y-13906D01*
X26714D01*
Y-14775D01*
X27583D01*
Y-13906D01*
X27360D01*
X27360Y-13904D01*
X27356Y-13890D01*
X27352Y-13869D01*
X27351Y-13854D01*
Y-13740D01*
X27335Y-13663D01*
X27292Y-13597D01*
X27144Y-13449D01*
Y-13368D01*
X27144Y-13364D01*
X27149Y-13349D01*
X27156Y-13331D01*
X27166Y-13310D01*
X27178Y-13287D01*
X27235Y-13197D01*
X27260Y-13163D01*
X27263Y-13155D01*
X27287Y-13125D01*
X27326Y-13029D01*
X27339Y-12932D01*
X27377Y-12908D01*
X27383Y-12905D01*
X29028Y-14551D01*
Y-19585D01*
X29044Y-19662D01*
X29088Y-19728D01*
X33518Y-24159D01*
X33584Y-24203D01*
X33661Y-24218D01*
X34727D01*
X35638Y-25128D01*
X35641Y-25133D01*
X35649Y-25149D01*
X35657Y-25171D01*
X35666Y-25195D01*
X35702Y-25359D01*
X35710Y-25409D01*
X35713Y-25417D01*
X35718Y-25460D01*
X35762Y-25566D01*
X35832Y-25656D01*
X35923Y-25726D01*
X36028Y-25770D01*
X36142Y-25785D01*
X36255Y-25770D01*
X36361Y-25726D01*
X36452Y-25656D01*
X36521Y-25566D01*
X36565Y-25460D01*
X36580Y-25346D01*
X36565Y-25233D01*
X36521Y-25127D01*
X36452Y-25036D01*
X36361Y-24967D01*
X36255Y-24923D01*
X36213Y-24917D01*
X36204Y-24914D01*
X36152Y-24906D01*
X36063Y-24889D01*
X35992Y-24871D01*
X35966Y-24862D01*
X35944Y-24853D01*
X35929Y-24846D01*
X35924Y-24842D01*
X34956Y-23874D01*
X34956Y-23867D01*
X34972Y-23824D01*
X35334D01*
X35638Y-24128D01*
X35641Y-24133D01*
X35649Y-24149D01*
X35657Y-24171D01*
X35666Y-24195D01*
X35702Y-24359D01*
X35710Y-24409D01*
X35713Y-24417D01*
X35718Y-24460D01*
X35762Y-24566D01*
X35832Y-24656D01*
X35923Y-24726D01*
X36028Y-24770D01*
X36142Y-24785D01*
X36255Y-24770D01*
X36361Y-24726D01*
X36452Y-24656D01*
X36521Y-24566D01*
X36565Y-24460D01*
X36580Y-24346D01*
X36565Y-24233D01*
X36521Y-24127D01*
X36452Y-24036D01*
X36361Y-23967D01*
X36255Y-23923D01*
X36213Y-23917D01*
X36204Y-23914D01*
X36152Y-23906D01*
X36063Y-23889D01*
X35992Y-23871D01*
X35966Y-23862D01*
X35944Y-23853D01*
X35929Y-23846D01*
X35924Y-23842D01*
X35560Y-23479D01*
X35495Y-23435D01*
X35417Y-23420D01*
X33942D01*
X29927Y-19404D01*
Y-12205D01*
X29911Y-12127D01*
X29867Y-12062D01*
X27842Y-10036D01*
Y-7926D01*
X27826Y-7848D01*
X27782Y-7783D01*
X27276Y-7277D01*
X27244Y-7255D01*
X27239Y-7244D01*
X27236Y-7191D01*
X27287Y-7125D01*
X27326Y-7029D01*
X27340Y-6926D01*
X27326Y-6823D01*
X27287Y-6727D01*
X27223Y-6644D01*
X27141Y-6581D01*
X27045Y-6541D01*
X26941Y-6527D01*
X26838Y-6541D01*
X26742Y-6581D01*
X26659Y-6644D01*
X26596Y-6727D01*
X26556Y-6823D01*
X26543Y-6926D01*
X26556Y-7029D01*
X26596Y-7125D01*
X26628Y-7167D01*
X26604Y-7217D01*
X26519D01*
X26397Y-7096D01*
X26395Y-7092D01*
X26387Y-7079D01*
X26379Y-7061D01*
X26371Y-7039D01*
X26364Y-7014D01*
X26341Y-6909D01*
X26334Y-6869D01*
X26331Y-6860D01*
X26326Y-6823D01*
X26287Y-6727D01*
X26254Y-6685D01*
X26279Y-6635D01*
X26435D01*
X26512Y-6619D01*
X26578Y-6575D01*
X26772Y-6382D01*
X26775Y-6379D01*
X26789Y-6372D01*
X26807Y-6364D01*
X26829Y-6356D01*
X26853Y-6348D01*
X26958Y-6325D01*
X26999Y-6319D01*
X27007Y-6316D01*
X27045Y-6311D01*
X27141Y-6271D01*
X27223Y-6208D01*
X27287Y-6125D01*
X27326Y-6029D01*
X27340Y-5926D01*
X27326Y-5823D01*
X27287Y-5727D01*
X27223Y-5644D01*
X27141Y-5581D01*
X27045Y-5541D01*
X26941Y-5527D01*
X26838Y-5541D01*
X26742Y-5581D01*
X26659Y-5644D01*
X26596Y-5727D01*
X26556Y-5823D01*
X26551Y-5860D01*
X26548Y-5867D01*
X26535Y-5948D01*
X26519Y-6013D01*
X26511Y-6039D01*
X26503Y-6061D01*
X26495Y-6079D01*
X26488Y-6092D01*
X26485Y-6096D01*
X26351Y-6230D01*
X26269D01*
X26245Y-6180D01*
X26287Y-6125D01*
X26326Y-6029D01*
X26340Y-5926D01*
X26326Y-5823D01*
X26287Y-5727D01*
X26245Y-5672D01*
X26269Y-5622D01*
X26448D01*
X26525Y-5607D01*
X26591Y-5563D01*
X26772Y-5382D01*
X26775Y-5379D01*
X26789Y-5372D01*
X26807Y-5364D01*
X26829Y-5356D01*
X26853Y-5348D01*
X26958Y-5325D01*
X26999Y-5319D01*
X27007Y-5316D01*
X27045Y-5311D01*
X27141Y-5271D01*
X27223Y-5208D01*
X27287Y-5125D01*
X27326Y-5029D01*
X27340Y-4926D01*
X27326Y-4823D01*
X27287Y-4727D01*
X27223Y-4644D01*
X27141Y-4581D01*
X27045Y-4541D01*
X26941Y-4527D01*
X26838Y-4541D01*
X26742Y-4581D01*
X26659Y-4644D01*
X26596Y-4727D01*
X26556Y-4823D01*
X26551Y-4860D01*
X26548Y-4867D01*
X26535Y-4948D01*
X26519Y-5013D01*
X26511Y-5039D01*
X26503Y-5061D01*
X26495Y-5079D01*
X26488Y-5092D01*
X26485Y-5096D01*
X26364Y-5217D01*
X26279D01*
X26254Y-5167D01*
X26287Y-5125D01*
X26326Y-5029D01*
X26340Y-4926D01*
X26326Y-4823D01*
X26287Y-4727D01*
X26223Y-4644D01*
X26141Y-4581D01*
X26045Y-4541D01*
X25941Y-4527D01*
X25838Y-4541D01*
X25742Y-4581D01*
X25659Y-4644D01*
X25596Y-4727D01*
X25556Y-4823D01*
X25543Y-4926D01*
X25556Y-5029D01*
X25596Y-5125D01*
X25646Y-5191D01*
X25644Y-5244D01*
X25639Y-5255D01*
X25606Y-5277D01*
X25006Y-5877D01*
X24953Y-5859D01*
X24947Y-5814D01*
X24912Y-5729D01*
X24892Y-5703D01*
X24889Y-5696D01*
X24871Y-5671D01*
X24842Y-5626D01*
X24832Y-5607D01*
X24823Y-5589D01*
X24817Y-5573D01*
X24812Y-5558D01*
X24809Y-5545D01*
X24809Y-5543D01*
Y-5345D01*
X25756Y-4397D01*
X25792Y-4364D01*
X25821Y-4341D01*
X25847Y-4323D01*
X25850Y-4321D01*
X25922D01*
X25926Y-4322D01*
X25929Y-4321D01*
X26337D01*
Y-3653D01*
X26383Y-3634D01*
X26543Y-3794D01*
Y-3835D01*
X26549Y-3876D01*
X26941D01*
X27333D01*
X27326Y-3823D01*
X27287Y-3727D01*
X27223Y-3644D01*
X27220Y-3641D01*
X27210Y-3566D01*
X27195Y-3531D01*
X27176Y-3484D01*
X27122Y-3414D01*
X27122Y-3414D01*
X26618Y-2910D01*
X26588Y-2887D01*
X26548Y-2856D01*
X26466Y-2822D01*
X26405Y-2814D01*
X26378Y-2810D01*
D02*
G37*
G36*
X27333Y-3976D02*
X26991D01*
Y-4318D01*
X27045Y-4311D01*
X27141Y-4271D01*
X27223Y-4208D01*
X27287Y-4125D01*
X27326Y-4029D01*
X27333Y-3976D01*
D02*
G37*
G36*
X26891D02*
X26549D01*
X26556Y-4029D01*
X26596Y-4125D01*
X26659Y-4208D01*
X26742Y-4271D01*
X26838Y-4311D01*
X26891Y-4318D01*
Y-3976D01*
D02*
G37*
G36*
X9337Y-3531D02*
X8546D01*
Y-3659D01*
X8545Y-3663D01*
X8546Y-3667D01*
Y-3844D01*
X8528Y-3876D01*
X8488Y-3932D01*
X8371Y-4071D01*
X8320Y-4124D01*
X6481Y-5963D01*
X6434Y-6025D01*
X6404Y-6097D01*
X6393Y-6174D01*
Y-18774D01*
X5497Y-19670D01*
X5449Y-19732D01*
X5419Y-19804D01*
X5409Y-19882D01*
Y-21260D01*
X5419Y-21337D01*
X5449Y-21410D01*
X5497Y-21472D01*
X6326Y-22301D01*
X6388Y-22348D01*
X6460Y-22378D01*
X6538Y-22388D01*
X7201D01*
X7403Y-22590D01*
X7384Y-22636D01*
X6676D01*
Y-23505D01*
X7545D01*
Y-22797D01*
X7591Y-22778D01*
X7629Y-22816D01*
X7636Y-22824D01*
X7647Y-22839D01*
X7657Y-22855D01*
X7665Y-22873D01*
X7671Y-22892D01*
X7676Y-22912D01*
X7679Y-22935D01*
X7681Y-22959D01*
X7680Y-22986D01*
X7677Y-23018D01*
X7678Y-23026D01*
X7672Y-23071D01*
X7687Y-23184D01*
X7731Y-23290D01*
X7756Y-23323D01*
X7758Y-23329D01*
X7769Y-23345D01*
X7777Y-23359D01*
X7785Y-23375D01*
X7791Y-23393D01*
X7797Y-23412D01*
X7802Y-23434D01*
X7806Y-23457D01*
X7811Y-23513D01*
X7811Y-23514D01*
Y-24659D01*
X7810Y-24698D01*
X7806Y-24760D01*
X7800Y-24813D01*
X7792Y-24856D01*
X7783Y-24889D01*
X7774Y-24910D01*
X7768Y-24919D01*
X7764Y-24920D01*
X7676D01*
Y-25017D01*
X7675Y-25021D01*
X7676Y-25025D01*
Y-25789D01*
X8545D01*
Y-25025D01*
X8546Y-25021D01*
X8545Y-25017D01*
Y-24920D01*
X8456D01*
X8453Y-24919D01*
X8447Y-24910D01*
X8438Y-24889D01*
X8428Y-24856D01*
X8421Y-24814D01*
X8410Y-24697D01*
X8410Y-24659D01*
Y-23530D01*
X8412Y-23483D01*
X8414Y-23458D01*
X8418Y-23434D01*
X8423Y-23412D01*
X8429Y-23393D01*
X8436Y-23375D01*
X8443Y-23359D01*
X8451Y-23345D01*
X8462Y-23329D01*
X8465Y-23323D01*
X8490Y-23290D01*
X8534Y-23184D01*
X8549Y-23071D01*
X8534Y-22957D01*
X8490Y-22852D01*
X8420Y-22761D01*
X8329Y-22691D01*
X8324Y-22689D01*
X8317Y-22672D01*
X8269Y-22610D01*
X7537Y-21877D01*
X7475Y-21830D01*
X7403Y-21800D01*
X7325Y-21789D01*
X6662D01*
X6008Y-21136D01*
Y-20006D01*
X6905Y-19109D01*
X6952Y-19047D01*
X6982Y-18975D01*
X6992Y-18898D01*
Y-6298D01*
X8526Y-4764D01*
X8569Y-4793D01*
X8556Y-4823D01*
X8543Y-4926D01*
X8556Y-5029D01*
X8596Y-5125D01*
X8659Y-5208D01*
X8742Y-5271D01*
X8838Y-5311D01*
X8941Y-5325D01*
X9045Y-5311D01*
X9141Y-5271D01*
X9223Y-5208D01*
X9287Y-5125D01*
X9326Y-5029D01*
X9340Y-4926D01*
X9326Y-4823D01*
X9287Y-4727D01*
X9223Y-4644D01*
X9141Y-4581D01*
X9045Y-4541D01*
X8941Y-4527D01*
X8838Y-4541D01*
X8814Y-4551D01*
X8787Y-4508D01*
X8870Y-4431D01*
X8934Y-4380D01*
X8991Y-4340D01*
X9024Y-4321D01*
X9200D01*
X9204Y-4322D01*
X9208Y-4321D01*
X9337D01*
Y-3531D01*
D02*
G37*
G36*
X33474Y-3699D02*
X32605D01*
Y-4569D01*
X33474D01*
Y-3699D01*
D02*
G37*
G36*
X28331Y-3695D02*
X28217Y-3710D01*
X28112Y-3754D01*
X28021Y-3824D01*
X27951Y-3915D01*
X27907Y-4020D01*
X27892Y-4134D01*
X27907Y-4247D01*
X27951Y-4353D01*
X27976Y-4386D01*
X27979Y-4392D01*
X27990Y-4408D01*
X27998Y-4422D01*
X28005Y-4438D01*
X28012Y-4456D01*
X28017Y-4475D01*
X28022Y-4497D01*
X28026Y-4520D01*
X28031Y-4576D01*
X28031Y-4577D01*
Y-4709D01*
X28041Y-4786D01*
X28071Y-4858D01*
X28119Y-4920D01*
X28452Y-5254D01*
X28429Y-5301D01*
X28346Y-5290D01*
X28238Y-5304D01*
X28137Y-5346D01*
X28051Y-5413D01*
X27984Y-5499D01*
X27942Y-5600D01*
X27928Y-5709D01*
X27942Y-5817D01*
X27984Y-5918D01*
X28051Y-6005D01*
X28137Y-6071D01*
X28238Y-6113D01*
X28346Y-6127D01*
X28455Y-6113D01*
X28556Y-6071D01*
X28642Y-6005D01*
X28709Y-5918D01*
X28751Y-5817D01*
X28765Y-5709D01*
X28754Y-5626D01*
X28802Y-5603D01*
X28834Y-5636D01*
Y-10827D01*
X28845Y-10904D01*
X28875Y-10976D01*
X28922Y-11038D01*
X30016Y-12132D01*
Y-16339D01*
X30026Y-16416D01*
X30056Y-16488D01*
X30103Y-16550D01*
X34442Y-20889D01*
X34504Y-20936D01*
X34576Y-20966D01*
X34654Y-20977D01*
X35722D01*
X35769Y-20979D01*
X35794Y-20981D01*
X35818Y-20985D01*
X35840Y-20990D01*
X35859Y-20996D01*
X35877Y-21003D01*
X35893Y-21010D01*
X35907Y-21018D01*
X35923Y-21029D01*
X35929Y-21032D01*
X35962Y-21057D01*
X36068Y-21101D01*
X36108Y-21106D01*
X36115Y-21109D01*
X36134Y-21112D01*
X36150Y-21117D01*
X36166Y-21123D01*
X36183Y-21130D01*
X36201Y-21140D01*
X36220Y-21152D01*
X36239Y-21165D01*
X36282Y-21202D01*
X36283Y-21202D01*
X36259Y-21249D01*
X36231Y-21245D01*
Y-21627D01*
X36613D01*
X36609Y-21599D01*
X36657Y-21576D01*
X36905Y-21825D01*
Y-28159D01*
X36617Y-28447D01*
X36570Y-28424D01*
X36580Y-28346D01*
X36565Y-28233D01*
X36521Y-28127D01*
X36452Y-28036D01*
X36361Y-27967D01*
X36255Y-27923D01*
X36142Y-27908D01*
X36028Y-27923D01*
X35923Y-27967D01*
X35832Y-28036D01*
X35762Y-28127D01*
X35718Y-28233D01*
X35703Y-28346D01*
X35718Y-28460D01*
X35762Y-28566D01*
X35832Y-28656D01*
X35923Y-28726D01*
X36028Y-28770D01*
X36142Y-28785D01*
X36219Y-28775D01*
X36242Y-28822D01*
X36220Y-28842D01*
X36200Y-28858D01*
X36181Y-28872D01*
X36162Y-28883D01*
X36144Y-28893D01*
X36127Y-28901D01*
X36110Y-28907D01*
X36095Y-28911D01*
X36076Y-28915D01*
X36069Y-28918D01*
X36028Y-28923D01*
X35923Y-28967D01*
X35832Y-29036D01*
X35762Y-29127D01*
X35718Y-29233D01*
X35703Y-29346D01*
X35718Y-29460D01*
X35762Y-29566D01*
X35832Y-29656D01*
X35923Y-29726D01*
X36028Y-29770D01*
X36142Y-29785D01*
X36255Y-29770D01*
X36361Y-29726D01*
X36452Y-29656D01*
X36521Y-29566D01*
X36565Y-29460D01*
X36571Y-29419D01*
X36573Y-29412D01*
X36577Y-29393D01*
X36581Y-29378D01*
X36587Y-29362D01*
X36595Y-29344D01*
X36605Y-29326D01*
X36617Y-29307D01*
X36630Y-29289D01*
X36666Y-29245D01*
X36667Y-29245D01*
X37416Y-28495D01*
X37464Y-28433D01*
X37494Y-28361D01*
X37504Y-28283D01*
Y-21701D01*
X37494Y-21623D01*
X37464Y-21551D01*
X37416Y-21489D01*
X36718Y-20790D01*
X36686Y-20755D01*
X36670Y-20736D01*
X36656Y-20716D01*
X36644Y-20697D01*
X36634Y-20679D01*
X36626Y-20662D01*
X36620Y-20646D01*
X36616Y-20630D01*
X36613Y-20611D01*
X36610Y-20605D01*
X36605Y-20564D01*
X36561Y-20458D01*
X36491Y-20367D01*
X36400Y-20298D01*
X36295Y-20254D01*
X36181Y-20239D01*
X36068Y-20254D01*
X35962Y-20298D01*
X35929Y-20323D01*
X35923Y-20325D01*
X35907Y-20336D01*
X35893Y-20344D01*
X35877Y-20352D01*
X35859Y-20358D01*
X35840Y-20364D01*
X35818Y-20369D01*
X35795Y-20373D01*
X35739Y-20378D01*
X35738Y-20378D01*
X34778D01*
X30614Y-16215D01*
Y-12008D01*
X30604Y-11930D01*
X30574Y-11858D01*
X30527Y-11796D01*
X29433Y-10703D01*
Y-5512D01*
X29423Y-5434D01*
X29393Y-5362D01*
X29346Y-5300D01*
X28630Y-4585D01*
X28632Y-4546D01*
X28635Y-4521D01*
X28639Y-4497D01*
X28644Y-4475D01*
X28650Y-4456D01*
X28656Y-4438D01*
X28664Y-4422D01*
X28671Y-4408D01*
X28682Y-4392D01*
X28685Y-4386D01*
X28710Y-4353D01*
X28754Y-4247D01*
X28769Y-4134D01*
X28754Y-4020D01*
X28710Y-3915D01*
X28641Y-3824D01*
X28550Y-3754D01*
X28444Y-3710D01*
X28331Y-3695D01*
D02*
G37*
G36*
X5353Y-5365D02*
X4971D01*
Y-5747D01*
X5035Y-5738D01*
X5140Y-5695D01*
X5231Y-5625D01*
X5301Y-5534D01*
X5345Y-5428D01*
X5353Y-5365D01*
D02*
G37*
G36*
X4871D02*
X4489D01*
X4498Y-5428D01*
X4542Y-5534D01*
X4611Y-5625D01*
X4702Y-5695D01*
X4808Y-5738D01*
X4871Y-5747D01*
Y-5365D01*
D02*
G37*
G36*
X4356Y-4880D02*
X3487D01*
Y-5750D01*
X4356D01*
Y-4880D01*
D02*
G37*
G36*
X36039Y-3695D02*
X35926Y-3710D01*
X35820Y-3754D01*
X35729Y-3824D01*
X35660Y-3915D01*
X35616Y-4020D01*
X35601Y-4134D01*
X35616Y-4247D01*
X35660Y-4353D01*
X35729Y-4444D01*
X35820Y-4514D01*
X35841Y-4522D01*
X35852Y-4581D01*
X35896Y-4647D01*
X36449Y-5200D01*
X36452Y-5204D01*
X36459Y-5217D01*
X36477Y-5264D01*
X36485Y-5290D01*
X36509Y-5408D01*
X36517Y-5454D01*
X36520Y-5462D01*
X36525Y-5502D01*
X36567Y-5603D01*
X36633Y-5690D01*
X36720Y-5756D01*
X36821Y-5798D01*
X36929Y-5812D01*
X37037Y-5798D01*
X37138Y-5756D01*
X37225Y-5690D01*
X37292Y-5603D01*
X37333Y-5502D01*
X37348Y-5394D01*
X37333Y-5285D01*
X37292Y-5184D01*
X37225Y-5098D01*
X37138Y-5031D01*
X37037Y-4989D01*
X36998Y-4984D01*
X36990Y-4981D01*
X36899Y-4966D01*
X36862Y-4958D01*
X36797Y-4941D01*
X36774Y-4932D01*
X36754Y-4924D01*
X36739Y-4916D01*
X36735Y-4914D01*
X36329Y-4507D01*
X36332Y-4457D01*
X36349Y-4444D01*
X36419Y-4353D01*
X36463Y-4247D01*
X36478Y-4134D01*
X36463Y-4020D01*
X36419Y-3915D01*
X36349Y-3824D01*
X36259Y-3754D01*
X36153Y-3710D01*
X36039Y-3695D01*
D02*
G37*
G36*
X35039D02*
X34926Y-3710D01*
X34820Y-3754D01*
X34729Y-3824D01*
X34660Y-3915D01*
X34616Y-4020D01*
X34601Y-4134D01*
X34616Y-4247D01*
X34660Y-4353D01*
X34686Y-4387D01*
X34690Y-4395D01*
X34721Y-4437D01*
X34772Y-4513D01*
X34809Y-4576D01*
X34821Y-4601D01*
X34830Y-4622D01*
X34836Y-4639D01*
X34837Y-4644D01*
Y-4687D01*
X34852Y-4764D01*
X34896Y-4830D01*
X35004Y-4938D01*
X34984Y-4983D01*
X34971Y-5006D01*
X34906Y-5107D01*
X34879Y-5144D01*
X34875Y-5152D01*
X34850Y-5184D01*
X34808Y-5285D01*
X34794Y-5394D01*
X34808Y-5502D01*
X34850Y-5603D01*
X34917Y-5690D01*
X35003Y-5756D01*
X35104Y-5798D01*
X35213Y-5812D01*
X35321Y-5798D01*
X35422Y-5756D01*
X35509Y-5690D01*
X35575Y-5603D01*
X35617Y-5502D01*
X35631Y-5394D01*
X35617Y-5285D01*
X35575Y-5184D01*
X35551Y-5153D01*
X35547Y-5145D01*
X35493Y-5070D01*
X35473Y-5039D01*
X35440Y-4980D01*
X35429Y-4958D01*
X35421Y-4938D01*
X35416Y-4922D01*
X35415Y-4917D01*
Y-4860D01*
X35400Y-4783D01*
X35356Y-4717D01*
X35252Y-4613D01*
X35258Y-4601D01*
X35269Y-4578D01*
X35359Y-4436D01*
X35389Y-4395D01*
X35393Y-4387D01*
X35419Y-4353D01*
X35463Y-4247D01*
X35478Y-4134D01*
X35463Y-4020D01*
X35419Y-3915D01*
X35349Y-3824D01*
X35259Y-3754D01*
X35153Y-3710D01*
X35039Y-3695D01*
D02*
G37*
G36*
X34039D02*
X33926Y-3710D01*
X33820Y-3754D01*
X33729Y-3824D01*
X33660Y-3915D01*
X33616Y-4020D01*
X33601Y-4134D01*
X33616Y-4247D01*
X33660Y-4353D01*
X33686Y-4387D01*
X33690Y-4395D01*
X33721Y-4437D01*
X33772Y-4513D01*
X33809Y-4576D01*
X33821Y-4601D01*
X33830Y-4622D01*
X33836Y-4639D01*
X33837Y-4644D01*
Y-4767D01*
X33690Y-4914D01*
X33686Y-4916D01*
X33673Y-4923D01*
X33625Y-4942D01*
X33599Y-4949D01*
X33482Y-4974D01*
X33436Y-4981D01*
X33428Y-4984D01*
X33388Y-4989D01*
X33287Y-5031D01*
X33200Y-5098D01*
X33134Y-5184D01*
X33092Y-5285D01*
X33078Y-5394D01*
X33092Y-5502D01*
X33134Y-5603D01*
X33200Y-5690D01*
X33287Y-5756D01*
X33388Y-5798D01*
X33496Y-5812D01*
X33604Y-5798D01*
X33705Y-5756D01*
X33792Y-5690D01*
X33859Y-5603D01*
X33900Y-5502D01*
X33906Y-5463D01*
X33908Y-5455D01*
X33924Y-5363D01*
X33931Y-5327D01*
X33949Y-5262D01*
X33957Y-5238D01*
X33966Y-5219D01*
X33973Y-5204D01*
X33976Y-5200D01*
X34182Y-4993D01*
X34226Y-4928D01*
X34242Y-4850D01*
Y-4644D01*
X34243Y-4639D01*
X34249Y-4622D01*
X34258Y-4601D01*
X34269Y-4578D01*
X34359Y-4436D01*
X34389Y-4395D01*
X34393Y-4387D01*
X34419Y-4353D01*
X34463Y-4247D01*
X34478Y-4134D01*
X34463Y-4020D01*
X34419Y-3915D01*
X34349Y-3824D01*
X34259Y-3754D01*
X34153Y-3710D01*
X34039Y-3695D01*
D02*
G37*
G36*
X31780Y-4975D02*
X31671Y-4989D01*
X31570Y-5031D01*
X31484Y-5098D01*
X31417Y-5184D01*
X31375Y-5285D01*
X31361Y-5394D01*
X31375Y-5502D01*
X31417Y-5603D01*
X31484Y-5690D01*
X31570Y-5756D01*
X31671Y-5798D01*
X31780Y-5812D01*
X31888Y-5798D01*
X31989Y-5756D01*
X32075Y-5690D01*
X32142Y-5603D01*
X32184Y-5502D01*
X32198Y-5394D01*
X32184Y-5285D01*
X32142Y-5184D01*
X32075Y-5098D01*
X31989Y-5031D01*
X31888Y-4989D01*
X31780Y-4975D01*
D02*
G37*
G36*
X29765Y-3699D02*
X28896D01*
Y-4569D01*
X29119D01*
X29120Y-4571D01*
X29124Y-4585D01*
X29127Y-4606D01*
X29128Y-4621D01*
Y-4756D01*
X29144Y-4833D01*
X29188Y-4899D01*
X29625Y-5337D01*
X29619Y-5358D01*
X29566Y-5486D01*
X29561Y-5497D01*
X29559Y-5499D01*
X29555Y-5510D01*
X29549Y-5522D01*
X29547Y-5528D01*
X29517Y-5600D01*
X29503Y-5709D01*
X29517Y-5817D01*
X29559Y-5918D01*
X29625Y-6005D01*
X29712Y-6071D01*
X29813Y-6113D01*
X29921Y-6127D01*
X30030Y-6113D01*
X30131Y-6071D01*
X30217Y-6005D01*
X30284Y-5918D01*
X30326Y-5817D01*
X30340Y-5709D01*
X30326Y-5600D01*
X30284Y-5499D01*
X30217Y-5413D01*
X30156Y-5366D01*
X30152Y-5361D01*
X30132Y-5348D01*
X30131Y-5346D01*
X30130Y-5346D01*
X30099Y-5324D01*
X30080Y-5309D01*
X30065Y-5294D01*
X30053Y-5282D01*
X30045Y-5272D01*
X30041Y-5265D01*
X30041Y-5265D01*
Y-5264D01*
X30025Y-5186D01*
X29981Y-5121D01*
X29533Y-4672D01*
Y-4621D01*
X29534Y-4606D01*
X29538Y-4585D01*
X29542Y-4571D01*
X29543Y-4569D01*
X29765D01*
Y-3699D01*
D02*
G37*
G36*
X8941Y-5527D02*
X8838Y-5541D01*
X8742Y-5581D01*
X8659Y-5644D01*
X8596Y-5727D01*
X8556Y-5823D01*
X8543Y-5926D01*
X8556Y-6029D01*
X8596Y-6125D01*
X8659Y-6208D01*
X8742Y-6271D01*
X8838Y-6311D01*
X8941Y-6325D01*
X9045Y-6311D01*
X9141Y-6271D01*
X9223Y-6208D01*
X9287Y-6125D01*
X9326Y-6029D01*
X9340Y-5926D01*
X9326Y-5823D01*
X9287Y-5727D01*
X9223Y-5644D01*
X9141Y-5581D01*
X9045Y-5541D01*
X8941Y-5527D01*
D02*
G37*
G36*
X9941Y-6527D02*
X9838Y-6541D01*
X9742Y-6581D01*
X9659Y-6644D01*
X9596Y-6727D01*
X9556Y-6823D01*
X9543Y-6926D01*
X9556Y-7029D01*
X9596Y-7125D01*
X9638Y-7180D01*
X9613Y-7230D01*
X9520D01*
X9394Y-7104D01*
X9392Y-7101D01*
X9385Y-7088D01*
X9377Y-7070D01*
X9370Y-7048D01*
X9362Y-7023D01*
X9341Y-6917D01*
X9335Y-6875D01*
X9332Y-6866D01*
X9326Y-6823D01*
X9287Y-6727D01*
X9223Y-6644D01*
X9141Y-6581D01*
X9045Y-6541D01*
X8941Y-6527D01*
X8838Y-6541D01*
X8742Y-6581D01*
X8659Y-6644D01*
X8596Y-6727D01*
X8556Y-6823D01*
X8543Y-6926D01*
X8556Y-7029D01*
X8596Y-7125D01*
X8659Y-7208D01*
X8742Y-7271D01*
X8838Y-7311D01*
X8870Y-7315D01*
X8876Y-7318D01*
X8956Y-7333D01*
X9020Y-7349D01*
X9045Y-7357D01*
X9067Y-7366D01*
X9085Y-7374D01*
X9099Y-7382D01*
X9103Y-7385D01*
X9293Y-7575D01*
X9359Y-7619D01*
X9436Y-7635D01*
X9604D01*
X9628Y-7685D01*
X9596Y-7727D01*
X9556Y-7823D01*
X9543Y-7926D01*
X9556Y-8029D01*
X9596Y-8125D01*
X9659Y-8208D01*
X9742Y-8271D01*
X9838Y-8311D01*
X9941Y-8325D01*
X10045Y-8311D01*
X10141Y-8271D01*
X10223Y-8208D01*
X10287Y-8125D01*
X10326Y-8029D01*
X10338Y-7939D01*
X10385Y-7915D01*
X10530Y-8060D01*
Y-12163D01*
X10483Y-12182D01*
X10397Y-12096D01*
X10395Y-12092D01*
X10387Y-12079D01*
X10379Y-12061D01*
X10371Y-12039D01*
X10364Y-12014D01*
X10341Y-11909D01*
X10334Y-11869D01*
X10331Y-11860D01*
X10326Y-11823D01*
X10287Y-11727D01*
X10223Y-11644D01*
X10141Y-11581D01*
X10045Y-11541D01*
X9941Y-11527D01*
X9838Y-11541D01*
X9742Y-11581D01*
X9687Y-11623D01*
X9637Y-11598D01*
Y-11516D01*
X9772Y-11382D01*
X9775Y-11379D01*
X9789Y-11372D01*
X9807Y-11364D01*
X9829Y-11356D01*
X9853Y-11348D01*
X9958Y-11325D01*
X9999Y-11319D01*
X10007Y-11316D01*
X10045Y-11311D01*
X10141Y-11271D01*
X10223Y-11208D01*
X10287Y-11125D01*
X10326Y-11029D01*
X10340Y-10926D01*
X10326Y-10823D01*
X10287Y-10727D01*
X10223Y-10644D01*
X10141Y-10581D01*
X10045Y-10541D01*
X9941Y-10527D01*
X9838Y-10541D01*
X9742Y-10581D01*
X9659Y-10644D01*
X9596Y-10727D01*
X9556Y-10823D01*
X9551Y-10860D01*
X9548Y-10867D01*
X9535Y-10948D01*
X9519Y-11013D01*
X9511Y-11039D01*
X9503Y-11061D01*
X9495Y-11079D01*
X9488Y-11092D01*
X9485Y-11096D01*
X9292Y-11289D01*
X9248Y-11355D01*
X9233Y-11432D01*
Y-11588D01*
X9183Y-11613D01*
X9141Y-11581D01*
X9045Y-11541D01*
X8941Y-11527D01*
X8838Y-11541D01*
X8742Y-11581D01*
X8659Y-11644D01*
X8596Y-11727D01*
X8556Y-11823D01*
X8543Y-11926D01*
X8556Y-12029D01*
X8596Y-12125D01*
X8659Y-12208D01*
X8742Y-12271D01*
X8838Y-12311D01*
X8941Y-12325D01*
X9045Y-12311D01*
X9141Y-12271D01*
X9183Y-12239D01*
X9233Y-12264D01*
Y-12588D01*
X9183Y-12613D01*
X9141Y-12581D01*
X9045Y-12541D01*
X8941Y-12527D01*
X8838Y-12541D01*
X8742Y-12581D01*
X8659Y-12644D01*
X8596Y-12727D01*
X8556Y-12823D01*
X8543Y-12926D01*
X8556Y-13029D01*
X8596Y-13125D01*
X8659Y-13208D01*
X8742Y-13271D01*
X8838Y-13311D01*
X8891Y-13318D01*
X8907Y-13356D01*
X8910Y-13371D01*
X8868Y-13433D01*
X8853Y-13510D01*
Y-19685D01*
X8858Y-19710D01*
X8818Y-19767D01*
X8808Y-19768D01*
X8273Y-19234D01*
Y-11880D01*
X8772Y-11382D01*
X8775Y-11379D01*
X8789Y-11372D01*
X8807Y-11364D01*
X8829Y-11356D01*
X8853Y-11348D01*
X8958Y-11325D01*
X8999Y-11319D01*
X9007Y-11316D01*
X9045Y-11311D01*
X9141Y-11271D01*
X9223Y-11208D01*
X9287Y-11125D01*
X9326Y-11029D01*
X9340Y-10926D01*
X9326Y-10823D01*
X9287Y-10727D01*
X9223Y-10644D01*
X9141Y-10581D01*
X9045Y-10541D01*
X8941Y-10527D01*
X8838Y-10541D01*
X8742Y-10581D01*
X8659Y-10644D01*
X8596Y-10727D01*
X8556Y-10823D01*
X8551Y-10860D01*
X8548Y-10867D01*
X8535Y-10948D01*
X8519Y-11013D01*
X8511Y-11039D01*
X8503Y-11061D01*
X8495Y-11079D01*
X8488Y-11092D01*
X8485Y-11096D01*
X7928Y-11653D01*
X7884Y-11719D01*
X7869Y-11796D01*
Y-19317D01*
X7884Y-19395D01*
X7928Y-19461D01*
X9640Y-21173D01*
Y-22866D01*
X9640Y-22868D01*
X9637Y-22881D01*
X9632Y-22896D01*
X9625Y-22912D01*
X9617Y-22930D01*
X9607Y-22949D01*
X9578Y-22994D01*
X9560Y-23018D01*
X9556Y-23026D01*
X9537Y-23052D01*
X9502Y-23137D01*
X9489Y-23228D01*
X9502Y-23320D01*
X9537Y-23405D01*
X9593Y-23478D01*
X9666Y-23534D01*
X9751Y-23569D01*
X9843Y-23581D01*
X9934Y-23569D01*
X10019Y-23534D01*
X10092Y-23478D01*
X10148Y-23405D01*
X10184Y-23320D01*
X10196Y-23228D01*
X10184Y-23137D01*
X10148Y-23052D01*
X10129Y-23026D01*
X10125Y-23018D01*
X10107Y-22994D01*
X10078Y-22949D01*
X10068Y-22930D01*
X10060Y-22912D01*
X10053Y-22896D01*
X10048Y-22881D01*
X10045Y-22868D01*
X10045Y-22866D01*
Y-21089D01*
X10040Y-21064D01*
X10079Y-21007D01*
X10090Y-21006D01*
X10428Y-21344D01*
Y-26294D01*
X8912Y-27810D01*
X8868Y-27875D01*
X8853Y-27953D01*
Y-28254D01*
X8852Y-28268D01*
X8848Y-28289D01*
X8844Y-28304D01*
X8844Y-28306D01*
X8620D01*
Y-29175D01*
X9490D01*
Y-28306D01*
X9267D01*
X9266Y-28304D01*
X9262Y-28289D01*
X9259Y-28268D01*
X9257Y-28254D01*
Y-28037D01*
X10447Y-26847D01*
X10495Y-26870D01*
X10487Y-26929D01*
X10501Y-27037D01*
X10543Y-27138D01*
X10610Y-27225D01*
X10696Y-27292D01*
X10797Y-27333D01*
X10906Y-27348D01*
X11014Y-27333D01*
X11115Y-27292D01*
X11201Y-27225D01*
X11220Y-27201D01*
X11267Y-27217D01*
Y-28198D01*
X9883Y-29582D01*
X7087D01*
X7087Y-29582D01*
X7043Y-29588D01*
X6999Y-29594D01*
X6917Y-29628D01*
X6847Y-29681D01*
X5154Y-31374D01*
X5092Y-31368D01*
X4473Y-30749D01*
Y-28688D01*
X4473Y-28688D01*
X4480Y-28542D01*
X4487Y-28486D01*
X4494Y-28441D01*
X4502Y-28408D01*
X4504Y-28403D01*
X4569D01*
Y-28306D01*
X4569Y-28302D01*
X4569Y-28298D01*
Y-28019D01*
X4134D01*
Y-27968D01*
X3800Y-28302D01*
X4467D01*
X4449Y-28307D01*
X4432Y-28321D01*
X4418Y-28344D01*
X4405Y-28378D01*
X4394Y-28420D01*
X4386Y-28472D01*
X4379Y-28533D01*
X4371Y-28685D01*
X4370Y-28774D01*
X3898D01*
X3897Y-28685D01*
X3882Y-28472D01*
X3873Y-28420D01*
X3863Y-28378D01*
X3850Y-28344D01*
X3835Y-28321D01*
X3819Y-28307D01*
X3800Y-28302D01*
X3797Y-28235D01*
X3787Y-28169D01*
X3770Y-28102D01*
X3747Y-28035D01*
X3717Y-27969D01*
X3680Y-27902D01*
X3637Y-27835D01*
X3587Y-27769D01*
X3530Y-27702D01*
X3466Y-27635D01*
X3800Y-27301D01*
X3867Y-27364D01*
X3934Y-27421D01*
X4001Y-27471D01*
X4067Y-27515D01*
X4134Y-27552D01*
X4201Y-27582D01*
X4268Y-27605D01*
X4334Y-27622D01*
X4401Y-27632D01*
X4467Y-27635D01*
X4184Y-27919D01*
X4569D01*
Y-27643D01*
X4569Y-27640D01*
X4569Y-27638D01*
X4569Y-27635D01*
X4569Y-27631D01*
Y-27534D01*
X4475D01*
X4472Y-27533D01*
X4411Y-27530D01*
X4354Y-27522D01*
X4297Y-27507D01*
X4239Y-27487D01*
X4180Y-27460D01*
X4167Y-27453D01*
X4176Y-27401D01*
X4247Y-27392D01*
X4353Y-27348D01*
X4444Y-27278D01*
X4514Y-27188D01*
X4557Y-27082D01*
X4572Y-26969D01*
X4557Y-26855D01*
X4514Y-26749D01*
X4444Y-26659D01*
X4353Y-26589D01*
X4247Y-26545D01*
X4134Y-26530D01*
X4020Y-26545D01*
X3915Y-26589D01*
X3824Y-26659D01*
X3754Y-26749D01*
X3710Y-26855D01*
X3695Y-26969D01*
X3698Y-26986D01*
X3653Y-27008D01*
X3292Y-26647D01*
Y-23172D01*
X3636Y-22828D01*
X3682Y-22847D01*
Y-23482D01*
X4552D01*
Y-22613D01*
X3917D01*
X3897Y-22566D01*
X3921Y-22543D01*
X3940Y-22527D01*
X3959Y-22514D01*
X3977Y-22503D01*
X3994Y-22494D01*
X4010Y-22488D01*
X4026Y-22484D01*
X4041Y-22482D01*
X4056Y-22481D01*
X4067Y-22481D01*
Y-22379D01*
X4056Y-22379D01*
X4030Y-22380D01*
X4005Y-22384D01*
X3979Y-22391D01*
X3954Y-22401D01*
X3928Y-22413D01*
X3903Y-22428D01*
X3878Y-22446D01*
X3853Y-22467D01*
X3828Y-22490D01*
X3499Y-22151D01*
X3807Y-21922D01*
X4067Y-22355D01*
Y-22047D01*
Y-21615D01*
X4003Y-21624D01*
X3898Y-21668D01*
X3807Y-21737D01*
X3782Y-21769D01*
X3730Y-21791D01*
X3660Y-21845D01*
X2713Y-22792D01*
X2713Y-22792D01*
X2659Y-22862D01*
X2643Y-22902D01*
X2625Y-22944D01*
X2614Y-23031D01*
Y-26787D01*
X2625Y-26875D01*
X2639Y-26909D01*
X2659Y-26957D01*
X2713Y-27027D01*
X3419Y-27733D01*
X3454Y-27770D01*
X3507Y-27832D01*
X3553Y-27894D01*
X3593Y-27955D01*
X3626Y-28014D01*
X3652Y-28073D01*
X3673Y-28131D01*
X3687Y-28189D01*
X3695Y-28246D01*
X3699Y-28307D01*
X3699Y-28310D01*
Y-28403D01*
X3763D01*
X3765Y-28408D01*
X3773Y-28441D01*
X3781Y-28484D01*
X3795Y-28689D01*
Y-30890D01*
X3806Y-30978D01*
X3820Y-31011D01*
X3840Y-31059D01*
X3894Y-31130D01*
X4629Y-31865D01*
X4680Y-31918D01*
X4704Y-31945D01*
X4710Y-31953D01*
X4714Y-31982D01*
X4756Y-32083D01*
X4822Y-32170D01*
X4909Y-32236D01*
X5010Y-32278D01*
X5068Y-32286D01*
Y-31874D01*
X5168D01*
Y-32286D01*
X5226Y-32278D01*
X5327Y-32236D01*
X5414Y-32170D01*
X5481Y-32083D01*
X5522Y-31982D01*
X5524Y-31973D01*
X5623Y-31864D01*
X6626Y-30861D01*
X6671Y-30883D01*
X6668Y-30906D01*
X6682Y-31014D01*
X6724Y-31115D01*
X6791Y-31201D01*
X6877Y-31268D01*
X6978Y-31310D01*
X7087Y-31324D01*
X7195Y-31310D01*
X7296Y-31268D01*
X7383Y-31201D01*
X7449Y-31115D01*
X7491Y-31014D01*
X7505Y-30906D01*
X7491Y-30797D01*
X7449Y-30696D01*
X7383Y-30610D01*
X7296Y-30543D01*
X7195Y-30501D01*
X7087Y-30487D01*
X7065Y-30490D01*
X7042Y-30445D01*
X7227Y-30260D01*
X10024D01*
X10111Y-30249D01*
X10145Y-30235D01*
X10193Y-30215D01*
X10263Y-30161D01*
X11846Y-28578D01*
X11900Y-28508D01*
X11920Y-28460D01*
X11934Y-28426D01*
X11945Y-28339D01*
Y-26074D01*
X11945Y-26074D01*
X11953Y-25928D01*
X11959Y-25872D01*
X11967Y-25827D01*
X11975Y-25794D01*
X11977Y-25789D01*
X12041D01*
Y-25692D01*
X12042Y-25688D01*
X12041Y-25684D01*
Y-25404D01*
X11606D01*
Y-25354D01*
D01*
Y-25404D01*
X11172D01*
Y-25684D01*
X11171Y-25688D01*
X11172Y-25692D01*
Y-25789D01*
X11236D01*
X11238Y-25794D01*
X11246Y-25827D01*
X11253Y-25870D01*
X11267Y-26074D01*
Y-26641D01*
X11220Y-26657D01*
X11201Y-26633D01*
X11115Y-26567D01*
X11014Y-26525D01*
X10906Y-26511D01*
X10834Y-26520D01*
X10805Y-26473D01*
X10817Y-26455D01*
X10832Y-26378D01*
Y-21952D01*
X10879Y-21942D01*
X10915Y-22027D01*
X10971Y-22100D01*
X11044Y-22156D01*
X11129Y-22191D01*
X11220Y-22203D01*
X11312Y-22191D01*
X11397Y-22156D01*
X11470Y-22100D01*
X11526Y-22027D01*
X11561Y-21942D01*
X11573Y-21850D01*
X11561Y-21759D01*
X11526Y-21674D01*
X11507Y-21648D01*
X11503Y-21640D01*
X11485Y-21616D01*
X11456Y-21571D01*
X11446Y-21552D01*
X11438Y-21534D01*
X11431Y-21518D01*
X11426Y-21503D01*
X11423Y-21490D01*
X11423Y-21488D01*
Y-21394D01*
X11469Y-21375D01*
X11712Y-21618D01*
Y-22246D01*
X11712Y-22248D01*
X11709Y-22261D01*
X11704Y-22276D01*
X11697Y-22292D01*
X11689Y-22310D01*
X11679Y-22329D01*
X11650Y-22374D01*
X11632Y-22398D01*
X11628Y-22406D01*
X11609Y-22432D01*
X11574Y-22517D01*
X11561Y-22608D01*
X11574Y-22700D01*
X11609Y-22785D01*
X11665Y-22858D01*
X11738Y-22914D01*
X11823Y-22949D01*
X11915Y-22961D01*
X12006Y-22949D01*
X12091Y-22914D01*
X12164Y-22858D01*
X12220Y-22785D01*
X12249Y-22715D01*
X12299Y-22725D01*
Y-24919D01*
X12294Y-24976D01*
X12291Y-24999D01*
X12286Y-25021D01*
X12281Y-25040D01*
X12274Y-25058D01*
X12268Y-25073D01*
X12261Y-25086D01*
X12251Y-25101D01*
X12248Y-25107D01*
X12227Y-25135D01*
X12183Y-25241D01*
X12168Y-25354D01*
X12183Y-25468D01*
X12227Y-25574D01*
X12252Y-25606D01*
X12255Y-25613D01*
X12266Y-25629D01*
X12273Y-25643D01*
X12281Y-25659D01*
X12287Y-25676D01*
X12293Y-25696D01*
X12298Y-25718D01*
X12302Y-25740D01*
X12307Y-25797D01*
X12307Y-25797D01*
Y-29899D01*
X12317Y-29976D01*
X12347Y-30049D01*
X12395Y-30111D01*
X12858Y-30574D01*
Y-32306D01*
X12857Y-32354D01*
X12852Y-32414D01*
X12843Y-32464D01*
X12832Y-32505D01*
X12820Y-32535D01*
X12808Y-32555D01*
X12798Y-32566D01*
X12789Y-32572D01*
X12779Y-32575D01*
X12763Y-32577D01*
X12467D01*
Y-33958D01*
X13848D01*
Y-32577D01*
X13552D01*
X13536Y-32575D01*
X13526Y-32572D01*
X13517Y-32566D01*
X13507Y-32555D01*
X13495Y-32535D01*
X13483Y-32505D01*
X13472Y-32464D01*
X13463Y-32414D01*
X13458Y-32354D01*
X13457Y-32306D01*
Y-30450D01*
X13447Y-30373D01*
X13429Y-30330D01*
X13417Y-30300D01*
X13369Y-30238D01*
X12906Y-29775D01*
Y-25814D01*
X12908Y-25766D01*
X12911Y-25742D01*
X12915Y-25718D01*
X12920Y-25696D01*
X12925Y-25676D01*
X12932Y-25659D01*
X12939Y-25643D01*
X12947Y-25629D01*
X12958Y-25613D01*
X12961Y-25606D01*
X12986Y-25574D01*
X13030Y-25468D01*
X13045Y-25354D01*
X13030Y-25241D01*
X12986Y-25135D01*
X12957Y-25098D01*
X12954Y-25091D01*
X12942Y-25074D01*
X12934Y-25059D01*
X12926Y-25043D01*
X12919Y-25025D01*
X12912Y-25005D01*
X12907Y-24984D01*
X12903Y-24961D01*
X12898Y-24906D01*
X12898Y-24903D01*
Y-20820D01*
X12900Y-20773D01*
X12903Y-20749D01*
X12907Y-20725D01*
X12912Y-20703D01*
X12919Y-20684D01*
X12926Y-20666D01*
X12934Y-20650D01*
X12942Y-20635D01*
X12954Y-20618D01*
X12957Y-20611D01*
X12986Y-20574D01*
X13030Y-20468D01*
X13045Y-20354D01*
X13030Y-20241D01*
X12986Y-20135D01*
X12961Y-20102D01*
X12958Y-20096D01*
X12947Y-20080D01*
X12939Y-20066D01*
X12932Y-20050D01*
X12925Y-20032D01*
X12920Y-20013D01*
X12915Y-19991D01*
X12911Y-19968D01*
X12906Y-19912D01*
X12906Y-19911D01*
Y-19782D01*
X12914Y-19722D01*
Y-19430D01*
X12915Y-19373D01*
X12918Y-19335D01*
X12920Y-19323D01*
X12922Y-19314D01*
X12923Y-19311D01*
X12923Y-19309D01*
X12924Y-19308D01*
X12942Y-19284D01*
X12980Y-19193D01*
X12993Y-19094D01*
X12980Y-18996D01*
X12942Y-18905D01*
X12882Y-18827D01*
X12804Y-18766D01*
X12712Y-18729D01*
X12614Y-18716D01*
X12516Y-18729D01*
X12425Y-18766D01*
X12346Y-18827D01*
X12286Y-18905D01*
X12248Y-18996D01*
X12235Y-19094D01*
X12248Y-19193D01*
X12286Y-19284D01*
X12305Y-19308D01*
X12305Y-19309D01*
X12306Y-19311D01*
X12307Y-19314D01*
X12308Y-19319D01*
X12315Y-19420D01*
Y-19670D01*
X12307Y-19730D01*
Y-19895D01*
X12305Y-19942D01*
X12302Y-19967D01*
X12298Y-19991D01*
X12293Y-20013D01*
X12287Y-20032D01*
X12281Y-20050D01*
X12273Y-20066D01*
X12266Y-20080D01*
X12255Y-20096D01*
X12252Y-20102D01*
X12227Y-20135D01*
X12183Y-20241D01*
X12168Y-20354D01*
X12183Y-20468D01*
X12227Y-20574D01*
X12248Y-20602D01*
X12251Y-20607D01*
X12261Y-20623D01*
X12268Y-20636D01*
X12274Y-20651D01*
X12281Y-20668D01*
X12286Y-20688D01*
X12291Y-20710D01*
X12294Y-20733D01*
X12299Y-20790D01*
Y-22491D01*
X12249Y-22501D01*
X12220Y-22432D01*
X12201Y-22406D01*
X12197Y-22398D01*
X12179Y-22374D01*
X12150Y-22329D01*
X12140Y-22310D01*
X12132Y-22292D01*
X12125Y-22276D01*
X12120Y-22261D01*
X12117Y-22248D01*
X12117Y-22246D01*
Y-21534D01*
X12101Y-21457D01*
X12058Y-21391D01*
X11495Y-20828D01*
X11518Y-20781D01*
X11556Y-20786D01*
Y-20404D01*
X11174D01*
X11179Y-20442D01*
X11132Y-20466D01*
X10934Y-20268D01*
Y-7976D01*
X10919Y-7899D01*
X10875Y-7833D01*
X10331Y-7289D01*
X10266Y-7245D01*
X10255Y-7243D01*
X10238Y-7189D01*
X10287Y-7125D01*
X10326Y-7029D01*
X10340Y-6926D01*
X10326Y-6823D01*
X10287Y-6727D01*
X10223Y-6644D01*
X10141Y-6581D01*
X10045Y-6541D01*
X9941Y-6527D01*
D02*
G37*
G36*
X8941Y-7527D02*
X8838Y-7541D01*
X8742Y-7581D01*
X8659Y-7644D01*
X8596Y-7727D01*
X8556Y-7823D01*
X8543Y-7926D01*
X8556Y-8029D01*
X8596Y-8125D01*
X8659Y-8208D01*
X8742Y-8271D01*
X8838Y-8311D01*
X8941Y-8325D01*
X9045Y-8311D01*
X9141Y-8271D01*
X9223Y-8208D01*
X9287Y-8125D01*
X9326Y-8029D01*
X9340Y-7926D01*
X9326Y-7823D01*
X9287Y-7727D01*
X9223Y-7644D01*
X9141Y-7581D01*
X9045Y-7541D01*
X8941Y-7527D01*
D02*
G37*
G36*
X13189Y-8112D02*
X13098Y-8124D01*
X13012Y-8159D01*
X12939Y-8215D01*
X12883Y-8288D01*
X12848Y-8373D01*
X12836Y-8465D01*
X12842Y-8511D01*
X12837Y-8520D01*
X12796Y-8546D01*
X12780Y-8538D01*
X12779Y-8535D01*
X12772Y-8516D01*
X12766Y-8495D01*
X12754Y-8443D01*
X12750Y-8413D01*
X12747Y-8405D01*
X12743Y-8373D01*
X12707Y-8288D01*
X12651Y-8215D01*
X12578Y-8159D01*
X12493Y-8124D01*
X12402Y-8112D01*
X12310Y-8124D01*
X12225Y-8159D01*
X12152Y-8215D01*
X12096Y-8288D01*
X12061Y-8373D01*
X12049Y-8465D01*
X12061Y-8556D01*
X12096Y-8641D01*
X12152Y-8714D01*
X12225Y-8770D01*
X12310Y-8806D01*
X12342Y-8810D01*
X12350Y-8813D01*
X12380Y-8817D01*
X12432Y-8829D01*
X12453Y-8835D01*
X12472Y-8842D01*
X12488Y-8849D01*
X12502Y-8856D01*
X12513Y-8862D01*
X12515Y-8864D01*
X14431Y-10780D01*
Y-17586D01*
X14447Y-17664D01*
X14491Y-17729D01*
X16626Y-19865D01*
X16626Y-19865D01*
X16602Y-19911D01*
X16528Y-19897D01*
X16457Y-19879D01*
X16431Y-19870D01*
X16409Y-19861D01*
X16393Y-19853D01*
X16388Y-19850D01*
X13194Y-16656D01*
Y-12764D01*
X13195Y-12762D01*
X13198Y-12749D01*
X13203Y-12734D01*
X13209Y-12718D01*
X13218Y-12700D01*
X13228Y-12681D01*
X13257Y-12636D01*
X13275Y-12612D01*
X13278Y-12604D01*
X13298Y-12578D01*
X13333Y-12493D01*
X13345Y-12402D01*
X13333Y-12310D01*
X13298Y-12225D01*
X13242Y-12152D01*
X13169Y-12096D01*
X13083Y-12061D01*
X12992Y-12049D01*
X12901Y-12061D01*
X12816Y-12096D01*
X12743Y-12152D01*
X12686Y-12225D01*
X12651Y-12310D01*
X12604Y-12300D01*
Y-11779D01*
X12604Y-11777D01*
X12607Y-11765D01*
X12612Y-11750D01*
X12619Y-11734D01*
X12627Y-11715D01*
X12638Y-11697D01*
X12667Y-11651D01*
X12684Y-11627D01*
X12688Y-11619D01*
X12707Y-11594D01*
X12743Y-11509D01*
X12755Y-11417D01*
X12743Y-11326D01*
X12707Y-11241D01*
X12651Y-11168D01*
X12578Y-11112D01*
X12493Y-11076D01*
X12402Y-11064D01*
X12310Y-11076D01*
X12225Y-11112D01*
X12152Y-11168D01*
X12096Y-11241D01*
X12061Y-11326D01*
X12049Y-11417D01*
X12061Y-11509D01*
X12096Y-11594D01*
X12116Y-11619D01*
X12119Y-11627D01*
X12137Y-11651D01*
X12166Y-11697D01*
X12176Y-11715D01*
X12184Y-11734D01*
X12191Y-11750D01*
X12196Y-11765D01*
X12199Y-11777D01*
X12199Y-11779D01*
Y-17150D01*
X12215Y-17227D01*
X12259Y-17293D01*
X15102Y-20136D01*
X15105Y-20141D01*
X15113Y-20157D01*
X15122Y-20179D01*
X15130Y-20203D01*
X15167Y-20367D01*
X15174Y-20417D01*
X15177Y-20425D01*
X15183Y-20468D01*
X15227Y-20574D01*
X15296Y-20664D01*
X15387Y-20734D01*
X15493Y-20778D01*
X15606Y-20793D01*
X15720Y-20778D01*
X15826Y-20734D01*
X15916Y-20664D01*
X15986Y-20574D01*
X16030Y-20468D01*
X16045Y-20354D01*
X16030Y-20241D01*
X15986Y-20135D01*
X15916Y-20044D01*
X15826Y-19975D01*
X15720Y-19931D01*
X15677Y-19925D01*
X15669Y-19922D01*
X15617Y-19914D01*
X15528Y-19897D01*
X15457Y-19879D01*
X15431Y-19870D01*
X15409Y-19861D01*
X15393Y-19853D01*
X15388Y-19850D01*
X12604Y-17066D01*
Y-12503D01*
X12651Y-12493D01*
X12686Y-12578D01*
X12706Y-12604D01*
X12710Y-12612D01*
X12727Y-12636D01*
X12756Y-12681D01*
X12766Y-12700D01*
X12775Y-12718D01*
X12782Y-12734D01*
X12786Y-12749D01*
X12789Y-12762D01*
X12790Y-12764D01*
Y-16740D01*
X12805Y-16818D01*
X12849Y-16883D01*
X16102Y-20136D01*
X16105Y-20141D01*
X16113Y-20157D01*
X16122Y-20179D01*
X16130Y-20203D01*
X16167Y-20367D01*
X16174Y-20417D01*
X16177Y-20425D01*
X16183Y-20468D01*
X16227Y-20574D01*
X16296Y-20664D01*
X16387Y-20734D01*
X16493Y-20778D01*
X16606Y-20793D01*
X16720Y-20778D01*
X16825Y-20734D01*
X16916Y-20664D01*
X16986Y-20574D01*
X17030Y-20468D01*
X17045Y-20354D01*
X17044Y-20350D01*
X17089Y-20328D01*
X17514Y-20753D01*
Y-25829D01*
X17530Y-25907D01*
X17573Y-25972D01*
X20559Y-28958D01*
X20562Y-28963D01*
X20570Y-28979D01*
X20579Y-29000D01*
X20587Y-29025D01*
X20623Y-29188D01*
X20631Y-29238D01*
X20634Y-29247D01*
X20640Y-29289D01*
X20683Y-29395D01*
X20753Y-29486D01*
X20844Y-29556D01*
X20950Y-29599D01*
X21063Y-29614D01*
X21176Y-29599D01*
X21282Y-29556D01*
X21373Y-29486D01*
X21443Y-29395D01*
X21486Y-29289D01*
X21501Y-29176D01*
X21486Y-29062D01*
X21443Y-28957D01*
X21373Y-28866D01*
X21282Y-28796D01*
X21176Y-28752D01*
X21134Y-28747D01*
X21126Y-28744D01*
X21074Y-28736D01*
X20984Y-28719D01*
X20913Y-28700D01*
X20887Y-28692D01*
X20866Y-28683D01*
X20850Y-28675D01*
X20845Y-28672D01*
X17919Y-25746D01*
Y-20803D01*
X17965Y-20784D01*
X20741Y-23560D01*
X20753Y-23613D01*
X20683Y-23703D01*
X20640Y-23809D01*
X20625Y-23923D01*
X20640Y-24036D01*
X20683Y-24142D01*
X20753Y-24233D01*
X20844Y-24302D01*
X20950Y-24346D01*
X21063Y-24361D01*
X21176Y-24346D01*
X21282Y-24302D01*
X21373Y-24233D01*
X21443Y-24142D01*
X21486Y-24036D01*
X21490Y-24005D01*
X21538Y-23989D01*
X26867Y-29319D01*
X26933Y-29363D01*
X27011Y-29378D01*
X27562D01*
X27568Y-29379D01*
X27584Y-29385D01*
X27606Y-29394D01*
X27629Y-29406D01*
X27770Y-29496D01*
X27811Y-29526D01*
X27819Y-29529D01*
X27853Y-29556D01*
X27959Y-29599D01*
X28073Y-29614D01*
X28186Y-29599D01*
X28292Y-29556D01*
X28382Y-29486D01*
X28452Y-29395D01*
X28496Y-29289D01*
X28511Y-29176D01*
X28496Y-29062D01*
X28452Y-28957D01*
X28382Y-28866D01*
X28292Y-28796D01*
X28186Y-28752D01*
X28073Y-28737D01*
X27959Y-28752D01*
X27853Y-28796D01*
X27819Y-28822D01*
X27811Y-28826D01*
X27769Y-28857D01*
X27694Y-28908D01*
X27630Y-28945D01*
X27606Y-28958D01*
X27584Y-28967D01*
X27568Y-28972D01*
X27562Y-28974D01*
X27094D01*
X21792Y-23672D01*
X21783Y-23624D01*
X21739Y-23559D01*
X21427Y-23246D01*
X21405Y-23232D01*
X20777Y-22604D01*
X20810Y-22566D01*
X20844Y-22592D01*
X20950Y-22636D01*
X21013Y-22644D01*
Y-22213D01*
X21063D01*
Y-22163D01*
X21495D01*
X21486Y-22099D01*
X21443Y-21993D01*
X21373Y-21903D01*
X21282Y-21833D01*
X21176Y-21789D01*
X21139Y-21784D01*
X21135Y-21782D01*
X21131Y-21781D01*
X21130Y-21781D01*
X21124Y-21777D01*
X21113Y-21770D01*
X21101Y-21762D01*
X21024Y-21694D01*
X18646Y-19316D01*
Y-16515D01*
X18805Y-16356D01*
X18858Y-16374D01*
X18868Y-16452D01*
X18912Y-16558D01*
X18981Y-16649D01*
X19072Y-16718D01*
X19178Y-16762D01*
X19291Y-16777D01*
X19405Y-16762D01*
X19511Y-16718D01*
X19601Y-16649D01*
X19671Y-16558D01*
X19715Y-16452D01*
X19730Y-16339D01*
X19715Y-16225D01*
X19671Y-16119D01*
X19601Y-16029D01*
X19511Y-15959D01*
X19405Y-15915D01*
X19327Y-15905D01*
X19309Y-15852D01*
X19344Y-15817D01*
X19368Y-15794D01*
X19402Y-15762D01*
X19405Y-15762D01*
X19511Y-15718D01*
X19601Y-15649D01*
X19671Y-15558D01*
X19715Y-15452D01*
X19723Y-15389D01*
X19291D01*
Y-15339D01*
X19241D01*
Y-14907D01*
X19178Y-14915D01*
X19072Y-14959D01*
X18981Y-15029D01*
X18912Y-15119D01*
X18868Y-15225D01*
X18859Y-15293D01*
X18857Y-15299D01*
X18855Y-15310D01*
X18853Y-15316D01*
X18850Y-15325D01*
X18843Y-15338D01*
X18834Y-15353D01*
X18823Y-15368D01*
X18772Y-15430D01*
X18067Y-16134D01*
X18013Y-16205D01*
X17980Y-16286D01*
X17968Y-16374D01*
Y-19457D01*
X17980Y-19544D01*
X18013Y-19626D01*
X18067Y-19696D01*
X20550Y-22180D01*
X20581Y-22212D01*
X20611Y-22249D01*
X20621Y-22262D01*
X20628Y-22273D01*
X20631Y-22280D01*
X20632Y-22281D01*
X20633Y-22284D01*
X20635Y-22288D01*
X20640Y-22326D01*
X20683Y-22432D01*
X20709Y-22466D01*
X20672Y-22499D01*
X15753Y-17580D01*
Y-9843D01*
X15738Y-9765D01*
X15694Y-9699D01*
X14966Y-8971D01*
X14965Y-8970D01*
X14958Y-8958D01*
X14951Y-8945D01*
X14944Y-8928D01*
X14937Y-8909D01*
X14931Y-8889D01*
X14920Y-8837D01*
X14915Y-8807D01*
X14912Y-8799D01*
X14908Y-8767D01*
X14873Y-8682D01*
X14817Y-8609D01*
X14743Y-8553D01*
X14658Y-8517D01*
X14567Y-8505D01*
X14476Y-8517D01*
X14390Y-8553D01*
X14317Y-8609D01*
X14261Y-8682D01*
X14226Y-8767D01*
X14214Y-8858D01*
X14226Y-8950D01*
X14261Y-9035D01*
X14317Y-9108D01*
X14390Y-9164D01*
X14476Y-9199D01*
X14508Y-9203D01*
X14516Y-9206D01*
X14545Y-9211D01*
X14598Y-9223D01*
X14618Y-9229D01*
X14637Y-9235D01*
X14653Y-9242D01*
X14667Y-9249D01*
X14678Y-9256D01*
X14680Y-9257D01*
X15349Y-9926D01*
Y-17492D01*
X15299Y-17517D01*
X15282Y-17505D01*
Y-10355D01*
X15267Y-10278D01*
X15223Y-10212D01*
X13588Y-8578D01*
X13587Y-8576D01*
X13580Y-8565D01*
X13573Y-8551D01*
X13566Y-8535D01*
X13559Y-8516D01*
X13553Y-8495D01*
X13542Y-8443D01*
X13537Y-8413D01*
X13534Y-8405D01*
X13530Y-8373D01*
X13495Y-8288D01*
X13439Y-8215D01*
X13365Y-8159D01*
X13280Y-8124D01*
X13189Y-8112D01*
D02*
G37*
G36*
X9941Y-8527D02*
X9838Y-8541D01*
X9742Y-8581D01*
X9659Y-8644D01*
X9596Y-8727D01*
X9556Y-8823D01*
X9543Y-8926D01*
X9556Y-9029D01*
X9596Y-9125D01*
X9659Y-9208D01*
X9742Y-9271D01*
X9838Y-9311D01*
X9941Y-9325D01*
X10045Y-9311D01*
X10141Y-9271D01*
X10223Y-9208D01*
X10287Y-9125D01*
X10326Y-9029D01*
X10340Y-8926D01*
X10326Y-8823D01*
X10287Y-8727D01*
X10223Y-8644D01*
X10141Y-8581D01*
X10045Y-8541D01*
X9941Y-8527D01*
D02*
G37*
G36*
X8941D02*
X8838Y-8541D01*
X8742Y-8581D01*
X8659Y-8644D01*
X8596Y-8727D01*
X8556Y-8823D01*
X8543Y-8926D01*
X8556Y-9029D01*
X8596Y-9125D01*
X8659Y-9208D01*
X8742Y-9271D01*
X8838Y-9311D01*
X8941Y-9325D01*
X9045Y-9311D01*
X9141Y-9271D01*
X9223Y-9208D01*
X9287Y-9125D01*
X9326Y-9029D01*
X9340Y-8926D01*
X9326Y-8823D01*
X9287Y-8727D01*
X9223Y-8644D01*
X9141Y-8581D01*
X9045Y-8541D01*
X8941Y-8527D01*
D02*
G37*
G36*
X22032Y-3499D02*
X21918Y-3514D01*
X21812Y-3557D01*
X21722Y-3627D01*
X21652Y-3718D01*
X21608Y-3824D01*
X21602Y-3866D01*
X21599Y-3874D01*
X21591Y-3926D01*
X21574Y-4016D01*
X21556Y-4087D01*
X21547Y-4113D01*
X21538Y-4134D01*
X21531Y-4150D01*
X21527Y-4155D01*
X21317Y-4365D01*
X21273Y-4431D01*
X21258Y-4509D01*
Y-9149D01*
X20962Y-9445D01*
X20957Y-9448D01*
X20941Y-9456D01*
X20920Y-9465D01*
X20895Y-9473D01*
X20732Y-9509D01*
X20682Y-9517D01*
X20673Y-9520D01*
X20666Y-9521D01*
X20644Y-9473D01*
X20666Y-9453D01*
X20685Y-9438D01*
X20705Y-9424D01*
X20724Y-9412D01*
X20742Y-9402D01*
X20759Y-9394D01*
X20776Y-9388D01*
X20791Y-9384D01*
X20810Y-9380D01*
X20817Y-9378D01*
X20858Y-9372D01*
X20963Y-9328D01*
X21054Y-9259D01*
X21124Y-9168D01*
X21168Y-9062D01*
X21182Y-8949D01*
X21168Y-8835D01*
X21124Y-8730D01*
X21099Y-8697D01*
X21096Y-8690D01*
X21085Y-8674D01*
X21077Y-8660D01*
X21070Y-8645D01*
X21063Y-8627D01*
X21057Y-8607D01*
X21052Y-8585D01*
X21049Y-8563D01*
X21048Y-8551D01*
X21048Y-8543D01*
X21054Y-8490D01*
X21062Y-8447D01*
X21071Y-8415D01*
X21081Y-8393D01*
X21086Y-8384D01*
X21090Y-8383D01*
X21179D01*
Y-8286D01*
X21179Y-8282D01*
X21179Y-8278D01*
Y-7514D01*
X20309D01*
Y-8278D01*
X20309Y-8282D01*
X20309Y-8286D01*
Y-8383D01*
X20398D01*
X20402Y-8384D01*
X20408Y-8393D01*
X20417Y-8415D01*
X20426Y-8447D01*
X20434Y-8489D01*
X20440Y-8560D01*
X20440Y-8562D01*
X20436Y-8585D01*
X20431Y-8607D01*
X20425Y-8627D01*
X20418Y-8645D01*
X20411Y-8660D01*
X20403Y-8674D01*
X20392Y-8690D01*
X20390Y-8697D01*
X20364Y-8730D01*
X20321Y-8835D01*
X20315Y-8876D01*
X20313Y-8883D01*
X20309Y-8902D01*
X20305Y-8917D01*
X20299Y-8934D01*
X20291Y-8951D01*
X20281Y-8969D01*
X20269Y-8988D01*
X20256Y-9006D01*
X20219Y-9050D01*
X20219Y-9050D01*
X19898Y-9371D01*
X19851Y-9433D01*
X19821Y-9505D01*
X19811Y-9583D01*
Y-11500D01*
X19821Y-11577D01*
X19851Y-11650D01*
X19898Y-11712D01*
X20603Y-12416D01*
X20665Y-12464D01*
X20737Y-12494D01*
X20815Y-12504D01*
X21499D01*
X21556Y-12506D01*
X21594Y-12509D01*
X21606Y-12511D01*
X21615Y-12512D01*
X21619Y-12513D01*
X21620Y-12514D01*
X21621Y-12514D01*
X21645Y-12533D01*
X21733Y-12569D01*
X21789Y-12625D01*
Y-17006D01*
X21325D01*
X21323Y-17005D01*
X21299Y-16988D01*
X21242Y-16940D01*
X21068Y-16767D01*
Y-15831D01*
X21070Y-15826D01*
X21074Y-15812D01*
X21094Y-15765D01*
X21107Y-15742D01*
X21173Y-15641D01*
X21200Y-15604D01*
X21204Y-15596D01*
X21229Y-15564D01*
X21270Y-15463D01*
X21285Y-15354D01*
X21270Y-15246D01*
X21229Y-15145D01*
X21162Y-15058D01*
X21075Y-14992D01*
X20974Y-14950D01*
X20866Y-14936D01*
X20758Y-14950D01*
X20657Y-14992D01*
X20570Y-15058D01*
X20528Y-15113D01*
X20478Y-15097D01*
Y-13386D01*
X20463Y-13308D01*
X20419Y-13243D01*
X14710Y-7534D01*
X14644Y-7490D01*
X14567Y-7475D01*
X12764D01*
X12762Y-7475D01*
X12749Y-7471D01*
X12734Y-7467D01*
X12718Y-7460D01*
X12700Y-7451D01*
X12681Y-7441D01*
X12636Y-7412D01*
X12612Y-7395D01*
X12604Y-7391D01*
X12578Y-7371D01*
X12493Y-7336D01*
X12402Y-7324D01*
X12310Y-7336D01*
X12225Y-7371D01*
X12152Y-7428D01*
X12096Y-7501D01*
X12061Y-7586D01*
X12049Y-7677D01*
X12061Y-7769D01*
X12096Y-7854D01*
X12152Y-7927D01*
X12225Y-7983D01*
X12310Y-8018D01*
X12402Y-8030D01*
X12493Y-8018D01*
X12578Y-7983D01*
X12604Y-7963D01*
X12612Y-7960D01*
X12636Y-7942D01*
X12681Y-7913D01*
X12700Y-7903D01*
X12718Y-7894D01*
X12734Y-7888D01*
X12749Y-7883D01*
X12762Y-7880D01*
X12764Y-7879D01*
X14483D01*
X20073Y-13470D01*
Y-19882D01*
X20089Y-19959D01*
X20133Y-20025D01*
X23479Y-23371D01*
X23545Y-23415D01*
X23622Y-23431D01*
X27294D01*
X27568Y-23705D01*
X27572Y-23710D01*
X27579Y-23725D01*
X27588Y-23747D01*
X27596Y-23771D01*
X27633Y-23935D01*
X27640Y-23985D01*
X27643Y-23993D01*
X27649Y-24036D01*
X27693Y-24142D01*
X27763Y-24233D01*
X27853Y-24302D01*
X27959Y-24346D01*
X28073Y-24361D01*
X28186Y-24346D01*
X28292Y-24302D01*
X28382Y-24233D01*
X28452Y-24142D01*
X28496Y-24036D01*
X28511Y-23923D01*
X28496Y-23809D01*
X28452Y-23703D01*
X28382Y-23613D01*
X28292Y-23543D01*
X28186Y-23499D01*
X28143Y-23494D01*
X28135Y-23490D01*
X28083Y-23483D01*
X27994Y-23466D01*
X27923Y-23447D01*
X27897Y-23438D01*
X27875Y-23430D01*
X27859Y-23422D01*
X27855Y-23418D01*
X27521Y-23085D01*
X27456Y-23041D01*
X27378Y-23026D01*
X23706D01*
X20478Y-19798D01*
Y-15612D01*
X20528Y-15595D01*
X20528Y-15595D01*
X20531Y-15603D01*
X20585Y-15678D01*
X20606Y-15709D01*
X20639Y-15768D01*
X20650Y-15790D01*
X20658Y-15810D01*
X20663Y-15826D01*
X20664Y-15831D01*
Y-16850D01*
X20679Y-16928D01*
X20723Y-16993D01*
X20947Y-17217D01*
X20979Y-17252D01*
X21003Y-17282D01*
X21021Y-17307D01*
X21022Y-17309D01*
Y-17876D01*
X21602D01*
X21623Y-17918D01*
X21623Y-17926D01*
X21619Y-17929D01*
X21600Y-17945D01*
X21581Y-17959D01*
X21562Y-17970D01*
X21542Y-17980D01*
X21523Y-17988D01*
X21503Y-17995D01*
X21482Y-18000D01*
X21461Y-18003D01*
X21460Y-18003D01*
X21457Y-18003D01*
X21443Y-18004D01*
X21436Y-18005D01*
X21433Y-18006D01*
X21343Y-18017D01*
X21237Y-18061D01*
X21147Y-18131D01*
X21077Y-18222D01*
X21033Y-18327D01*
X21018Y-18441D01*
X21033Y-18554D01*
X21077Y-18660D01*
X21147Y-18751D01*
X21237Y-18821D01*
X21343Y-18864D01*
X21457Y-18879D01*
X21570Y-18864D01*
X21676Y-18821D01*
X21767Y-18751D01*
X21836Y-18660D01*
X21880Y-18554D01*
X21882Y-18543D01*
X21882Y-18542D01*
X21885Y-18536D01*
X21890Y-18525D01*
X21899Y-18512D01*
X21908Y-18499D01*
X21980Y-18416D01*
X22026Y-18369D01*
X22027Y-18369D01*
X22089Y-18322D01*
X22300Y-18110D01*
X22348Y-18048D01*
X22377Y-17976D01*
X22388Y-17899D01*
Y-12501D01*
X22377Y-12423D01*
X22348Y-12351D01*
X22300Y-12289D01*
X22213Y-12202D01*
X22201Y-12107D01*
X22163Y-12015D01*
X22103Y-11937D01*
X22024Y-11877D01*
X21933Y-11839D01*
X21835Y-11826D01*
X21737Y-11839D01*
X21645Y-11877D01*
X21621Y-11895D01*
X21620Y-11896D01*
X21619Y-11896D01*
X21615Y-11897D01*
X21610Y-11898D01*
X21509Y-11905D01*
X20939D01*
X20409Y-11376D01*
Y-11303D01*
X20459Y-11278D01*
X20525Y-11328D01*
X20631Y-11372D01*
X20744Y-11387D01*
X20858Y-11372D01*
X20963Y-11328D01*
X21054Y-11259D01*
X21124Y-11168D01*
X21168Y-11062D01*
X21182Y-10949D01*
X21168Y-10835D01*
X21124Y-10730D01*
X21098Y-10696D01*
X21094Y-10687D01*
X21063Y-10645D01*
X21012Y-10570D01*
X20975Y-10507D01*
X20962Y-10482D01*
X20953Y-10461D01*
X20949Y-10449D01*
X20953Y-10437D01*
X20962Y-10416D01*
X20974Y-10393D01*
X21064Y-10251D01*
X21094Y-10210D01*
X21098Y-10202D01*
X21124Y-10168D01*
X21168Y-10062D01*
X21173Y-10020D01*
X21176Y-10011D01*
X21184Y-9960D01*
X21201Y-9870D01*
X21220Y-9799D01*
X21228Y-9773D01*
X21237Y-9751D01*
X21245Y-9736D01*
X21248Y-9731D01*
X21603Y-9376D01*
X21647Y-9310D01*
X21662Y-9233D01*
Y-4592D01*
X21814Y-4441D01*
X21818Y-4438D01*
X21834Y-4430D01*
X21856Y-4421D01*
X21880Y-4413D01*
X22044Y-4377D01*
X22094Y-4369D01*
X22102Y-4366D01*
X22145Y-4360D01*
X22251Y-4317D01*
X22341Y-4247D01*
X22411Y-4156D01*
X22455Y-4050D01*
X22470Y-3937D01*
X22455Y-3824D01*
X22411Y-3718D01*
X22341Y-3627D01*
X22251Y-3557D01*
X22145Y-3514D01*
X22032Y-3499D01*
D02*
G37*
G36*
X29921Y-8833D02*
X29813Y-8848D01*
X29712Y-8889D01*
X29625Y-8956D01*
X29559Y-9043D01*
X29517Y-9144D01*
X29503Y-9252D01*
X29517Y-9360D01*
X29559Y-9461D01*
X29625Y-9548D01*
X29712Y-9614D01*
X29813Y-9656D01*
X29921Y-9671D01*
X30030Y-9656D01*
X30131Y-9614D01*
X30217Y-9548D01*
X30284Y-9461D01*
X30326Y-9360D01*
X30340Y-9252D01*
X30326Y-9144D01*
X30284Y-9043D01*
X30217Y-8956D01*
X30131Y-8889D01*
X30030Y-8848D01*
X29921Y-8833D01*
D02*
G37*
G36*
X28346D02*
X28238Y-8848D01*
X28137Y-8889D01*
X28051Y-8956D01*
X27984Y-9043D01*
X27942Y-9144D01*
X27928Y-9252D01*
X27942Y-9360D01*
X27984Y-9461D01*
X28051Y-9548D01*
X28137Y-9614D01*
X28238Y-9656D01*
X28346Y-9671D01*
X28455Y-9656D01*
X28556Y-9614D01*
X28642Y-9548D01*
X28709Y-9461D01*
X28751Y-9360D01*
X28765Y-9252D01*
X28751Y-9144D01*
X28709Y-9043D01*
X28642Y-8956D01*
X28556Y-8889D01*
X28455Y-8848D01*
X28346Y-8833D01*
D02*
G37*
G36*
X9941Y-9527D02*
X9838Y-9541D01*
X9742Y-9581D01*
X9659Y-9644D01*
X9596Y-9727D01*
X9556Y-9823D01*
X9543Y-9926D01*
X9556Y-10029D01*
X9596Y-10125D01*
X9659Y-10208D01*
X9742Y-10271D01*
X9838Y-10311D01*
X9941Y-10325D01*
X10045Y-10311D01*
X10141Y-10271D01*
X10223Y-10208D01*
X10287Y-10125D01*
X10326Y-10029D01*
X10340Y-9926D01*
X10326Y-9823D01*
X10287Y-9727D01*
X10223Y-9644D01*
X10141Y-9581D01*
X10045Y-9541D01*
X9941Y-9527D01*
D02*
G37*
G36*
X7874Y-8505D02*
X7783Y-8517D01*
X7698Y-8553D01*
X7624Y-8609D01*
X7568Y-8682D01*
X7533Y-8767D01*
X7521Y-8858D01*
X7533Y-8950D01*
X7568Y-9035D01*
X7624Y-9108D01*
X7698Y-9164D01*
X7783Y-9199D01*
X7815Y-9203D01*
X7823Y-9206D01*
X7852Y-9211D01*
X7905Y-9223D01*
X7925Y-9229D01*
X7944Y-9235D01*
X7960Y-9242D01*
X7974Y-9249D01*
X7985Y-9256D01*
X7987Y-9257D01*
X8485Y-9756D01*
X8488Y-9760D01*
X8495Y-9773D01*
X8503Y-9791D01*
X8511Y-9813D01*
X8519Y-9837D01*
X8542Y-9942D01*
X8548Y-9983D01*
X8551Y-9991D01*
X8556Y-10029D01*
X8596Y-10125D01*
X8659Y-10208D01*
X8742Y-10271D01*
X8838Y-10311D01*
X8941Y-10325D01*
X9045Y-10311D01*
X9141Y-10271D01*
X9223Y-10208D01*
X9287Y-10125D01*
X9326Y-10029D01*
X9340Y-9926D01*
X9326Y-9823D01*
X9287Y-9727D01*
X9223Y-9644D01*
X9141Y-9581D01*
X9045Y-9541D01*
X9008Y-9536D01*
X9000Y-9533D01*
X8919Y-9519D01*
X8854Y-9504D01*
X8829Y-9496D01*
X8807Y-9488D01*
X8789Y-9480D01*
X8775Y-9473D01*
X8772Y-9470D01*
X8273Y-8971D01*
X8272Y-8970D01*
X8265Y-8959D01*
X8258Y-8945D01*
X8251Y-8929D01*
X8244Y-8910D01*
X8238Y-8889D01*
X8227Y-8837D01*
X8222Y-8807D01*
X8219Y-8799D01*
X8215Y-8767D01*
X8180Y-8682D01*
X8124Y-8609D01*
X8051Y-8553D01*
X7965Y-8517D01*
X7874Y-8505D01*
D02*
G37*
G36*
X5946Y-9770D02*
X5077D01*
Y-10639D01*
X5946D01*
Y-9770D01*
D02*
G37*
G36*
X3781Y-9786D02*
X2912D01*
Y-10655D01*
X3781D01*
Y-9786D01*
D02*
G37*
G36*
X5512Y-10766D02*
X5398Y-10781D01*
X5293Y-10825D01*
X5202Y-10895D01*
X5132Y-10986D01*
X5088Y-11091D01*
X5073Y-11205D01*
X5088Y-11318D01*
X5132Y-11424D01*
X5202Y-11515D01*
X5293Y-11584D01*
X5398Y-11628D01*
X5512Y-11643D01*
X5625Y-11628D01*
X5731Y-11584D01*
X5822Y-11515D01*
X5891Y-11424D01*
X5935Y-11318D01*
X5950Y-11205D01*
X5935Y-11091D01*
X5891Y-10986D01*
X5822Y-10895D01*
X5731Y-10825D01*
X5625Y-10781D01*
X5512Y-10766D01*
D02*
G37*
G36*
X3346Y-10782D02*
X3233Y-10797D01*
X3127Y-10841D01*
X3036Y-10910D01*
X2967Y-11001D01*
X2923Y-11107D01*
X2908Y-11220D01*
X2923Y-11334D01*
X2967Y-11440D01*
X3036Y-11530D01*
X3127Y-11600D01*
X3233Y-11644D01*
X3346Y-11659D01*
X3460Y-11644D01*
X3566Y-11600D01*
X3656Y-11530D01*
X3726Y-11440D01*
X3770Y-11334D01*
X3785Y-11220D01*
X3770Y-11107D01*
X3726Y-11001D01*
X3656Y-10910D01*
X3566Y-10841D01*
X3460Y-10797D01*
X3346Y-10782D01*
D02*
G37*
G36*
X33496Y-8518D02*
X33388Y-8533D01*
X33287Y-8575D01*
X33200Y-8641D01*
X33134Y-8728D01*
X33092Y-8829D01*
X33078Y-8937D01*
X33092Y-9045D01*
X33134Y-9146D01*
X33158Y-9178D01*
X33161Y-9185D01*
X33215Y-9261D01*
X33235Y-9292D01*
X33269Y-9351D01*
X33280Y-9373D01*
X33288Y-9393D01*
X33293Y-9409D01*
X33294Y-9414D01*
Y-10194D01*
X33288Y-10220D01*
Y-11143D01*
X33288Y-11144D01*
X33286Y-11157D01*
X33281Y-11170D01*
X33276Y-11185D01*
X33268Y-11201D01*
X33260Y-11218D01*
X33235Y-11258D01*
X33219Y-11279D01*
X33216Y-11287D01*
X33197Y-11311D01*
X33163Y-11393D01*
X33152Y-11480D01*
X33163Y-11568D01*
X33197Y-11650D01*
X33251Y-11720D01*
X33321Y-11774D01*
X33403Y-11808D01*
X33491Y-11819D01*
X33579Y-11808D01*
X33660Y-11774D01*
X33731Y-11720D01*
X33784Y-11650D01*
X33818Y-11568D01*
X33830Y-11480D01*
X33818Y-11393D01*
X33784Y-11311D01*
X33766Y-11287D01*
X33762Y-11279D01*
X33747Y-11258D01*
X33722Y-11218D01*
X33713Y-11201D01*
X33706Y-11185D01*
X33700Y-11170D01*
X33696Y-11157D01*
X33693Y-11144D01*
X33693Y-11143D01*
Y-10241D01*
X33698Y-10215D01*
Y-9414D01*
X33699Y-9409D01*
X33704Y-9395D01*
X33724Y-9348D01*
X33737Y-9324D01*
X33803Y-9224D01*
X33830Y-9186D01*
X33834Y-9178D01*
X33859Y-9146D01*
X33900Y-9045D01*
X33915Y-8937D01*
X33900Y-8829D01*
X33859Y-8728D01*
X33792Y-8641D01*
X33705Y-8575D01*
X33604Y-8533D01*
X33496Y-8518D01*
D02*
G37*
G36*
X36929D02*
X36821Y-8533D01*
X36720Y-8575D01*
X36633Y-8641D01*
X36567Y-8728D01*
X36525Y-8829D01*
X36511Y-8937D01*
X36525Y-9045D01*
X36567Y-9146D01*
X36591Y-9178D01*
X36594Y-9185D01*
X36648Y-9261D01*
X36669Y-9292D01*
X36702Y-9351D01*
X36713Y-9373D01*
X36721Y-9393D01*
X36726Y-9409D01*
X36727Y-9414D01*
Y-11087D01*
X36742Y-11164D01*
X36786Y-11230D01*
X36941Y-11385D01*
X36942Y-11386D01*
X36949Y-11396D01*
X36955Y-11409D01*
X36962Y-11424D01*
X36968Y-11440D01*
X36974Y-11458D01*
X36984Y-11504D01*
X36988Y-11530D01*
X36991Y-11538D01*
X36995Y-11568D01*
X37029Y-11650D01*
X37083Y-11720D01*
X37153Y-11774D01*
X37235Y-11808D01*
X37323Y-11819D01*
X37411Y-11808D01*
X37492Y-11774D01*
X37563Y-11720D01*
X37617Y-11650D01*
X37650Y-11568D01*
X37662Y-11480D01*
X37650Y-11393D01*
X37617Y-11311D01*
X37563Y-11241D01*
X37492Y-11187D01*
X37411Y-11153D01*
X37380Y-11149D01*
X37372Y-11146D01*
X37347Y-11142D01*
X37300Y-11131D01*
X37283Y-11126D01*
X37266Y-11119D01*
X37252Y-11113D01*
X37239Y-11106D01*
X37228Y-11100D01*
X37228Y-11099D01*
X37131Y-11003D01*
Y-9414D01*
X37133Y-9409D01*
X37137Y-9395D01*
X37157Y-9348D01*
X37170Y-9324D01*
X37236Y-9224D01*
X37263Y-9186D01*
X37267Y-9178D01*
X37292Y-9146D01*
X37333Y-9045D01*
X37348Y-8937D01*
X37333Y-8829D01*
X37292Y-8728D01*
X37225Y-8641D01*
X37138Y-8575D01*
X37037Y-8533D01*
X36929Y-8518D01*
D02*
G37*
G36*
X31780D02*
X31671Y-8533D01*
X31570Y-8575D01*
X31484Y-8641D01*
X31417Y-8728D01*
X31375Y-8829D01*
X31361Y-8937D01*
X31375Y-9045D01*
X31417Y-9146D01*
X31441Y-9178D01*
X31445Y-9185D01*
X31499Y-9261D01*
X31519Y-9292D01*
X31552Y-9351D01*
X31563Y-9373D01*
X31571Y-9393D01*
X31576Y-9409D01*
X31577Y-9414D01*
Y-11139D01*
X31575Y-11141D01*
X31487Y-11153D01*
X31405Y-11187D01*
X31335Y-11241D01*
X31281Y-11311D01*
X31247Y-11393D01*
X31236Y-11480D01*
X31247Y-11568D01*
X31281Y-11650D01*
X31335Y-11720D01*
X31405Y-11774D01*
X31487Y-11808D01*
X31575Y-11819D01*
X31663Y-11808D01*
X31744Y-11774D01*
X31815Y-11720D01*
X31868Y-11650D01*
X31902Y-11568D01*
X31914Y-11480D01*
X31908Y-11433D01*
X31923Y-11419D01*
X31966Y-11353D01*
X31982Y-11276D01*
Y-9414D01*
X31983Y-9409D01*
X31987Y-9395D01*
X32008Y-9348D01*
X32021Y-9324D01*
X32086Y-9224D01*
X32114Y-9186D01*
X32117Y-9178D01*
X32142Y-9146D01*
X32184Y-9045D01*
X32198Y-8937D01*
X32184Y-8829D01*
X32142Y-8728D01*
X32075Y-8641D01*
X31989Y-8575D01*
X31888Y-8533D01*
X31780Y-8518D01*
D02*
G37*
G36*
X35213D02*
X35104Y-8533D01*
X35003Y-8575D01*
X34917Y-8641D01*
X34850Y-8728D01*
X34808Y-8829D01*
X34794Y-8937D01*
X34808Y-9045D01*
X34850Y-9146D01*
X34874Y-9178D01*
X34878Y-9185D01*
X34932Y-9261D01*
X34952Y-9292D01*
X34986Y-9351D01*
X34996Y-9373D01*
X35004Y-9393D01*
X35009Y-9409D01*
X35010Y-9414D01*
Y-11286D01*
X35026Y-11364D01*
X35070Y-11429D01*
X35074Y-11433D01*
X35068Y-11480D01*
X35079Y-11568D01*
X35113Y-11650D01*
X35167Y-11720D01*
X35237Y-11774D01*
X35319Y-11808D01*
X35407Y-11819D01*
X35495Y-11808D01*
X35576Y-11774D01*
X35647Y-11720D01*
X35701Y-11650D01*
X35734Y-11568D01*
X35746Y-11480D01*
X35734Y-11393D01*
X35701Y-11311D01*
X35647Y-11241D01*
X35576Y-11187D01*
X35495Y-11153D01*
X35415Y-11142D01*
Y-9414D01*
X35416Y-9409D01*
X35420Y-9395D01*
X35441Y-9348D01*
X35454Y-9324D01*
X35519Y-9224D01*
X35547Y-9186D01*
X35550Y-9178D01*
X35575Y-9146D01*
X35617Y-9045D01*
X35631Y-8937D01*
X35617Y-8829D01*
X35575Y-8728D01*
X35509Y-8641D01*
X35422Y-8575D01*
X35321Y-8533D01*
X35213Y-8518D01*
D02*
G37*
G36*
X37373Y-12148D02*
Y-12430D01*
X37655D01*
X37650Y-12393D01*
X37617Y-12311D01*
X37563Y-12241D01*
X37492Y-12187D01*
X37411Y-12153D01*
X37373Y-12148D01*
D02*
G37*
G36*
X31525D02*
X31487Y-12153D01*
X31405Y-12187D01*
X31335Y-12241D01*
X31281Y-12311D01*
X31247Y-12393D01*
X31242Y-12430D01*
X31525D01*
Y-12148D01*
D02*
G37*
G36*
X5512Y-11766D02*
X5398Y-11781D01*
X5293Y-11825D01*
X5202Y-11895D01*
X5132Y-11986D01*
X5088Y-12091D01*
X5073Y-12205D01*
X5088Y-12318D01*
X5132Y-12424D01*
X5202Y-12515D01*
X5293Y-12584D01*
X5398Y-12628D01*
X5512Y-12643D01*
X5625Y-12628D01*
X5731Y-12584D01*
X5822Y-12515D01*
X5891Y-12424D01*
X5935Y-12318D01*
X5950Y-12205D01*
X5935Y-12091D01*
X5891Y-11986D01*
X5822Y-11895D01*
X5731Y-11825D01*
X5625Y-11781D01*
X5512Y-11766D01*
D02*
G37*
G36*
X3346Y-11782D02*
X3233Y-11797D01*
X3127Y-11841D01*
X3036Y-11910D01*
X2967Y-12001D01*
X2923Y-12107D01*
X2908Y-12220D01*
X2923Y-12334D01*
X2967Y-12440D01*
X3036Y-12530D01*
X3127Y-12600D01*
X3233Y-12644D01*
X3346Y-12659D01*
X3460Y-12644D01*
X3566Y-12600D01*
X3656Y-12530D01*
X3726Y-12440D01*
X3770Y-12334D01*
X3785Y-12220D01*
X3770Y-12107D01*
X3726Y-12001D01*
X3656Y-11910D01*
X3566Y-11841D01*
X3460Y-11797D01*
X3346Y-11782D01*
D02*
G37*
G36*
X31525Y-12530D02*
X31242D01*
X31247Y-12568D01*
X31281Y-12650D01*
X31335Y-12720D01*
X31405Y-12774D01*
X31487Y-12808D01*
X31525Y-12813D01*
Y-12530D01*
D02*
G37*
G36*
X37655D02*
X37373D01*
Y-12813D01*
X37411Y-12808D01*
X37444Y-12794D01*
X37492Y-12774D01*
X37563Y-12720D01*
X37563Y-12720D01*
X37617Y-12650D01*
X37650Y-12568D01*
X37655Y-12530D01*
D02*
G37*
G36*
X33441Y-12141D02*
X31625D01*
Y-12480D01*
X31575D01*
D01*
X31625D01*
Y-12819D01*
X33441D01*
Y-12480D01*
Y-12141D01*
D02*
G37*
G36*
X35407Y-12141D02*
X33541D01*
Y-12480D01*
Y-12819D01*
X35357D01*
Y-12480D01*
X35457D01*
Y-12819D01*
X37273D01*
Y-12480D01*
Y-12141D01*
X35407D01*
X35407Y-12141D01*
D02*
G37*
G36*
X5512Y-12766D02*
X5398Y-12781D01*
X5293Y-12825D01*
X5202Y-12895D01*
X5132Y-12986D01*
X5088Y-13091D01*
X5073Y-13205D01*
X5088Y-13318D01*
X5132Y-13424D01*
X5202Y-13515D01*
X5293Y-13584D01*
X5398Y-13628D01*
X5512Y-13643D01*
X5625Y-13628D01*
X5731Y-13584D01*
X5822Y-13515D01*
X5891Y-13424D01*
X5935Y-13318D01*
X5950Y-13205D01*
X5935Y-13091D01*
X5891Y-12986D01*
X5822Y-12895D01*
X5731Y-12825D01*
X5625Y-12781D01*
X5512Y-12766D01*
D02*
G37*
G36*
X3346Y-12782D02*
X3233Y-12797D01*
X3127Y-12841D01*
X3036Y-12910D01*
X2967Y-13001D01*
X2923Y-13107D01*
X2908Y-13220D01*
X2923Y-13334D01*
X2967Y-13440D01*
X3036Y-13530D01*
X3127Y-13600D01*
X3233Y-13644D01*
X3346Y-13659D01*
X3460Y-13644D01*
X3566Y-13600D01*
X3656Y-13530D01*
X3726Y-13440D01*
X3770Y-13334D01*
X3785Y-13220D01*
X3770Y-13107D01*
X3726Y-13001D01*
X3656Y-12910D01*
X3566Y-12841D01*
X3460Y-12797D01*
X3346Y-12782D01*
D02*
G37*
G36*
X16726Y-13904D02*
X16341D01*
Y-14289D01*
X16726D01*
Y-13904D01*
D02*
G37*
G36*
X16241D02*
X15857D01*
Y-14289D01*
X16241D01*
Y-13904D01*
D02*
G37*
G36*
X5512Y-13766D02*
X5398Y-13781D01*
X5293Y-13825D01*
X5202Y-13895D01*
X5132Y-13986D01*
X5088Y-14091D01*
X5073Y-14205D01*
X5088Y-14318D01*
X5132Y-14424D01*
X5202Y-14515D01*
X5293Y-14584D01*
X5398Y-14628D01*
X5512Y-14643D01*
X5625Y-14628D01*
X5731Y-14584D01*
X5822Y-14515D01*
X5891Y-14424D01*
X5935Y-14318D01*
X5950Y-14205D01*
X5935Y-14091D01*
X5891Y-13986D01*
X5822Y-13895D01*
X5731Y-13825D01*
X5625Y-13781D01*
X5512Y-13766D01*
D02*
G37*
G36*
X3346Y-13782D02*
X3233Y-13797D01*
X3127Y-13841D01*
X3036Y-13910D01*
X2967Y-14001D01*
X2923Y-14107D01*
X2908Y-14220D01*
X2923Y-14334D01*
X2967Y-14440D01*
X3036Y-14530D01*
X3127Y-14600D01*
X3233Y-14644D01*
X3346Y-14659D01*
X3460Y-14644D01*
X3566Y-14600D01*
X3656Y-14530D01*
X3726Y-14440D01*
X3770Y-14334D01*
X3785Y-14220D01*
X3770Y-14107D01*
X3726Y-14001D01*
X3656Y-13910D01*
X3566Y-13841D01*
X3460Y-13797D01*
X3346Y-13782D01*
D02*
G37*
G36*
X19291Y-13900D02*
X19178Y-13915D01*
X19072Y-13959D01*
X18981Y-14029D01*
X18912Y-14119D01*
X18868Y-14225D01*
X18853Y-14339D01*
X18868Y-14452D01*
X18912Y-14558D01*
X18981Y-14649D01*
X19072Y-14718D01*
X19178Y-14762D01*
X19291Y-14777D01*
X19405Y-14762D01*
X19511Y-14718D01*
X19601Y-14649D01*
X19671Y-14558D01*
X19715Y-14452D01*
X19730Y-14339D01*
X19715Y-14225D01*
X19671Y-14119D01*
X19601Y-14029D01*
X19511Y-13959D01*
X19405Y-13915D01*
X19291Y-13900D01*
D02*
G37*
G36*
X25941Y-12527D02*
X25838Y-12541D01*
X25742Y-12581D01*
X25659Y-12644D01*
X25596Y-12727D01*
X25556Y-12823D01*
X25543Y-12926D01*
X25556Y-13029D01*
X25596Y-13125D01*
X25619Y-13155D01*
X25622Y-13162D01*
X25670Y-13229D01*
X25705Y-13286D01*
X25717Y-13310D01*
X25727Y-13331D01*
X25734Y-13349D01*
X25738Y-13364D01*
X25739Y-13368D01*
Y-13935D01*
X25156D01*
Y-14805D01*
X26025D01*
Y-14222D01*
X26084Y-14162D01*
X26128Y-14097D01*
X26144Y-14019D01*
Y-13368D01*
X26144Y-13364D01*
X26149Y-13349D01*
X26156Y-13331D01*
X26166Y-13310D01*
X26178Y-13287D01*
X26235Y-13197D01*
X26260Y-13163D01*
X26263Y-13155D01*
X26287Y-13125D01*
X26326Y-13029D01*
X26340Y-12926D01*
X26326Y-12823D01*
X26287Y-12727D01*
X26223Y-12644D01*
X26141Y-12581D01*
X26045Y-12541D01*
X25941Y-12527D01*
D02*
G37*
G36*
X36616Y-14243D02*
X35746D01*
Y-15112D01*
X36616D01*
Y-14243D01*
D02*
G37*
G36*
X19341Y-14907D02*
Y-15289D01*
X19723D01*
X19715Y-15225D01*
X19671Y-15119D01*
X19601Y-15029D01*
X19511Y-14959D01*
X19405Y-14915D01*
X19341Y-14907D01*
D02*
G37*
G36*
X16726Y-14389D02*
X16291D01*
X15857D01*
Y-14668D01*
X15856Y-14672D01*
X15857Y-14676D01*
Y-14773D01*
X15932D01*
X15937Y-14784D01*
X15946Y-14815D01*
X15955Y-14856D01*
X15967Y-15000D01*
X15966Y-15002D01*
X15963Y-15022D01*
X15960Y-15039D01*
X15956Y-15052D01*
X15953Y-15061D01*
X15951Y-15064D01*
X15947Y-15071D01*
X15944Y-15077D01*
X15912Y-15119D01*
X15868Y-15225D01*
X15860Y-15289D01*
X16291D01*
X16723D01*
X16715Y-15225D01*
X16671Y-15119D01*
X16658Y-15102D01*
X16652Y-14999D01*
X16652Y-14979D01*
X16661Y-14853D01*
X16667Y-14807D01*
X16674Y-14773D01*
X16726D01*
Y-14682D01*
X16726Y-14681D01*
X16726Y-14677D01*
Y-14676D01*
X16727Y-14672D01*
X16726Y-14668D01*
Y-14389D01*
D02*
G37*
G36*
X5512Y-14766D02*
X5398Y-14781D01*
X5293Y-14825D01*
X5202Y-14895D01*
X5132Y-14986D01*
X5088Y-15091D01*
X5073Y-15205D01*
X5088Y-15318D01*
X5132Y-15424D01*
X5202Y-15515D01*
X5293Y-15584D01*
X5398Y-15628D01*
X5512Y-15643D01*
X5625Y-15628D01*
X5731Y-15584D01*
X5822Y-15515D01*
X5891Y-15424D01*
X5935Y-15318D01*
X5950Y-15205D01*
X5935Y-15091D01*
X5891Y-14986D01*
X5822Y-14895D01*
X5731Y-14825D01*
X5625Y-14781D01*
X5512Y-14766D01*
D02*
G37*
G36*
X3346Y-14782D02*
X3233Y-14797D01*
X3127Y-14841D01*
X3036Y-14910D01*
X2967Y-15001D01*
X2923Y-15107D01*
X2908Y-15220D01*
X2923Y-15334D01*
X2967Y-15440D01*
X3036Y-15530D01*
X3127Y-15600D01*
X3233Y-15644D01*
X3346Y-15659D01*
X3460Y-15644D01*
X3566Y-15600D01*
X3656Y-15530D01*
X3726Y-15440D01*
X3770Y-15334D01*
X3785Y-15220D01*
X3770Y-15107D01*
X3726Y-15001D01*
X3656Y-14910D01*
X3566Y-14841D01*
X3460Y-14797D01*
X3346Y-14782D01*
D02*
G37*
G36*
X24409Y-14936D02*
X24301Y-14950D01*
X24200Y-14992D01*
X24113Y-15058D01*
X24047Y-15145D01*
X24005Y-15246D01*
X23991Y-15354D01*
X24005Y-15463D01*
X24047Y-15564D01*
X24113Y-15650D01*
X24200Y-15717D01*
X24301Y-15759D01*
X24409Y-15773D01*
X24518Y-15759D01*
X24619Y-15717D01*
X24705Y-15650D01*
X24772Y-15564D01*
X24814Y-15463D01*
X24828Y-15354D01*
X24814Y-15246D01*
X24772Y-15145D01*
X24705Y-15058D01*
X24619Y-14992D01*
X24518Y-14950D01*
X24409Y-14936D01*
D02*
G37*
G36*
X25591Y-14932D02*
X25477Y-14947D01*
X25371Y-14990D01*
X25281Y-15060D01*
X25211Y-15151D01*
X25167Y-15257D01*
X25152Y-15370D01*
X25167Y-15484D01*
X25211Y-15589D01*
X25281Y-15680D01*
X25371Y-15750D01*
X25477Y-15794D01*
X25591Y-15808D01*
X25704Y-15794D01*
X25810Y-15750D01*
X25901Y-15680D01*
X25970Y-15589D01*
X26014Y-15484D01*
X26029Y-15370D01*
X26014Y-15257D01*
X25970Y-15151D01*
X25901Y-15060D01*
X25810Y-14990D01*
X25704Y-14947D01*
X25591Y-14932D01*
D02*
G37*
G36*
X36181Y-15239D02*
X36068Y-15254D01*
X35962Y-15297D01*
X35871Y-15367D01*
X35801Y-15458D01*
X35758Y-15564D01*
X35743Y-15677D01*
X35758Y-15791D01*
X35801Y-15896D01*
X35871Y-15987D01*
X35962Y-16057D01*
X36068Y-16101D01*
X36181Y-16116D01*
X36295Y-16101D01*
X36400Y-16057D01*
X36491Y-15987D01*
X36561Y-15896D01*
X36605Y-15791D01*
X36620Y-15677D01*
X36605Y-15564D01*
X36561Y-15458D01*
X36491Y-15367D01*
X36400Y-15297D01*
X36295Y-15254D01*
X36181Y-15239D01*
D02*
G37*
G36*
X16723Y-15389D02*
X16291D01*
X15860D01*
X15868Y-15452D01*
X15912Y-15558D01*
X15935Y-15588D01*
X15936Y-15592D01*
X15938Y-15595D01*
X15939Y-15596D01*
X15941Y-15603D01*
X15944Y-15616D01*
X15946Y-15631D01*
X15952Y-15732D01*
Y-15953D01*
X15951Y-15997D01*
X15946Y-16045D01*
X15944Y-16061D01*
X15941Y-16074D01*
X15939Y-16081D01*
X15938Y-16082D01*
X15936Y-16085D01*
X15935Y-16089D01*
X15912Y-16119D01*
X15868Y-16225D01*
X15860Y-16289D01*
X16291D01*
X16723D01*
X16715Y-16225D01*
X16671Y-16119D01*
X16648Y-16089D01*
X16646Y-16085D01*
X16644Y-16082D01*
X16644Y-16081D01*
X16642Y-16074D01*
X16639Y-16061D01*
X16637Y-16046D01*
X16630Y-15945D01*
Y-15724D01*
X16632Y-15680D01*
X16637Y-15632D01*
X16639Y-15616D01*
X16642Y-15603D01*
X16644Y-15596D01*
X16644Y-15595D01*
X16646Y-15592D01*
X16648Y-15588D01*
X16671Y-15558D01*
X16715Y-15452D01*
X16723Y-15389D01*
D02*
G37*
G36*
X5512Y-15766D02*
X5398Y-15781D01*
X5293Y-15825D01*
X5202Y-15895D01*
X5132Y-15986D01*
X5088Y-16091D01*
X5073Y-16205D01*
X5088Y-16318D01*
X5132Y-16424D01*
X5202Y-16515D01*
X5293Y-16584D01*
X5398Y-16628D01*
X5512Y-16643D01*
X5625Y-16628D01*
X5731Y-16584D01*
X5822Y-16515D01*
X5891Y-16424D01*
X5935Y-16318D01*
X5950Y-16205D01*
X5935Y-16091D01*
X5891Y-15986D01*
X5822Y-15895D01*
X5731Y-15825D01*
X5625Y-15781D01*
X5512Y-15766D01*
D02*
G37*
G36*
X3346Y-15782D02*
X3233Y-15797D01*
X3127Y-15841D01*
X3036Y-15910D01*
X2967Y-16001D01*
X2923Y-16107D01*
X2908Y-16220D01*
X2923Y-16334D01*
X2967Y-16440D01*
X3036Y-16530D01*
X3127Y-16600D01*
X3233Y-16644D01*
X3346Y-16659D01*
X3460Y-16644D01*
X3566Y-16600D01*
X3656Y-16530D01*
X3726Y-16440D01*
X3770Y-16334D01*
X3785Y-16220D01*
X3770Y-16107D01*
X3726Y-16001D01*
X3656Y-15910D01*
X3566Y-15841D01*
X3460Y-15797D01*
X3346Y-15782D01*
D02*
G37*
G36*
X32087Y-16182D02*
X31995Y-16194D01*
X31910Y-16230D01*
X31837Y-16286D01*
X31781Y-16359D01*
X31746Y-16444D01*
X31734Y-16535D01*
X31746Y-16627D01*
X31781Y-16712D01*
X31837Y-16785D01*
X31910Y-16841D01*
X31995Y-16876D01*
X32087Y-16888D01*
X32178Y-16876D01*
X32251Y-16846D01*
X32253Y-16846D01*
X32255Y-16844D01*
X32263Y-16841D01*
X32266Y-16839D01*
X32273Y-16835D01*
X32313Y-16818D01*
X32329Y-16812D01*
X32367Y-16801D01*
X32383Y-16798D01*
X32399Y-16796D01*
X35647D01*
X35660Y-16802D01*
X35678Y-16812D01*
X35699Y-16827D01*
X35829Y-16942D01*
X35862Y-16976D01*
X35871Y-16987D01*
X35962Y-17057D01*
X36068Y-17101D01*
X36181Y-17116D01*
X36295Y-17101D01*
X36400Y-17057D01*
X36491Y-16987D01*
X36561Y-16896D01*
X36605Y-16791D01*
X36620Y-16677D01*
X36605Y-16564D01*
X36561Y-16458D01*
X36491Y-16367D01*
X36400Y-16298D01*
X36295Y-16254D01*
X36181Y-16239D01*
X36068Y-16254D01*
X35983Y-16289D01*
X35980Y-16290D01*
X35975Y-16292D01*
X35962Y-16298D01*
X35959Y-16300D01*
X35863Y-16346D01*
X35833Y-16359D01*
X35774Y-16379D01*
X35751Y-16386D01*
X35730Y-16390D01*
X35722Y-16391D01*
X32475D01*
X32466Y-16388D01*
X32454Y-16383D01*
X32440Y-16374D01*
X32423Y-16363D01*
X32405Y-16349D01*
X32360Y-16310D01*
X32341Y-16292D01*
X32336Y-16286D01*
X32263Y-16230D01*
X32178Y-16194D01*
X32087Y-16182D01*
D02*
G37*
G36*
X16723Y-16389D02*
X16291D01*
X15860D01*
X15868Y-16452D01*
X15912Y-16558D01*
X15935Y-16588D01*
X15936Y-16592D01*
X15938Y-16595D01*
X15939Y-16596D01*
X15941Y-16603D01*
X15944Y-16616D01*
X15946Y-16631D01*
X15952Y-16732D01*
Y-16953D01*
X15951Y-16997D01*
X15946Y-17045D01*
X15944Y-17061D01*
X15941Y-17074D01*
X15939Y-17081D01*
X15938Y-17082D01*
X15936Y-17085D01*
X15935Y-17089D01*
X15912Y-17119D01*
X15868Y-17225D01*
X15860Y-17289D01*
X16291D01*
X16723D01*
X16715Y-17225D01*
X16671Y-17119D01*
X16648Y-17089D01*
X16646Y-17085D01*
X16644Y-17082D01*
X16644Y-17081D01*
X16642Y-17074D01*
X16639Y-17061D01*
X16637Y-17046D01*
X16630Y-16945D01*
Y-16724D01*
X16632Y-16680D01*
X16637Y-16632D01*
X16639Y-16616D01*
X16642Y-16603D01*
X16644Y-16596D01*
X16644Y-16595D01*
X16646Y-16592D01*
X16648Y-16588D01*
X16671Y-16558D01*
X16715Y-16452D01*
X16723Y-16389D01*
D02*
G37*
G36*
X27149Y-14902D02*
X27035Y-14917D01*
X26929Y-14961D01*
X26839Y-15030D01*
X26769Y-15121D01*
X26725Y-15227D01*
X26710Y-15340D01*
X26725Y-15454D01*
X26769Y-15560D01*
X26795Y-15594D01*
X26799Y-15602D01*
X26830Y-15644D01*
X26881Y-15719D01*
X26918Y-15782D01*
X26930Y-15807D01*
X26939Y-15829D01*
X26945Y-15845D01*
X26946Y-15851D01*
Y-16323D01*
X26962Y-16401D01*
X26963Y-16403D01*
Y-16846D01*
X26962Y-16851D01*
X26958Y-16865D01*
X26937Y-16912D01*
X26924Y-16936D01*
X26859Y-17036D01*
X26831Y-17073D01*
X26828Y-17081D01*
X26803Y-17114D01*
X26761Y-17215D01*
X26747Y-17323D01*
X26761Y-17431D01*
X26803Y-17532D01*
X26869Y-17619D01*
X26956Y-17685D01*
X27057Y-17727D01*
X27165Y-17741D01*
X27274Y-17727D01*
X27375Y-17685D01*
X27461Y-17619D01*
X27528Y-17532D01*
X27570Y-17431D01*
X27584Y-17323D01*
X27570Y-17215D01*
X27528Y-17114D01*
X27504Y-17082D01*
X27500Y-17074D01*
X27446Y-16999D01*
X27426Y-16968D01*
X27392Y-16909D01*
X27382Y-16887D01*
X27374Y-16867D01*
X27369Y-16851D01*
X27368Y-16846D01*
Y-16340D01*
X27352Y-16263D01*
X27351Y-16261D01*
Y-15851D01*
X27352Y-15845D01*
X27358Y-15829D01*
X27367Y-15807D01*
X27378Y-15784D01*
X27468Y-15643D01*
X27498Y-15602D01*
X27502Y-15594D01*
X27528Y-15560D01*
X27572Y-15454D01*
X27587Y-15340D01*
X27572Y-15227D01*
X27528Y-15121D01*
X27459Y-15030D01*
X27368Y-14961D01*
X27262Y-14917D01*
X27149Y-14902D01*
D02*
G37*
G36*
X16723Y-17389D02*
X16341D01*
Y-17770D01*
X16405Y-17762D01*
X16511Y-17718D01*
X16601Y-17649D01*
X16671Y-17558D01*
X16715Y-17452D01*
X16723Y-17389D01*
D02*
G37*
G36*
X16241D02*
X15860D01*
X15868Y-17452D01*
X15912Y-17558D01*
X15981Y-17649D01*
X16072Y-17718D01*
X16178Y-17762D01*
X16241Y-17770D01*
Y-17389D01*
D02*
G37*
G36*
X19291Y-16900D02*
X19178Y-16915D01*
X19072Y-16959D01*
X18981Y-17029D01*
X18912Y-17119D01*
X18868Y-17225D01*
X18853Y-17339D01*
X18868Y-17452D01*
X18912Y-17558D01*
X18981Y-17649D01*
X19072Y-17718D01*
X19178Y-17762D01*
X19291Y-17777D01*
X19405Y-17762D01*
X19511Y-17718D01*
X19601Y-17649D01*
X19671Y-17558D01*
X19715Y-17452D01*
X19730Y-17339D01*
X19715Y-17225D01*
X19671Y-17119D01*
X19601Y-17029D01*
X19511Y-16959D01*
X19405Y-16915D01*
X19291Y-16900D01*
D02*
G37*
G36*
X36181Y-17239D02*
X36068Y-17254D01*
X35962Y-17298D01*
X35871Y-17367D01*
X35801Y-17458D01*
X35758Y-17564D01*
X35743Y-17677D01*
X35758Y-17791D01*
X35801Y-17896D01*
X35871Y-17987D01*
X35962Y-18057D01*
X36068Y-18101D01*
X36181Y-18116D01*
X36295Y-18101D01*
X36400Y-18057D01*
X36491Y-17987D01*
X36561Y-17896D01*
X36605Y-17791D01*
X36620Y-17677D01*
X36605Y-17564D01*
X36561Y-17458D01*
X36491Y-17367D01*
X36400Y-17298D01*
X36295Y-17254D01*
X36181Y-17239D01*
D02*
G37*
G36*
Y-18239D02*
X36068Y-18254D01*
X35962Y-18297D01*
X35871Y-18367D01*
X35801Y-18458D01*
X35758Y-18564D01*
X35743Y-18677D01*
X35758Y-18791D01*
X35801Y-18896D01*
X35871Y-18987D01*
X35962Y-19057D01*
X36068Y-19101D01*
X36181Y-19116D01*
X36295Y-19101D01*
X36400Y-19057D01*
X36491Y-18987D01*
X36561Y-18896D01*
X36605Y-18791D01*
X36620Y-18677D01*
X36605Y-18564D01*
X36561Y-18458D01*
X36491Y-18367D01*
X36400Y-18297D01*
X36295Y-18254D01*
X36181Y-18239D01*
D02*
G37*
G36*
Y-19239D02*
X36068Y-19254D01*
X35962Y-19297D01*
X35871Y-19367D01*
X35801Y-19458D01*
X35758Y-19564D01*
X35743Y-19677D01*
X35758Y-19791D01*
X35801Y-19896D01*
X35871Y-19987D01*
X35962Y-20057D01*
X36068Y-20101D01*
X36181Y-20116D01*
X36295Y-20101D01*
X36400Y-20057D01*
X36491Y-19987D01*
X36561Y-19896D01*
X36605Y-19791D01*
X36620Y-19677D01*
X36605Y-19564D01*
X36561Y-19458D01*
X36491Y-19367D01*
X36400Y-19297D01*
X36295Y-19254D01*
X36181Y-19239D01*
D02*
G37*
G36*
X11986Y-19144D02*
X11614D01*
X11242D01*
X11248Y-19193D01*
X11275Y-19257D01*
Y-19670D01*
X11267Y-19730D01*
Y-19968D01*
X11265Y-20013D01*
X11261Y-20061D01*
X11258Y-20077D01*
X11256Y-20089D01*
X11254Y-20097D01*
X11253Y-20097D01*
X11251Y-20101D01*
X11250Y-20105D01*
X11227Y-20135D01*
X11183Y-20241D01*
X11174Y-20304D01*
X11606D01*
X12038D01*
X12030Y-20241D01*
X11986Y-20135D01*
X11963Y-20105D01*
X11961Y-20101D01*
X11959Y-20097D01*
X11959Y-20097D01*
X11957Y-20089D01*
X11954Y-20077D01*
X11952Y-20062D01*
X11945Y-19961D01*
Y-19782D01*
X11953Y-19722D01*
Y-19257D01*
X11980Y-19193D01*
X11986Y-19144D01*
D02*
G37*
G36*
X12038Y-20404D02*
X11656D01*
Y-20786D01*
X11720Y-20778D01*
X11825Y-20734D01*
X11916Y-20664D01*
X11986Y-20574D01*
X12030Y-20468D01*
X12038Y-20404D01*
D02*
G37*
G36*
X14606Y-19916D02*
X14493Y-19931D01*
X14387Y-19975D01*
X14296Y-20044D01*
X14227Y-20135D01*
X14183Y-20241D01*
X14168Y-20354D01*
X14183Y-20468D01*
X14227Y-20574D01*
X14296Y-20664D01*
X14387Y-20734D01*
X14493Y-20778D01*
X14606Y-20793D01*
X14720Y-20778D01*
X14826Y-20734D01*
X14916Y-20664D01*
X14986Y-20574D01*
X15030Y-20468D01*
X15045Y-20354D01*
X15030Y-20241D01*
X14986Y-20135D01*
X14916Y-20044D01*
X14826Y-19975D01*
X14720Y-19931D01*
X14606Y-19916D01*
D02*
G37*
G36*
X13606D02*
X13493Y-19931D01*
X13387Y-19975D01*
X13296Y-20044D01*
X13227Y-20135D01*
X13183Y-20241D01*
X13168Y-20354D01*
X13183Y-20468D01*
X13227Y-20574D01*
X13296Y-20664D01*
X13387Y-20734D01*
X13493Y-20778D01*
X13606Y-20793D01*
X13720Y-20778D01*
X13826Y-20734D01*
X13916Y-20664D01*
X13986Y-20574D01*
X14030Y-20468D01*
X14045Y-20354D01*
X14030Y-20241D01*
X13986Y-20135D01*
X13916Y-20044D01*
X13826Y-19975D01*
X13720Y-19931D01*
X13606Y-19916D01*
D02*
G37*
G36*
X7545Y-20589D02*
X6676D01*
Y-21458D01*
X7545D01*
Y-20589D01*
D02*
G37*
G36*
X4117Y-20609D02*
X4003Y-20624D01*
X3898Y-20668D01*
X3807Y-20737D01*
X3737Y-20828D01*
X3693Y-20934D01*
X3679Y-21047D01*
X3693Y-21161D01*
X3737Y-21266D01*
X3807Y-21357D01*
X3898Y-21427D01*
X4003Y-21471D01*
X4117Y-21486D01*
X4230Y-21471D01*
X4336Y-21427D01*
X4427Y-21357D01*
X4497Y-21266D01*
X4540Y-21161D01*
X4555Y-21047D01*
X4540Y-20934D01*
X4497Y-20828D01*
X4427Y-20737D01*
X4336Y-20668D01*
X4230Y-20624D01*
X4117Y-20609D01*
D02*
G37*
G36*
X36131Y-21245D02*
X36068Y-21254D01*
X35962Y-21298D01*
X35871Y-21367D01*
X35801Y-21458D01*
X35758Y-21564D01*
X35749Y-21627D01*
X36131D01*
Y-21245D01*
D02*
G37*
G36*
X4167Y-21615D02*
Y-21997D01*
X4549D01*
X4540Y-21934D01*
X4497Y-21828D01*
X4427Y-21737D01*
X4336Y-21668D01*
X4230Y-21624D01*
X4167Y-21615D01*
D02*
G37*
G36*
X36613Y-21727D02*
X36231D01*
Y-22109D01*
X36295Y-22101D01*
X36400Y-22057D01*
X36491Y-21987D01*
X36561Y-21896D01*
X36605Y-21791D01*
X36613Y-21727D01*
D02*
G37*
G36*
X36131D02*
X35749D01*
X35758Y-21791D01*
X35801Y-21896D01*
X35871Y-21987D01*
X35962Y-22057D01*
X36068Y-22101D01*
X36131Y-22109D01*
Y-21727D01*
D02*
G37*
G36*
X30816Y-21761D02*
Y-22143D01*
X31198D01*
X31190Y-22079D01*
X31146Y-21973D01*
X31076Y-21883D01*
X30985Y-21813D01*
X30880Y-21769D01*
X30816Y-21761D01*
D02*
G37*
G36*
X30716D02*
X30653Y-21769D01*
X30547Y-21813D01*
X30456Y-21883D01*
X30387Y-21973D01*
X30343Y-22079D01*
X30334Y-22143D01*
X30716D01*
Y-21761D01*
D02*
G37*
G36*
X28022Y-21781D02*
X27959Y-21789D01*
X27853Y-21833D01*
X27763Y-21903D01*
X27693Y-21993D01*
X27649Y-22099D01*
X27641Y-22163D01*
X28022D01*
Y-21781D01*
D02*
G37*
G36*
X4549Y-22097D02*
X4167D01*
Y-22479D01*
X4230Y-22471D01*
X4336Y-22427D01*
X4427Y-22357D01*
X4497Y-22266D01*
X4540Y-22161D01*
X4549Y-22097D01*
D02*
G37*
G36*
X31198Y-22243D02*
X30816D01*
Y-22624D01*
X30880Y-22616D01*
X30985Y-22572D01*
X31076Y-22503D01*
X31146Y-22412D01*
X31190Y-22306D01*
X31198Y-22243D01*
D02*
G37*
G36*
X30716D02*
X30334D01*
X30343Y-22306D01*
X30387Y-22412D01*
X30456Y-22503D01*
X30547Y-22572D01*
X30653Y-22616D01*
X30716Y-22624D01*
Y-22243D01*
D02*
G37*
G36*
X24189D02*
X23807D01*
Y-22624D01*
X23870Y-22616D01*
X23976Y-22572D01*
X24067Y-22503D01*
X24136Y-22412D01*
X24180Y-22306D01*
X24189Y-22243D01*
D02*
G37*
G36*
X21495Y-22263D02*
X21113D01*
Y-22644D01*
X21176Y-22636D01*
X21282Y-22592D01*
X21373Y-22523D01*
X21443Y-22432D01*
X21486Y-22326D01*
X21495Y-22263D01*
D02*
G37*
G36*
X30776Y-23484D02*
X30663Y-23499D01*
X30557Y-23543D01*
X30466Y-23613D01*
X30397Y-23703D01*
X30353Y-23809D01*
X30338Y-23923D01*
X30353Y-24036D01*
X30397Y-24142D01*
X30466Y-24233D01*
X30557Y-24302D01*
X30663Y-24346D01*
X30776Y-24361D01*
X30890Y-24346D01*
X30995Y-24302D01*
X31086Y-24233D01*
X31156Y-24142D01*
X31200Y-24036D01*
X31215Y-23923D01*
X31200Y-23809D01*
X31156Y-23703D01*
X31086Y-23613D01*
X30995Y-23543D01*
X30890Y-23499D01*
X30776Y-23484D01*
D02*
G37*
G36*
X23767D02*
X23653Y-23499D01*
X23547Y-23543D01*
X23457Y-23613D01*
X23387Y-23703D01*
X23343Y-23809D01*
X23328Y-23923D01*
X23343Y-24036D01*
X23387Y-24142D01*
X23457Y-24233D01*
X23547Y-24302D01*
X23653Y-24346D01*
X23767Y-24361D01*
X23880Y-24346D01*
X23986Y-24302D01*
X24077Y-24233D01*
X24146Y-24142D01*
X24190Y-24036D01*
X24205Y-23923D01*
X24190Y-23809D01*
X24146Y-23703D01*
X24077Y-23613D01*
X23986Y-23543D01*
X23880Y-23499D01*
X23767Y-23484D01*
D02*
G37*
G36*
X8110Y-20585D02*
X7997Y-20600D01*
X7891Y-20644D01*
X7800Y-20714D01*
X7731Y-20804D01*
X7687Y-20910D01*
X7672Y-21024D01*
X7687Y-21137D01*
X7731Y-21243D01*
X7800Y-21334D01*
X7891Y-21403D01*
X7997Y-21447D01*
X8039Y-21453D01*
X8048Y-21456D01*
X8100Y-21464D01*
X8189Y-21481D01*
X8260Y-21499D01*
X8286Y-21508D01*
X8308Y-21517D01*
X8323Y-21525D01*
X8328Y-21528D01*
X8656Y-21855D01*
Y-23850D01*
X8656Y-23853D01*
X8653Y-23865D01*
X8648Y-23880D01*
X8641Y-23896D01*
X8632Y-23914D01*
X8622Y-23933D01*
X8593Y-23978D01*
X8576Y-24003D01*
X8572Y-24010D01*
X8553Y-24036D01*
X8517Y-24121D01*
X8505Y-24213D01*
X8517Y-24304D01*
X8553Y-24389D01*
X8609Y-24462D01*
X8682Y-24518D01*
X8767Y-24554D01*
X8858Y-24566D01*
X8950Y-24554D01*
X9035Y-24518D01*
X9108Y-24462D01*
X9164Y-24389D01*
X9199Y-24304D01*
X9211Y-24213D01*
X9199Y-24121D01*
X9164Y-24036D01*
X9144Y-24010D01*
X9141Y-24003D01*
X9123Y-23978D01*
X9094Y-23933D01*
X9084Y-23914D01*
X9075Y-23896D01*
X9069Y-23880D01*
X9064Y-23865D01*
X9061Y-23853D01*
X9061Y-23850D01*
Y-21772D01*
X9045Y-21694D01*
X9001Y-21629D01*
X8614Y-21242D01*
X8611Y-21237D01*
X8603Y-21221D01*
X8595Y-21199D01*
X8586Y-21175D01*
X8550Y-21011D01*
X8542Y-20961D01*
X8539Y-20953D01*
X8534Y-20910D01*
X8490Y-20804D01*
X8420Y-20714D01*
X8329Y-20644D01*
X8224Y-20600D01*
X8110Y-20585D01*
D02*
G37*
G36*
X12041Y-24920D02*
X11656D01*
Y-25304D01*
X12041D01*
Y-24920D01*
D02*
G37*
G36*
X11556D02*
X11172D01*
Y-25304D01*
X11556D01*
Y-24920D01*
D02*
G37*
G36*
X7110Y-24916D02*
X6997Y-24931D01*
X6891Y-24975D01*
X6800Y-25044D01*
X6731Y-25135D01*
X6687Y-25241D01*
X6672Y-25354D01*
X6687Y-25468D01*
X6731Y-25574D01*
X6800Y-25664D01*
X6891Y-25734D01*
X6997Y-25778D01*
X7110Y-25793D01*
X7224Y-25778D01*
X7329Y-25734D01*
X7420Y-25664D01*
X7490Y-25574D01*
X7534Y-25468D01*
X7549Y-25354D01*
X7534Y-25241D01*
X7490Y-25135D01*
X7420Y-25044D01*
X7329Y-24975D01*
X7224Y-24931D01*
X7110Y-24916D01*
D02*
G37*
G36*
X4134Y-25530D02*
X4020Y-25545D01*
X3915Y-25589D01*
X3824Y-25659D01*
X3754Y-25749D01*
X3710Y-25855D01*
X3695Y-25968D01*
X3710Y-26082D01*
X3754Y-26188D01*
X3824Y-26278D01*
X3915Y-26348D01*
X4020Y-26392D01*
X4134Y-26407D01*
X4247Y-26392D01*
X4353Y-26348D01*
X4444Y-26278D01*
X4514Y-26188D01*
X4557Y-26082D01*
X4572Y-25968D01*
X4557Y-25855D01*
X4514Y-25749D01*
X4444Y-25659D01*
X4353Y-25589D01*
X4247Y-25545D01*
X4134Y-25530D01*
D02*
G37*
G36*
X36142Y-25908D02*
X36028Y-25923D01*
X35923Y-25967D01*
X35832Y-26036D01*
X35762Y-26127D01*
X35718Y-26233D01*
X35703Y-26346D01*
X35718Y-26460D01*
X35762Y-26566D01*
X35832Y-26656D01*
X35923Y-26726D01*
X36028Y-26770D01*
X36142Y-26785D01*
X36255Y-26770D01*
X36361Y-26726D01*
X36452Y-26656D01*
X36521Y-26566D01*
X36565Y-26460D01*
X36580Y-26346D01*
X36565Y-26233D01*
X36521Y-26127D01*
X36452Y-26036D01*
X36361Y-25967D01*
X36255Y-25923D01*
X36142Y-25908D01*
D02*
G37*
G36*
X30716Y-27014D02*
X30653Y-27022D01*
X30547Y-27066D01*
X30456Y-27136D01*
X30387Y-27227D01*
X30343Y-27332D01*
X30334Y-27396D01*
X30716D01*
Y-27014D01*
D02*
G37*
G36*
X23807D02*
Y-27396D01*
X24189D01*
X24180Y-27332D01*
X24136Y-27227D01*
X24067Y-27136D01*
X23976Y-27066D01*
X23870Y-27022D01*
X23807Y-27014D01*
D02*
G37*
G36*
X23707D02*
X23643Y-27022D01*
X23537Y-27066D01*
X23447Y-27136D01*
X23377Y-27227D01*
X23333Y-27332D01*
X23325Y-27396D01*
X23707D01*
Y-27014D01*
D02*
G37*
G36*
X21113Y-27034D02*
Y-27416D01*
X21495D01*
X21486Y-27352D01*
X21443Y-27247D01*
X21373Y-27156D01*
X21282Y-27086D01*
X21176Y-27042D01*
X21113Y-27034D01*
D02*
G37*
G36*
X21013D02*
X20950Y-27042D01*
X20844Y-27086D01*
X20753Y-27156D01*
X20683Y-27247D01*
X20640Y-27352D01*
X20631Y-27416D01*
X21013D01*
Y-27034D01*
D02*
G37*
G36*
X13606Y-24916D02*
X13493Y-24931D01*
X13387Y-24975D01*
X13296Y-25044D01*
X13227Y-25135D01*
X13183Y-25241D01*
X13168Y-25354D01*
X13183Y-25468D01*
X13227Y-25574D01*
X13253Y-25608D01*
X13257Y-25616D01*
X13288Y-25658D01*
X13339Y-25733D01*
X13376Y-25796D01*
X13388Y-25821D01*
X13397Y-25842D01*
X13403Y-25859D01*
X13404Y-25865D01*
Y-26245D01*
X13392Y-26257D01*
X13349Y-26323D01*
X13333Y-26400D01*
Y-26915D01*
X13332Y-26930D01*
X13328Y-26951D01*
X13324Y-26966D01*
X13324Y-26967D01*
X13140D01*
Y-27757D01*
X13931D01*
Y-26967D01*
X13747D01*
X13746Y-26966D01*
X13743Y-26951D01*
X13739Y-26930D01*
X13738Y-26915D01*
Y-26484D01*
X13749Y-26472D01*
X13793Y-26407D01*
X13809Y-26329D01*
Y-25865D01*
X13810Y-25859D01*
X13815Y-25842D01*
X13824Y-25821D01*
X13836Y-25798D01*
X13926Y-25657D01*
X13956Y-25616D01*
X13960Y-25608D01*
X13986Y-25574D01*
X14030Y-25468D01*
X14045Y-25354D01*
X14030Y-25241D01*
X13986Y-25135D01*
X13916Y-25044D01*
X13826Y-24975D01*
X13720Y-24931D01*
X13606Y-24916D01*
D02*
G37*
G36*
X16606D02*
X16493Y-24931D01*
X16387Y-24975D01*
X16296Y-25044D01*
X16227Y-25135D01*
X16183Y-25241D01*
X16168Y-25354D01*
X16183Y-25468D01*
X16227Y-25574D01*
X16253Y-25608D01*
X16257Y-25616D01*
X16288Y-25658D01*
X16339Y-25733D01*
X16376Y-25796D01*
X16388Y-25821D01*
X16397Y-25842D01*
X16403Y-25859D01*
X16404Y-25865D01*
Y-26245D01*
X16392Y-26257D01*
X16349Y-26323D01*
X16333Y-26400D01*
Y-26920D01*
X16332Y-26924D01*
X16328Y-26939D01*
X16321Y-26957D01*
X16311Y-26979D01*
X16299Y-27001D01*
X16241Y-27091D01*
X16217Y-27125D01*
X16213Y-27133D01*
X16190Y-27163D01*
X16150Y-27259D01*
X16137Y-27362D01*
X16150Y-27465D01*
X16190Y-27562D01*
X16254Y-27644D01*
X16336Y-27707D01*
X16432Y-27747D01*
X16535Y-27761D01*
X16639Y-27747D01*
X16735Y-27707D01*
X16817Y-27644D01*
X16881Y-27562D01*
X16921Y-27465D01*
X16934Y-27362D01*
X16921Y-27259D01*
X16881Y-27163D01*
X16858Y-27133D01*
X16855Y-27126D01*
X16807Y-27059D01*
X16772Y-27002D01*
X16760Y-26979D01*
X16750Y-26957D01*
X16743Y-26939D01*
X16739Y-26924D01*
X16738Y-26920D01*
Y-26484D01*
X16749Y-26472D01*
X16793Y-26407D01*
X16809Y-26329D01*
Y-25865D01*
X16810Y-25859D01*
X16815Y-25842D01*
X16825Y-25821D01*
X16836Y-25798D01*
X16926Y-25657D01*
X16956Y-25616D01*
X16960Y-25608D01*
X16986Y-25574D01*
X17030Y-25468D01*
X17045Y-25354D01*
X17030Y-25241D01*
X16986Y-25135D01*
X16916Y-25044D01*
X16825Y-24975D01*
X16720Y-24931D01*
X16606Y-24916D01*
D02*
G37*
G36*
X15606D02*
X15493Y-24931D01*
X15387Y-24975D01*
X15296Y-25044D01*
X15227Y-25135D01*
X15183Y-25241D01*
X15168Y-25354D01*
X15183Y-25468D01*
X15227Y-25574D01*
X15253Y-25608D01*
X15257Y-25616D01*
X15288Y-25658D01*
X15339Y-25733D01*
X15376Y-25796D01*
X15388Y-25821D01*
X15397Y-25842D01*
X15403Y-25859D01*
X15404Y-25865D01*
Y-26245D01*
X15392Y-26257D01*
X15349Y-26323D01*
X15333Y-26400D01*
Y-26920D01*
X15332Y-26924D01*
X15328Y-26939D01*
X15321Y-26957D01*
X15311Y-26979D01*
X15299Y-27001D01*
X15241Y-27091D01*
X15217Y-27125D01*
X15213Y-27133D01*
X15190Y-27163D01*
X15150Y-27259D01*
X15137Y-27362D01*
X15150Y-27465D01*
X15190Y-27562D01*
X15254Y-27644D01*
X15336Y-27707D01*
X15432Y-27747D01*
X15535Y-27761D01*
X15639Y-27747D01*
X15735Y-27707D01*
X15817Y-27644D01*
X15881Y-27562D01*
X15921Y-27465D01*
X15934Y-27362D01*
X15921Y-27259D01*
X15881Y-27163D01*
X15858Y-27133D01*
X15855Y-27126D01*
X15807Y-27059D01*
X15772Y-27002D01*
X15760Y-26979D01*
X15750Y-26957D01*
X15743Y-26939D01*
X15739Y-26924D01*
X15738Y-26920D01*
Y-26484D01*
X15749Y-26472D01*
X15793Y-26407D01*
X15809Y-26329D01*
Y-25865D01*
X15810Y-25859D01*
X15815Y-25842D01*
X15825Y-25821D01*
X15836Y-25798D01*
X15926Y-25657D01*
X15956Y-25616D01*
X15960Y-25608D01*
X15986Y-25574D01*
X16030Y-25468D01*
X16045Y-25354D01*
X16030Y-25241D01*
X15986Y-25135D01*
X15916Y-25044D01*
X15826Y-24975D01*
X15720Y-24931D01*
X15606Y-24916D01*
D02*
G37*
G36*
X14606D02*
X14493Y-24931D01*
X14387Y-24975D01*
X14296Y-25044D01*
X14227Y-25135D01*
X14183Y-25241D01*
X14168Y-25354D01*
X14183Y-25468D01*
X14227Y-25574D01*
X14253Y-25608D01*
X14257Y-25616D01*
X14288Y-25658D01*
X14339Y-25733D01*
X14376Y-25796D01*
X14388Y-25821D01*
X14397Y-25842D01*
X14403Y-25859D01*
X14404Y-25865D01*
Y-26245D01*
X14392Y-26257D01*
X14349Y-26323D01*
X14333Y-26400D01*
Y-26920D01*
X14332Y-26924D01*
X14328Y-26939D01*
X14321Y-26957D01*
X14311Y-26979D01*
X14299Y-27001D01*
X14241Y-27091D01*
X14217Y-27125D01*
X14213Y-27133D01*
X14190Y-27163D01*
X14150Y-27259D01*
X14137Y-27362D01*
X14150Y-27465D01*
X14190Y-27562D01*
X14254Y-27644D01*
X14336Y-27707D01*
X14432Y-27747D01*
X14535Y-27761D01*
X14639Y-27747D01*
X14735Y-27707D01*
X14817Y-27644D01*
X14881Y-27562D01*
X14921Y-27465D01*
X14934Y-27362D01*
X14921Y-27259D01*
X14881Y-27163D01*
X14858Y-27133D01*
X14855Y-27126D01*
X14807Y-27059D01*
X14772Y-27002D01*
X14760Y-26979D01*
X14750Y-26957D01*
X14743Y-26939D01*
X14739Y-26924D01*
X14738Y-26920D01*
Y-26484D01*
X14749Y-26472D01*
X14793Y-26407D01*
X14809Y-26329D01*
Y-25865D01*
X14810Y-25859D01*
X14815Y-25842D01*
X14825Y-25821D01*
X14836Y-25798D01*
X14926Y-25657D01*
X14956Y-25616D01*
X14960Y-25608D01*
X14986Y-25574D01*
X15030Y-25468D01*
X15045Y-25354D01*
X15030Y-25241D01*
X14986Y-25135D01*
X14916Y-25044D01*
X14826Y-24975D01*
X14720Y-24931D01*
X14606Y-24916D01*
D02*
G37*
G36*
X36142Y-26908D02*
X36028Y-26923D01*
X35923Y-26967D01*
X35832Y-27036D01*
X35762Y-27127D01*
X35718Y-27233D01*
X35703Y-27346D01*
X35718Y-27460D01*
X35762Y-27566D01*
X35832Y-27656D01*
X35923Y-27726D01*
X36028Y-27770D01*
X36142Y-27785D01*
X36255Y-27770D01*
X36361Y-27726D01*
X36452Y-27656D01*
X36521Y-27566D01*
X36565Y-27460D01*
X36580Y-27346D01*
X36565Y-27233D01*
X36521Y-27127D01*
X36452Y-27036D01*
X36361Y-26967D01*
X36255Y-26923D01*
X36142Y-26908D01*
D02*
G37*
G36*
X24189Y-27496D02*
X23807D01*
Y-27878D01*
X23870Y-27869D01*
X23976Y-27826D01*
X24067Y-27756D01*
X24136Y-27665D01*
X24180Y-27559D01*
X24189Y-27496D01*
D02*
G37*
G36*
X23707D02*
X23325D01*
X23333Y-27559D01*
X23377Y-27665D01*
X23447Y-27756D01*
X23537Y-27826D01*
X23643Y-27869D01*
X23707Y-27878D01*
Y-27496D01*
D02*
G37*
G36*
X28122Y-21781D02*
Y-22213D01*
X28073D01*
Y-22263D01*
X27641D01*
X27649Y-22326D01*
X27693Y-22432D01*
X27763Y-22523D01*
X27853Y-22592D01*
X27959Y-22636D01*
X27997Y-22641D01*
X28001Y-22643D01*
X28005Y-22644D01*
X28005Y-22644D01*
X28012Y-22648D01*
X28023Y-22655D01*
X28035Y-22663D01*
X28111Y-22731D01*
X28795Y-23414D01*
Y-26264D01*
X28106Y-26953D01*
X28073Y-26984D01*
X28036Y-27014D01*
X28023Y-27024D01*
X28012Y-27031D01*
X28005Y-27034D01*
X28005Y-27035D01*
X28001Y-27036D01*
X27997Y-27037D01*
X27959Y-27042D01*
X27853Y-27086D01*
X27763Y-27156D01*
X27693Y-27247D01*
X27649Y-27352D01*
X27641Y-27416D01*
X28073D01*
Y-27466D01*
X28122D01*
Y-27898D01*
X28186Y-27889D01*
X28292Y-27846D01*
X28382Y-27776D01*
X28452Y-27685D01*
X28496Y-27579D01*
X28501Y-27541D01*
X28503Y-27538D01*
X28504Y-27534D01*
X28504Y-27533D01*
X28508Y-27526D01*
X28515Y-27516D01*
X28523Y-27504D01*
X28591Y-27427D01*
X29374Y-26644D01*
X29428Y-26574D01*
X29461Y-26492D01*
X29473Y-26405D01*
Y-23274D01*
X29461Y-23186D01*
X29428Y-23104D01*
X29374Y-23034D01*
X28585Y-22246D01*
X28555Y-22213D01*
X28524Y-22176D01*
X28515Y-22163D01*
X28508Y-22152D01*
X28504Y-22145D01*
X28504Y-22145D01*
X28503Y-22141D01*
X28501Y-22137D01*
X28496Y-22099D01*
X28452Y-21993D01*
X28382Y-21903D01*
X28292Y-21833D01*
X28186Y-21789D01*
X28122Y-21781D01*
D02*
G37*
G36*
X28022Y-27516D02*
X27641D01*
X27649Y-27579D01*
X27693Y-27685D01*
X27763Y-27776D01*
X27853Y-27846D01*
X27959Y-27889D01*
X28022Y-27898D01*
Y-27516D01*
D02*
G37*
G36*
X21495D02*
X21113D01*
Y-27898D01*
X21176Y-27889D01*
X21282Y-27846D01*
X21373Y-27776D01*
X21443Y-27685D01*
X21486Y-27579D01*
X21495Y-27516D01*
D02*
G37*
G36*
X21013D02*
X20631D01*
X20640Y-27579D01*
X20683Y-27685D01*
X20753Y-27776D01*
X20844Y-27846D01*
X20950Y-27889D01*
X21013Y-27898D01*
Y-27516D01*
D02*
G37*
G36*
X7362Y-26511D02*
X7254Y-26525D01*
X7153Y-26567D01*
X7066Y-26633D01*
X7000Y-26720D01*
X6958Y-26821D01*
X6944Y-26929D01*
X6958Y-27037D01*
X7000Y-27138D01*
X7024Y-27170D01*
X7027Y-27178D01*
X7081Y-27253D01*
X7102Y-27284D01*
X7135Y-27343D01*
X7146Y-27365D01*
X7154Y-27385D01*
X7159Y-27401D01*
X7160Y-27406D01*
Y-28047D01*
X7175Y-28125D01*
X7219Y-28190D01*
X7551Y-28522D01*
X7554Y-28527D01*
X7562Y-28543D01*
X7571Y-28564D01*
X7579Y-28589D01*
X7615Y-28752D01*
X7623Y-28803D01*
X7626Y-28811D01*
X7632Y-28854D01*
X7675Y-28959D01*
X7745Y-29050D01*
X7836Y-29120D01*
X7942Y-29164D01*
X8055Y-29179D01*
X8169Y-29164D01*
X8274Y-29120D01*
X8365Y-29050D01*
X8435Y-28959D01*
X8479Y-28854D01*
X8494Y-28740D01*
X8479Y-28627D01*
X8435Y-28521D01*
X8365Y-28430D01*
X8274Y-28361D01*
X8169Y-28317D01*
X8126Y-28311D01*
X8118Y-28308D01*
X8066Y-28300D01*
X7976Y-28283D01*
X7905Y-28265D01*
X7879Y-28256D01*
X7858Y-28247D01*
X7842Y-28239D01*
X7837Y-28236D01*
X7565Y-27963D01*
Y-27406D01*
X7566Y-27401D01*
X7570Y-27387D01*
X7591Y-27340D01*
X7603Y-27316D01*
X7669Y-27216D01*
X7696Y-27179D01*
X7700Y-27171D01*
X7725Y-27138D01*
X7766Y-27037D01*
X7781Y-26929D01*
X7766Y-26821D01*
X7725Y-26720D01*
X7658Y-26633D01*
X7571Y-26567D01*
X7471Y-26525D01*
X7362Y-26511D01*
D02*
G37*
G36*
X30776Y-28737D02*
X30663Y-28752D01*
X30557Y-28796D01*
X30466Y-28866D01*
X30397Y-28957D01*
X30353Y-29062D01*
X30338Y-29176D01*
X30353Y-29289D01*
X30397Y-29395D01*
X30466Y-29486D01*
X30557Y-29556D01*
X30663Y-29599D01*
X30776Y-29614D01*
X30890Y-29599D01*
X30995Y-29556D01*
X31086Y-29486D01*
X31156Y-29395D01*
X31200Y-29289D01*
X31215Y-29176D01*
X31200Y-29062D01*
X31156Y-28957D01*
X31086Y-28866D01*
X30995Y-28796D01*
X30890Y-28752D01*
X30776Y-28737D01*
D02*
G37*
G36*
X23767D02*
X23653Y-28752D01*
X23547Y-28796D01*
X23457Y-28866D01*
X23387Y-28957D01*
X23343Y-29062D01*
X23328Y-29176D01*
X23343Y-29289D01*
X23387Y-29395D01*
X23457Y-29486D01*
X23547Y-29556D01*
X23653Y-29599D01*
X23767Y-29614D01*
X23880Y-29599D01*
X23986Y-29556D01*
X24077Y-29486D01*
X24146Y-29395D01*
X24190Y-29289D01*
X24205Y-29176D01*
X24190Y-29062D01*
X24146Y-28957D01*
X24077Y-28866D01*
X23986Y-28796D01*
X23880Y-28752D01*
X23767Y-28737D01*
D02*
G37*
G36*
X36576Y-29912D02*
X36192D01*
Y-30296D01*
X36576D01*
Y-29912D01*
D02*
G37*
G36*
X36092D02*
X35707D01*
Y-30296D01*
X36092D01*
Y-29912D01*
D02*
G37*
G36*
X36576Y-30396D02*
X36192D01*
Y-30781D01*
X36576D01*
Y-30396D01*
D02*
G37*
G36*
X36092D02*
X35707D01*
Y-30781D01*
X36092D01*
Y-30396D01*
D02*
G37*
G36*
X9080Y-30471D02*
X8211D01*
Y-31340D01*
X9080D01*
Y-30471D01*
D02*
G37*
G36*
X9646Y-30467D02*
X9532Y-30482D01*
X9426Y-30526D01*
X9336Y-30596D01*
X9266Y-30686D01*
X9222Y-30792D01*
X9207Y-30906D01*
X9222Y-31019D01*
X9266Y-31125D01*
X9336Y-31216D01*
X9426Y-31285D01*
X9532Y-31329D01*
X9646Y-31344D01*
X9759Y-31329D01*
X9865Y-31285D01*
X9956Y-31216D01*
X10025Y-31125D01*
X10069Y-31019D01*
X10084Y-30906D01*
X10069Y-30792D01*
X10025Y-30686D01*
X9956Y-30596D01*
X9865Y-30526D01*
X9759Y-30482D01*
X9646Y-30467D01*
D02*
G37*
G36*
X30816Y-27014D02*
Y-27446D01*
X30766D01*
Y-27496D01*
X30334D01*
X30343Y-27559D01*
X30387Y-27665D01*
X30456Y-27756D01*
X30547Y-27826D01*
X30653Y-27869D01*
X30691Y-27874D01*
X30695Y-27876D01*
X30698Y-27877D01*
X30699Y-27877D01*
X30706Y-27881D01*
X30716Y-27888D01*
X30728Y-27897D01*
X30805Y-27964D01*
X31551Y-28710D01*
Y-31166D01*
X31546Y-31359D01*
X31538Y-31466D01*
X31533Y-31494D01*
X31494D01*
Y-31592D01*
X31494Y-31596D01*
X31494Y-31596D01*
X31494Y-31597D01*
X31494Y-31601D01*
Y-31840D01*
X31890D01*
X32285D01*
Y-31601D01*
X32286Y-31597D01*
X32286Y-31596D01*
X32286Y-31596D01*
X32285Y-31592D01*
Y-31494D01*
X32247D01*
X32229Y-31215D01*
Y-28569D01*
X32217Y-28482D01*
X32203Y-28448D01*
X32183Y-28400D01*
X32130Y-28330D01*
X31279Y-27479D01*
X31249Y-27446D01*
X31218Y-27409D01*
X31208Y-27396D01*
X31201Y-27385D01*
X31198Y-27379D01*
X31197Y-27378D01*
X31196Y-27374D01*
X31195Y-27370D01*
X31190Y-27332D01*
X31146Y-27227D01*
X31076Y-27136D01*
X30985Y-27066D01*
X30880Y-27022D01*
X30816Y-27014D01*
D02*
G37*
G36*
X2953Y-31475D02*
X2850Y-31489D01*
X2753Y-31529D01*
X2671Y-31592D01*
X2607Y-31675D01*
X2568Y-31771D01*
X2554Y-31874D01*
X2568Y-31977D01*
X2607Y-32073D01*
X2671Y-32156D01*
X2753Y-32219D01*
X2850Y-32259D01*
X2953Y-32273D01*
X3056Y-32259D01*
X3152Y-32219D01*
X3235Y-32156D01*
X3298Y-32073D01*
X3338Y-31977D01*
X3351Y-31874D01*
X3338Y-31771D01*
X3298Y-31675D01*
X3235Y-31592D01*
X3152Y-31529D01*
X3056Y-31489D01*
X2953Y-31475D01*
D02*
G37*
G36*
X32285Y-31940D02*
X31890D01*
X31494D01*
Y-32179D01*
X31494Y-32182D01*
X31494Y-32183D01*
X31494Y-32184D01*
X31494Y-32188D01*
Y-32285D01*
X31532D01*
X31551Y-32564D01*
Y-32682D01*
X31544Y-32690D01*
X31505Y-32787D01*
X31498Y-32840D01*
X31890D01*
X32282D01*
X32275Y-32787D01*
X32235Y-32690D01*
X32229Y-32682D01*
Y-32614D01*
X32233Y-32421D01*
X32242Y-32314D01*
X32246Y-32285D01*
X32285D01*
Y-32188D01*
X32286Y-32184D01*
X32286Y-32183D01*
X32286Y-32182D01*
X32285Y-32179D01*
Y-31940D01*
D02*
G37*
G36*
X30003Y-32579D02*
Y-33218D01*
X30642D01*
X30633Y-33132D01*
X30594Y-33002D01*
X30530Y-32882D01*
X30443Y-32777D01*
X30338Y-32691D01*
X30218Y-32627D01*
X30088Y-32587D01*
X30003Y-32579D01*
D02*
G37*
G36*
X29903D02*
X29817Y-32587D01*
X29687Y-32627D01*
X29567Y-32691D01*
X29462Y-32777D01*
X29376Y-32882D01*
X29312Y-33002D01*
X29272Y-33132D01*
X29264Y-33218D01*
X29903D01*
Y-32579D01*
D02*
G37*
G36*
X28643Y-32577D02*
X28003D01*
Y-33218D01*
X28643D01*
Y-32577D01*
D02*
G37*
G36*
X27903D02*
X27262D01*
Y-33218D01*
X27903D01*
Y-32577D01*
D02*
G37*
G36*
X3348Y-32479D02*
X2557D01*
Y-33269D01*
X3348D01*
Y-32479D01*
D02*
G37*
G36*
X5118Y-32455D02*
X5010Y-32470D01*
X4909Y-32512D01*
X4822Y-32578D01*
X4756Y-32665D01*
X4714Y-32766D01*
X4700Y-32874D01*
X4714Y-32982D01*
X4756Y-33083D01*
X4822Y-33170D01*
X4909Y-33236D01*
X5010Y-33278D01*
X5118Y-33293D01*
X5226Y-33278D01*
X5327Y-33236D01*
X5414Y-33170D01*
X5481Y-33083D01*
X5522Y-32982D01*
X5537Y-32874D01*
X5522Y-32766D01*
X5481Y-32665D01*
X5414Y-32578D01*
X5327Y-32512D01*
X5226Y-32470D01*
X5118Y-32455D01*
D02*
G37*
G36*
X32282Y-32940D02*
X31890D01*
X31498D01*
X31505Y-32993D01*
X31544Y-33089D01*
X31551Y-33097D01*
Y-33682D01*
X31544Y-33690D01*
X31505Y-33787D01*
X31498Y-33840D01*
X31890D01*
X32282D01*
X32275Y-33787D01*
X32235Y-33690D01*
X32229Y-33682D01*
Y-33097D01*
X32235Y-33089D01*
X32275Y-32993D01*
X32282Y-32940D01*
D02*
G37*
G36*
X30642Y-33318D02*
X30003D01*
Y-33957D01*
X30088Y-33948D01*
X30218Y-33909D01*
X30338Y-33845D01*
X30443Y-33758D01*
X30530Y-33653D01*
X30594Y-33533D01*
X30633Y-33403D01*
X30642Y-33318D01*
D02*
G37*
G36*
X29903D02*
X29264D01*
X29272Y-33403D01*
X29312Y-33533D01*
X29376Y-33653D01*
X29462Y-33758D01*
X29567Y-33845D01*
X29687Y-33909D01*
X29817Y-33948D01*
X29903Y-33957D01*
Y-33318D01*
D02*
G37*
G36*
X28643D02*
X28003D01*
Y-33958D01*
X28643D01*
Y-33318D01*
D02*
G37*
G36*
X27903D02*
X27262D01*
Y-33958D01*
X27903D01*
Y-33318D01*
D02*
G37*
G36*
X21328Y-32577D02*
X19947D01*
Y-33958D01*
X21328D01*
Y-32577D01*
D02*
G37*
G36*
X22638Y-32574D02*
X22502Y-32587D01*
X22372Y-32627D01*
X22252Y-32691D01*
X22147Y-32777D01*
X22061Y-32882D01*
X21997Y-33002D01*
X21957Y-33132D01*
X21944Y-33268D01*
X21957Y-33403D01*
X21997Y-33533D01*
X22061Y-33653D01*
X22147Y-33758D01*
X22252Y-33845D01*
X22372Y-33909D01*
X22502Y-33948D01*
X22638Y-33962D01*
X22773Y-33948D01*
X22903Y-33909D01*
X23023Y-33845D01*
X23128Y-33758D01*
X23215Y-33653D01*
X23279Y-33533D01*
X23318Y-33403D01*
X23332Y-33268D01*
X23318Y-33132D01*
X23279Y-33002D01*
X23215Y-32882D01*
X23128Y-32777D01*
X23023Y-32691D01*
X22903Y-32627D01*
X22773Y-32587D01*
X22638Y-32574D01*
D02*
G37*
G36*
X15157D02*
X15022Y-32587D01*
X14892Y-32627D01*
X14772Y-32691D01*
X14667Y-32777D01*
X14581Y-32882D01*
X14516Y-33002D01*
X14477Y-33132D01*
X14464Y-33268D01*
X14477Y-33403D01*
X14516Y-33533D01*
X14581Y-33653D01*
X14667Y-33758D01*
X14772Y-33845D01*
X14892Y-33909D01*
X15022Y-33948D01*
X15157Y-33962D01*
X15293Y-33948D01*
X15423Y-33909D01*
X15543Y-33845D01*
X15648Y-33758D01*
X15734Y-33653D01*
X15799Y-33533D01*
X15838Y-33403D01*
X15851Y-33268D01*
X15838Y-33132D01*
X15799Y-33002D01*
X15734Y-32882D01*
X15648Y-32777D01*
X15543Y-32691D01*
X15423Y-32627D01*
X15293Y-32587D01*
X15157Y-32574D01*
D02*
G37*
G36*
X5118Y-33455D02*
X5010Y-33470D01*
X4909Y-33512D01*
X4822Y-33578D01*
X4756Y-33665D01*
X4714Y-33766D01*
X4700Y-33874D01*
X4714Y-33982D01*
X4756Y-34083D01*
X4822Y-34170D01*
X4909Y-34236D01*
X5010Y-34278D01*
X5118Y-34293D01*
X5226Y-34278D01*
X5327Y-34236D01*
X5414Y-34170D01*
X5481Y-34083D01*
X5522Y-33982D01*
X5537Y-33874D01*
X5522Y-33766D01*
X5481Y-33665D01*
X5414Y-33578D01*
X5327Y-33512D01*
X5226Y-33470D01*
X5118Y-33455D01*
D02*
G37*
G36*
X7087Y-34030D02*
X6978Y-34045D01*
X6877Y-34086D01*
X6791Y-34153D01*
X6724Y-34240D01*
X6682Y-34340D01*
X6668Y-34449D01*
X6682Y-34557D01*
X6724Y-34658D01*
X6791Y-34745D01*
X6877Y-34811D01*
X6978Y-34853D01*
X7087Y-34867D01*
X7195Y-34853D01*
X7296Y-34811D01*
X7383Y-34745D01*
X7449Y-34658D01*
X7491Y-34557D01*
X7505Y-34449D01*
X7491Y-34340D01*
X7449Y-34240D01*
X7383Y-34153D01*
X7296Y-34086D01*
X7195Y-34045D01*
X7087Y-34030D01*
D02*
G37*
G36*
X32282Y-33940D02*
X31890D01*
X31498D01*
X31505Y-33993D01*
X31544Y-34089D01*
X31551Y-34097D01*
Y-34682D01*
X31544Y-34690D01*
X31505Y-34787D01*
X31498Y-34840D01*
X31890D01*
Y-34890D01*
D01*
Y-34840D01*
X32282D01*
X32275Y-34787D01*
X32235Y-34690D01*
X32229Y-34682D01*
Y-34097D01*
X32235Y-34089D01*
X32275Y-33993D01*
X32282Y-33940D01*
D02*
G37*
G36*
X17521Y-31447D02*
X16731D01*
Y-32133D01*
X16730Y-32137D01*
X16731Y-32140D01*
Y-32238D01*
X16799D01*
X16806Y-32260D01*
X16812Y-32293D01*
X16826Y-32460D01*
X16826Y-32474D01*
X16826Y-32502D01*
X16822Y-32549D01*
X16819Y-32566D01*
X16816Y-32581D01*
X16813Y-32592D01*
X16810Y-32600D01*
X16808Y-32604D01*
X16804Y-32610D01*
X16802Y-32615D01*
X16781Y-32643D01*
X16741Y-32739D01*
X16727Y-32843D01*
X16741Y-32946D01*
X16781Y-33042D01*
X16802Y-33070D01*
X16804Y-33075D01*
X16808Y-33081D01*
X16810Y-33085D01*
X16813Y-33093D01*
X16816Y-33104D01*
X16819Y-33119D01*
X16821Y-33135D01*
X16827Y-33208D01*
Y-33468D01*
X16826Y-33502D01*
X16822Y-33549D01*
X16819Y-33566D01*
X16816Y-33581D01*
X16813Y-33592D01*
X16810Y-33600D01*
X16808Y-33604D01*
X16804Y-33610D01*
X16802Y-33615D01*
X16781Y-33643D01*
X16741Y-33739D01*
X16727Y-33843D01*
X16741Y-33946D01*
X16781Y-34042D01*
X16802Y-34070D01*
X16804Y-34075D01*
X16808Y-34081D01*
X16810Y-34085D01*
X16813Y-34093D01*
X16816Y-34104D01*
X16819Y-34119D01*
X16821Y-34135D01*
X16827Y-34208D01*
Y-34468D01*
X16826Y-34502D01*
X16822Y-34549D01*
X16819Y-34566D01*
X16816Y-34581D01*
X16813Y-34592D01*
X16810Y-34600D01*
X16808Y-34604D01*
X16804Y-34610D01*
X16802Y-34615D01*
X16781Y-34643D01*
X16741Y-34739D01*
X16727Y-34843D01*
X16741Y-34946D01*
X16781Y-35042D01*
X16844Y-35124D01*
X16927Y-35188D01*
X17023Y-35228D01*
X17126Y-35241D01*
X17229Y-35228D01*
X17325Y-35188D01*
X17408Y-35124D01*
X17471Y-35042D01*
X17511Y-34946D01*
X17525Y-34843D01*
X17511Y-34739D01*
X17471Y-34643D01*
X17450Y-34615D01*
X17448Y-34610D01*
X17444Y-34604D01*
X17442Y-34600D01*
X17439Y-34592D01*
X17436Y-34581D01*
X17433Y-34566D01*
X17431Y-34550D01*
X17425Y-34477D01*
Y-34217D01*
X17426Y-34183D01*
X17430Y-34136D01*
X17433Y-34119D01*
X17436Y-34104D01*
X17439Y-34093D01*
X17442Y-34085D01*
X17444Y-34081D01*
X17448Y-34075D01*
X17450Y-34070D01*
X17471Y-34042D01*
X17511Y-33946D01*
X17525Y-33843D01*
X17511Y-33739D01*
X17471Y-33643D01*
X17450Y-33615D01*
X17448Y-33610D01*
X17444Y-33604D01*
X17442Y-33600D01*
X17439Y-33592D01*
X17436Y-33581D01*
X17433Y-33566D01*
X17431Y-33550D01*
X17425Y-33477D01*
Y-33217D01*
X17426Y-33183D01*
X17430Y-33136D01*
X17433Y-33119D01*
X17436Y-33104D01*
X17439Y-33093D01*
X17442Y-33085D01*
X17444Y-33081D01*
X17448Y-33075D01*
X17450Y-33070D01*
X17471Y-33042D01*
X17511Y-32946D01*
X17525Y-32843D01*
X17511Y-32739D01*
X17471Y-32643D01*
X17450Y-32615D01*
X17448Y-32610D01*
X17444Y-32604D01*
X17442Y-32600D01*
X17439Y-32592D01*
X17436Y-32581D01*
X17433Y-32566D01*
X17431Y-32550D01*
X17425Y-32478D01*
X17426Y-32459D01*
X17433Y-32339D01*
X17439Y-32295D01*
X17446Y-32260D01*
X17453Y-32238D01*
X17521D01*
Y-32140D01*
X17522Y-32137D01*
X17521Y-32133D01*
Y-31447D01*
D02*
G37*
G36*
X25002Y-31463D02*
X24211D01*
Y-32149D01*
X24210Y-32152D01*
X24211Y-32156D01*
Y-32254D01*
X24279D01*
X24286Y-32276D01*
X24293Y-32308D01*
X24307Y-32476D01*
X24307Y-32489D01*
X24306Y-32518D01*
X24302Y-32564D01*
X24299Y-32582D01*
X24296Y-32597D01*
X24293Y-32608D01*
X24290Y-32616D01*
X24288Y-32620D01*
X24284Y-32626D01*
X24282Y-32631D01*
X24261Y-32659D01*
X24221Y-32755D01*
X24208Y-32858D01*
X24221Y-32961D01*
X24261Y-33058D01*
X24282Y-33085D01*
X24284Y-33091D01*
X24288Y-33097D01*
X24290Y-33101D01*
X24293Y-33108D01*
X24296Y-33120D01*
X24299Y-33135D01*
X24302Y-33151D01*
X24307Y-33224D01*
Y-33484D01*
X24306Y-33518D01*
X24302Y-33564D01*
X24299Y-33582D01*
X24296Y-33597D01*
X24293Y-33608D01*
X24290Y-33616D01*
X24288Y-33620D01*
X24284Y-33626D01*
X24282Y-33631D01*
X24261Y-33659D01*
X24221Y-33755D01*
X24208Y-33858D01*
X24221Y-33961D01*
X24261Y-34058D01*
X24282Y-34085D01*
X24284Y-34091D01*
X24288Y-34097D01*
X24290Y-34101D01*
X24293Y-34108D01*
X24296Y-34120D01*
X24299Y-34135D01*
X24302Y-34151D01*
X24307Y-34224D01*
Y-34484D01*
X24306Y-34518D01*
X24302Y-34564D01*
X24299Y-34582D01*
X24296Y-34597D01*
X24293Y-34608D01*
X24290Y-34616D01*
X24288Y-34620D01*
X24284Y-34626D01*
X24282Y-34631D01*
X24261Y-34659D01*
X24221Y-34755D01*
X24208Y-34858D01*
X24221Y-34961D01*
X24261Y-35058D01*
X24324Y-35140D01*
X24407Y-35204D01*
X24503Y-35243D01*
X24606Y-35257D01*
X24709Y-35243D01*
X24806Y-35204D01*
X24888Y-35140D01*
X24952Y-35058D01*
X24991Y-34961D01*
X25005Y-34858D01*
X24991Y-34755D01*
X24952Y-34659D01*
X24930Y-34631D01*
X24928Y-34626D01*
X24924Y-34620D01*
X24922Y-34616D01*
X24920Y-34608D01*
X24916Y-34597D01*
X24913Y-34582D01*
X24911Y-34565D01*
X24906Y-34493D01*
Y-34233D01*
X24907Y-34199D01*
X24911Y-34152D01*
X24913Y-34135D01*
X24916Y-34120D01*
X24920Y-34108D01*
X24922Y-34101D01*
X24924Y-34097D01*
X24928Y-34091D01*
X24930Y-34085D01*
X24952Y-34058D01*
X24991Y-33961D01*
X25005Y-33858D01*
X24991Y-33755D01*
X24952Y-33659D01*
X24930Y-33631D01*
X24928Y-33626D01*
X24924Y-33620D01*
X24922Y-33616D01*
X24920Y-33608D01*
X24916Y-33597D01*
X24913Y-33582D01*
X24911Y-33565D01*
X24906Y-33493D01*
Y-33233D01*
X24907Y-33199D01*
X24911Y-33152D01*
X24913Y-33135D01*
X24916Y-33120D01*
X24920Y-33108D01*
X24922Y-33101D01*
X24924Y-33097D01*
X24928Y-33091D01*
X24930Y-33085D01*
X24952Y-33058D01*
X24991Y-32961D01*
X25005Y-32858D01*
X24991Y-32755D01*
X24952Y-32659D01*
X24930Y-32631D01*
X24928Y-32626D01*
X24924Y-32620D01*
X24922Y-32616D01*
X24920Y-32608D01*
X24916Y-32597D01*
X24913Y-32582D01*
X24911Y-32565D01*
X24906Y-32494D01*
X24906Y-32475D01*
X24913Y-32355D01*
X24919Y-32311D01*
X24926Y-32276D01*
X24933Y-32254D01*
X25002D01*
Y-32156D01*
X25002Y-32152D01*
X25002Y-32149D01*
Y-31463D01*
D02*
G37*
G36*
X32282Y-34940D02*
X31940D01*
Y-35282D01*
X31993Y-35275D01*
X32089Y-35235D01*
X32172Y-35172D01*
X32235Y-35089D01*
X32275Y-34993D01*
X32282Y-34940D01*
D02*
G37*
G36*
X31840D02*
X31498D01*
X31505Y-34993D01*
X31544Y-35089D01*
X31608Y-35172D01*
X31690Y-35235D01*
X31787Y-35275D01*
X31840Y-35282D01*
Y-34940D01*
D02*
G37*
G36*
X37402Y-36708D02*
X37266Y-36721D01*
X37136Y-36761D01*
X37016Y-36825D01*
X36911Y-36911D01*
X36825Y-37016D01*
X36761Y-37136D01*
X36721Y-37266D01*
X36708Y-37402D01*
X36721Y-37537D01*
X36761Y-37667D01*
X36825Y-37787D01*
X36911Y-37892D01*
X37016Y-37979D01*
X37136Y-38043D01*
X37266Y-38082D01*
X37402Y-38095D01*
X37537Y-38082D01*
X37667Y-38043D01*
X37787Y-37979D01*
X37892Y-37892D01*
X37979Y-37787D01*
X38043Y-37667D01*
X38082Y-37537D01*
X38095Y-37402D01*
X38082Y-37266D01*
X38043Y-37136D01*
X37979Y-37016D01*
X37892Y-36911D01*
X37787Y-36825D01*
X37667Y-36761D01*
X37537Y-36721D01*
X37402Y-36708D01*
D02*
G37*
G36*
X1969D02*
X1833Y-36721D01*
X1703Y-36761D01*
X1583Y-36825D01*
X1478Y-36911D01*
X1392Y-37016D01*
X1327Y-37136D01*
X1288Y-37266D01*
X1275Y-37402D01*
X1288Y-37537D01*
X1327Y-37667D01*
X1392Y-37787D01*
X1478Y-37892D01*
X1583Y-37979D01*
X1703Y-38043D01*
X1833Y-38082D01*
X1969Y-38095D01*
X2104Y-38082D01*
X2234Y-38043D01*
X2354Y-37979D01*
X2459Y-37892D01*
X2545Y-37787D01*
X2610Y-37667D01*
X2649Y-37537D01*
X2662Y-37402D01*
X2649Y-37266D01*
X2610Y-37136D01*
X2545Y-37016D01*
X2459Y-36911D01*
X2354Y-36825D01*
X2234Y-36761D01*
X2104Y-36721D01*
X1969Y-36708D01*
D02*
G37*
%LPD*%
G36*
X5158Y-4915D02*
X5165Y-5034D01*
X5169Y-5056D01*
X5173Y-5075D01*
X5178Y-5091D01*
X5183Y-5104D01*
X5189Y-5114D01*
X4654D01*
X4660Y-5104D01*
X4665Y-5091D01*
X4670Y-5075D01*
X4674Y-5056D01*
X4677Y-5034D01*
X4682Y-4980D01*
X4685Y-4915D01*
X4685Y-4877D01*
X5157D01*
X5158Y-4915D01*
D02*
G37*
G36*
X25926Y-4220D02*
X25910Y-4209D01*
X25892Y-4203D01*
X25871D01*
X25848Y-4209D01*
X25821Y-4220D01*
X25792Y-4237D01*
X25760Y-4259D01*
X25725Y-4287D01*
X25647Y-4359D01*
X25508Y-4220D01*
X25547Y-4180D01*
X25608Y-4107D01*
X25631Y-4075D01*
X25647Y-4046D01*
X25658Y-4020D01*
X25664Y-3996D01*
Y-3975D01*
X25658Y-3957D01*
X25647Y-3942D01*
X25926Y-4220D01*
D02*
G37*
G36*
X26983Y-5218D02*
X26939Y-5225D01*
X26827Y-5250D01*
X26796Y-5259D01*
X26768Y-5270D01*
X26743Y-5281D01*
X26722Y-5292D01*
X26704Y-5305D01*
X26689Y-5318D01*
X26550Y-5179D01*
X26563Y-5163D01*
X26575Y-5145D01*
X26587Y-5124D01*
X26598Y-5099D01*
X26608Y-5071D01*
X26618Y-5040D01*
X26635Y-4969D01*
X26649Y-4884D01*
X26983Y-5218D01*
D02*
G37*
G36*
X24706Y-5545D02*
X24709Y-5565D01*
X24714Y-5586D01*
X24721Y-5608D01*
X24730Y-5630D01*
X24741Y-5654D01*
X24754Y-5678D01*
X24787Y-5729D01*
X24806Y-5755D01*
X24406D01*
X24426Y-5729D01*
X24458Y-5678D01*
X24471Y-5654D01*
X24483Y-5630D01*
X24492Y-5608D01*
X24499Y-5586D01*
X24504Y-5565D01*
X24507Y-5545D01*
X24508Y-5526D01*
X24705D01*
X24706Y-5545D01*
D02*
G37*
G36*
X26983Y-6218D02*
X26939Y-6225D01*
X26827Y-6250D01*
X26796Y-6259D01*
X26768Y-6270D01*
X26743Y-6281D01*
X26722Y-6292D01*
X26704Y-6305D01*
X26689Y-6318D01*
X26550Y-6179D01*
X26563Y-6163D01*
X26575Y-6145D01*
X26587Y-6124D01*
X26598Y-6099D01*
X26608Y-6071D01*
X26618Y-6040D01*
X26635Y-5969D01*
X26649Y-5884D01*
X26983Y-6218D01*
D02*
G37*
G36*
X24566Y-6742D02*
X24567Y-6763D01*
X24568Y-6785D01*
X24572Y-6808D01*
X24576Y-6830D01*
X24589Y-6875D01*
X24597Y-6898D01*
X24617Y-6944D01*
X24629Y-6968D01*
X24234Y-6908D01*
X24260Y-6882D01*
X24321Y-6812D01*
X24335Y-6790D01*
X24347Y-6770D01*
X24357Y-6751D01*
X24364Y-6734D01*
X24368Y-6717D01*
X24369Y-6702D01*
X24566Y-6742D01*
D02*
G37*
G36*
X26240Y-6928D02*
X26265Y-7040D01*
X26275Y-7071D01*
X26285Y-7099D01*
X26296Y-7124D01*
X26308Y-7145D01*
X26320Y-7163D01*
X26333Y-7179D01*
X26194Y-7318D01*
X26179Y-7305D01*
X26161Y-7292D01*
X26139Y-7281D01*
X26115Y-7270D01*
X26087Y-7259D01*
X26056Y-7250D01*
X25984Y-7233D01*
X25900Y-7218D01*
X26234Y-6884D01*
X26240Y-6928D01*
D02*
G37*
G36*
X23981Y-7548D02*
X23988Y-7668D01*
X23992Y-7690D01*
X23996Y-7709D01*
X24000Y-7725D01*
X24006Y-7738D01*
X24012Y-7748D01*
X23477D01*
X23482Y-7738D01*
X23488Y-7725D01*
X23493Y-7709D01*
X23497Y-7690D01*
X23500Y-7668D01*
X23505Y-7614D01*
X23508Y-7548D01*
X23508Y-7511D01*
X23980D01*
X23981Y-7548D01*
D02*
G37*
G36*
X25099Y-7961D02*
X25103Y-7979D01*
X25110Y-7999D01*
X25119Y-8019D01*
X25131Y-8041D01*
X25146Y-8063D01*
X25163Y-8087D01*
X25206Y-8137D01*
X25232Y-8163D01*
X24836Y-8219D01*
X24848Y-8195D01*
X24869Y-8149D01*
X24877Y-8126D01*
X24890Y-8081D01*
X24895Y-8058D01*
X24898Y-8036D01*
X24900Y-8014D01*
X24901Y-7992D01*
X25098Y-7943D01*
X25099Y-7961D01*
D02*
G37*
G36*
X23814Y-8276D02*
X23809Y-8278D01*
X23803Y-8283D01*
X23793Y-8291D01*
X23750Y-8330D01*
X23657Y-8421D01*
X23271Y-8139D01*
X23296Y-8113D01*
X23357Y-8041D01*
X23373Y-8019D01*
X23385Y-7998D01*
X23395Y-7978D01*
X23403Y-7959D01*
X23408Y-7941D01*
X23410Y-7924D01*
X23814Y-8276D01*
D02*
G37*
G36*
X25599Y-6648D02*
X25620Y-6695D01*
X25596Y-6727D01*
X25556Y-6823D01*
X25543Y-6926D01*
X25556Y-7029D01*
X25596Y-7125D01*
X25659Y-7208D01*
X25742Y-7271D01*
X25838Y-7311D01*
X25875Y-7316D01*
X25883Y-7319D01*
X25964Y-7333D01*
X26029Y-7348D01*
X26054Y-7356D01*
X26076Y-7364D01*
X26094Y-7372D01*
X26107Y-7379D01*
X26111Y-7382D01*
X26292Y-7563D01*
X26358Y-7607D01*
X26435Y-7622D01*
X26613D01*
X26638Y-7672D01*
X26596Y-7727D01*
X26556Y-7823D01*
X26543Y-7926D01*
X26556Y-8029D01*
X26596Y-8125D01*
X26659Y-8208D01*
X26742Y-8271D01*
X26838Y-8311D01*
X26941Y-8325D01*
X27045Y-8311D01*
X27141Y-8271D01*
X27223Y-8208D01*
X27287Y-8125D01*
X27326Y-8029D01*
X27333Y-7977D01*
X27386Y-7959D01*
X27437Y-8010D01*
Y-10120D01*
X27452Y-10197D01*
X27496Y-10263D01*
X29522Y-12289D01*
Y-19488D01*
X29530Y-19527D01*
X29484Y-19552D01*
X29433Y-19501D01*
Y-14467D01*
X29418Y-14390D01*
X29374Y-14324D01*
X28820Y-13771D01*
X28844Y-13730D01*
X28848Y-13727D01*
X28937Y-13739D01*
X29028Y-13727D01*
X29114Y-13692D01*
X29187Y-13635D01*
X29243Y-13562D01*
X29278Y-13477D01*
X29290Y-13386D01*
X29278Y-13294D01*
X29243Y-13209D01*
X29187Y-13136D01*
X29114Y-13080D01*
X29028Y-13045D01*
X28996Y-13041D01*
X28988Y-13038D01*
X28959Y-13033D01*
X28906Y-13021D01*
X28886Y-13015D01*
X28867Y-13009D01*
X28851Y-13002D01*
X28837Y-12995D01*
X28826Y-12988D01*
X28824Y-12987D01*
X27675Y-11838D01*
X27609Y-11794D01*
X27532Y-11778D01*
X27404D01*
X27403Y-11778D01*
X27391Y-11774D01*
X27375Y-11766D01*
X27356Y-11754D01*
X27334Y-11739D01*
X27247Y-11668D01*
X27228Y-11650D01*
X27223Y-11644D01*
X27141Y-11581D01*
X27045Y-11541D01*
X26941Y-11527D01*
X26838Y-11541D01*
X26742Y-11581D01*
X26659Y-11644D01*
X26596Y-11727D01*
X26556Y-11823D01*
X26543Y-11926D01*
X26556Y-12029D01*
X26596Y-12125D01*
X26638Y-12180D01*
X26613Y-12230D01*
X26531D01*
X26397Y-12096D01*
X26395Y-12092D01*
X26387Y-12079D01*
X26379Y-12061D01*
X26371Y-12039D01*
X26364Y-12014D01*
X26341Y-11909D01*
X26334Y-11869D01*
X26331Y-11860D01*
X26326Y-11823D01*
X26287Y-11727D01*
X26254Y-11685D01*
X26279Y-11635D01*
X26435D01*
X26512Y-11619D01*
X26578Y-11575D01*
X26772Y-11382D01*
X26775Y-11379D01*
X26789Y-11372D01*
X26807Y-11364D01*
X26829Y-11356D01*
X26853Y-11348D01*
X26958Y-11325D01*
X26999Y-11319D01*
X27007Y-11316D01*
X27045Y-11311D01*
X27141Y-11271D01*
X27223Y-11208D01*
X27287Y-11125D01*
X27326Y-11029D01*
X27340Y-10926D01*
X27326Y-10823D01*
X27287Y-10727D01*
X27223Y-10644D01*
X27141Y-10581D01*
X27045Y-10541D01*
X26941Y-10527D01*
X26838Y-10541D01*
X26742Y-10581D01*
X26659Y-10644D01*
X26596Y-10727D01*
X26556Y-10823D01*
X26551Y-10860D01*
X26548Y-10867D01*
X26535Y-10948D01*
X26519Y-11013D01*
X26511Y-11039D01*
X26503Y-11061D01*
X26495Y-11079D01*
X26488Y-11092D01*
X26485Y-11096D01*
X26351Y-11230D01*
X26269D01*
X26245Y-11180D01*
X26287Y-11125D01*
X26326Y-11029D01*
X26340Y-10926D01*
X26326Y-10823D01*
X26287Y-10727D01*
X26245Y-10672D01*
X26269Y-10622D01*
X26448D01*
X26525Y-10607D01*
X26591Y-10563D01*
X26772Y-10382D01*
X26775Y-10379D01*
X26789Y-10372D01*
X26807Y-10364D01*
X26829Y-10356D01*
X26853Y-10348D01*
X26958Y-10325D01*
X26999Y-10319D01*
X27007Y-10316D01*
X27045Y-10311D01*
X27141Y-10271D01*
X27223Y-10208D01*
X27287Y-10125D01*
X27326Y-10029D01*
X27340Y-9926D01*
X27326Y-9823D01*
X27287Y-9727D01*
X27223Y-9644D01*
X27141Y-9581D01*
X27045Y-9541D01*
X26941Y-9527D01*
X26838Y-9541D01*
X26742Y-9581D01*
X26659Y-9644D01*
X26596Y-9727D01*
X26556Y-9823D01*
X26551Y-9860D01*
X26548Y-9867D01*
X26535Y-9948D01*
X26519Y-10013D01*
X26511Y-10039D01*
X26503Y-10061D01*
X26495Y-10079D01*
X26488Y-10092D01*
X26485Y-10096D01*
X26364Y-10217D01*
X26279D01*
X26254Y-10167D01*
X26287Y-10125D01*
X26326Y-10029D01*
X26340Y-9926D01*
X26326Y-9823D01*
X26287Y-9727D01*
X26245Y-9672D01*
X26269Y-9622D01*
X26448D01*
X26525Y-9607D01*
X26591Y-9563D01*
X26772Y-9382D01*
X26775Y-9379D01*
X26789Y-9372D01*
X26807Y-9364D01*
X26829Y-9356D01*
X26853Y-9348D01*
X26958Y-9325D01*
X26999Y-9319D01*
X27007Y-9316D01*
X27045Y-9311D01*
X27141Y-9271D01*
X27223Y-9208D01*
X27287Y-9125D01*
X27326Y-9029D01*
X27340Y-8926D01*
X27326Y-8823D01*
X27287Y-8727D01*
X27223Y-8644D01*
X27141Y-8581D01*
X27045Y-8541D01*
X26941Y-8527D01*
X26838Y-8541D01*
X26742Y-8581D01*
X26659Y-8644D01*
X26596Y-8727D01*
X26556Y-8823D01*
X26551Y-8860D01*
X26548Y-8867D01*
X26535Y-8948D01*
X26519Y-9013D01*
X26511Y-9039D01*
X26503Y-9061D01*
X26495Y-9079D01*
X26488Y-9092D01*
X26485Y-9096D01*
X26364Y-9217D01*
X26279D01*
X26254Y-9167D01*
X26287Y-9125D01*
X26326Y-9029D01*
X26340Y-8926D01*
X26326Y-8823D01*
X26287Y-8727D01*
X26223Y-8644D01*
X26141Y-8581D01*
X26045Y-8541D01*
X25941Y-8527D01*
X25838Y-8541D01*
X25742Y-8581D01*
X25659Y-8644D01*
X25596Y-8727D01*
X25556Y-8823D01*
X25543Y-8926D01*
X25556Y-9029D01*
X25596Y-9125D01*
X25628Y-9167D01*
X25604Y-9217D01*
X24299D01*
X24248Y-9167D01*
X24245Y-9162D01*
X24237Y-9146D01*
X24228Y-9125D01*
X24220Y-9100D01*
X24184Y-8937D01*
X24176Y-8886D01*
X24173Y-8878D01*
X24168Y-8835D01*
X24124Y-8730D01*
X24054Y-8639D01*
X23963Y-8569D01*
X23858Y-8525D01*
X23779Y-8515D01*
X23761Y-8462D01*
X23796Y-8427D01*
X23820Y-8404D01*
X23855Y-8373D01*
X23858Y-8372D01*
X23963Y-8328D01*
X24054Y-8259D01*
X24124Y-8168D01*
X24168Y-8062D01*
X24176Y-7999D01*
X23744D01*
Y-7899D01*
X24176D01*
X24168Y-7835D01*
X24124Y-7730D01*
X24100Y-7699D01*
X24099Y-7695D01*
X24097Y-7692D01*
X24097Y-7691D01*
X24095Y-7684D01*
X24092Y-7671D01*
X24090Y-7657D01*
X24083Y-7555D01*
Y-7319D01*
X24133Y-7302D01*
X24160Y-7336D01*
X24233Y-7392D01*
X24318Y-7428D01*
X24409Y-7440D01*
X24501Y-7428D01*
X24586Y-7392D01*
X24659Y-7336D01*
X24715Y-7263D01*
X24750Y-7178D01*
X24797Y-7190D01*
Y-8024D01*
X24797Y-8024D01*
X24795Y-8041D01*
X24791Y-8056D01*
X24781Y-8094D01*
X24775Y-8110D01*
X24757Y-8150D01*
X24752Y-8159D01*
X24749Y-8163D01*
X24714Y-8248D01*
X24702Y-8339D01*
X24714Y-8431D01*
X24749Y-8516D01*
X24805Y-8589D01*
X24878Y-8645D01*
X24963Y-8680D01*
X25055Y-8692D01*
X25146Y-8680D01*
X25231Y-8645D01*
X25304Y-8589D01*
X25360Y-8516D01*
X25396Y-8431D01*
X25408Y-8339D01*
X25396Y-8248D01*
X25360Y-8163D01*
X25304Y-8090D01*
X25299Y-8086D01*
X25282Y-8068D01*
X25243Y-8023D01*
X25230Y-8005D01*
X25218Y-7988D01*
X25210Y-7973D01*
X25205Y-7961D01*
X25202Y-7952D01*
Y-7000D01*
X25558Y-6644D01*
X25599Y-6648D01*
D02*
G37*
G36*
X26983Y-9218D02*
X26939Y-9225D01*
X26827Y-9250D01*
X26796Y-9259D01*
X26768Y-9270D01*
X26743Y-9281D01*
X26722Y-9292D01*
X26704Y-9305D01*
X26689Y-9318D01*
X26550Y-9179D01*
X26563Y-9163D01*
X26575Y-9145D01*
X26587Y-9124D01*
X26598Y-9099D01*
X26608Y-9071D01*
X26618Y-9040D01*
X26635Y-8969D01*
X26649Y-8884D01*
X26983Y-9218D01*
D02*
G37*
G36*
X24084Y-8955D02*
X24122Y-9128D01*
X24133Y-9160D01*
X24144Y-9188D01*
X24156Y-9212D01*
X24169Y-9232D01*
X24182Y-9247D01*
X24043Y-9387D01*
X24027Y-9373D01*
X24007Y-9361D01*
X23984Y-9349D01*
X23955Y-9337D01*
X23923Y-9327D01*
X23845Y-9306D01*
X23751Y-9288D01*
X23697Y-9280D01*
X24075Y-8902D01*
X24084Y-8955D01*
D02*
G37*
G36*
X26983Y-10218D02*
X26939Y-10225D01*
X26827Y-10250D01*
X26796Y-10259D01*
X26768Y-10270D01*
X26743Y-10281D01*
X26722Y-10292D01*
X26704Y-10305D01*
X26689Y-10318D01*
X26550Y-10179D01*
X26563Y-10163D01*
X26575Y-10145D01*
X26587Y-10124D01*
X26598Y-10099D01*
X26608Y-10071D01*
X26618Y-10040D01*
X26635Y-9969D01*
X26649Y-9884D01*
X26983Y-10218D01*
D02*
G37*
G36*
X24084Y-9955D02*
X24122Y-10128D01*
X24133Y-10160D01*
X24144Y-10188D01*
X24156Y-10212D01*
X24169Y-10232D01*
X24182Y-10247D01*
X24043Y-10387D01*
X24027Y-10373D01*
X24007Y-10361D01*
X23984Y-10349D01*
X23955Y-10337D01*
X23923Y-10327D01*
X23845Y-10306D01*
X23751Y-10288D01*
X23697Y-10280D01*
X24075Y-9902D01*
X24084Y-9955D01*
D02*
G37*
G36*
X23814Y-10621D02*
X23410Y-10973D01*
X23408Y-10957D01*
X23403Y-10939D01*
X23395Y-10920D01*
X23385Y-10900D01*
X23373Y-10879D01*
X23357Y-10857D01*
X23319Y-10810D01*
X23296Y-10785D01*
X23271Y-10759D01*
X23657Y-10477D01*
X23814Y-10621D01*
D02*
G37*
G36*
X26983Y-11218D02*
X26939Y-11225D01*
X26827Y-11250D01*
X26796Y-11259D01*
X26768Y-11270D01*
X26743Y-11281D01*
X26722Y-11292D01*
X26704Y-11305D01*
X26689Y-11318D01*
X26550Y-11179D01*
X26563Y-11163D01*
X26575Y-11145D01*
X26587Y-11124D01*
X26598Y-11099D01*
X26608Y-11071D01*
X26618Y-11040D01*
X26635Y-10969D01*
X26649Y-10884D01*
X26983Y-11218D01*
D02*
G37*
G36*
X27180Y-11744D02*
X27273Y-11821D01*
X27301Y-11840D01*
X27326Y-11855D01*
X27350Y-11867D01*
X27372Y-11875D01*
X27392Y-11881D01*
X27411Y-11882D01*
X27371Y-12079D01*
X27349Y-12080D01*
X27326Y-12083D01*
X27301Y-12088D01*
X27275Y-12095D01*
X27248Y-12105D01*
X27189Y-12129D01*
X27157Y-12144D01*
X27090Y-12181D01*
X27145Y-11712D01*
X27180Y-11744D01*
D02*
G37*
G36*
X26240Y-11928D02*
X26265Y-12040D01*
X26275Y-12071D01*
X26285Y-12099D01*
X26296Y-12124D01*
X26308Y-12145D01*
X26320Y-12163D01*
X26333Y-12179D01*
X26194Y-12318D01*
X26179Y-12305D01*
X26161Y-12292D01*
X26139Y-12281D01*
X26115Y-12270D01*
X26087Y-12259D01*
X26056Y-12250D01*
X25984Y-12233D01*
X25900Y-12218D01*
X26234Y-11884D01*
X26240Y-11928D01*
D02*
G37*
G36*
X24157Y-12203D02*
X24144Y-12217D01*
X24132Y-12233D01*
X24121Y-12252D01*
X24110Y-12272D01*
X24101Y-12295D01*
X24092Y-12319D01*
X24085Y-12345D01*
X24072Y-12404D01*
X24066Y-12437D01*
X23784Y-12154D01*
X23816Y-12149D01*
X23875Y-12136D01*
X23901Y-12128D01*
X23926Y-12119D01*
X23948Y-12110D01*
X23969Y-12100D01*
X23987Y-12088D01*
X24003Y-12076D01*
X24018Y-12063D01*
X24157Y-12203D01*
D02*
G37*
G36*
X27151Y-13139D02*
X27089Y-13236D01*
X27074Y-13265D01*
X27062Y-13291D01*
X27052Y-13317D01*
X27045Y-13340D01*
X27041Y-13362D01*
X27040Y-13382D01*
X26843D01*
X26842Y-13362D01*
X26837Y-13340D01*
X26831Y-13317D01*
X26821Y-13291D01*
X26808Y-13265D01*
X26793Y-13236D01*
X26755Y-13173D01*
X26705Y-13103D01*
X27177D01*
X27151Y-13139D01*
D02*
G37*
G36*
X28752Y-13061D02*
X28769Y-13073D01*
X28787Y-13084D01*
X28808Y-13094D01*
X28830Y-13104D01*
X28854Y-13112D01*
X28881Y-13120D01*
X28940Y-13133D01*
X28972Y-13138D01*
X28689Y-13421D01*
X28684Y-13389D01*
X28671Y-13330D01*
X28664Y-13303D01*
X28655Y-13279D01*
X28645Y-13256D01*
X28635Y-13236D01*
X28624Y-13218D01*
X28612Y-13201D01*
X28599Y-13187D01*
X28738Y-13048D01*
X28752Y-13061D01*
D02*
G37*
G36*
X27248Y-13848D02*
X27251Y-13881D01*
X27256Y-13911D01*
X27263Y-13937D01*
X27272Y-13959D01*
X27282Y-13976D01*
X27295Y-13990D01*
X27310Y-14000D01*
X27327Y-14006D01*
X27345Y-14008D01*
X26952D01*
X26970Y-14006D01*
X26987Y-14000D01*
X27002Y-13990D01*
X27015Y-13976D01*
X27026Y-13959D01*
X27034Y-13937D01*
X27041Y-13911D01*
X27046Y-13881D01*
X27049Y-13848D01*
X27050Y-13810D01*
X27247D01*
X27248Y-13848D01*
D02*
G37*
G36*
X23641Y-21742D02*
X23731Y-21821D01*
X23749Y-21834D01*
X23765Y-21845D01*
X23780Y-21853D01*
X23793Y-21858D01*
X23804Y-21861D01*
X23425Y-22240D01*
X23423Y-22228D01*
X23417Y-22216D01*
X23409Y-22201D01*
X23399Y-22185D01*
X23385Y-22166D01*
X23351Y-22125D01*
X23306Y-22077D01*
X23280Y-22050D01*
X23614Y-21716D01*
X23641Y-21742D01*
D02*
G37*
G36*
X35859Y-23922D02*
X35878Y-23934D01*
X35902Y-23946D01*
X35931Y-23958D01*
X35963Y-23969D01*
X36041Y-23989D01*
X36135Y-24007D01*
X36189Y-24015D01*
X35810Y-24394D01*
X35802Y-24340D01*
X35764Y-24168D01*
X35753Y-24135D01*
X35742Y-24107D01*
X35730Y-24083D01*
X35717Y-24063D01*
X35704Y-24048D01*
X35843Y-23909D01*
X35859Y-23922D01*
D02*
G37*
G36*
Y-24922D02*
X35878Y-24934D01*
X35902Y-24946D01*
X35931Y-24958D01*
X35963Y-24969D01*
X36041Y-24989D01*
X36135Y-25007D01*
X36189Y-25015D01*
X35810Y-25394D01*
X35802Y-25340D01*
X35764Y-25168D01*
X35753Y-25135D01*
X35742Y-25107D01*
X35730Y-25083D01*
X35717Y-25063D01*
X35704Y-25048D01*
X35843Y-24909D01*
X35859Y-24922D01*
D02*
G37*
%LPC*%
G36*
X25941Y-7527D02*
X25838Y-7541D01*
X25742Y-7581D01*
X25659Y-7644D01*
X25596Y-7727D01*
X25556Y-7823D01*
X25543Y-7926D01*
X25556Y-8029D01*
X25596Y-8125D01*
X25659Y-8208D01*
X25742Y-8271D01*
X25838Y-8311D01*
X25941Y-8325D01*
X26045Y-8311D01*
X26141Y-8271D01*
X26223Y-8208D01*
X26287Y-8125D01*
X26326Y-8029D01*
X26340Y-7926D01*
X26326Y-7823D01*
X26287Y-7727D01*
X26223Y-7644D01*
X26141Y-7581D01*
X26045Y-7541D01*
X25941Y-7527D01*
D02*
G37*
%LPD*%
G36*
X9204Y-4220D02*
X9173Y-4198D01*
X9137Y-4187D01*
X9095D01*
X9048Y-4198D01*
X8995Y-4220D01*
X8937Y-4253D01*
X8873Y-4298D01*
X8803Y-4354D01*
X8647Y-4498D01*
X8369Y-4220D01*
X8447Y-4139D01*
X8569Y-3995D01*
X8614Y-3931D01*
X8647Y-3872D01*
X8670Y-3819D01*
X8681Y-3772D01*
Y-3730D01*
X8670Y-3694D01*
X8647Y-3663D01*
X9204Y-4220D01*
D02*
G37*
G36*
X8243Y-22764D02*
X7778Y-23028D01*
X7782Y-22992D01*
X7783Y-22958D01*
X7781Y-22925D01*
X7776Y-22893D01*
X7769Y-22863D01*
X7760Y-22835D01*
X7747Y-22808D01*
X7732Y-22783D01*
X7715Y-22759D01*
X7694Y-22737D01*
X7991Y-22476D01*
X8243Y-22764D01*
D02*
G37*
G36*
X8364Y-23291D02*
X8352Y-23313D01*
X8342Y-23336D01*
X8333Y-23360D01*
X8325Y-23387D01*
X8318Y-23414D01*
X8313Y-23444D01*
X8310Y-23475D01*
X8307Y-23542D01*
X7913D01*
X7913Y-23508D01*
X7907Y-23444D01*
X7902Y-23414D01*
X7896Y-23387D01*
X7888Y-23360D01*
X7879Y-23336D01*
X7868Y-23313D01*
X7856Y-23291D01*
X7843Y-23272D01*
X8378D01*
X8364Y-23291D01*
D02*
G37*
G36*
X8308Y-24702D02*
X8319Y-24828D01*
X8329Y-24879D01*
X8341Y-24922D01*
X8356Y-24958D01*
X8374Y-24985D01*
X8395Y-25005D01*
X8418Y-25017D01*
X8444Y-25021D01*
X7777D01*
X7803Y-25017D01*
X7826Y-25005D01*
X7846Y-24985D01*
X7864Y-24958D01*
X7879Y-24922D01*
X7892Y-24879D01*
X7901Y-24828D01*
X7908Y-24769D01*
X7912Y-24702D01*
X7913Y-24627D01*
X8307D01*
X8308Y-24702D01*
D02*
G37*
G36*
X28585Y-4354D02*
X28573Y-4376D01*
X28562Y-4399D01*
X28553Y-4423D01*
X28545Y-4450D01*
X28539Y-4477D01*
X28534Y-4507D01*
X28530Y-4538D01*
X28528Y-4605D01*
X28134D01*
X28133Y-4571D01*
X28127Y-4507D01*
X28123Y-4477D01*
X28116Y-4450D01*
X28108Y-4423D01*
X28099Y-4399D01*
X28089Y-4376D01*
X28077Y-4354D01*
X28063Y-4335D01*
X28598D01*
X28585Y-4354D01*
D02*
G37*
G36*
X35980Y-20945D02*
X35960Y-20931D01*
X35939Y-20919D01*
X35916Y-20909D01*
X35892Y-20899D01*
X35865Y-20892D01*
X35838Y-20885D01*
X35808Y-20880D01*
X35777Y-20877D01*
X35710Y-20874D01*
Y-20480D01*
X35744Y-20480D01*
X35808Y-20474D01*
X35838Y-20469D01*
X35865Y-20463D01*
X35892Y-20455D01*
X35916Y-20446D01*
X35939Y-20435D01*
X35960Y-20423D01*
X35980Y-20410D01*
Y-20945D01*
D02*
G37*
G36*
X36517Y-20653D02*
X36523Y-20677D01*
X36532Y-20701D01*
X36543Y-20725D01*
X36556Y-20749D01*
X36571Y-20773D01*
X36589Y-20797D01*
X36608Y-20822D01*
X36654Y-20871D01*
X36375Y-21150D01*
X36350Y-21126D01*
X36301Y-21085D01*
X36277Y-21067D01*
X36253Y-21052D01*
X36229Y-21039D01*
X36205Y-21028D01*
X36181Y-21019D01*
X36157Y-21013D01*
X36134Y-21008D01*
X36512Y-20630D01*
X36517Y-20653D01*
D02*
G37*
G36*
X36614Y-29152D02*
X36590Y-29177D01*
X36549Y-29226D01*
X36532Y-29251D01*
X36517Y-29275D01*
X36504Y-29299D01*
X36493Y-29323D01*
X36484Y-29347D01*
X36477Y-29370D01*
X36473Y-29394D01*
X36095Y-29015D01*
X36118Y-29011D01*
X36142Y-29004D01*
X36165Y-28995D01*
X36189Y-28985D01*
X36213Y-28972D01*
X36237Y-28956D01*
X36262Y-28939D01*
X36286Y-28919D01*
X36336Y-28874D01*
X36614Y-29152D01*
D02*
G37*
G36*
X36669Y-4992D02*
X36688Y-5004D01*
X36710Y-5016D01*
X36737Y-5028D01*
X36767Y-5038D01*
X36838Y-5058D01*
X36880Y-5066D01*
X36973Y-5082D01*
X36617Y-5438D01*
X36610Y-5389D01*
X36584Y-5265D01*
X36574Y-5232D01*
X36552Y-5175D01*
X36540Y-5152D01*
X36527Y-5133D01*
X36514Y-5118D01*
X36654Y-4979D01*
X36669Y-4992D01*
D02*
G37*
G36*
X35275Y-4379D02*
X35180Y-4527D01*
X35165Y-4558D01*
X35153Y-4586D01*
X35145Y-4611D01*
X35140Y-4634D01*
X35138Y-4654D01*
X34941D01*
X34939Y-4634D01*
X34934Y-4611D01*
X34926Y-4586D01*
X34914Y-4558D01*
X34899Y-4527D01*
X34858Y-4458D01*
X34804Y-4379D01*
X34772Y-4335D01*
X35307D01*
X35275Y-4379D01*
D02*
G37*
G36*
X35313Y-4926D02*
X35317Y-4948D01*
X35325Y-4972D01*
X35336Y-4999D01*
X35349Y-5028D01*
X35386Y-5092D01*
X35409Y-5127D01*
X35464Y-5205D01*
X34961D01*
X34990Y-5165D01*
X35059Y-5059D01*
X35076Y-5028D01*
X35100Y-4972D01*
X35108Y-4948D01*
X35113Y-4926D01*
X35114Y-4906D01*
X35311D01*
X35313Y-4926D01*
D02*
G37*
G36*
X34275Y-4379D02*
X34180Y-4527D01*
X34165Y-4558D01*
X34153Y-4586D01*
X34145Y-4611D01*
X34139Y-4634D01*
X34138Y-4654D01*
X33941D01*
X33939Y-4634D01*
X33934Y-4611D01*
X33926Y-4586D01*
X33914Y-4558D01*
X33899Y-4527D01*
X33858Y-4458D01*
X33804Y-4379D01*
X33772Y-4335D01*
X34307D01*
X34275Y-4379D01*
D02*
G37*
G36*
X33911Y-5118D02*
X33898Y-5133D01*
X33885Y-5152D01*
X33873Y-5175D01*
X33862Y-5201D01*
X33852Y-5232D01*
X33832Y-5303D01*
X33824Y-5344D01*
X33808Y-5438D01*
X33452Y-5082D01*
X33500Y-5074D01*
X33624Y-5048D01*
X33658Y-5038D01*
X33715Y-5016D01*
X33737Y-5004D01*
X33756Y-4992D01*
X33772Y-4979D01*
X33911Y-5118D01*
D02*
G37*
G36*
X29509Y-4469D02*
X29492Y-4475D01*
X29477Y-4485D01*
X29465Y-4499D01*
X29454Y-4517D01*
X29445Y-4538D01*
X29438Y-4564D01*
X29433Y-4593D01*
X29430Y-4627D01*
X29429Y-4664D01*
X29232D01*
X29231Y-4627D01*
X29228Y-4593D01*
X29223Y-4564D01*
X29217Y-4538D01*
X29208Y-4517D01*
X29197Y-4499D01*
X29184Y-4485D01*
X29169Y-4475D01*
X29153Y-4469D01*
X29134Y-4467D01*
X29528D01*
X29509Y-4469D01*
D02*
G37*
G36*
X29938Y-5280D02*
X29943Y-5296D01*
X29951Y-5313D01*
X29962Y-5331D01*
X29976Y-5349D01*
X29993Y-5367D01*
X30013Y-5386D01*
X30037Y-5405D01*
X30093Y-5445D01*
X29640Y-5567D01*
X29659Y-5528D01*
X29715Y-5392D01*
X29724Y-5363D01*
X29736Y-5309D01*
X29739Y-5286D01*
X29740Y-5264D01*
X29937D01*
X29938Y-5280D01*
D02*
G37*
G36*
X9240Y-6934D02*
X9263Y-7048D01*
X9272Y-7079D01*
X9282Y-7107D01*
X9293Y-7132D01*
X9304Y-7153D01*
X9316Y-7171D01*
X9329Y-7186D01*
X9186Y-7321D01*
X9171Y-7308D01*
X9153Y-7295D01*
X9131Y-7283D01*
X9107Y-7272D01*
X9079Y-7261D01*
X9049Y-7251D01*
X8978Y-7233D01*
X8895Y-7218D01*
X9234Y-6889D01*
X9240Y-6934D01*
D02*
G37*
G36*
X9983Y-11218D02*
X9939Y-11225D01*
X9827Y-11250D01*
X9796Y-11259D01*
X9768Y-11270D01*
X9743Y-11281D01*
X9722Y-11292D01*
X9704Y-11305D01*
X9689Y-11318D01*
X9550Y-11179D01*
X9563Y-11163D01*
X9575Y-11145D01*
X9587Y-11124D01*
X9598Y-11099D01*
X9608Y-11071D01*
X9618Y-11040D01*
X9635Y-10969D01*
X9649Y-10884D01*
X9983Y-11218D01*
D02*
G37*
G36*
X8983D02*
X8939Y-11225D01*
X8827Y-11250D01*
X8796Y-11259D01*
X8768Y-11270D01*
X8743Y-11281D01*
X8722Y-11292D01*
X8704Y-11305D01*
X8689Y-11318D01*
X8550Y-11179D01*
X8563Y-11163D01*
X8575Y-11145D01*
X8587Y-11124D01*
X8598Y-11099D01*
X8608Y-11071D01*
X8618Y-11040D01*
X8635Y-10969D01*
X8649Y-10884D01*
X8983Y-11218D01*
D02*
G37*
G36*
X10240Y-11928D02*
X10265Y-12040D01*
X10275Y-12071D01*
X10285Y-12099D01*
X10296Y-12124D01*
X10308Y-12145D01*
X10320Y-12163D01*
X10333Y-12179D01*
X10194Y-12318D01*
X10179Y-12305D01*
X10161Y-12292D01*
X10139Y-12281D01*
X10115Y-12270D01*
X10087Y-12259D01*
X10056Y-12250D01*
X9984Y-12233D01*
X9900Y-12218D01*
X10234Y-11884D01*
X10240Y-11928D01*
D02*
G37*
G36*
X10157Y-13133D02*
X10098Y-13230D01*
X10083Y-13259D01*
X10072Y-13286D01*
X10063Y-13312D01*
X10056Y-13335D01*
X10052Y-13357D01*
X10051Y-13377D01*
X9854Y-13385D01*
X9852Y-13366D01*
X9848Y-13344D01*
X9841Y-13321D01*
X9831Y-13296D01*
X9818Y-13270D01*
X9802Y-13241D01*
X9761Y-13178D01*
X9709Y-13109D01*
X10181Y-13098D01*
X10157Y-13133D01*
D02*
G37*
G36*
X10052Y-15801D02*
X10055Y-15821D01*
X10060Y-15842D01*
X10067Y-15863D01*
X10076Y-15886D01*
X10087Y-15909D01*
X10100Y-15933D01*
X10133Y-15984D01*
X10152Y-16011D01*
X9752D01*
X9772Y-15984D01*
X9804Y-15933D01*
X9817Y-15909D01*
X9829Y-15886D01*
X9838Y-15863D01*
X9845Y-15842D01*
X9850Y-15821D01*
X9853Y-15801D01*
X9854Y-15781D01*
X10051D01*
X10052Y-15801D01*
D02*
G37*
G36*
X12830Y-19268D02*
X12826Y-19278D01*
X12823Y-19290D01*
X12819Y-19306D01*
X12817Y-19324D01*
X12813Y-19368D01*
X12811Y-19453D01*
X12417D01*
X12417Y-19422D01*
X12409Y-19306D01*
X12406Y-19290D01*
X12402Y-19278D01*
X12398Y-19268D01*
X12394Y-19260D01*
X12835D01*
X12830Y-19268D01*
D02*
G37*
G36*
X12804Y-19917D02*
X12810Y-19981D01*
X12814Y-20011D01*
X12821Y-20039D01*
X12829Y-20065D01*
X12838Y-20089D01*
X12848Y-20112D01*
X12860Y-20134D01*
X12874Y-20153D01*
X12339D01*
X12352Y-20134D01*
X12364Y-20112D01*
X12375Y-20089D01*
X12384Y-20065D01*
X12392Y-20039D01*
X12398Y-20011D01*
X12403Y-19981D01*
X12407Y-19950D01*
X12409Y-19883D01*
X12803D01*
X12804Y-19917D01*
D02*
G37*
G36*
X12871Y-20559D02*
X12857Y-20579D01*
X12844Y-20601D01*
X12832Y-20625D01*
X12823Y-20650D01*
X12814Y-20676D01*
X12807Y-20704D01*
X12802Y-20734D01*
X12798Y-20765D01*
X12795Y-20831D01*
X12402Y-20820D01*
X12401Y-20785D01*
X12396Y-20721D01*
X12391Y-20691D01*
X12385Y-20664D01*
X12378Y-20638D01*
X12369Y-20613D01*
X12359Y-20591D01*
X12348Y-20570D01*
X12336Y-20551D01*
X12871Y-20559D01*
D02*
G37*
G36*
X11320Y-21490D02*
X11323Y-21510D01*
X11328Y-21531D01*
X11335Y-21553D01*
X11344Y-21575D01*
X11355Y-21599D01*
X11369Y-21623D01*
X11401Y-21674D01*
X11420Y-21700D01*
X11021D01*
X11040Y-21674D01*
X11072Y-21623D01*
X11086Y-21599D01*
X11097Y-21575D01*
X11106Y-21553D01*
X11113Y-21531D01*
X11118Y-21510D01*
X11121Y-21490D01*
X11122Y-21471D01*
X11319D01*
X11320Y-21490D01*
D02*
G37*
G36*
X12014Y-22248D02*
X12017Y-22268D01*
X12022Y-22289D01*
X12029Y-22311D01*
X12038Y-22333D01*
X12049Y-22357D01*
X12063Y-22381D01*
X12095Y-22432D01*
X12114Y-22458D01*
X11715D01*
X11734Y-22432D01*
X11766Y-22381D01*
X11780Y-22357D01*
X11791Y-22333D01*
X11800Y-22311D01*
X11807Y-22289D01*
X11812Y-22268D01*
X11815Y-22248D01*
X11816Y-22229D01*
X12013D01*
X12014Y-22248D01*
D02*
G37*
G36*
X9942Y-22868D02*
X9945Y-22888D01*
X9950Y-22909D01*
X9957Y-22931D01*
X9966Y-22953D01*
X9977Y-22977D01*
X9991Y-23001D01*
X10023Y-23052D01*
X10042Y-23078D01*
X9643D01*
X9662Y-23052D01*
X9694Y-23001D01*
X9708Y-22977D01*
X9719Y-22953D01*
X9728Y-22931D01*
X9735Y-22909D01*
X9740Y-22888D01*
X9743Y-22868D01*
X9744Y-22849D01*
X9941D01*
X9942Y-22868D01*
D02*
G37*
G36*
X12796Y-24911D02*
X12802Y-24975D01*
X12807Y-25005D01*
X12814Y-25033D01*
X12823Y-25059D01*
X12832Y-25084D01*
X12844Y-25107D01*
X12857Y-25129D01*
X12871Y-25149D01*
X12336Y-25157D01*
X12348Y-25138D01*
X12359Y-25118D01*
X12369Y-25095D01*
X12378Y-25071D01*
X12385Y-25045D01*
X12391Y-25017D01*
X12396Y-24988D01*
X12401Y-24924D01*
X12402Y-24889D01*
X12795Y-24877D01*
X12796Y-24911D01*
D02*
G37*
G36*
X12860Y-25575D02*
X12848Y-25596D01*
X12838Y-25619D01*
X12829Y-25644D01*
X12821Y-25670D01*
X12814Y-25698D01*
X12810Y-25727D01*
X12806Y-25759D01*
X12803Y-25826D01*
X12409D01*
X12409Y-25791D01*
X12403Y-25727D01*
X12398Y-25698D01*
X12392Y-25670D01*
X12384Y-25644D01*
X12375Y-25619D01*
X12364Y-25596D01*
X12352Y-25575D01*
X12339Y-25555D01*
X12874D01*
X12860Y-25575D01*
D02*
G37*
G36*
X11921Y-25692D02*
X11905Y-25707D01*
X11890Y-25730D01*
X11878Y-25763D01*
X11867Y-25806D01*
X11858Y-25858D01*
X11851Y-25919D01*
X11843Y-26070D01*
X11843Y-26160D01*
X11370D01*
X11369Y-26070D01*
X11355Y-25858D01*
X11346Y-25806D01*
X11335Y-25763D01*
X11322Y-25730D01*
X11308Y-25707D01*
X11291Y-25692D01*
X11273Y-25688D01*
X11940D01*
X11921Y-25692D01*
D02*
G37*
G36*
X9155Y-28247D02*
X9157Y-28281D01*
X9162Y-28311D01*
X9169Y-28337D01*
X9178Y-28358D01*
X9189Y-28376D01*
X9202Y-28390D01*
X9217Y-28400D01*
X9233Y-28406D01*
X9252Y-28408D01*
X8858D01*
X8877Y-28406D01*
X8894Y-28400D01*
X8908Y-28390D01*
X8921Y-28376D01*
X8932Y-28358D01*
X8941Y-28337D01*
X8948Y-28311D01*
X8953Y-28281D01*
X8956Y-28247D01*
X8957Y-28210D01*
X9154D01*
X9155Y-28247D01*
D02*
G37*
G36*
X5565Y-31777D02*
X5429Y-31925D01*
X5121Y-31604D01*
X4806Y-31918D01*
X4804Y-31912D01*
X4800Y-31904D01*
X4793Y-31893D01*
X4783Y-31881D01*
X4756Y-31849D01*
X4670Y-31760D01*
X5004Y-31426D01*
X5030Y-31451D01*
X5126Y-31536D01*
X5158Y-31510D01*
X5200Y-31473D01*
X5248Y-31425D01*
X5565Y-31777D01*
D02*
G37*
G36*
X13356Y-32360D02*
X13362Y-32427D01*
X13372Y-32486D01*
X13386Y-32537D01*
X13404Y-32581D01*
X13425Y-32616D01*
X13451Y-32644D01*
X13480Y-32664D01*
X13514Y-32676D01*
X13551Y-32680D01*
X12764D01*
X12801Y-32676D01*
X12835Y-32664D01*
X12864Y-32644D01*
X12890Y-32616D01*
X12911Y-32581D01*
X12929Y-32537D01*
X12943Y-32486D01*
X12953Y-32427D01*
X12959Y-32360D01*
X12961Y-32285D01*
X13354D01*
X13356Y-32360D01*
D02*
G37*
G36*
X13442Y-8462D02*
X13455Y-8521D01*
X13462Y-8547D01*
X13471Y-8572D01*
X13481Y-8594D01*
X13491Y-8614D01*
X13502Y-8633D01*
X13514Y-8649D01*
X13527Y-8664D01*
X13388Y-8803D01*
X13374Y-8790D01*
X13357Y-8778D01*
X13339Y-8766D01*
X13318Y-8756D01*
X13296Y-8747D01*
X13272Y-8738D01*
X13245Y-8730D01*
X13186Y-8717D01*
X13154Y-8712D01*
X13436Y-8429D01*
X13442Y-8462D01*
D02*
G37*
G36*
X12654D02*
X12667Y-8521D01*
X12675Y-8547D01*
X12684Y-8572D01*
X12693Y-8594D01*
X12703Y-8614D01*
X12715Y-8633D01*
X12727Y-8649D01*
X12740Y-8664D01*
X12601Y-8803D01*
X12586Y-8790D01*
X12570Y-8778D01*
X12551Y-8766D01*
X12531Y-8756D01*
X12509Y-8747D01*
X12484Y-8738D01*
X12458Y-8730D01*
X12399Y-8717D01*
X12366Y-8712D01*
X12649Y-8429D01*
X12654Y-8462D01*
D02*
G37*
G36*
X14820Y-8856D02*
X14833Y-8914D01*
X14840Y-8941D01*
X14849Y-8965D01*
X14858Y-8988D01*
X14869Y-9008D01*
X14880Y-9026D01*
X14892Y-9043D01*
X14905Y-9057D01*
X14766Y-9196D01*
X14752Y-9183D01*
X14735Y-9171D01*
X14717Y-9160D01*
X14696Y-9150D01*
X14674Y-9140D01*
X14649Y-9132D01*
X14623Y-9124D01*
X14564Y-9111D01*
X14532Y-9106D01*
X14814Y-8823D01*
X14820Y-8856D01*
D02*
G37*
G36*
X12582Y-11594D02*
X12550Y-11645D01*
X12537Y-11669D01*
X12525Y-11692D01*
X12516Y-11715D01*
X12509Y-11737D01*
X12504Y-11758D01*
X12501Y-11778D01*
X12500Y-11797D01*
X12303D01*
X12302Y-11778D01*
X12299Y-11758D01*
X12294Y-11737D01*
X12287Y-11715D01*
X12278Y-11692D01*
X12267Y-11669D01*
X12253Y-11645D01*
X12221Y-11594D01*
X12202Y-11567D01*
X12601D01*
X12582Y-11594D01*
D02*
G37*
G36*
X13173Y-12578D02*
X13140Y-12629D01*
X13127Y-12653D01*
X13116Y-12677D01*
X13107Y-12699D01*
X13100Y-12721D01*
X13095Y-12742D01*
X13092Y-12762D01*
X13091Y-12781D01*
X12894D01*
X12893Y-12762D01*
X12890Y-12742D01*
X12885Y-12721D01*
X12877Y-12699D01*
X12868Y-12677D01*
X12857Y-12653D01*
X12844Y-12629D01*
X12811Y-12578D01*
X12792Y-12552D01*
X13192D01*
X13173Y-12578D01*
D02*
G37*
G36*
X19361Y-15666D02*
X19357Y-15668D01*
X19350Y-15673D01*
X19341Y-15680D01*
X19298Y-15719D01*
X19205Y-15811D01*
X18818Y-15529D01*
X18844Y-15503D01*
X18905Y-15430D01*
X18920Y-15408D01*
X18932Y-15388D01*
X18943Y-15368D01*
X18950Y-15349D01*
X18955Y-15331D01*
X18958Y-15314D01*
X19361Y-15666D01*
D02*
G37*
G36*
X16323Y-19930D02*
X16343Y-19942D01*
X16367Y-19954D01*
X16395Y-19966D01*
X16428Y-19977D01*
X16505Y-19997D01*
X16600Y-20015D01*
X16653Y-20023D01*
X16275Y-20401D01*
X16267Y-20348D01*
X16229Y-20176D01*
X16218Y-20143D01*
X16206Y-20115D01*
X16194Y-20091D01*
X16182Y-20071D01*
X16169Y-20056D01*
X16308Y-19917D01*
X16323Y-19930D01*
D02*
G37*
G36*
X15323D02*
X15343Y-19942D01*
X15367Y-19954D01*
X15395Y-19966D01*
X15428Y-19977D01*
X15505Y-19997D01*
X15600Y-20015D01*
X15653Y-20023D01*
X15275Y-20401D01*
X15267Y-20348D01*
X15229Y-20176D01*
X15218Y-20143D01*
X15206Y-20115D01*
X15194Y-20091D01*
X15182Y-20071D01*
X15169Y-20056D01*
X15308Y-19917D01*
X15323Y-19930D01*
D02*
G37*
G36*
X20947Y-21762D02*
X21037Y-21841D01*
X21055Y-21854D01*
X21071Y-21865D01*
X21086Y-21873D01*
X21099Y-21878D01*
X21110Y-21881D01*
X20732Y-22260D01*
X20729Y-22248D01*
X20724Y-22236D01*
X20716Y-22221D01*
X20705Y-22205D01*
X20692Y-22186D01*
X20657Y-22145D01*
X20613Y-22097D01*
X20586Y-22070D01*
X20920Y-21736D01*
X20947Y-21762D01*
D02*
G37*
G36*
X21077Y-23525D02*
X21078Y-23537D01*
X21081Y-23549D01*
X21085Y-23559D01*
X21089Y-23568D01*
X21095Y-23576D01*
X21102Y-23582D01*
X21110Y-23588D01*
X21119Y-23592D01*
X21129Y-23594D01*
X20844Y-23669D01*
X20851Y-23662D01*
X20857Y-23653D01*
X20862Y-23642D01*
X20867Y-23629D01*
X20871Y-23615D01*
X20874Y-23598D01*
X20876Y-23579D01*
X20879Y-23535D01*
X20879Y-23511D01*
X21076D01*
X21077Y-23525D01*
D02*
G37*
G36*
X20780Y-28751D02*
X20800Y-28764D01*
X20824Y-28776D01*
X20852Y-28787D01*
X20884Y-28798D01*
X20962Y-28818D01*
X21056Y-28836D01*
X21110Y-28845D01*
X20732Y-29223D01*
X20723Y-29169D01*
X20685Y-28997D01*
X20674Y-28965D01*
X20663Y-28936D01*
X20651Y-28913D01*
X20638Y-28893D01*
X20625Y-28877D01*
X20764Y-28738D01*
X20780Y-28751D01*
D02*
G37*
G36*
X27872Y-29443D02*
X27828Y-29411D01*
X27679Y-29317D01*
X27648Y-29301D01*
X27620Y-29290D01*
X27595Y-29281D01*
X27572Y-29276D01*
X27552Y-29274D01*
Y-29077D01*
X27572Y-29076D01*
X27595Y-29071D01*
X27620Y-29062D01*
X27648Y-29050D01*
X27679Y-29035D01*
X27748Y-28995D01*
X27828Y-28940D01*
X27872Y-28908D01*
Y-29443D01*
D02*
G37*
G36*
X22079Y-4268D02*
X22025Y-4277D01*
X21853Y-4315D01*
X21820Y-4326D01*
X21792Y-4337D01*
X21768Y-4349D01*
X21748Y-4362D01*
X21733Y-4375D01*
X21594Y-4236D01*
X21607Y-4220D01*
X21619Y-4200D01*
X21631Y-4176D01*
X21643Y-4148D01*
X21654Y-4116D01*
X21674Y-4038D01*
X21692Y-3944D01*
X21700Y-3890D01*
X22079Y-4268D01*
D02*
G37*
G36*
X12578Y-7497D02*
X12629Y-7529D01*
X12653Y-7542D01*
X12677Y-7553D01*
X12699Y-7563D01*
X12721Y-7570D01*
X12742Y-7575D01*
X12762Y-7578D01*
X12781Y-7579D01*
Y-7776D01*
X12762Y-7777D01*
X12742Y-7780D01*
X12721Y-7785D01*
X12699Y-7792D01*
X12677Y-7801D01*
X12653Y-7812D01*
X12629Y-7825D01*
X12578Y-7858D01*
X12552Y-7877D01*
Y-7477D01*
X12578Y-7497D01*
D02*
G37*
G36*
X21052Y-8286D02*
X21028Y-8298D01*
X21008Y-8318D01*
X20990Y-8345D01*
X20975Y-8381D01*
X20963Y-8424D01*
X20953Y-8475D01*
X20946Y-8534D01*
X20945Y-8553D01*
X20947Y-8576D01*
X20952Y-8605D01*
X20959Y-8633D01*
X20966Y-8659D01*
X20976Y-8684D01*
X20986Y-8707D01*
X20998Y-8728D01*
X21012Y-8748D01*
X20477D01*
X20490Y-8728D01*
X20502Y-8707D01*
X20513Y-8684D01*
X20522Y-8659D01*
X20530Y-8633D01*
X20536Y-8605D01*
X20541Y-8576D01*
X20542Y-8562D01*
X20535Y-8475D01*
X20525Y-8424D01*
X20513Y-8381D01*
X20498Y-8345D01*
X20480Y-8318D01*
X20460Y-8298D01*
X20437Y-8286D01*
X20411Y-8282D01*
X21078D01*
X21052Y-8286D01*
D02*
G37*
G36*
X20791Y-9280D02*
X20768Y-9285D01*
X20744Y-9291D01*
X20721Y-9300D01*
X20697Y-9311D01*
X20673Y-9324D01*
X20648Y-9339D01*
X20624Y-9356D01*
X20599Y-9376D01*
X20550Y-9421D01*
X20272Y-9143D01*
X20295Y-9118D01*
X20337Y-9069D01*
X20354Y-9045D01*
X20369Y-9020D01*
X20382Y-8996D01*
X20393Y-8972D01*
X20402Y-8949D01*
X20408Y-8925D01*
X20413Y-8902D01*
X20791Y-9280D01*
D02*
G37*
G36*
X21182Y-9650D02*
X21169Y-9666D01*
X21156Y-9685D01*
X21144Y-9709D01*
X21133Y-9738D01*
X21122Y-9770D01*
X21102Y-9848D01*
X21084Y-9942D01*
X21075Y-9996D01*
X20697Y-9618D01*
X20751Y-9609D01*
X20923Y-9571D01*
X20955Y-9560D01*
X20984Y-9549D01*
X21007Y-9537D01*
X21027Y-9524D01*
X21043Y-9511D01*
X21182Y-9650D01*
D02*
G37*
G36*
X20980Y-10194D02*
X20885Y-10342D01*
X20870Y-10373D01*
X20858Y-10401D01*
X20849Y-10426D01*
X20844Y-10449D01*
X20849Y-10471D01*
X20858Y-10497D01*
X20870Y-10525D01*
X20885Y-10555D01*
X20925Y-10624D01*
X20980Y-10704D01*
X21012Y-10748D01*
X20477D01*
X20509Y-10704D01*
X20603Y-10555D01*
X20619Y-10525D01*
X20630Y-10497D01*
X20639Y-10471D01*
X20644Y-10449D01*
X20639Y-10426D01*
X20630Y-10401D01*
X20619Y-10373D01*
X20603Y-10342D01*
X20563Y-10273D01*
X20509Y-10194D01*
X20477Y-10150D01*
X21012D01*
X20980Y-10194D01*
D02*
G37*
G36*
X21669Y-12425D02*
X21662Y-12421D01*
X21651Y-12417D01*
X21639Y-12413D01*
X21623Y-12410D01*
X21605Y-12407D01*
X21562Y-12404D01*
X21476Y-12402D01*
Y-12008D01*
X21507Y-12008D01*
X21623Y-11999D01*
X21639Y-11996D01*
X21651Y-11993D01*
X21662Y-11989D01*
X21669Y-11984D01*
Y-12425D01*
D02*
G37*
G36*
X21089Y-15583D02*
X21020Y-15689D01*
X21003Y-15720D01*
X20978Y-15776D01*
X20971Y-15800D01*
X20966Y-15822D01*
X20965Y-15842D01*
X20768D01*
X20766Y-15822D01*
X20762Y-15800D01*
X20754Y-15776D01*
X20743Y-15749D01*
X20729Y-15720D01*
X20693Y-15656D01*
X20670Y-15621D01*
X20614Y-15543D01*
X21118D01*
X21089Y-15583D01*
D02*
G37*
G36*
X21164Y-17007D02*
X21236Y-17069D01*
X21268Y-17091D01*
X21298Y-17108D01*
X21324Y-17119D01*
X21348Y-17125D01*
X21368Y-17125D01*
X21386Y-17120D01*
X21402Y-17109D01*
X21124Y-17386D01*
X21135Y-17371D01*
X21141Y-17353D01*
X21141Y-17332D01*
X21135Y-17308D01*
X21124Y-17282D01*
X21107Y-17253D01*
X21085Y-17220D01*
X21057Y-17186D01*
X20984Y-17107D01*
X21123Y-16968D01*
X21164Y-17007D01*
D02*
G37*
G36*
X21933Y-18318D02*
X21907Y-18344D01*
X21828Y-18436D01*
X21814Y-18455D01*
X21802Y-18474D01*
X21793Y-18491D01*
X21786Y-18506D01*
X21782Y-18521D01*
X21443Y-18107D01*
X21473Y-18104D01*
X21502Y-18100D01*
X21530Y-18093D01*
X21558Y-18084D01*
X21585Y-18073D01*
X21611Y-18059D01*
X21637Y-18044D01*
X21662Y-18026D01*
X21687Y-18006D01*
X21710Y-17983D01*
X21933Y-18318D01*
D02*
G37*
G36*
X27789Y-23498D02*
X27809Y-23510D01*
X27833Y-23522D01*
X27861Y-23534D01*
X27894Y-23545D01*
X27971Y-23565D01*
X28066Y-23583D01*
X28120Y-23591D01*
X27741Y-23970D01*
X27733Y-23916D01*
X27695Y-23744D01*
X27684Y-23711D01*
X27672Y-23683D01*
X27660Y-23659D01*
X27648Y-23640D01*
X27635Y-23624D01*
X27774Y-23485D01*
X27789Y-23498D01*
D02*
G37*
G36*
X8127Y-8856D02*
X8140Y-8915D01*
X8147Y-8941D01*
X8156Y-8965D01*
X8166Y-8988D01*
X8176Y-9008D01*
X8187Y-9027D01*
X8199Y-9043D01*
X8212Y-9057D01*
X8073Y-9196D01*
X8058Y-9184D01*
X8042Y-9171D01*
X8024Y-9160D01*
X8003Y-9150D01*
X7981Y-9140D01*
X7956Y-9132D01*
X7930Y-9124D01*
X7871Y-9111D01*
X7839Y-9106D01*
X8122Y-8823D01*
X8127Y-8856D01*
D02*
G37*
G36*
X8704Y-9547D02*
X8722Y-9560D01*
X8744Y-9571D01*
X8768Y-9582D01*
X8796Y-9593D01*
X8827Y-9602D01*
X8899Y-9619D01*
X8983Y-9634D01*
X8649Y-9967D01*
X8642Y-9924D01*
X8618Y-9811D01*
X8608Y-9780D01*
X8598Y-9753D01*
X8587Y-9728D01*
X8575Y-9707D01*
X8563Y-9688D01*
X8550Y-9673D01*
X8689Y-9534D01*
X8704Y-9547D01*
D02*
G37*
G36*
X33719Y-9166D02*
X33650Y-9272D01*
X33633Y-9303D01*
X33608Y-9358D01*
X33601Y-9383D01*
X33596Y-9405D01*
X33594Y-9425D01*
X33398D01*
X33396Y-9405D01*
X33391Y-9383D01*
X33384Y-9358D01*
X33373Y-9332D01*
X33359Y-9303D01*
X33322Y-9239D01*
X33299Y-9203D01*
X33244Y-9126D01*
X33748D01*
X33719Y-9166D01*
D02*
G37*
G36*
X33590Y-11143D02*
X33593Y-11163D01*
X33597Y-11183D01*
X33604Y-11203D01*
X33612Y-11225D01*
X33622Y-11246D01*
X33634Y-11269D01*
X33663Y-11315D01*
X33680Y-11338D01*
X33302D01*
X33319Y-11315D01*
X33348Y-11269D01*
X33360Y-11246D01*
X33370Y-11225D01*
X33378Y-11203D01*
X33384Y-11183D01*
X33389Y-11163D01*
X33391Y-11143D01*
X33392Y-11124D01*
X33589D01*
X33590Y-11143D01*
D02*
G37*
G36*
X37152Y-9166D02*
X37083Y-9272D01*
X37066Y-9303D01*
X37041Y-9358D01*
X37034Y-9383D01*
X37029Y-9405D01*
X37028Y-9425D01*
X36831D01*
X36829Y-9405D01*
X36825Y-9383D01*
X36817Y-9358D01*
X36806Y-9332D01*
X36792Y-9303D01*
X36756Y-9239D01*
X36733Y-9203D01*
X36677Y-9126D01*
X37181D01*
X37152Y-9166D01*
D02*
G37*
G36*
X37155Y-11171D02*
X37170Y-11183D01*
X37188Y-11194D01*
X37207Y-11205D01*
X37228Y-11214D01*
X37250Y-11222D01*
X37274Y-11230D01*
X37327Y-11242D01*
X37356Y-11246D01*
X37089Y-11514D01*
X37084Y-11485D01*
X37072Y-11431D01*
X37065Y-11407D01*
X37056Y-11385D01*
X37047Y-11364D01*
X37037Y-11345D01*
X37026Y-11328D01*
X37014Y-11312D01*
X37001Y-11298D01*
X37140Y-11159D01*
X37155Y-11171D01*
D02*
G37*
G36*
X32002Y-9166D02*
X31933Y-9272D01*
X31916Y-9303D01*
X31892Y-9358D01*
X31884Y-9383D01*
X31879Y-9405D01*
X31878Y-9425D01*
X31681D01*
X31680Y-9405D01*
X31675Y-9383D01*
X31667Y-9358D01*
X31657Y-9332D01*
X31643Y-9303D01*
X31606Y-9239D01*
X31583Y-9203D01*
X31528Y-9126D01*
X32031D01*
X32002Y-9166D01*
D02*
G37*
G36*
X35435D02*
X35366Y-9272D01*
X35349Y-9303D01*
X35325Y-9358D01*
X35317Y-9383D01*
X35313Y-9405D01*
X35311Y-9425D01*
X35114D01*
X35113Y-9405D01*
X35108Y-9383D01*
X35100Y-9358D01*
X35090Y-9332D01*
X35076Y-9303D01*
X35039Y-9239D01*
X35016Y-9203D01*
X34961Y-9126D01*
X35464D01*
X35435Y-9166D01*
D02*
G37*
G36*
X26151Y-13139D02*
X26089Y-13236D01*
X26074Y-13265D01*
X26062Y-13291D01*
X26052Y-13317D01*
X26045Y-13340D01*
X26041Y-13362D01*
X26040Y-13382D01*
X25843D01*
X25842Y-13362D01*
X25837Y-13340D01*
X25831Y-13317D01*
X25821Y-13291D01*
X25808Y-13265D01*
X25793Y-13236D01*
X25755Y-13173D01*
X25705Y-13103D01*
X26177D01*
X26151Y-13139D01*
D02*
G37*
G36*
X16610Y-14677D02*
X16597Y-14691D01*
X16585Y-14715D01*
X16575Y-14748D01*
X16566Y-14790D01*
X16559Y-14842D01*
X16550Y-14974D01*
X16550Y-15001D01*
X16556Y-15116D01*
X16559Y-15130D01*
X16562Y-15140D01*
X16566Y-15147D01*
X16483Y-15144D01*
X16075D01*
X16074Y-15130D01*
X16031Y-15128D01*
X16039Y-15116D01*
X16047Y-15101D01*
X16053Y-15083D01*
X16059Y-15063D01*
X16064Y-15040D01*
X16068Y-15014D01*
X16069Y-15000D01*
X16056Y-14842D01*
X16045Y-14790D01*
X16033Y-14748D01*
X16017Y-14715D01*
X16000Y-14691D01*
X15980Y-14677D01*
X15958Y-14672D01*
X16625D01*
X16610Y-14677D01*
D02*
G37*
G36*
X16553Y-15549D02*
X16548Y-15562D01*
X16543Y-15578D01*
X16539Y-15597D01*
X16535Y-15620D01*
X16530Y-15673D01*
X16528Y-15739D01*
X16528Y-15776D01*
X16055D01*
X16055Y-15739D01*
X16047Y-15620D01*
X16044Y-15597D01*
X16040Y-15578D01*
X16035Y-15562D01*
X16030Y-15549D01*
X16024Y-15540D01*
X16559D01*
X16553Y-15549D01*
D02*
G37*
G36*
X16528Y-15938D02*
X16535Y-16058D01*
X16539Y-16080D01*
X16543Y-16099D01*
X16548Y-16115D01*
X16553Y-16128D01*
X16559Y-16138D01*
X16024D01*
X16030Y-16128D01*
X16035Y-16115D01*
X16040Y-16099D01*
X16044Y-16080D01*
X16047Y-16058D01*
X16052Y-16004D01*
X16055Y-15938D01*
X16055Y-15901D01*
X16528D01*
X16528Y-15938D01*
D02*
G37*
G36*
X32291Y-16385D02*
X32340Y-16429D01*
X32364Y-16446D01*
X32386Y-16461D01*
X32407Y-16473D01*
X32428Y-16483D01*
X32447Y-16490D01*
X32466Y-16494D01*
X32483Y-16495D01*
X32432Y-16692D01*
X32410Y-16692D01*
X32388Y-16694D01*
X32365Y-16698D01*
X32343Y-16702D01*
X32298Y-16715D01*
X32275Y-16723D01*
X32229Y-16743D01*
X32206Y-16755D01*
X32264Y-16360D01*
X32291Y-16385D01*
D02*
G37*
G36*
X35940Y-16910D02*
X35900Y-16868D01*
X35762Y-16746D01*
X35733Y-16727D01*
X35708Y-16711D01*
X35685Y-16701D01*
X35664Y-16694D01*
X35646Y-16692D01*
X35700Y-16495D01*
X35723Y-16494D01*
X35748Y-16490D01*
X35775Y-16485D01*
X35804Y-16477D01*
X35869Y-16454D01*
X35905Y-16439D01*
X36025Y-16381D01*
X35940Y-16910D01*
D02*
G37*
G36*
X16553Y-16549D02*
X16548Y-16562D01*
X16543Y-16578D01*
X16539Y-16597D01*
X16535Y-16620D01*
X16530Y-16673D01*
X16528Y-16739D01*
X16528Y-16776D01*
X16055D01*
X16055Y-16739D01*
X16047Y-16620D01*
X16044Y-16597D01*
X16040Y-16578D01*
X16035Y-16562D01*
X16030Y-16549D01*
X16024Y-16540D01*
X16559D01*
X16553Y-16549D01*
D02*
G37*
G36*
X16528Y-16938D02*
X16535Y-17058D01*
X16539Y-17080D01*
X16543Y-17099D01*
X16548Y-17115D01*
X16553Y-17128D01*
X16559Y-17138D01*
X16024D01*
X16030Y-17128D01*
X16035Y-17115D01*
X16040Y-17099D01*
X16044Y-17080D01*
X16047Y-17058D01*
X16052Y-17004D01*
X16055Y-16938D01*
X16055Y-16901D01*
X16528D01*
X16528Y-16938D01*
D02*
G37*
G36*
X27384Y-15585D02*
X27289Y-15734D01*
X27274Y-15765D01*
X27262Y-15793D01*
X27254Y-15818D01*
X27249Y-15841D01*
X27247Y-15861D01*
X27050D01*
X27048Y-15841D01*
X27043Y-15818D01*
X27035Y-15793D01*
X27023Y-15765D01*
X27008Y-15734D01*
X26967Y-15665D01*
X26913Y-15585D01*
X26881Y-15541D01*
X27416D01*
X27384Y-15585D01*
D02*
G37*
G36*
X27265Y-16855D02*
X27270Y-16877D01*
X27278Y-16901D01*
X27288Y-16928D01*
X27302Y-16957D01*
X27339Y-17021D01*
X27362Y-17056D01*
X27417Y-17134D01*
X26914D01*
X26943Y-17094D01*
X27012Y-16988D01*
X27029Y-16957D01*
X27053Y-16901D01*
X27061Y-16877D01*
X27065Y-16855D01*
X27067Y-16835D01*
X27264D01*
X27265Y-16855D01*
D02*
G37*
G36*
X11843Y-19954D02*
X11850Y-20073D01*
X11854Y-20095D01*
X11858Y-20115D01*
X11863Y-20131D01*
X11868Y-20143D01*
X11874Y-20153D01*
X11339D01*
X11345Y-20143D01*
X11350Y-20131D01*
X11355Y-20115D01*
X11359Y-20095D01*
X11362Y-20073D01*
X11367Y-20020D01*
X11370Y-19954D01*
X11370Y-19916D01*
X11843D01*
X11843Y-19954D01*
D02*
G37*
G36*
X8450Y-21030D02*
X8488Y-21202D01*
X8499Y-21235D01*
X8510Y-21263D01*
X8522Y-21287D01*
X8535Y-21307D01*
X8548Y-21322D01*
X8409Y-21461D01*
X8393Y-21448D01*
X8374Y-21436D01*
X8350Y-21424D01*
X8321Y-21412D01*
X8289Y-21401D01*
X8211Y-21381D01*
X8117Y-21363D01*
X8063Y-21355D01*
X8442Y-20977D01*
X8450Y-21030D01*
D02*
G37*
G36*
X8958Y-23852D02*
X8961Y-23872D01*
X8966Y-23893D01*
X8973Y-23915D01*
X8982Y-23937D01*
X8993Y-23961D01*
X9006Y-23985D01*
X9039Y-24036D01*
X9058Y-24062D01*
X8658D01*
X8678Y-24036D01*
X8710Y-23985D01*
X8723Y-23961D01*
X8734Y-23937D01*
X8744Y-23915D01*
X8751Y-23893D01*
X8756Y-23872D01*
X8759Y-23852D01*
X8760Y-23833D01*
X8957D01*
X8958Y-23852D01*
D02*
G37*
G36*
X13842Y-25599D02*
X13747Y-25748D01*
X13732Y-25778D01*
X13720Y-25807D01*
X13711Y-25832D01*
X13706Y-25855D01*
X13705Y-25875D01*
X13508D01*
X13506Y-25855D01*
X13501Y-25832D01*
X13493Y-25807D01*
X13481Y-25778D01*
X13466Y-25748D01*
X13425Y-25679D01*
X13371Y-25599D01*
X13339Y-25555D01*
X13874D01*
X13842Y-25599D01*
D02*
G37*
G36*
X13635Y-26909D02*
X13638Y-26943D01*
X13643Y-26972D01*
X13650Y-26998D01*
X13658Y-27020D01*
X13669Y-27038D01*
X13682Y-27051D01*
X13697Y-27061D01*
X13714Y-27067D01*
X13732Y-27069D01*
X13339D01*
X13357Y-27067D01*
X13374Y-27061D01*
X13389Y-27051D01*
X13402Y-27038D01*
X13412Y-27020D01*
X13421Y-26998D01*
X13428Y-26972D01*
X13433Y-26943D01*
X13436Y-26909D01*
X13437Y-26871D01*
X13634D01*
X13635Y-26909D01*
D02*
G37*
G36*
X16842Y-25599D02*
X16747Y-25748D01*
X16732Y-25778D01*
X16720Y-25807D01*
X16711Y-25832D01*
X16706Y-25855D01*
X16705Y-25875D01*
X16508D01*
X16506Y-25855D01*
X16501Y-25832D01*
X16493Y-25807D01*
X16481Y-25778D01*
X16466Y-25748D01*
X16425Y-25679D01*
X16371Y-25599D01*
X16339Y-25555D01*
X16874D01*
X16842Y-25599D01*
D02*
G37*
G36*
X16635Y-26927D02*
X16639Y-26948D01*
X16646Y-26972D01*
X16656Y-26997D01*
X16668Y-27024D01*
X16683Y-27052D01*
X16722Y-27115D01*
X16772Y-27185D01*
X16299D01*
X16325Y-27149D01*
X16387Y-27052D01*
X16403Y-27024D01*
X16415Y-26997D01*
X16425Y-26972D01*
X16432Y-26948D01*
X16436Y-26927D01*
X16437Y-26907D01*
X16634D01*
X16635Y-26927D01*
D02*
G37*
G36*
X15842Y-25599D02*
X15747Y-25748D01*
X15732Y-25778D01*
X15720Y-25807D01*
X15711Y-25832D01*
X15706Y-25855D01*
X15705Y-25875D01*
X15508D01*
X15506Y-25855D01*
X15501Y-25832D01*
X15493Y-25807D01*
X15481Y-25778D01*
X15466Y-25748D01*
X15425Y-25679D01*
X15371Y-25599D01*
X15339Y-25555D01*
X15874D01*
X15842Y-25599D01*
D02*
G37*
G36*
X15635Y-26927D02*
X15639Y-26948D01*
X15646Y-26972D01*
X15656Y-26997D01*
X15668Y-27024D01*
X15683Y-27052D01*
X15722Y-27115D01*
X15772Y-27185D01*
X15299D01*
X15325Y-27149D01*
X15387Y-27052D01*
X15403Y-27024D01*
X15415Y-26997D01*
X15425Y-26972D01*
X15432Y-26948D01*
X15436Y-26927D01*
X15437Y-26907D01*
X15634D01*
X15635Y-26927D01*
D02*
G37*
G36*
X14842Y-25599D02*
X14747Y-25748D01*
X14732Y-25778D01*
X14720Y-25807D01*
X14711Y-25832D01*
X14706Y-25855D01*
X14705Y-25875D01*
X14508D01*
X14506Y-25855D01*
X14501Y-25832D01*
X14493Y-25807D01*
X14481Y-25778D01*
X14466Y-25748D01*
X14425Y-25679D01*
X14371Y-25599D01*
X14339Y-25555D01*
X14874D01*
X14842Y-25599D01*
D02*
G37*
G36*
X14635Y-26927D02*
X14639Y-26948D01*
X14646Y-26972D01*
X14656Y-26997D01*
X14668Y-27024D01*
X14683Y-27052D01*
X14722Y-27115D01*
X14772Y-27185D01*
X14299D01*
X14325Y-27149D01*
X14387Y-27052D01*
X14403Y-27024D01*
X14415Y-26997D01*
X14425Y-26972D01*
X14432Y-26948D01*
X14436Y-26927D01*
X14437Y-26907D01*
X14634D01*
X14635Y-26927D01*
D02*
G37*
G36*
X28407Y-22177D02*
X28412Y-22190D01*
X28420Y-22204D01*
X28431Y-22221D01*
X28444Y-22239D01*
X28478Y-22280D01*
X28523Y-22328D01*
X28549Y-22355D01*
X28215Y-22689D01*
X28188Y-22663D01*
X28099Y-22584D01*
X28081Y-22571D01*
X28064Y-22560D01*
X28050Y-22552D01*
X28037Y-22547D01*
X28025Y-22544D01*
X28404Y-22165D01*
X28407Y-22177D01*
D02*
G37*
G36*
X28549Y-27323D02*
X28523Y-27350D01*
X28444Y-27440D01*
X28431Y-27458D01*
X28420Y-27474D01*
X28412Y-27489D01*
X28407Y-27502D01*
X28404Y-27513D01*
X28025Y-27135D01*
X28037Y-27132D01*
X28050Y-27126D01*
X28064Y-27118D01*
X28081Y-27108D01*
X28099Y-27095D01*
X28140Y-27060D01*
X28188Y-27016D01*
X28215Y-26989D01*
X28549Y-27323D01*
D02*
G37*
G36*
X7585Y-27158D02*
X7516Y-27264D01*
X7499Y-27295D01*
X7474Y-27351D01*
X7467Y-27375D01*
X7462Y-27397D01*
X7461Y-27417D01*
X7264D01*
X7262Y-27397D01*
X7258Y-27375D01*
X7250Y-27351D01*
X7239Y-27324D01*
X7225Y-27295D01*
X7189Y-27231D01*
X7166Y-27196D01*
X7110Y-27118D01*
X7614D01*
X7585Y-27158D01*
D02*
G37*
G36*
X7772Y-28315D02*
X7792Y-28328D01*
X7816Y-28340D01*
X7844Y-28351D01*
X7876Y-28362D01*
X7954Y-28383D01*
X8049Y-28401D01*
X8102Y-28409D01*
X7724Y-28787D01*
X7716Y-28734D01*
X7677Y-28561D01*
X7666Y-28529D01*
X7655Y-28501D01*
X7643Y-28477D01*
X7630Y-28457D01*
X7617Y-28442D01*
X7757Y-28302D01*
X7772Y-28315D01*
D02*
G37*
G36*
X31100Y-27410D02*
X31106Y-27423D01*
X31114Y-27438D01*
X31124Y-27454D01*
X31138Y-27472D01*
X31172Y-27513D01*
X31217Y-27562D01*
X31243Y-27588D01*
X30909Y-27922D01*
X30882Y-27896D01*
X30792Y-27817D01*
X30774Y-27804D01*
X30758Y-27793D01*
X30743Y-27785D01*
X30730Y-27780D01*
X30719Y-27777D01*
X31098Y-27399D01*
X31100Y-27410D01*
D02*
G37*
G36*
X32127Y-31213D02*
X32147Y-31520D01*
X32154Y-31553D01*
X32163Y-31577D01*
X32173Y-31591D01*
X32184Y-31596D01*
X31596D01*
X31607Y-31591D01*
X31617Y-31577D01*
X31625Y-31553D01*
X31633Y-31520D01*
X31639Y-31478D01*
X31648Y-31364D01*
X31654Y-31123D01*
X32126D01*
X32127Y-31213D01*
D02*
G37*
G36*
X32173Y-32189D02*
X32163Y-32203D01*
X32154Y-32226D01*
X32147Y-32259D01*
X32140Y-32302D01*
X32131Y-32415D01*
X32126Y-32656D01*
X31654D01*
X31653Y-32567D01*
X31633Y-32259D01*
X31625Y-32226D01*
X31617Y-32203D01*
X31607Y-32189D01*
X31596Y-32184D01*
X32184D01*
X32173Y-32189D01*
D02*
G37*
G36*
X17402Y-32141D02*
X17385Y-32152D01*
X17370Y-32172D01*
X17358Y-32200D01*
X17347Y-32235D01*
X17338Y-32278D01*
X17332Y-32330D01*
X17324Y-32455D01*
X17323Y-32481D01*
X17329Y-32561D01*
X17333Y-32584D01*
X17337Y-32605D01*
X17342Y-32623D01*
X17348Y-32640D01*
X17355Y-32654D01*
X17362Y-32665D01*
X16890D01*
X16897Y-32654D01*
X16904Y-32640D01*
X16910Y-32623D01*
X16915Y-32605D01*
X16919Y-32584D01*
X16923Y-32561D01*
X16928Y-32508D01*
X16928Y-32474D01*
X16928Y-32455D01*
X16914Y-32278D01*
X16905Y-32235D01*
X16894Y-32200D01*
X16881Y-32172D01*
X16867Y-32152D01*
X16850Y-32141D01*
X16832Y-32137D01*
X17420D01*
X17402Y-32141D01*
D02*
G37*
G36*
X17355Y-33031D02*
X17348Y-33045D01*
X17342Y-33062D01*
X17337Y-33080D01*
X17333Y-33101D01*
X17329Y-33124D01*
X17324Y-33177D01*
X17323Y-33240D01*
X16929D01*
X16929Y-33207D01*
X16923Y-33124D01*
X16919Y-33101D01*
X16915Y-33080D01*
X16910Y-33062D01*
X16904Y-33045D01*
X16897Y-33031D01*
X16890Y-33020D01*
X17362D01*
X17355Y-33031D01*
D02*
G37*
G36*
X17323Y-33478D02*
X17329Y-33561D01*
X17333Y-33584D01*
X17337Y-33605D01*
X17342Y-33623D01*
X17348Y-33640D01*
X17355Y-33654D01*
X17362Y-33665D01*
X16890D01*
X16897Y-33654D01*
X16904Y-33640D01*
X16910Y-33623D01*
X16915Y-33605D01*
X16919Y-33584D01*
X16923Y-33561D01*
X16928Y-33508D01*
X16929Y-33445D01*
X17323D01*
X17323Y-33478D01*
D02*
G37*
G36*
X17355Y-34031D02*
X17348Y-34045D01*
X17342Y-34062D01*
X17337Y-34080D01*
X17333Y-34101D01*
X17329Y-34124D01*
X17324Y-34177D01*
X17323Y-34240D01*
X16929D01*
X16929Y-34207D01*
X16923Y-34124D01*
X16919Y-34101D01*
X16915Y-34080D01*
X16910Y-34062D01*
X16904Y-34045D01*
X16897Y-34031D01*
X16890Y-34020D01*
X17362D01*
X17355Y-34031D01*
D02*
G37*
G36*
X17323Y-34478D02*
X17329Y-34561D01*
X17333Y-34584D01*
X17337Y-34605D01*
X17342Y-34623D01*
X17348Y-34640D01*
X17355Y-34654D01*
X17362Y-34665D01*
X16890D01*
X16897Y-34654D01*
X16904Y-34640D01*
X16910Y-34623D01*
X16915Y-34605D01*
X16919Y-34584D01*
X16923Y-34561D01*
X16928Y-34508D01*
X16929Y-34445D01*
X17323D01*
X17323Y-34478D01*
D02*
G37*
G36*
X24882Y-32156D02*
X24865Y-32168D01*
X24851Y-32188D01*
X24838Y-32215D01*
X24827Y-32251D01*
X24819Y-32294D01*
X24812Y-32345D01*
X24804Y-32471D01*
X24804Y-32497D01*
X24809Y-32577D01*
X24813Y-32600D01*
X24817Y-32621D01*
X24822Y-32639D01*
X24828Y-32655D01*
X24835Y-32669D01*
X24842Y-32681D01*
X24370D01*
X24378Y-32669D01*
X24384Y-32655D01*
X24390Y-32639D01*
X24395Y-32621D01*
X24400Y-32600D01*
X24403Y-32577D01*
X24408Y-32523D01*
X24409Y-32490D01*
X24408Y-32471D01*
X24394Y-32294D01*
X24385Y-32251D01*
X24374Y-32215D01*
X24362Y-32188D01*
X24347Y-32168D01*
X24331Y-32156D01*
X24312Y-32152D01*
X24900D01*
X24882Y-32156D01*
D02*
G37*
G36*
X24835Y-33047D02*
X24828Y-33061D01*
X24822Y-33077D01*
X24817Y-33096D01*
X24813Y-33117D01*
X24809Y-33140D01*
X24805Y-33193D01*
X24803Y-33256D01*
X24409D01*
X24409Y-33223D01*
X24403Y-33140D01*
X24400Y-33117D01*
X24395Y-33096D01*
X24390Y-33077D01*
X24384Y-33061D01*
X24378Y-33047D01*
X24370Y-33036D01*
X24842D01*
X24835Y-33047D01*
D02*
G37*
G36*
X24804Y-33493D02*
X24809Y-33577D01*
X24813Y-33600D01*
X24817Y-33621D01*
X24822Y-33639D01*
X24828Y-33655D01*
X24835Y-33669D01*
X24842Y-33681D01*
X24370D01*
X24378Y-33669D01*
X24384Y-33655D01*
X24390Y-33639D01*
X24395Y-33621D01*
X24400Y-33600D01*
X24403Y-33577D01*
X24408Y-33523D01*
X24409Y-33461D01*
X24803D01*
X24804Y-33493D01*
D02*
G37*
G36*
X24835Y-34047D02*
X24828Y-34061D01*
X24822Y-34077D01*
X24817Y-34096D01*
X24813Y-34117D01*
X24809Y-34140D01*
X24805Y-34193D01*
X24803Y-34256D01*
X24409D01*
X24409Y-34223D01*
X24403Y-34140D01*
X24400Y-34117D01*
X24395Y-34096D01*
X24390Y-34077D01*
X24384Y-34061D01*
X24378Y-34047D01*
X24370Y-34036D01*
X24842D01*
X24835Y-34047D01*
D02*
G37*
G36*
X24804Y-34493D02*
X24809Y-34577D01*
X24813Y-34600D01*
X24817Y-34621D01*
X24822Y-34639D01*
X24828Y-34655D01*
X24835Y-34669D01*
X24842Y-34681D01*
X24370D01*
X24378Y-34669D01*
X24384Y-34655D01*
X24390Y-34639D01*
X24395Y-34621D01*
X24400Y-34600D01*
X24403Y-34577D01*
X24408Y-34523D01*
X24409Y-34461D01*
X24803D01*
X24804Y-34493D01*
D02*
G37*
D15*
X12598Y-25346D02*
X12606Y-25354D01*
X12598Y-20362D02*
X12606Y-20354D01*
X12598Y-25346D02*
Y-20362D01*
X12606Y-29899D02*
Y-25354D01*
Y-20354D02*
Y-19730D01*
X8110Y-25354D02*
Y-23071D01*
X6538Y-22089D02*
X7325D01*
X5709Y-21260D02*
Y-19882D01*
Y-21260D02*
X6538Y-22089D01*
X5709Y-19882D02*
X6693Y-18898D01*
Y-6174D01*
X8941Y-3926D01*
X8058Y-23018D02*
X8110Y-23071D01*
X7325Y-22089D02*
X8058Y-22821D01*
Y-23018D02*
Y-22821D01*
X30315Y-16339D02*
X34654Y-20677D01*
X30315Y-16339D02*
Y-12008D01*
X29134Y-10827D02*
X30315Y-12008D01*
X28331Y-4709D02*
Y-4134D01*
X29134Y-10827D02*
Y-5512D01*
X28331Y-4709D02*
X29134Y-5512D01*
X36142Y-29346D02*
X37205Y-28283D01*
X36181Y-20677D02*
X37205Y-21701D01*
Y-28283D02*
Y-21701D01*
X34654Y-20677D02*
X36181D01*
X21835Y-12247D02*
Y-12205D01*
X22088Y-17899D02*
Y-12501D01*
X21835Y-12247D02*
X22088Y-12501D01*
X21457Y-18441D02*
X21531D01*
X21862Y-18110D01*
X21877D01*
X22088Y-17899D01*
X12614Y-19722D02*
Y-19094D01*
X17126Y-34843D02*
Y-33843D01*
X20110Y-9583D02*
X20744Y-8949D01*
Y-7949D01*
X24606Y-33858D02*
Y-32858D01*
Y-34858D02*
Y-33858D01*
X12606Y-29899D02*
X13157Y-30450D01*
Y-33268D02*
Y-30450D01*
X12606Y-19730D02*
X12614Y-19722D01*
X17126Y-33843D02*
Y-32843D01*
Y-31843D01*
X20815Y-12205D02*
X21835D01*
X20110Y-11500D02*
X20815Y-12205D01*
X20110Y-11500D02*
Y-9583D01*
X24606Y-32858D02*
Y-31858D01*
D17*
X9055Y-19685D02*
Y-13510D01*
X9435Y-11432D02*
X9941Y-10926D01*
X9055Y-13510D02*
X9435Y-13130D01*
X9055Y-19685D02*
X10630Y-21260D01*
X9435Y-13130D02*
Y-11432D01*
X10630Y-26378D02*
Y-21260D01*
X9055Y-27953D02*
X10630Y-26378D01*
X9843Y-23228D02*
Y-21089D01*
X17717Y-25829D02*
Y-20669D01*
X14634Y-17586D02*
X17717Y-20669D01*
Y-25829D02*
X21063Y-29176D01*
X20276Y-19882D02*
Y-13386D01*
Y-19882D02*
X23622Y-23228D01*
X27378D01*
X21063Y-29176D02*
X21063D01*
X10732Y-20351D02*
X11915Y-21534D01*
Y-22608D02*
Y-21534D01*
X9055Y-28740D02*
Y-27953D01*
X8071Y-19317D02*
X9843Y-21089D01*
X8071Y-19317D02*
Y-11796D01*
X8858Y-24213D02*
Y-21772D01*
X8110Y-21024D02*
X8858Y-21772D01*
X10435Y-20474D02*
Y-12420D01*
X11220Y-21850D02*
Y-21260D01*
X10435Y-20474D02*
X11220Y-21260D01*
X10732Y-20351D02*
Y-7976D01*
X10188Y-7432D02*
X10732Y-7976D01*
X9941Y-11926D02*
X10435Y-12420D01*
X9436Y-7432D02*
X10188D01*
X8941Y-6937D02*
X9436Y-7432D01*
X8941Y-6937D02*
Y-6926D01*
X9952Y-16161D02*
Y-12937D01*
X9941Y-12926D02*
X9952Y-12937D01*
X8071Y-11796D02*
X8941Y-10926D01*
X27639Y-10120D02*
X29724Y-12205D01*
Y-19488D02*
Y-12205D01*
Y-19488D02*
X33858Y-23622D01*
X29231Y-19585D02*
X33661Y-24016D01*
X34811D02*
X36142Y-25346D01*
X33661Y-24016D02*
X34811D01*
X33858Y-23622D02*
X35417D01*
X36142Y-24346D01*
X7874Y-8858D02*
X8941Y-9926D01*
X7874Y-8858D02*
Y-8858D01*
X8941Y-9926D02*
Y-9926D01*
X27378Y-23228D02*
X28073Y-23923D01*
X14567Y-7677D02*
X20276Y-13386D01*
X12992Y-16740D02*
Y-12402D01*
X23819D02*
X24788Y-11432D01*
X26435D01*
X25749Y-5420D02*
X26448D01*
X24467Y-7029D02*
Y-6702D01*
X24999Y-8284D02*
Y-6917D01*
X25484Y-6432D02*
X26435D01*
X24467Y-6702D02*
X25749Y-5420D01*
X24409Y-7087D02*
X24467Y-7029D01*
X24999Y-6917D02*
X25484Y-6432D01*
X26448Y-5420D02*
X26941Y-4926D01*
X24606Y-5906D02*
Y-5261D01*
X24999Y-8284D02*
X25055Y-8339D01*
X24606Y-5261D02*
X25941Y-3926D01*
X26435Y-6432D02*
X26941Y-5926D01*
X26448Y-10420D02*
X26941Y-9926D01*
X23744Y-8949D02*
X24215Y-9420D01*
Y-10420D02*
X26448D01*
X24215Y-9420D02*
X26448D01*
X23744Y-9949D02*
X24215Y-10420D01*
X26448Y-9420D02*
X26941Y-8926D01*
X26435Y-11432D02*
X26941Y-10926D01*
X12992Y-16740D02*
X16606Y-20354D01*
X26435Y-7420D02*
X27133D01*
X27639Y-10120D02*
Y-7926D01*
X27133Y-7420D02*
X27639Y-7926D01*
X29331Y-4756D02*
Y-4134D01*
X29838Y-5626D02*
X29921Y-5709D01*
X29331Y-4756D02*
X29838Y-5264D01*
Y-5626D02*
Y-5264D01*
X7362Y-28047D02*
Y-26929D01*
Y-28047D02*
X8055Y-28740D01*
X36097Y-16593D02*
X36181Y-16677D01*
X32145Y-16593D02*
X36097D01*
X32087Y-16535D02*
X32145Y-16593D01*
X27532Y-11981D02*
X28937Y-13386D01*
X26941Y-11926D02*
X26996Y-11981D01*
X27532D01*
X29231Y-19585D02*
Y-14467D01*
X27196Y-12432D02*
X29231Y-14467D01*
X25941Y-11926D02*
X26448Y-12432D01*
X27196D01*
X25941Y-6926D02*
X26435Y-7420D01*
X12402Y-7677D02*
X14567D01*
Y-8858D02*
X15551Y-9843D01*
Y-17664D02*
Y-9843D01*
Y-17664D02*
X21276Y-23390D01*
X21596Y-23761D02*
X27011Y-29176D01*
X28073D01*
X21276Y-23390D02*
X21284D01*
X21596Y-23761D02*
Y-23702D01*
X21284Y-23390D02*
X21596Y-23702D01*
X12402Y-17150D02*
X15606Y-20354D01*
X12402Y-17150D02*
Y-11417D01*
X14634Y-17586D02*
Y-10697D01*
X15080Y-17613D02*
Y-10355D01*
X13606Y-26329D02*
Y-25354D01*
X13535Y-26400D02*
X13606Y-26329D01*
X13535Y-27362D02*
Y-26400D01*
X20866Y-16850D02*
X21457Y-17441D01*
X34039Y-4850D02*
Y-4134D01*
X35213Y-5394D02*
Y-4860D01*
X35039Y-4687D02*
X35213Y-4860D01*
X35039Y-4687D02*
Y-4134D01*
X36039Y-4504D02*
X36929Y-5394D01*
X36039Y-4504D02*
Y-4134D01*
X31575Y-11480D02*
X31780Y-11276D01*
Y-8937D01*
X33491Y-11480D02*
Y-10220D01*
X33496Y-10215D01*
Y-8937D01*
X35213Y-11286D02*
X35407Y-11480D01*
X35213Y-11286D02*
Y-8937D01*
X36929Y-11087D02*
X37323Y-11480D01*
X36929Y-11087D02*
Y-8937D01*
X20744Y-9949D02*
X21460Y-9233D01*
X14535Y-27362D02*
Y-26400D01*
X14606Y-26329D01*
Y-25354D01*
X15535Y-27362D02*
Y-26400D01*
X15606Y-26329D01*
Y-25354D01*
X16535Y-27362D02*
Y-26400D01*
X16606Y-26329D01*
Y-25354D01*
X13189Y-8465D02*
X15080Y-10355D01*
Y-17613D02*
X20978Y-23511D01*
Y-23837D02*
Y-23511D01*
Y-23837D02*
X21063Y-23923D01*
X12402Y-8465D02*
X14634Y-10697D01*
X27149Y-14340D02*
Y-13740D01*
X26941Y-13533D02*
X27149Y-13740D01*
X26941Y-13533D02*
Y-12926D01*
X25941Y-14019D02*
Y-12926D01*
X20866Y-16850D02*
Y-15354D01*
X33496Y-5394D02*
X34039Y-4850D01*
X27165Y-17323D02*
Y-16340D01*
X27149Y-16323D02*
X27165Y-16340D01*
X27149Y-16323D02*
Y-15340D01*
X20744Y-10949D02*
Y-9949D01*
X21460Y-9233D02*
Y-4509D01*
X22032Y-3937D01*
X25591Y-14370D02*
X25941Y-14019D01*
D33*
X22952Y-21387D02*
Y-12343D01*
Y-21387D02*
X23757Y-22193D01*
X22835Y-12226D02*
X22952Y-12343D01*
X22835Y-12226D02*
Y-12205D01*
X5134Y-31874D02*
X7087Y-29921D01*
X5118Y-31874D02*
X5134D01*
X7087Y-29921D02*
X10024D01*
X11606Y-28339D01*
Y-25354D01*
X35407Y-12480D02*
X37323D01*
X37323Y-12480D01*
X33491Y-12480D02*
X35407D01*
X35407Y-12480D01*
X31575Y-12480D02*
X33491D01*
X33491Y-12480D01*
X18307Y-19457D02*
X21063Y-22213D01*
X18307Y-16374D02*
X19291Y-15390D01*
X18307Y-19457D02*
Y-16374D01*
X23744Y-8000D02*
Y-4939D01*
X19291Y-15390D02*
Y-15339D01*
X23031Y-10185D02*
Y-8713D01*
Y-10185D02*
X23744Y-10898D01*
X23031Y-8713D02*
X23744Y-8000D01*
Y-10949D02*
Y-10898D01*
X22835Y-12205D02*
X23706Y-11333D01*
Y-10986D01*
X23744Y-10949D01*
X29134Y-26405D02*
Y-23274D01*
X28073Y-27466D02*
X29134Y-26405D01*
X28073Y-22213D02*
X29134Y-23274D01*
X28073Y-22213D02*
Y-22213D01*
X11600Y-19081D02*
Y-6585D01*
Y-19081D02*
X11614Y-19094D01*
X9941Y-4926D02*
X11600Y-6585D01*
X23714Y-4908D02*
Y-4239D01*
X26378Y-3150D02*
X26882Y-3654D01*
Y-3835D02*
Y-3654D01*
X4134Y-30890D02*
X5118Y-31874D01*
X2953Y-26787D02*
Y-23031D01*
X3899Y-22085D02*
X4079D01*
X4117Y-22047D01*
X11606Y-20354D02*
Y-19730D01*
X16291Y-14339D02*
X16311Y-14358D01*
X9941Y-4894D02*
X10580Y-4255D01*
Y-3493D01*
X9646Y-2559D02*
X10580Y-3493D01*
X6299Y-2559D02*
X9646D01*
X4921Y-5315D02*
Y-3937D01*
X30766Y-27446D02*
X31890Y-28569D01*
Y-33890D02*
Y-32890D01*
Y-34890D02*
Y-33890D01*
X23714Y-4908D02*
X23744Y-4939D01*
X23714Y-4239D02*
X24803Y-3150D01*
X26378D01*
X26882Y-3835D02*
X26941Y-3894D01*
Y-3926D02*
Y-3894D01*
X4134Y-30890D02*
Y-27968D01*
X2953Y-26787D02*
X4134Y-27968D01*
X2953Y-23031D02*
X3899Y-22085D01*
X11606Y-19730D02*
X11614Y-19722D01*
Y-19094D01*
X16291Y-17339D02*
Y-16339D01*
Y-15339D01*
X16311Y-15319D01*
Y-14358D01*
X9941Y-4926D02*
Y-4894D01*
X4921Y-3937D02*
X6299Y-2559D01*
X31890Y-31890D02*
Y-28569D01*
Y-32890D02*
Y-31890D01*
D34*
X3346Y-10220D02*
D03*
X5512Y-10205D02*
D03*
X4134Y-27968D02*
D03*
X36142Y-30346D02*
D03*
X36181Y-14677D02*
D03*
X4117Y-23047D02*
D03*
X27149Y-14340D02*
D03*
X25591Y-14370D02*
D03*
X21457Y-17441D02*
D03*
X11606Y-25354D02*
D03*
D35*
X3346Y-11220D02*
D03*
Y-12220D02*
D03*
Y-13220D02*
D03*
Y-14220D02*
D03*
Y-15220D02*
D03*
Y-16220D02*
D03*
X5512Y-11205D02*
D03*
Y-12205D02*
D03*
Y-13205D02*
D03*
Y-14205D02*
D03*
Y-15205D02*
D03*
Y-16205D02*
D03*
X4921Y-5315D02*
D03*
X22032Y-3937D02*
D03*
X19291Y-14339D02*
D03*
Y-15339D02*
D03*
Y-16339D02*
D03*
Y-17339D02*
D03*
X16291D02*
D03*
Y-16339D02*
D03*
Y-15339D02*
D03*
X23744Y-7949D02*
D03*
Y-8949D02*
D03*
Y-9949D02*
D03*
Y-10949D02*
D03*
X20744D02*
D03*
Y-9949D02*
D03*
Y-8949D02*
D03*
X4134Y-25968D02*
D03*
Y-26969D02*
D03*
X28073Y-29176D02*
D03*
X30776D02*
D03*
X30766Y-27446D02*
D03*
X28073Y-27466D02*
D03*
X36142Y-29346D02*
D03*
Y-28346D02*
D03*
Y-27346D02*
D03*
Y-26346D02*
D03*
Y-25346D02*
D03*
Y-24346D02*
D03*
X36181Y-21677D02*
D03*
Y-20677D02*
D03*
Y-19677D02*
D03*
Y-18677D02*
D03*
Y-17677D02*
D03*
Y-16677D02*
D03*
Y-15677D02*
D03*
X4117Y-22047D02*
D03*
Y-21047D02*
D03*
X21063Y-29176D02*
D03*
X23767D02*
D03*
X23757Y-27446D02*
D03*
X21063Y-27466D02*
D03*
X28073Y-23923D02*
D03*
X30776D02*
D03*
X30766Y-22193D02*
D03*
X28073Y-22213D02*
D03*
X21063Y-23923D02*
D03*
X23767D02*
D03*
X23757Y-22193D02*
D03*
X21063Y-22213D02*
D03*
X27149Y-15340D02*
D03*
X25591Y-15370D02*
D03*
X21457Y-18441D02*
D03*
X34039Y-4134D02*
D03*
X35039D02*
D03*
X36039D02*
D03*
X9646Y-30906D02*
D03*
X28331Y-4134D02*
D03*
X7110Y-25354D02*
D03*
X8110Y-23071D02*
D03*
Y-21024D02*
D03*
X8055Y-28740D02*
D03*
X14606Y-25354D02*
D03*
X12606D02*
D03*
X13606D02*
D03*
X15606D02*
D03*
X16606D02*
D03*
Y-20354D02*
D03*
X13606D02*
D03*
X11606D02*
D03*
X15606D02*
D03*
X14606D02*
D03*
X12606D02*
D03*
D36*
X3921Y-5315D02*
D03*
X23031Y-3937D02*
D03*
X16291Y-14339D02*
D03*
X20744Y-7949D02*
D03*
X33039Y-4134D02*
D03*
X8646Y-30906D02*
D03*
X29331Y-4134D02*
D03*
X8110Y-25354D02*
D03*
X7110Y-23071D02*
D03*
Y-21024D02*
D03*
X9055Y-28740D02*
D03*
D37*
X13535Y-27362D02*
D03*
D38*
X14535D02*
D03*
X15535D02*
D03*
X16535D02*
D03*
X24606Y-34858D02*
D03*
Y-33858D02*
D03*
Y-32858D02*
D03*
X9941Y-12926D02*
D03*
X8941D02*
D03*
X9941Y-11926D02*
D03*
X8941D02*
D03*
X9941Y-10926D02*
D03*
X8941D02*
D03*
X9941Y-9926D02*
D03*
X8941D02*
D03*
X9941Y-8926D02*
D03*
X8941D02*
D03*
X9941Y-7926D02*
D03*
X8941D02*
D03*
X9941Y-6926D02*
D03*
X8941D02*
D03*
X9941Y-5926D02*
D03*
X8941D02*
D03*
X9941Y-4926D02*
D03*
X8941D02*
D03*
X9941Y-3926D02*
D03*
X26941Y-12926D02*
D03*
X25941D02*
D03*
X26941Y-11926D02*
D03*
X25941D02*
D03*
X26941Y-10926D02*
D03*
X25941D02*
D03*
X26941Y-9926D02*
D03*
X25941D02*
D03*
X26941Y-8926D02*
D03*
X25941D02*
D03*
X26941Y-7926D02*
D03*
X25941D02*
D03*
X26941Y-6926D02*
D03*
X25941D02*
D03*
X26941Y-5926D02*
D03*
X25941D02*
D03*
X26941Y-4926D02*
D03*
X25941D02*
D03*
X26941Y-3926D02*
D03*
X2953Y-31874D02*
D03*
X17126Y-32843D02*
D03*
Y-33843D02*
D03*
Y-34843D02*
D03*
X31890Y-32890D02*
D03*
Y-33890D02*
D03*
Y-34890D02*
D03*
D39*
X24606Y-31858D02*
D03*
X8941Y-3926D02*
D03*
X25941D02*
D03*
X2953Y-32874D02*
D03*
X17126Y-31843D02*
D03*
X31890Y-31890D02*
D03*
D40*
X7087Y-30906D02*
D03*
Y-34449D02*
D03*
X31780Y-8937D02*
D03*
Y-5394D02*
D03*
X33496Y-8937D02*
D03*
Y-5394D02*
D03*
X36929Y-8937D02*
D03*
Y-5394D02*
D03*
X35213Y-8937D02*
D03*
Y-5394D02*
D03*
X29921Y-9252D02*
D03*
Y-5709D02*
D03*
X28346Y-9252D02*
D03*
Y-5709D02*
D03*
X7362Y-26929D02*
D03*
X10906D02*
D03*
X24409Y-15354D02*
D03*
X20866D02*
D03*
X27165Y-17323D02*
D03*
X23622D02*
D03*
X5118Y-32874D02*
D03*
Y-33874D02*
D03*
Y-31874D02*
D03*
D41*
X12614Y-19094D02*
D03*
X11614D02*
D03*
X22835Y-12205D02*
D03*
X21835D02*
D03*
D42*
X37323Y-11480D02*
D03*
Y-12480D02*
D03*
X35407Y-11480D02*
D03*
Y-12480D02*
D03*
X33491Y-12480D02*
D03*
Y-11480D02*
D03*
X31575Y-12480D02*
D03*
Y-11480D02*
D03*
D43*
X13157Y-33268D02*
D03*
X20638D02*
D03*
X27953D02*
D03*
D44*
X15157D02*
D03*
X22638D02*
D03*
X29953D02*
D03*
X1969Y-37402D02*
D03*
Y-1969D02*
D03*
X37402Y-37402D02*
D03*
Y-1969D02*
D03*
D45*
X9843Y-23228D02*
D03*
X11915Y-22608D02*
D03*
X8858Y-24213D02*
D03*
X11220Y-21850D02*
D03*
X9952Y-16161D02*
D03*
X7874Y-8858D02*
D03*
X12992Y-12402D02*
D03*
X23819D02*
D03*
X24606Y-5906D02*
D03*
X24409Y-7087D02*
D03*
X25055Y-8339D02*
D03*
X32087Y-16535D02*
D03*
X28937Y-13386D02*
D03*
X14567Y-8858D02*
D03*
X13189Y-8465D02*
D03*
X12402Y-7677D02*
D03*
Y-11417D02*
D03*
X12402Y-8465D02*
D03*
M02*
