G04*
G04 #@! TF.GenerationSoftware,Altium Limited,Altium Designer,20.2.3 (150)*
G04*
G04 Layer_Color=8388736*
%FSLAX24Y24*%
%MOIN*%
G70*
G04*
G04 #@! TF.SameCoordinates,D33FF55B-48EF-4710-8091-CBF0DB89F5B4*
G04*
G04*
G04 #@! TF.FilePolarity,Negative*
G04*
G01*
G75*
%ADD21R,0.0749X0.0749*%
%ADD22C,0.0749*%
%ADD23R,0.0749X0.0749*%
%ADD24R,0.0671X0.0671*%
%ADD25C,0.0671*%
%ADD26R,0.0671X0.0671*%
%ADD27C,0.0710*%
%ADD28C,0.0631*%
%ADD29C,0.0552*%
%ADD30R,0.1261X0.1261*%
%ADD31C,0.1261*%
%ADD32C,0.0580*%
D21*
X3346Y-10220D02*
D03*
X5512Y-10205D02*
D03*
X4134Y-27968D02*
D03*
X36142Y-30346D02*
D03*
X36181Y-14677D02*
D03*
X4117Y-23047D02*
D03*
X27149Y-14340D02*
D03*
X25591Y-14370D02*
D03*
X21457Y-17441D02*
D03*
X11606Y-25354D02*
D03*
D22*
X3346Y-11220D02*
D03*
Y-12220D02*
D03*
Y-13220D02*
D03*
Y-14220D02*
D03*
Y-15220D02*
D03*
Y-16220D02*
D03*
X5512Y-11205D02*
D03*
Y-12205D02*
D03*
Y-13205D02*
D03*
Y-14205D02*
D03*
Y-15205D02*
D03*
Y-16205D02*
D03*
X4921Y-5315D02*
D03*
X22032Y-3937D02*
D03*
X19291Y-14339D02*
D03*
Y-15339D02*
D03*
Y-16339D02*
D03*
Y-17339D02*
D03*
X16291D02*
D03*
Y-16339D02*
D03*
Y-15339D02*
D03*
X23744Y-7949D02*
D03*
Y-8949D02*
D03*
Y-9949D02*
D03*
Y-10949D02*
D03*
X20744D02*
D03*
Y-9949D02*
D03*
Y-8949D02*
D03*
X4134Y-25968D02*
D03*
Y-26969D02*
D03*
X28073Y-29176D02*
D03*
X30776D02*
D03*
X30766Y-27446D02*
D03*
X28073Y-27466D02*
D03*
X36142Y-29346D02*
D03*
Y-28346D02*
D03*
Y-27346D02*
D03*
Y-26346D02*
D03*
Y-25346D02*
D03*
Y-24346D02*
D03*
X36181Y-21677D02*
D03*
Y-20677D02*
D03*
Y-19677D02*
D03*
Y-18677D02*
D03*
Y-17677D02*
D03*
Y-16677D02*
D03*
Y-15677D02*
D03*
X4117Y-22047D02*
D03*
Y-21047D02*
D03*
X21063Y-29176D02*
D03*
X23767D02*
D03*
X23757Y-27446D02*
D03*
X21063Y-27466D02*
D03*
X28073Y-23923D02*
D03*
X30776D02*
D03*
X30766Y-22193D02*
D03*
X28073Y-22213D02*
D03*
X21063Y-23923D02*
D03*
X23767D02*
D03*
X23757Y-22193D02*
D03*
X21063Y-22213D02*
D03*
X27149Y-15340D02*
D03*
X25591Y-15370D02*
D03*
X21457Y-18441D02*
D03*
X34039Y-4134D02*
D03*
X35039D02*
D03*
X36039D02*
D03*
X9646Y-30906D02*
D03*
X28331Y-4134D02*
D03*
X7110Y-25354D02*
D03*
X8110Y-23071D02*
D03*
Y-21024D02*
D03*
X8055Y-28740D02*
D03*
X14606Y-25354D02*
D03*
X12606D02*
D03*
X13606D02*
D03*
X15606D02*
D03*
X16606D02*
D03*
Y-20354D02*
D03*
X13606D02*
D03*
X11606D02*
D03*
X15606D02*
D03*
X14606D02*
D03*
X12606D02*
D03*
D23*
X3921Y-5315D02*
D03*
X23031Y-3937D02*
D03*
X16291Y-14339D02*
D03*
X20744Y-7949D02*
D03*
X33039Y-4134D02*
D03*
X8646Y-30906D02*
D03*
X29331Y-4134D02*
D03*
X8110Y-25354D02*
D03*
X7110Y-23071D02*
D03*
Y-21024D02*
D03*
X9055Y-28740D02*
D03*
D24*
X13535Y-27362D02*
D03*
D25*
X14535D02*
D03*
X15535D02*
D03*
X16535D02*
D03*
X24606Y-34858D02*
D03*
Y-33858D02*
D03*
Y-32858D02*
D03*
X9941Y-12926D02*
D03*
X8941D02*
D03*
X9941Y-11926D02*
D03*
X8941D02*
D03*
X9941Y-10926D02*
D03*
X8941D02*
D03*
X9941Y-9926D02*
D03*
X8941D02*
D03*
X9941Y-8926D02*
D03*
X8941D02*
D03*
X9941Y-7926D02*
D03*
X8941D02*
D03*
X9941Y-6926D02*
D03*
X8941D02*
D03*
X9941Y-5926D02*
D03*
X8941D02*
D03*
X9941Y-4926D02*
D03*
X8941D02*
D03*
X9941Y-3926D02*
D03*
X26941Y-12926D02*
D03*
X25941D02*
D03*
X26941Y-11926D02*
D03*
X25941D02*
D03*
X26941Y-10926D02*
D03*
X25941D02*
D03*
X26941Y-9926D02*
D03*
X25941D02*
D03*
X26941Y-8926D02*
D03*
X25941D02*
D03*
X26941Y-7926D02*
D03*
X25941D02*
D03*
X26941Y-6926D02*
D03*
X25941D02*
D03*
X26941Y-5926D02*
D03*
X25941D02*
D03*
X26941Y-4926D02*
D03*
X25941D02*
D03*
X26941Y-3926D02*
D03*
X2953Y-31874D02*
D03*
X17126Y-32843D02*
D03*
Y-33843D02*
D03*
Y-34843D02*
D03*
X31890Y-32890D02*
D03*
Y-33890D02*
D03*
Y-34890D02*
D03*
D26*
X24606Y-31858D02*
D03*
X8941Y-3926D02*
D03*
X25941D02*
D03*
X2953Y-32874D02*
D03*
X17126Y-31843D02*
D03*
X31890Y-31890D02*
D03*
D27*
X7087Y-30906D02*
D03*
Y-34449D02*
D03*
X31780Y-8937D02*
D03*
Y-5394D02*
D03*
X33496Y-8937D02*
D03*
Y-5394D02*
D03*
X36929Y-8937D02*
D03*
Y-5394D02*
D03*
X35213Y-8937D02*
D03*
Y-5394D02*
D03*
X29921Y-9252D02*
D03*
Y-5709D02*
D03*
X28346Y-9252D02*
D03*
Y-5709D02*
D03*
X7362Y-26929D02*
D03*
X10906D02*
D03*
X24409Y-15354D02*
D03*
X20866D02*
D03*
X27165Y-17323D02*
D03*
X23622D02*
D03*
X5118Y-32874D02*
D03*
Y-33874D02*
D03*
Y-31874D02*
D03*
D28*
X12614Y-19094D02*
D03*
X11614D02*
D03*
X22835Y-12205D02*
D03*
X21835D02*
D03*
D29*
X37323Y-11480D02*
D03*
Y-12480D02*
D03*
X35407Y-11480D02*
D03*
Y-12480D02*
D03*
X33491Y-12480D02*
D03*
Y-11480D02*
D03*
X31575Y-12480D02*
D03*
Y-11480D02*
D03*
D30*
X13157Y-33268D02*
D03*
X20638D02*
D03*
X27953D02*
D03*
D31*
X15157D02*
D03*
X22638D02*
D03*
X29953D02*
D03*
X1969Y-37402D02*
D03*
Y-1969D02*
D03*
X37402Y-37402D02*
D03*
Y-1969D02*
D03*
D32*
X9843Y-23228D02*
D03*
X11915Y-22608D02*
D03*
X8858Y-24213D02*
D03*
X11220Y-21850D02*
D03*
X9952Y-16161D02*
D03*
X7874Y-8858D02*
D03*
X12992Y-12402D02*
D03*
X23819D02*
D03*
X24606Y-5906D02*
D03*
X24409Y-7087D02*
D03*
X25055Y-8339D02*
D03*
X32087Y-16535D02*
D03*
X28937Y-13386D02*
D03*
X14567Y-8858D02*
D03*
X13189Y-8465D02*
D03*
X12402Y-7677D02*
D03*
Y-11417D02*
D03*
X12402Y-8465D02*
D03*
M02*
