G04*
G04 #@! TF.GenerationSoftware,Altium Limited,Altium Designer,20.2.3 (150)*
G04*
G04 Layer_Color=2752767*
%FSLAX24Y24*%
%MOIN*%
G70*
G04*
G04 #@! TF.SameCoordinates,D33FF55B-48EF-4710-8091-CBF0DB89F5B4*
G04*
G04*
G04 #@! TF.FilePolarity,Positive*
G04*
G01*
G75*
%ADD48C,0.0020*%
%ADD49C,0.0027*%
D48*
X3266Y-10300D02*
Y-10140D01*
X3426D01*
Y-10300D01*
X3266D01*
Y-11300D02*
Y-11140D01*
X3426D01*
Y-11300D01*
X3266D01*
Y-12300D02*
Y-12140D01*
X3426D01*
Y-12300D01*
X3266D01*
Y-13300D02*
Y-13140D01*
X3426D01*
Y-13300D01*
X3266D01*
Y-14300D02*
Y-14140D01*
X3426D01*
Y-14300D01*
X3266D01*
Y-15300D02*
Y-15140D01*
X3426D01*
Y-15300D01*
X3266D01*
Y-16300D02*
Y-16140D01*
X3426D01*
Y-16300D01*
X3266D01*
X5432Y-10285D02*
Y-10125D01*
X5592D01*
Y-10285D01*
X5432D01*
Y-11285D02*
Y-11125D01*
X5592D01*
Y-11285D01*
X5432D01*
Y-12285D02*
Y-12125D01*
X5592D01*
Y-12285D01*
X5432D01*
Y-13285D02*
Y-13125D01*
X5592D01*
Y-13285D01*
X5432D01*
Y-14285D02*
Y-14125D01*
X5592D01*
Y-14285D01*
X5432D01*
Y-15285D02*
Y-15125D01*
X5592D01*
Y-15285D01*
X5432D01*
Y-16285D02*
Y-16125D01*
X5592D01*
Y-16285D01*
X5432D01*
X13455Y-27442D02*
Y-27282D01*
X13615D01*
Y-27442D01*
X13455D01*
X14455D02*
Y-27282D01*
X14615D01*
Y-27442D01*
X14455D01*
X15455D02*
Y-27282D01*
X15615D01*
Y-27442D01*
X15455D01*
X16455D02*
Y-27282D01*
X16615D01*
Y-27442D01*
X16455D01*
X24526Y-34938D02*
Y-34778D01*
X24686D01*
Y-34938D01*
X24526D01*
Y-33938D02*
Y-33778D01*
X24686D01*
Y-33938D01*
X24526D01*
Y-32938D02*
Y-32778D01*
X24686D01*
Y-32938D01*
X24526D01*
Y-31938D02*
Y-31778D01*
X24686D01*
Y-31938D01*
X24526D01*
X22952Y-4017D02*
Y-3857D01*
X23112D01*
Y-4017D01*
X22952D01*
X21951D02*
Y-3857D01*
X22111D01*
Y-4017D01*
X21951D01*
X7087Y-30986D02*
X7007Y-30826D01*
X7167D01*
X7087Y-30986D01*
Y-34529D02*
X7007Y-34369D01*
X7167D01*
X7087Y-34529D01*
X19291Y-14419D02*
X19331Y-14379D01*
X19371D01*
X19331Y-14339D01*
X19371Y-14299D01*
X19331D01*
X19291Y-14259D01*
X19251Y-14299D01*
X19211D01*
X19251Y-14339D01*
X19211Y-14379D01*
X19251D01*
X19291Y-14419D01*
Y-15419D02*
X19331Y-15379D01*
X19371D01*
X19331Y-15339D01*
X19371Y-15299D01*
X19331D01*
X19291Y-15259D01*
X19251Y-15299D01*
X19211D01*
X19251Y-15339D01*
X19211Y-15379D01*
X19251D01*
X19291Y-15419D01*
Y-16419D02*
X19331Y-16379D01*
X19371D01*
X19331Y-16339D01*
X19371Y-16299D01*
X19331D01*
X19291Y-16259D01*
X19251Y-16299D01*
X19211D01*
X19251Y-16339D01*
X19211Y-16379D01*
X19251D01*
X19291Y-16419D01*
Y-17419D02*
X19331Y-17379D01*
X19371D01*
X19331Y-17339D01*
X19371Y-17299D01*
X19331D01*
X19291Y-17259D01*
X19251Y-17299D01*
X19211D01*
X19251Y-17339D01*
X19211Y-17379D01*
X19251D01*
X19291Y-17419D01*
X16291D02*
X16331Y-17379D01*
X16371D01*
X16331Y-17339D01*
X16371Y-17299D01*
X16331D01*
X16291Y-17259D01*
X16251Y-17299D01*
X16211D01*
X16251Y-17339D01*
X16211Y-17379D01*
X16251D01*
X16291Y-17419D01*
Y-16419D02*
X16331Y-16379D01*
X16371D01*
X16331Y-16339D01*
X16371Y-16299D01*
X16331D01*
X16291Y-16259D01*
X16251Y-16299D01*
X16211D01*
X16251Y-16339D01*
X16211Y-16379D01*
X16251D01*
X16291Y-16419D01*
Y-15419D02*
X16331Y-15379D01*
X16371D01*
X16331Y-15339D01*
X16371Y-15299D01*
X16331D01*
X16291Y-15259D01*
X16251Y-15299D01*
X16211D01*
X16251Y-15339D01*
X16211Y-15379D01*
X16251D01*
X16291Y-15419D01*
Y-14419D02*
X16331Y-14379D01*
X16371D01*
X16331Y-14339D01*
X16371Y-14299D01*
X16331D01*
X16291Y-14259D01*
X16251Y-14299D01*
X16211D01*
X16251Y-14339D01*
X16211Y-14379D01*
X16251D01*
X16291Y-14419D01*
X23744Y-8029D02*
X23784Y-7989D01*
X23824D01*
X23784Y-7949D01*
X23824Y-7909D01*
X23784D01*
X23744Y-7869D01*
X23704Y-7909D01*
X23664D01*
X23704Y-7949D01*
X23664Y-7989D01*
X23704D01*
X23744Y-8029D01*
Y-9029D02*
X23784Y-8989D01*
X23824D01*
X23784Y-8949D01*
X23824Y-8909D01*
X23784D01*
X23744Y-8869D01*
X23704Y-8909D01*
X23664D01*
X23704Y-8949D01*
X23664Y-8989D01*
X23704D01*
X23744Y-9029D01*
Y-10029D02*
X23784Y-9989D01*
X23824D01*
X23784Y-9949D01*
X23824Y-9909D01*
X23784D01*
X23744Y-9869D01*
X23704Y-9909D01*
X23664D01*
X23704Y-9949D01*
X23664Y-9989D01*
X23704D01*
X23744Y-10029D01*
Y-11029D02*
X23784Y-10989D01*
X23824D01*
X23784Y-10949D01*
X23824Y-10909D01*
X23784D01*
X23744Y-10869D01*
X23704Y-10909D01*
X23664D01*
X23704Y-10949D01*
X23664Y-10989D01*
X23704D01*
X23744Y-11029D01*
X20744D02*
X20784Y-10989D01*
X20824D01*
X20784Y-10949D01*
X20824Y-10909D01*
X20784D01*
X20744Y-10869D01*
X20704Y-10909D01*
X20664D01*
X20704Y-10949D01*
X20664Y-10989D01*
X20704D01*
X20744Y-11029D01*
Y-10029D02*
X20784Y-9989D01*
X20824D01*
X20784Y-9949D01*
X20824Y-9909D01*
X20784D01*
X20744Y-9869D01*
X20704Y-9909D01*
X20664D01*
X20704Y-9949D01*
X20664Y-9989D01*
X20704D01*
X20744Y-10029D01*
Y-9029D02*
X20784Y-8989D01*
X20824D01*
X20784Y-8949D01*
X20824Y-8909D01*
X20784D01*
X20744Y-8869D01*
X20704Y-8909D01*
X20664D01*
X20704Y-8949D01*
X20664Y-8989D01*
X20704D01*
X20744Y-9029D01*
Y-8029D02*
X20784Y-7989D01*
X20824D01*
X20784Y-7949D01*
X20824Y-7909D01*
X20784D01*
X20744Y-7869D01*
X20704Y-7909D01*
X20664D01*
X20704Y-7949D01*
X20664Y-7989D01*
X20704D01*
X20744Y-8029D01*
X4054Y-26049D02*
Y-25889D01*
X4214D01*
Y-26049D01*
X4054D01*
Y-27048D02*
Y-26888D01*
X4214D01*
Y-27048D01*
X4054D01*
Y-28049D02*
Y-27889D01*
X4214D01*
Y-28049D01*
X4054D01*
X27992Y-29256D02*
X28033Y-29176D01*
X27992Y-29096D01*
X28073Y-29136D01*
X28152Y-29096D01*
X28112Y-29176D01*
X28152Y-29256D01*
X28073Y-29216D01*
X27992Y-29256D01*
X30696D02*
X30736Y-29176D01*
X30696Y-29096D01*
X30776Y-29136D01*
X30856Y-29096D01*
X30816Y-29176D01*
X30856Y-29256D01*
X30776Y-29216D01*
X30696Y-29256D01*
X30686Y-27526D02*
X30726Y-27446D01*
X30686Y-27366D01*
X30766Y-27406D01*
X30846Y-27366D01*
X30806Y-27446D01*
X30846Y-27526D01*
X30766Y-27486D01*
X30686Y-27526D01*
X27992Y-27546D02*
X28033Y-27466D01*
X27992Y-27386D01*
X28073Y-27426D01*
X28152Y-27386D01*
X28112Y-27466D01*
X28152Y-27546D01*
X28073Y-27506D01*
X27992Y-27546D01*
X31780Y-9017D02*
X31700Y-8857D01*
X31860D01*
X31780Y-9017D01*
Y-5474D02*
X31700Y-5314D01*
X31860D01*
X31780Y-5474D01*
X33496Y-9017D02*
X33416Y-8857D01*
X33576D01*
X33496Y-9017D01*
Y-5474D02*
X33416Y-5314D01*
X33576D01*
X33496Y-5474D01*
X36929Y-9017D02*
X36849Y-8857D01*
X37009D01*
X36929Y-9017D01*
Y-5474D02*
X36849Y-5314D01*
X37009D01*
X36929Y-5474D01*
X35213Y-9017D02*
X35133Y-8857D01*
X35293D01*
X35213Y-9017D01*
Y-5474D02*
X35133Y-5314D01*
X35293D01*
X35213Y-5474D01*
X29921Y-9332D02*
X29841Y-9172D01*
X30001D01*
X29921Y-9332D01*
Y-5789D02*
X29841Y-5629D01*
X30001D01*
X29921Y-5789D01*
X28346Y-9332D02*
X28266Y-9172D01*
X28426D01*
X28346Y-9332D01*
Y-5789D02*
X28266Y-5629D01*
X28426D01*
X28346Y-5789D01*
X36062Y-30426D02*
Y-30266D01*
X36222D01*
Y-30426D01*
X36062D01*
Y-29426D02*
Y-29266D01*
X36222D01*
Y-29426D01*
X36062D01*
Y-28426D02*
Y-28266D01*
X36222D01*
Y-28426D01*
X36062D01*
Y-27426D02*
Y-27266D01*
X36222D01*
Y-27426D01*
X36062D01*
Y-26426D02*
Y-26266D01*
X36222D01*
Y-26426D01*
X36062D01*
Y-25426D02*
Y-25266D01*
X36222D01*
Y-25426D01*
X36062D01*
Y-24426D02*
Y-24266D01*
X36222D01*
Y-24426D01*
X36062D01*
X36101Y-21757D02*
Y-21597D01*
X36261D01*
Y-21757D01*
X36101D01*
Y-20757D02*
Y-20597D01*
X36261D01*
Y-20757D01*
X36101D01*
Y-19757D02*
Y-19597D01*
X36261D01*
Y-19757D01*
X36101D01*
Y-18757D02*
Y-18597D01*
X36261D01*
Y-18757D01*
X36101D01*
Y-17757D02*
Y-17597D01*
X36261D01*
Y-17757D01*
X36101D01*
Y-16757D02*
Y-16597D01*
X36261D01*
Y-16757D01*
X36101D01*
Y-15757D02*
Y-15597D01*
X36261D01*
Y-15757D01*
X36101D01*
Y-14757D02*
Y-14597D01*
X36261D01*
Y-14757D01*
X36101D01*
X4037Y-23127D02*
Y-22967D01*
X4197D01*
Y-23127D01*
X4037D01*
Y-22127D02*
Y-21967D01*
X4197D01*
Y-22127D01*
X4037D01*
Y-21127D02*
Y-20967D01*
X4197D01*
Y-21127D01*
X4037D01*
X7362Y-27009D02*
X7282Y-26849D01*
X7442D01*
X7362Y-27009D01*
X10906D02*
X10826Y-26849D01*
X10986D01*
X10906Y-27009D01*
X24409Y-15434D02*
X24329Y-15274D01*
X24489D01*
X24409Y-15434D01*
X20866D02*
X20786Y-15274D01*
X20946D01*
X20866Y-15434D01*
X27165Y-17403D02*
X27085Y-17243D01*
X27245D01*
X27165Y-17403D01*
X23622D02*
X23542Y-17243D01*
X23702D01*
X23622Y-17403D01*
X12614Y-19174D02*
X12534Y-19014D01*
X12694D01*
X12614Y-19174D01*
X11614D02*
X11534Y-19014D01*
X11694D01*
X11614Y-19174D01*
X22835Y-12285D02*
X22755Y-12125D01*
X22915D01*
X22835Y-12285D01*
X21835D02*
X21755Y-12125D01*
X21915D01*
X21835Y-12285D01*
X20983Y-29256D02*
X21023Y-29176D01*
X20983Y-29096D01*
X21063Y-29136D01*
X21143Y-29096D01*
X21103Y-29176D01*
X21143Y-29256D01*
X21063Y-29216D01*
X20983Y-29256D01*
X23687D02*
X23727Y-29176D01*
X23687Y-29096D01*
X23767Y-29136D01*
X23847Y-29096D01*
X23807Y-29176D01*
X23847Y-29256D01*
X23767Y-29216D01*
X23687Y-29256D01*
X23677Y-27526D02*
X23717Y-27446D01*
X23677Y-27366D01*
X23757Y-27406D01*
X23837Y-27366D01*
X23797Y-27446D01*
X23837Y-27526D01*
X23757Y-27486D01*
X23677Y-27526D01*
X20983Y-27546D02*
X21023Y-27466D01*
X20983Y-27386D01*
X21063Y-27426D01*
X21143Y-27386D01*
X21103Y-27466D01*
X21143Y-27546D01*
X21063Y-27506D01*
X20983Y-27546D01*
X27992Y-24003D02*
X28033Y-23923D01*
X27992Y-23843D01*
X28073Y-23883D01*
X28152Y-23843D01*
X28112Y-23923D01*
X28152Y-24003D01*
X28073Y-23963D01*
X27992Y-24003D01*
X30696D02*
X30736Y-23923D01*
X30696Y-23843D01*
X30776Y-23883D01*
X30856Y-23843D01*
X30816Y-23923D01*
X30856Y-24003D01*
X30776Y-23963D01*
X30696Y-24003D01*
X30686Y-22273D02*
X30726Y-22193D01*
X30686Y-22113D01*
X30766Y-22153D01*
X30846Y-22113D01*
X30806Y-22193D01*
X30846Y-22273D01*
X30766Y-22233D01*
X30686Y-22273D01*
X27992Y-22293D02*
X28033Y-22213D01*
X27992Y-22133D01*
X28073Y-22173D01*
X28152Y-22133D01*
X28112Y-22213D01*
X28152Y-22293D01*
X28073Y-22253D01*
X27992Y-22293D01*
X20983Y-24003D02*
X21023Y-23923D01*
X20983Y-23843D01*
X21063Y-23883D01*
X21143Y-23843D01*
X21103Y-23923D01*
X21143Y-24003D01*
X21063Y-23963D01*
X20983Y-24003D01*
X23687D02*
X23727Y-23923D01*
X23687Y-23843D01*
X23767Y-23883D01*
X23847Y-23843D01*
X23807Y-23923D01*
X23847Y-24003D01*
X23767Y-23963D01*
X23687Y-24003D01*
X23677Y-22273D02*
X23717Y-22193D01*
X23677Y-22113D01*
X23757Y-22153D01*
X23837Y-22113D01*
X23797Y-22193D01*
X23837Y-22273D01*
X23757Y-22233D01*
X23677Y-22273D01*
X20983Y-22293D02*
X21023Y-22213D01*
X20983Y-22133D01*
X21063Y-22173D01*
X21143Y-22133D01*
X21103Y-22213D01*
X21143Y-22293D01*
X21063Y-22253D01*
X20983Y-22293D01*
X27069Y-15420D02*
Y-15260D01*
X27229D01*
Y-15420D01*
X27069D01*
Y-14420D02*
Y-14260D01*
X27229D01*
Y-14420D01*
X27069D01*
X25511Y-15450D02*
Y-15290D01*
X25671D01*
Y-15450D01*
X25511D01*
Y-14450D02*
Y-14290D01*
X25671D01*
Y-14450D01*
X25511D01*
X21377Y-18521D02*
Y-18361D01*
X21537D01*
Y-18521D01*
X21377D01*
Y-17521D02*
Y-17361D01*
X21537D01*
Y-17521D01*
X21377D01*
X5078Y-32914D02*
Y-32954D01*
X5158D01*
Y-32914D01*
X5198D01*
Y-32834D01*
X5158D01*
Y-32794D01*
X5078D01*
Y-32834D01*
X5038D01*
Y-32914D01*
X5078D01*
Y-33914D02*
Y-33954D01*
X5158D01*
Y-33914D01*
X5198D01*
Y-33834D01*
X5158D01*
Y-33794D01*
X5078D01*
Y-33834D01*
X5038D01*
Y-33914D01*
X5078D01*
Y-31914D02*
Y-31954D01*
X5158D01*
Y-31914D01*
X5198D01*
Y-31834D01*
X5158D01*
Y-31794D01*
X5078D01*
Y-31834D01*
X5038D01*
Y-31914D01*
X5078D01*
X37283Y-11520D02*
Y-11560D01*
X37363D01*
Y-11520D01*
X37403D01*
Y-11440D01*
X37363D01*
Y-11400D01*
X37283D01*
Y-11440D01*
X37243D01*
Y-11520D01*
X37283D01*
Y-12520D02*
Y-12560D01*
X37363D01*
Y-12520D01*
X37403D01*
Y-12440D01*
X37363D01*
Y-12400D01*
X37283D01*
Y-12440D01*
X37243D01*
Y-12520D01*
X37283D01*
X35367Y-11520D02*
Y-11560D01*
X35447D01*
Y-11520D01*
X35487D01*
Y-11440D01*
X35447D01*
Y-11400D01*
X35367D01*
Y-11440D01*
X35327D01*
Y-11520D01*
X35367D01*
Y-12520D02*
Y-12560D01*
X35447D01*
Y-12520D01*
X35487D01*
Y-12440D01*
X35447D01*
Y-12400D01*
X35367D01*
Y-12440D01*
X35327D01*
Y-12520D01*
X35367D01*
X33451Y-12520D02*
Y-12560D01*
X33531D01*
Y-12520D01*
X33571D01*
Y-12440D01*
X33531D01*
Y-12400D01*
X33451D01*
Y-12440D01*
X33411D01*
Y-12520D01*
X33451D01*
Y-11520D02*
Y-11560D01*
X33531D01*
Y-11520D01*
X33571D01*
Y-11440D01*
X33531D01*
Y-11400D01*
X33451D01*
Y-11440D01*
X33411D01*
Y-11520D01*
X33451D01*
X31535Y-12520D02*
Y-12560D01*
X31615D01*
Y-12520D01*
X31655D01*
Y-12440D01*
X31615D01*
Y-12400D01*
X31535D01*
Y-12440D01*
X31495D01*
Y-12520D01*
X31535D01*
Y-11520D02*
Y-11560D01*
X31615D01*
Y-11520D01*
X31655D01*
Y-11440D01*
X31615D01*
Y-11400D01*
X31535D01*
Y-11440D01*
X31495D01*
Y-11520D01*
X31535D01*
X9861Y-13006D02*
Y-12846D01*
X10021D01*
Y-13006D01*
X9861D01*
X8861D02*
Y-12846D01*
X9021D01*
Y-13006D01*
X8861D01*
X9861Y-12006D02*
Y-11846D01*
X10021D01*
Y-12006D01*
X9861D01*
X8861D02*
Y-11846D01*
X9021D01*
Y-12006D01*
X8861D01*
X9861Y-11006D02*
Y-10846D01*
X10021D01*
Y-11006D01*
X9861D01*
X8861D02*
Y-10846D01*
X9021D01*
Y-11006D01*
X8861D01*
X9861Y-10006D02*
Y-9846D01*
X10021D01*
Y-10006D01*
X9861D01*
X8861D02*
Y-9846D01*
X9021D01*
Y-10006D01*
X8861D01*
X9861Y-9006D02*
Y-8846D01*
X10021D01*
Y-9006D01*
X9861D01*
X8861D02*
Y-8846D01*
X9021D01*
Y-9006D01*
X8861D01*
X9861Y-8006D02*
Y-7846D01*
X10021D01*
Y-8006D01*
X9861D01*
X8861D02*
Y-7846D01*
X9021D01*
Y-8006D01*
X8861D01*
X9861Y-7006D02*
Y-6846D01*
X10021D01*
Y-7006D01*
X9861D01*
X8861D02*
Y-6846D01*
X9021D01*
Y-7006D01*
X8861D01*
X9861Y-6006D02*
Y-5846D01*
X10021D01*
Y-6006D01*
X9861D01*
X8861D02*
Y-5846D01*
X9021D01*
Y-6006D01*
X8861D01*
X9861Y-5006D02*
Y-4846D01*
X10021D01*
Y-5006D01*
X9861D01*
X8861D02*
Y-4846D01*
X9021D01*
Y-5006D01*
X8861D01*
X9861Y-4006D02*
Y-3846D01*
X10021D01*
Y-4006D01*
X9861D01*
X8861D02*
Y-3846D01*
X9021D01*
Y-4006D01*
X8861D01*
X26861Y-13006D02*
Y-12846D01*
X27021D01*
Y-13006D01*
X26861D01*
X25861D02*
Y-12846D01*
X26021D01*
Y-13006D01*
X25861D01*
X26861Y-12006D02*
Y-11846D01*
X27021D01*
Y-12006D01*
X26861D01*
X25861D02*
Y-11846D01*
X26021D01*
Y-12006D01*
X25861D01*
X26861Y-11006D02*
Y-10846D01*
X27021D01*
Y-11006D01*
X26861D01*
X25861D02*
Y-10846D01*
X26021D01*
Y-11006D01*
X25861D01*
X26861Y-10006D02*
Y-9846D01*
X27021D01*
Y-10006D01*
X26861D01*
X25861D02*
Y-9846D01*
X26021D01*
Y-10006D01*
X25861D01*
X26861Y-9006D02*
Y-8846D01*
X27021D01*
Y-9006D01*
X26861D01*
X25861D02*
Y-8846D01*
X26021D01*
Y-9006D01*
X25861D01*
X26861Y-8006D02*
Y-7846D01*
X27021D01*
Y-8006D01*
X26861D01*
X25861D02*
Y-7846D01*
X26021D01*
Y-8006D01*
X25861D01*
X26861Y-7006D02*
Y-6846D01*
X27021D01*
Y-7006D01*
X26861D01*
X25861D02*
Y-6846D01*
X26021D01*
Y-7006D01*
X25861D01*
X26861Y-6006D02*
Y-5846D01*
X27021D01*
Y-6006D01*
X26861D01*
X25861D02*
Y-5846D01*
X26021D01*
Y-6006D01*
X25861D01*
X26861Y-5006D02*
Y-4846D01*
X27021D01*
Y-5006D01*
X26861D01*
X25861D02*
Y-4846D01*
X26021D01*
Y-5006D01*
X25861D01*
X26861Y-4006D02*
Y-3846D01*
X27021D01*
Y-4006D01*
X26861D01*
X25861D02*
Y-3846D01*
X26021D01*
Y-4006D01*
X25861D01*
X2873Y-31954D02*
Y-31794D01*
X3033D01*
Y-31954D01*
X2873D01*
Y-32954D02*
Y-32794D01*
X3033D01*
Y-32954D01*
X2873D01*
X13077Y-33348D02*
X13117D01*
X13157Y-33308D01*
X13197Y-33348D01*
X13237D01*
Y-33308D01*
X13197Y-33268D01*
X13237Y-33228D01*
Y-33188D01*
X13197D01*
X13157Y-33228D01*
X13117Y-33188D01*
X13077D01*
Y-33228D01*
X13117Y-33268D01*
X13077Y-33308D01*
Y-33348D01*
X15077D02*
X15117D01*
X15157Y-33308D01*
X15197Y-33348D01*
X15237D01*
Y-33308D01*
X15197Y-33268D01*
X15237Y-33228D01*
Y-33188D01*
X15197D01*
X15157Y-33228D01*
X15117Y-33188D01*
X15077D01*
Y-33228D01*
X15117Y-33268D01*
X15077Y-33308D01*
Y-33348D01*
X20558D02*
X20598D01*
X20638Y-33308D01*
X20678Y-33348D01*
X20718D01*
Y-33308D01*
X20678Y-33268D01*
X20718Y-33228D01*
Y-33188D01*
X20678D01*
X20638Y-33228D01*
X20598Y-33188D01*
X20558D01*
Y-33228D01*
X20598Y-33268D01*
X20558Y-33308D01*
Y-33348D01*
X22558D02*
X22598D01*
X22638Y-33308D01*
X22678Y-33348D01*
X22718D01*
Y-33308D01*
X22678Y-33268D01*
X22718Y-33228D01*
Y-33188D01*
X22678D01*
X22638Y-33228D01*
X22598Y-33188D01*
X22558D01*
Y-33228D01*
X22598Y-33268D01*
X22558Y-33308D01*
Y-33348D01*
X27873D02*
X27913D01*
X27953Y-33308D01*
X27993Y-33348D01*
X28033D01*
Y-33308D01*
X27993Y-33268D01*
X28033Y-33228D01*
Y-33188D01*
X27993D01*
X27953Y-33228D01*
X27913Y-33188D01*
X27873D01*
Y-33228D01*
X27913Y-33268D01*
X27873Y-33308D01*
Y-33348D01*
X29873D02*
X29913D01*
X29953Y-33308D01*
X29993Y-33348D01*
X30033D01*
Y-33308D01*
X29993Y-33268D01*
X30033Y-33228D01*
Y-33188D01*
X29993D01*
X29953Y-33228D01*
X29913Y-33188D01*
X29873D01*
Y-33228D01*
X29913Y-33268D01*
X29873Y-33308D01*
Y-33348D01*
X17046Y-31923D02*
Y-31763D01*
X17206D01*
Y-31923D01*
X17046D01*
Y-32923D02*
Y-32763D01*
X17206D01*
Y-32923D01*
X17046D01*
Y-33923D02*
Y-33763D01*
X17206D01*
Y-33923D01*
X17046D01*
Y-34923D02*
Y-34763D01*
X17206D01*
Y-34923D01*
X17046D01*
X32959Y-4214D02*
Y-4054D01*
X33119D01*
Y-4214D01*
X32959D01*
X33959D02*
Y-4054D01*
X34119D01*
Y-4214D01*
X33959D01*
X34959D02*
Y-4054D01*
X35119D01*
Y-4214D01*
X34959D01*
X35959D02*
Y-4054D01*
X36119D01*
Y-4214D01*
X35959D01*
X8566Y-30986D02*
Y-30826D01*
X8726D01*
Y-30986D01*
X8566D01*
X9566D02*
Y-30826D01*
X9726D01*
Y-30986D01*
X9566D01*
X31810Y-31970D02*
Y-31810D01*
X31970D01*
Y-31970D01*
X31810D01*
Y-32970D02*
Y-32810D01*
X31970D01*
Y-32970D01*
X31810D01*
Y-33970D02*
Y-33810D01*
X31970D01*
Y-33970D01*
X31810D01*
Y-34970D02*
Y-34810D01*
X31970D01*
Y-34970D01*
X31810D01*
X29251Y-4214D02*
Y-4054D01*
X29411D01*
Y-4214D01*
X29251D01*
X28251D02*
Y-4054D01*
X28411D01*
Y-4214D01*
X28251D01*
X8030Y-25434D02*
Y-25274D01*
X8190D01*
Y-25434D01*
X8030D01*
X7030D02*
Y-25274D01*
X7190D01*
Y-25434D01*
X7030D01*
Y-23151D02*
Y-22991D01*
X7190D01*
Y-23151D01*
X7030D01*
X8030D02*
Y-22991D01*
X8190D01*
Y-23151D01*
X8030D01*
X7030Y-21104D02*
Y-20944D01*
X7190D01*
Y-21104D01*
X7030D01*
X8030D02*
Y-20944D01*
X8190D01*
Y-21104D01*
X8030D01*
X8975Y-28820D02*
Y-28660D01*
X9135D01*
Y-28820D01*
X8975D01*
X7975D02*
Y-28660D01*
X8135D01*
Y-28820D01*
X7975D01*
X11606Y-25434D02*
X11646Y-25394D01*
X11686D01*
X11646Y-25354D01*
X11686Y-25314D01*
X11646D01*
X11606Y-25274D01*
X11566Y-25314D01*
X11526D01*
X11566Y-25354D01*
X11526Y-25394D01*
X11566D01*
X11606Y-25434D01*
X14606D02*
X14646Y-25394D01*
X14686D01*
X14646Y-25354D01*
X14686Y-25314D01*
X14646D01*
X14606Y-25274D01*
X14566Y-25314D01*
X14526D01*
X14566Y-25354D01*
X14526Y-25394D01*
X14566D01*
X14606Y-25434D01*
X12606D02*
X12646Y-25394D01*
X12686D01*
X12646Y-25354D01*
X12686Y-25314D01*
X12646D01*
X12606Y-25274D01*
X12566Y-25314D01*
X12526D01*
X12566Y-25354D01*
X12526Y-25394D01*
X12566D01*
X12606Y-25434D01*
X13606D02*
X13646Y-25394D01*
X13686D01*
X13646Y-25354D01*
X13686Y-25314D01*
X13646D01*
X13606Y-25274D01*
X13566Y-25314D01*
X13526D01*
X13566Y-25354D01*
X13526Y-25394D01*
X13566D01*
X13606Y-25434D01*
X15606D02*
X15646Y-25394D01*
X15686D01*
X15646Y-25354D01*
X15686Y-25314D01*
X15646D01*
X15606Y-25274D01*
X15566Y-25314D01*
X15526D01*
X15566Y-25354D01*
X15526Y-25394D01*
X15566D01*
X15606Y-25434D01*
X16606D02*
X16646Y-25394D01*
X16686D01*
X16646Y-25354D01*
X16686Y-25314D01*
X16646D01*
X16606Y-25274D01*
X16566Y-25314D01*
X16526D01*
X16566Y-25354D01*
X16526Y-25394D01*
X16566D01*
X16606Y-25434D01*
Y-20434D02*
X16646Y-20394D01*
X16686D01*
X16646Y-20354D01*
X16686Y-20314D01*
X16646D01*
X16606Y-20274D01*
X16566Y-20314D01*
X16526D01*
X16566Y-20354D01*
X16526Y-20394D01*
X16566D01*
X16606Y-20434D01*
X13606D02*
X13646Y-20394D01*
X13686D01*
X13646Y-20354D01*
X13686Y-20314D01*
X13646D01*
X13606Y-20274D01*
X13566Y-20314D01*
X13526D01*
X13566Y-20354D01*
X13526Y-20394D01*
X13566D01*
X13606Y-20434D01*
X11606D02*
X11646Y-20394D01*
X11686D01*
X11646Y-20354D01*
X11686Y-20314D01*
X11646D01*
X11606Y-20274D01*
X11566Y-20314D01*
X11526D01*
X11566Y-20354D01*
X11526Y-20394D01*
X11566D01*
X11606Y-20434D01*
X15606D02*
X15646Y-20394D01*
X15686D01*
X15646Y-20354D01*
X15686Y-20314D01*
X15646D01*
X15606Y-20274D01*
X15566Y-20314D01*
X15526D01*
X15566Y-20354D01*
X15526Y-20394D01*
X15566D01*
X15606Y-20434D01*
X14606D02*
X14646Y-20394D01*
X14686D01*
X14646Y-20354D01*
X14686Y-20314D01*
X14646D01*
X14606Y-20274D01*
X14566Y-20314D01*
X14526D01*
X14566Y-20354D01*
X14526Y-20394D01*
X14566D01*
X14606Y-20434D01*
X12606D02*
X12646Y-20394D01*
X12686D01*
X12646Y-20354D01*
X12686Y-20314D01*
X12646D01*
X12606Y-20274D01*
X12566Y-20314D01*
X12526D01*
X12566Y-20354D01*
X12526Y-20394D01*
X12566D01*
X12606Y-20434D01*
X1889Y-37402D02*
X1969Y-37322D01*
X2049Y-37402D01*
X1969Y-37482D01*
X1889Y-37402D01*
Y-1969D02*
X1969Y-1889D01*
X2049Y-1969D01*
X1969Y-2049D01*
X1889Y-1969D01*
X37322Y-37402D02*
X37402Y-37322D01*
X37482Y-37402D01*
X37402Y-37482D01*
X37322Y-37402D01*
Y-1969D02*
X37402Y-1889D01*
X37482Y-1969D01*
X37402Y-2049D01*
X37322Y-1969D01*
X9763Y-23308D02*
Y-23148D01*
X9923D01*
Y-23308D01*
X9763D01*
X9803Y-23268D02*
Y-23188D01*
X9883D01*
Y-23268D01*
X9803D01*
X11835Y-22688D02*
Y-22528D01*
X11995D01*
Y-22688D01*
X11835D01*
X11875Y-22648D02*
Y-22568D01*
X11955D01*
Y-22648D01*
X11875D01*
X8778Y-24293D02*
Y-24133D01*
X8938D01*
Y-24293D01*
X8778D01*
X8818Y-24253D02*
Y-24173D01*
X8898D01*
Y-24253D01*
X8818D01*
X11140Y-21930D02*
Y-21770D01*
X11300D01*
Y-21930D01*
X11140D01*
X11180Y-21890D02*
Y-21810D01*
X11260D01*
Y-21890D01*
X11180D01*
X9872Y-16241D02*
Y-16081D01*
X10032D01*
Y-16241D01*
X9872D01*
X9912Y-16201D02*
Y-16121D01*
X9992D01*
Y-16201D01*
X9912D01*
X7794Y-8938D02*
Y-8778D01*
X7954D01*
Y-8938D01*
X7794D01*
X7834Y-8898D02*
Y-8818D01*
X7914D01*
Y-8898D01*
X7834D01*
X12912Y-12482D02*
Y-12322D01*
X13072D01*
Y-12482D01*
X12912D01*
X12952Y-12442D02*
Y-12362D01*
X13032D01*
Y-12442D01*
X12952D01*
X23739Y-12482D02*
Y-12322D01*
X23899D01*
Y-12482D01*
X23739D01*
X23779Y-12442D02*
Y-12362D01*
X23859D01*
Y-12442D01*
X23779D01*
X24526Y-5986D02*
Y-5826D01*
X24686D01*
Y-5986D01*
X24526D01*
X24566Y-5946D02*
Y-5866D01*
X24646D01*
Y-5946D01*
X24566D01*
X24329Y-7167D02*
Y-7007D01*
X24489D01*
Y-7167D01*
X24329D01*
X24369Y-7127D02*
Y-7047D01*
X24449D01*
Y-7127D01*
X24369D01*
X24975Y-8419D02*
Y-8259D01*
X25135D01*
Y-8419D01*
X24975D01*
X25015Y-8379D02*
Y-8299D01*
X25095D01*
Y-8379D01*
X25015D01*
X32007Y-16615D02*
Y-16455D01*
X32167D01*
Y-16615D01*
X32007D01*
X32047Y-16575D02*
Y-16495D01*
X32127D01*
Y-16575D01*
X32047D01*
X28857Y-13466D02*
Y-13306D01*
X29017D01*
Y-13466D01*
X28857D01*
X28897Y-13426D02*
Y-13346D01*
X28977D01*
Y-13426D01*
X28897D01*
X14487Y-8938D02*
Y-8778D01*
X14647D01*
Y-8938D01*
X14487D01*
X14527Y-8898D02*
Y-8818D01*
X14607D01*
Y-8898D01*
X14527D01*
X13109Y-8545D02*
Y-8385D01*
X13269D01*
Y-8545D01*
X13109D01*
X13149Y-8505D02*
Y-8425D01*
X13229D01*
Y-8505D01*
X13149D01*
X12322Y-7757D02*
Y-7597D01*
X12482D01*
Y-7757D01*
X12322D01*
X12362Y-7717D02*
Y-7637D01*
X12442D01*
Y-7717D01*
X12362D01*
X12322Y-11497D02*
Y-11337D01*
X12482D01*
Y-11497D01*
X12322D01*
X12362Y-11457D02*
Y-11377D01*
X12442D01*
Y-11457D01*
X12362D01*
X12322Y-8545D02*
Y-8385D01*
X12482D01*
Y-8545D01*
X12322D01*
X12362Y-8505D02*
Y-8425D01*
X12442D01*
Y-8505D01*
X12362D01*
D49*
X5001Y-5315D02*
G03*
X5001Y-5315I-80J0D01*
G01*
X4001D02*
G03*
X4001Y-5315I-80J0D01*
G01*
M02*
