G04*
G04 #@! TF.GenerationSoftware,Altium Limited,Altium Designer,20.2.3 (150)*
G04*
G04 Layer_Color=128*
%FSLAX24Y24*%
%MOIN*%
G70*
G04*
G04 #@! TF.SameCoordinates,D33FF55B-48EF-4710-8091-CBF0DB89F5B4*
G04*
G04*
G04 #@! TF.FilePolarity,Positive*
G04*
G01*
G75*
%ADD48C,0.0020*%
D48*
X3169Y-10220D02*
X3524D01*
X3346Y-10398D02*
Y-10043D01*
X3169Y-11220D02*
X3524D01*
X3346Y-11398D02*
Y-11043D01*
X3169Y-12220D02*
X3524D01*
X3346Y-12398D02*
Y-12043D01*
X3169Y-13220D02*
X3524D01*
X3346Y-13398D02*
Y-13043D01*
X3169Y-14220D02*
X3524D01*
X3346Y-14398D02*
Y-14043D01*
X3169Y-15220D02*
X3524D01*
X3346Y-15398D02*
Y-15043D01*
X3169Y-16220D02*
X3524D01*
X3346Y-16398D02*
Y-16043D01*
X5335Y-10205D02*
X5689D01*
X5512Y-10382D02*
Y-10028D01*
X5335Y-11205D02*
X5689D01*
X5512Y-11382D02*
Y-11028D01*
X5335Y-12205D02*
X5689D01*
X5512Y-12382D02*
Y-12028D01*
X5335Y-13205D02*
X5689D01*
X5512Y-13382D02*
Y-13028D01*
X5335Y-14205D02*
X5689D01*
X5512Y-14382D02*
Y-14028D01*
X5335Y-15205D02*
X5689D01*
X5512Y-15382D02*
Y-15028D01*
X5335Y-16205D02*
X5689D01*
X5512Y-16382D02*
Y-16028D01*
X4758Y-5315D02*
X5085D01*
X4921Y-5478D02*
Y-5152D01*
X3758Y-5315D02*
X4085D01*
X3921Y-5478D02*
Y-5152D01*
X13358Y-27362D02*
X13713D01*
X13535Y-27539D02*
Y-27185D01*
X14358Y-27362D02*
X14713D01*
X14535Y-27539D02*
Y-27185D01*
X15358Y-27362D02*
X15713D01*
X15535Y-27539D02*
Y-27185D01*
X16358Y-27362D02*
X16713D01*
X16535Y-27539D02*
Y-27185D01*
X24429Y-34858D02*
X24783D01*
X24606Y-35035D02*
Y-34681D01*
X24429Y-33858D02*
X24783D01*
X24606Y-34035D02*
Y-33681D01*
X24429Y-32858D02*
X24783D01*
X24606Y-33035D02*
Y-32681D01*
X24429Y-31858D02*
X24783D01*
X24606Y-32035D02*
Y-31681D01*
X22854Y-3937D02*
X23209D01*
X23031Y-4114D02*
Y-3760D01*
X21854Y-3937D02*
X22209D01*
X22032Y-4114D02*
Y-3760D01*
X6969Y-30906D02*
X7205D01*
X7087Y-31024D02*
Y-30787D01*
X6969Y-34449D02*
X7205D01*
X7087Y-34567D02*
Y-34331D01*
X19134Y-14339D02*
X19449D01*
X19291Y-14496D02*
Y-14181D01*
X19134Y-15339D02*
X19449D01*
X19291Y-15496D02*
Y-15181D01*
X19134Y-16339D02*
X19449D01*
X19291Y-16496D02*
Y-16181D01*
X19134Y-17339D02*
X19449D01*
X19291Y-17496D02*
Y-17181D01*
X16134Y-17339D02*
X16449D01*
X16291Y-17496D02*
Y-17181D01*
X16134Y-16339D02*
X16449D01*
X16291Y-16496D02*
Y-16181D01*
X16134Y-15339D02*
X16449D01*
X16291Y-15496D02*
Y-15181D01*
X16134Y-14339D02*
X16449D01*
X16291Y-14496D02*
Y-14181D01*
X23587Y-7949D02*
X23902D01*
X23744Y-8106D02*
Y-7791D01*
X23587Y-8949D02*
X23902D01*
X23744Y-9106D02*
Y-8791D01*
X23587Y-9949D02*
X23902D01*
X23744Y-10106D02*
Y-9791D01*
X23587Y-10949D02*
X23902D01*
X23744Y-11106D02*
Y-10791D01*
X20587Y-10949D02*
X20902D01*
X20744Y-11106D02*
Y-10791D01*
X20587Y-9949D02*
X20902D01*
X20744Y-10106D02*
Y-9791D01*
X20587Y-8949D02*
X20902D01*
X20744Y-9106D02*
Y-8791D01*
X20587Y-7949D02*
X20902D01*
X20744Y-8106D02*
Y-7791D01*
X3957Y-25968D02*
X4311D01*
X4134Y-26146D02*
Y-25791D01*
X3957Y-26969D02*
X4311D01*
X4134Y-27146D02*
Y-26791D01*
X3957Y-27968D02*
X4311D01*
X4134Y-28146D02*
Y-27791D01*
X27856Y-29176D02*
X28289D01*
X28073Y-29392D02*
Y-28959D01*
X30560Y-29176D02*
X30993D01*
X30776Y-29392D02*
Y-28959D01*
X30550Y-27446D02*
X30983D01*
X30766Y-27662D02*
Y-27229D01*
X27856Y-27466D02*
X28289D01*
X28073Y-27682D02*
Y-27249D01*
X31661Y-8937D02*
X31898D01*
X31780Y-9055D02*
Y-8819D01*
X31661Y-5394D02*
X31898D01*
X31780Y-5512D02*
Y-5276D01*
X33378Y-8937D02*
X33614D01*
X33496Y-9055D02*
Y-8819D01*
X33378Y-5394D02*
X33614D01*
X33496Y-5512D02*
Y-5276D01*
X36811Y-8937D02*
X37047D01*
X36929Y-9055D02*
Y-8819D01*
X36811Y-5394D02*
X37047D01*
X36929Y-5512D02*
Y-5276D01*
X35094Y-8937D02*
X35331D01*
X35213Y-9055D02*
Y-8819D01*
X35094Y-5394D02*
X35331D01*
X35213Y-5512D02*
Y-5276D01*
X29803Y-9252D02*
X30039D01*
X29921Y-9370D02*
Y-9134D01*
X29803Y-5709D02*
X30039D01*
X29921Y-5827D02*
Y-5591D01*
X28228Y-9252D02*
X28465D01*
X28346Y-9370D02*
Y-9134D01*
X28228Y-5709D02*
X28465D01*
X28346Y-5827D02*
Y-5591D01*
X35965Y-30346D02*
X36319D01*
X36142Y-30524D02*
Y-30169D01*
X35965Y-29346D02*
X36319D01*
X36142Y-29524D02*
Y-29169D01*
X35965Y-28346D02*
X36319D01*
X36142Y-28524D02*
Y-28169D01*
X35965Y-27346D02*
X36319D01*
X36142Y-27524D02*
Y-27169D01*
X35965Y-26346D02*
X36319D01*
X36142Y-26524D02*
Y-26169D01*
X35965Y-25346D02*
X36319D01*
X36142Y-25524D02*
Y-25169D01*
X35965Y-24346D02*
X36319D01*
X36142Y-24524D02*
Y-24169D01*
X36004Y-21677D02*
X36358D01*
X36181Y-21854D02*
Y-21500D01*
X36004Y-20677D02*
X36358D01*
X36181Y-20854D02*
Y-20500D01*
X36004Y-19677D02*
X36358D01*
X36181Y-19854D02*
Y-19500D01*
X36004Y-18677D02*
X36358D01*
X36181Y-18854D02*
Y-18500D01*
X36004Y-17677D02*
X36358D01*
X36181Y-17854D02*
Y-17500D01*
X36004Y-16677D02*
X36358D01*
X36181Y-16854D02*
Y-16500D01*
X36004Y-15677D02*
X36358D01*
X36181Y-15854D02*
Y-15500D01*
X36004Y-14677D02*
X36358D01*
X36181Y-14854D02*
Y-14500D01*
X3940Y-23047D02*
X4294D01*
X4117Y-23224D02*
Y-22870D01*
X3940Y-22047D02*
X4294D01*
X4117Y-22224D02*
Y-21870D01*
X3940Y-21047D02*
X4294D01*
X4117Y-21224D02*
Y-20870D01*
X7244Y-26929D02*
X7480D01*
X7362Y-27047D02*
Y-26811D01*
X10787Y-26929D02*
X11024D01*
X10906Y-27047D02*
Y-26811D01*
X24291Y-15354D02*
X24528D01*
X24409Y-15472D02*
Y-15236D01*
X20748Y-15354D02*
X20984D01*
X20866Y-15472D02*
Y-15236D01*
X27047Y-17323D02*
X27283D01*
X27165Y-17441D02*
Y-17205D01*
X23504Y-17323D02*
X23740D01*
X23622Y-17441D02*
Y-17205D01*
X12496Y-19094D02*
X12732D01*
X12614Y-19213D02*
Y-18976D01*
X11496Y-19094D02*
X11732D01*
X11614Y-19213D02*
Y-18976D01*
X22717Y-12205D02*
X22953D01*
X22835Y-12323D02*
Y-12087D01*
X21717Y-12205D02*
X21953D01*
X21835Y-12323D02*
Y-12087D01*
X20846Y-29176D02*
X21280D01*
X21063Y-29392D02*
Y-28959D01*
X23550Y-29176D02*
X23983D01*
X23767Y-29392D02*
Y-28959D01*
X23540Y-27446D02*
X23973D01*
X23757Y-27662D02*
Y-27229D01*
X20846Y-27466D02*
X21280D01*
X21063Y-27682D02*
Y-27249D01*
X27856Y-23923D02*
X28289D01*
X28073Y-24139D02*
Y-23706D01*
X30560Y-23923D02*
X30993D01*
X30776Y-24139D02*
Y-23706D01*
X30550Y-22193D02*
X30983D01*
X30766Y-22409D02*
Y-21976D01*
X27856Y-22213D02*
X28289D01*
X28073Y-22429D02*
Y-21996D01*
X20846Y-23923D02*
X21280D01*
X21063Y-24139D02*
Y-23706D01*
X23550Y-23923D02*
X23983D01*
X23767Y-24139D02*
Y-23706D01*
X23540Y-22193D02*
X23973D01*
X23757Y-22409D02*
Y-21976D01*
X20846Y-22213D02*
X21280D01*
X21063Y-22429D02*
Y-21996D01*
X26971Y-15340D02*
X27326D01*
X27149Y-15518D02*
Y-15163D01*
X26971Y-14340D02*
X27326D01*
X27149Y-14518D02*
Y-14163D01*
X25413Y-15370D02*
X25768D01*
X25591Y-15547D02*
Y-15193D01*
X25413Y-14370D02*
X25768D01*
X25591Y-14547D02*
Y-14193D01*
X21280Y-18441D02*
X21634D01*
X21457Y-18618D02*
Y-18264D01*
X21280Y-17441D02*
X21634D01*
X21457Y-17618D02*
Y-17264D01*
X4980Y-32874D02*
X5256D01*
X5118Y-33012D02*
Y-32736D01*
X4980Y-33874D02*
X5256D01*
X5118Y-34012D02*
Y-33736D01*
X4980Y-31874D02*
X5256D01*
X5118Y-32012D02*
Y-31736D01*
X37185Y-11480D02*
X37461D01*
X37323Y-11618D02*
Y-11343D01*
X37185Y-12480D02*
X37461D01*
X37323Y-12618D02*
Y-12343D01*
X35269Y-11480D02*
X35545D01*
X35407Y-11618D02*
Y-11343D01*
X35269Y-12480D02*
X35545D01*
X35407Y-12618D02*
Y-12343D01*
X33353Y-12480D02*
X33629D01*
X33491Y-12618D02*
Y-12342D01*
X33353Y-11480D02*
X33629D01*
X33491Y-11618D02*
Y-11342D01*
X31437Y-12480D02*
X31713D01*
X31575Y-12618D02*
Y-12343D01*
X31437Y-11480D02*
X31713D01*
X31575Y-11618D02*
Y-11343D01*
X9764Y-12926D02*
X10119D01*
X9941Y-13103D02*
Y-12749D01*
X8764Y-12926D02*
X9119D01*
X8941Y-13103D02*
Y-12749D01*
X9764Y-11926D02*
X10119D01*
X9941Y-12103D02*
Y-11749D01*
X8764Y-11926D02*
X9119D01*
X8941Y-12103D02*
Y-11749D01*
X9764Y-10926D02*
X10119D01*
X9941Y-11103D02*
Y-10749D01*
X8764Y-10926D02*
X9119D01*
X8941Y-11103D02*
Y-10749D01*
X9764Y-9926D02*
X10119D01*
X9941Y-10103D02*
Y-9749D01*
X8764Y-9926D02*
X9119D01*
X8941Y-10103D02*
Y-9749D01*
X9764Y-8926D02*
X10119D01*
X9941Y-9103D02*
Y-8749D01*
X8764Y-8926D02*
X9119D01*
X8941Y-9103D02*
Y-8749D01*
X9764Y-7926D02*
X10119D01*
X9941Y-8103D02*
Y-7749D01*
X8764Y-7926D02*
X9119D01*
X8941Y-8103D02*
Y-7749D01*
X9764Y-6926D02*
X10119D01*
X9941Y-7103D02*
Y-6749D01*
X8764Y-6926D02*
X9119D01*
X8941Y-7103D02*
Y-6749D01*
X9764Y-5926D02*
X10119D01*
X9941Y-6103D02*
Y-5749D01*
X8764Y-5926D02*
X9119D01*
X8941Y-6103D02*
Y-5749D01*
X9764Y-4926D02*
X10119D01*
X9941Y-5103D02*
Y-4749D01*
X8764Y-4926D02*
X9119D01*
X8941Y-5103D02*
Y-4749D01*
X9764Y-3926D02*
X10119D01*
X9941Y-4103D02*
Y-3749D01*
X8764Y-3926D02*
X9119D01*
X8941Y-4103D02*
Y-3749D01*
X26764Y-12926D02*
X27119D01*
X26941Y-13103D02*
Y-12749D01*
X25764Y-12926D02*
X26119D01*
X25941Y-13103D02*
Y-12749D01*
X26764Y-11926D02*
X27119D01*
X26941Y-12103D02*
Y-11749D01*
X25764Y-11926D02*
X26119D01*
X25941Y-12103D02*
Y-11749D01*
X26764Y-10926D02*
X27119D01*
X26941Y-11103D02*
Y-10749D01*
X25764Y-10926D02*
X26119D01*
X25941Y-11103D02*
Y-10749D01*
X26764Y-9926D02*
X27119D01*
X26941Y-10103D02*
Y-9749D01*
X25764Y-9926D02*
X26119D01*
X25941Y-10103D02*
Y-9749D01*
X26764Y-8926D02*
X27119D01*
X26941Y-9103D02*
Y-8749D01*
X25764Y-8926D02*
X26119D01*
X25941Y-9103D02*
Y-8749D01*
X26764Y-7926D02*
X27119D01*
X26941Y-8103D02*
Y-7749D01*
X25764Y-7926D02*
X26119D01*
X25941Y-8103D02*
Y-7749D01*
X26764Y-6926D02*
X27119D01*
X26941Y-7103D02*
Y-6749D01*
X25764Y-6926D02*
X26119D01*
X25941Y-7103D02*
Y-6749D01*
X26764Y-5926D02*
X27119D01*
X26941Y-6103D02*
Y-5749D01*
X25764Y-5926D02*
X26119D01*
X25941Y-6103D02*
Y-5749D01*
X26764Y-4926D02*
X27119D01*
X26941Y-5103D02*
Y-4749D01*
X25764Y-4926D02*
X26119D01*
X25941Y-5103D02*
Y-4749D01*
X26764Y-3926D02*
X27119D01*
X26941Y-4103D02*
Y-3749D01*
X25764Y-3926D02*
X26119D01*
X25941Y-4103D02*
Y-3749D01*
X2776Y-31874D02*
X3130D01*
X2953Y-32051D02*
Y-31697D01*
X2776Y-32874D02*
X3130D01*
X2953Y-33051D02*
Y-32697D01*
X12862Y-33268D02*
X13453D01*
X13157Y-33563D02*
Y-32972D01*
X14862Y-33268D02*
X15453D01*
X15157Y-33563D02*
Y-32972D01*
X20343Y-33268D02*
X20933D01*
X20638Y-33563D02*
Y-32972D01*
X22343Y-33268D02*
X22933D01*
X22638Y-33563D02*
Y-32972D01*
X27657Y-33268D02*
X28248D01*
X27953Y-33563D02*
Y-32972D01*
X29657Y-33268D02*
X30248D01*
X29953Y-33563D02*
Y-32972D01*
X16949Y-31843D02*
X17303D01*
X17126Y-32020D02*
Y-31665D01*
X16949Y-32843D02*
X17303D01*
X17126Y-33020D02*
Y-32665D01*
X16949Y-33843D02*
X17303D01*
X17126Y-34020D02*
Y-33665D01*
X16949Y-34843D02*
X17303D01*
X17126Y-35020D02*
Y-34665D01*
X32862Y-4134D02*
X33217D01*
X33039Y-4311D02*
Y-3957D01*
X33862Y-4134D02*
X34217D01*
X34039Y-4311D02*
Y-3957D01*
X34862Y-4134D02*
X35217D01*
X35039Y-4311D02*
Y-3957D01*
X35862Y-4134D02*
X36217D01*
X36039Y-4311D02*
Y-3957D01*
X8468Y-30906D02*
X8823D01*
X8646Y-31083D02*
Y-30728D01*
X9469Y-30906D02*
X9823D01*
X9646Y-31083D02*
Y-30728D01*
X31713Y-31890D02*
X32067D01*
X31890Y-32067D02*
Y-31713D01*
X31713Y-32890D02*
X32067D01*
X31890Y-33067D02*
Y-32713D01*
X31713Y-33890D02*
X32067D01*
X31890Y-34067D02*
Y-33713D01*
X31713Y-34890D02*
X32067D01*
X31890Y-35067D02*
Y-34713D01*
X29154Y-4134D02*
X29508D01*
X29331Y-4311D02*
Y-3957D01*
X28154Y-4134D02*
X28508D01*
X28331Y-4311D02*
Y-3957D01*
X7933Y-25354D02*
X8287D01*
X8110Y-25532D02*
Y-25177D01*
X6933Y-25354D02*
X7287D01*
X7110Y-25532D02*
Y-25177D01*
X6933Y-23071D02*
X7287D01*
X7110Y-23248D02*
Y-22894D01*
X7933Y-23071D02*
X8287D01*
X8110Y-23248D02*
Y-22894D01*
X6933Y-21024D02*
X7287D01*
X7110Y-21201D02*
Y-20846D01*
X7933Y-21024D02*
X8287D01*
X8110Y-21201D02*
Y-20846D01*
X8878Y-28740D02*
X9232D01*
X9055Y-28917D02*
Y-28563D01*
X7878Y-28740D02*
X8232D01*
X8055Y-28917D02*
Y-28563D01*
X11449Y-25354D02*
X11764D01*
X11606Y-25512D02*
Y-25197D01*
X14449Y-25354D02*
X14764D01*
X14606Y-25512D02*
Y-25197D01*
X12449Y-25354D02*
X12764D01*
X12606Y-25512D02*
Y-25197D01*
X13449Y-25354D02*
X13764D01*
X13606Y-25512D02*
Y-25197D01*
X15449Y-25354D02*
X15764D01*
X15606Y-25512D02*
Y-25197D01*
X16449Y-25354D02*
X16764D01*
X16606Y-25512D02*
Y-25197D01*
X16449Y-20354D02*
X16764D01*
X16606Y-20512D02*
Y-20197D01*
X13449Y-20354D02*
X13764D01*
X13606Y-20512D02*
Y-20197D01*
X11449Y-20354D02*
X11764D01*
X11606Y-20512D02*
Y-20197D01*
X15449Y-20354D02*
X15764D01*
X15606Y-20512D02*
Y-20197D01*
X14449Y-20354D02*
X14764D01*
X14606Y-20512D02*
Y-20197D01*
X12449Y-20354D02*
X12764D01*
X12606Y-20512D02*
Y-20197D01*
X1378Y-37402D02*
X2559D01*
X1969Y-37992D02*
Y-36811D01*
X1378Y-1969D02*
X2559D01*
X1969Y-2559D02*
Y-1378D01*
X36811Y-37402D02*
X37992D01*
X37402Y-37992D02*
Y-36811D01*
X36811Y-1969D02*
X37992D01*
X37402Y-2559D02*
Y-1378D01*
X9703Y-23228D02*
X9983D01*
X9843Y-23368D02*
Y-23088D01*
X11775Y-22608D02*
X12055D01*
X11915Y-22748D02*
Y-22468D01*
X8718Y-24213D02*
X8998D01*
X8858Y-24353D02*
Y-24073D01*
X11080Y-21850D02*
X11360D01*
X11220Y-21990D02*
Y-21710D01*
X9812Y-16161D02*
X10092D01*
X9952Y-16301D02*
Y-16021D01*
X7734Y-8858D02*
X8014D01*
X7874Y-8998D02*
Y-8718D01*
X12852Y-12402D02*
X13132D01*
X12992Y-12542D02*
Y-12262D01*
X23679Y-12402D02*
X23959D01*
X23819Y-12542D02*
Y-12262D01*
X24466Y-5906D02*
X24746D01*
X24606Y-6046D02*
Y-5766D01*
X24269Y-7087D02*
X24549D01*
X24409Y-7227D02*
Y-6947D01*
X24915Y-8339D02*
X25195D01*
X25055Y-8479D02*
Y-8199D01*
X31947Y-16535D02*
X32227D01*
X32087Y-16675D02*
Y-16395D01*
X28797Y-13386D02*
X29077D01*
X28937Y-13526D02*
Y-13246D01*
X14427Y-8858D02*
X14707D01*
X14567Y-8998D02*
Y-8718D01*
X13049Y-8465D02*
X13329D01*
X13189Y-8605D02*
Y-8325D01*
X12262Y-7677D02*
X12542D01*
X12402Y-7817D02*
Y-7537D01*
X12262Y-11417D02*
X12542D01*
X12402Y-11557D02*
Y-11277D01*
X12262Y-8465D02*
X12542D01*
X12402Y-8605D02*
Y-8325D01*
M02*
