G04*
G04 #@! TF.GenerationSoftware,Altium Limited,Altium Designer,20.2.3 (150)*
G04*
G04 Layer_Physical_Order=2*
G04 Layer_Color=16711680*
%FSLAX24Y24*%
%MOIN*%
G70*
G04*
G04 #@! TF.SameCoordinates,D33FF55B-48EF-4710-8091-CBF0DB89F5B4*
G04*
G04*
G04 #@! TF.FilePolarity,Positive*
G04*
G01*
G75*
%ADD15C,0.0394*%
%ADD17C,0.0197*%
%ADD33C,0.0472*%
%ADD34R,0.0669X0.0669*%
%ADD35C,0.0669*%
%ADD36R,0.0669X0.0669*%
%ADD37R,0.0591X0.0591*%
%ADD38C,0.0591*%
%ADD39R,0.0591X0.0591*%
%ADD40C,0.0630*%
%ADD41C,0.0551*%
%ADD42C,0.0472*%
%ADD43R,0.1181X0.1181*%
%ADD44C,0.1181*%
%ADD45C,0.0500*%
G36*
X1969Y-153D02*
X37402D01*
X37408Y-152D01*
X37639Y-167D01*
X37872Y-213D01*
X38097Y-289D01*
X38310Y-395D01*
X38508Y-527D01*
X38687Y-683D01*
X38843Y-862D01*
X38975Y-1060D01*
X39081Y-1273D01*
X39157Y-1498D01*
X39203Y-1731D01*
X39216Y-1919D01*
X39217Y-1969D01*
X39217Y-1969D01*
X39217Y-2018D01*
Y-37352D01*
X39217Y-37352D01*
X39217Y-37402D01*
X39216Y-37451D01*
X39203Y-37639D01*
X39157Y-37872D01*
X39081Y-38097D01*
X38975Y-38310D01*
X38843Y-38508D01*
X38687Y-38687D01*
X38508Y-38843D01*
X38310Y-38975D01*
X38097Y-39081D01*
X37872Y-39157D01*
X37639Y-39203D01*
X37451Y-39216D01*
X37402Y-39217D01*
X37402Y-39217D01*
X37352Y-39217D01*
X2018D01*
X2018Y-39217D01*
X1969Y-39217D01*
X1919Y-39216D01*
X1731Y-39203D01*
X1498Y-39157D01*
X1273Y-39081D01*
X1060Y-38975D01*
X862Y-38843D01*
X683Y-38687D01*
X527Y-38508D01*
X395Y-38310D01*
X289Y-38097D01*
X213Y-37872D01*
X167Y-37639D01*
X152Y-37408D01*
X153Y-37402D01*
Y-1969D01*
X152Y-1962D01*
X167Y-1731D01*
X213Y-1498D01*
X289Y-1273D01*
X395Y-1060D01*
X527Y-862D01*
X683Y-683D01*
X862Y-527D01*
X1060Y-395D01*
X1273Y-289D01*
X1498Y-213D01*
X1731Y-167D01*
X1962Y-152D01*
X1969Y-153D01*
D02*
G37*
%LPC*%
G36*
X37402Y-1275D02*
X37266Y-1288D01*
X37136Y-1327D01*
X37016Y-1392D01*
X36911Y-1478D01*
X36825Y-1583D01*
X36761Y-1703D01*
X36721Y-1833D01*
X36708Y-1969D01*
X36721Y-2104D01*
X36761Y-2234D01*
X36825Y-2354D01*
X36911Y-2459D01*
X37016Y-2545D01*
X37136Y-2610D01*
X37266Y-2649D01*
X37402Y-2662D01*
X37537Y-2649D01*
X37667Y-2610D01*
X37787Y-2545D01*
X37892Y-2459D01*
X37979Y-2354D01*
X38043Y-2234D01*
X38082Y-2104D01*
X38095Y-1969D01*
X38082Y-1833D01*
X38043Y-1703D01*
X37979Y-1583D01*
X37892Y-1478D01*
X37787Y-1392D01*
X37667Y-1327D01*
X37537Y-1288D01*
X37402Y-1275D01*
D02*
G37*
G36*
X1969D02*
X1833Y-1288D01*
X1703Y-1327D01*
X1583Y-1392D01*
X1478Y-1478D01*
X1392Y-1583D01*
X1327Y-1703D01*
X1288Y-1833D01*
X1275Y-1969D01*
X1288Y-2104D01*
X1327Y-2234D01*
X1392Y-2354D01*
X1478Y-2459D01*
X1583Y-2545D01*
X1703Y-2610D01*
X1833Y-2649D01*
X1969Y-2662D01*
X2104Y-2649D01*
X2234Y-2610D01*
X2354Y-2545D01*
X2459Y-2459D01*
X2545Y-2354D01*
X2610Y-2234D01*
X2649Y-2104D01*
X2662Y-1969D01*
X2649Y-1833D01*
X2610Y-1703D01*
X2545Y-1583D01*
X2459Y-1478D01*
X2354Y-1392D01*
X2234Y-1327D01*
X2104Y-1288D01*
X1969Y-1275D01*
D02*
G37*
G36*
X26991Y-3534D02*
Y-3876D01*
X27333D01*
X27326Y-3823D01*
X27287Y-3727D01*
X27223Y-3644D01*
X27141Y-3581D01*
X27045Y-3541D01*
X26991Y-3534D01*
D02*
G37*
G36*
X26891D02*
X26838Y-3541D01*
X26742Y-3581D01*
X26659Y-3644D01*
X26596Y-3727D01*
X26556Y-3823D01*
X26549Y-3876D01*
X26891D01*
Y-3534D01*
D02*
G37*
G36*
X27333Y-3976D02*
X26991D01*
Y-4318D01*
X27045Y-4311D01*
X27141Y-4271D01*
X27223Y-4208D01*
X27287Y-4125D01*
X27326Y-4029D01*
X27333Y-3976D01*
D02*
G37*
G36*
X26891D02*
X26549D01*
X26556Y-4029D01*
X26596Y-4125D01*
X26659Y-4208D01*
X26742Y-4271D01*
X26838Y-4311D01*
X26891Y-4318D01*
Y-3976D01*
D02*
G37*
G36*
X26337Y-3531D02*
X25546D01*
Y-4321D01*
X26337D01*
Y-3531D01*
D02*
G37*
G36*
X22032Y-3499D02*
X21918Y-3514D01*
X21812Y-3557D01*
X21722Y-3627D01*
X21652Y-3718D01*
X21608Y-3824D01*
X21593Y-3937D01*
X21608Y-4050D01*
X21652Y-4156D01*
X21722Y-4247D01*
X21812Y-4317D01*
X21918Y-4360D01*
X22032Y-4375D01*
X22145Y-4360D01*
X22251Y-4317D01*
X22285Y-4291D01*
X22293Y-4287D01*
X22335Y-4256D01*
X22410Y-4205D01*
X22474Y-4167D01*
X22498Y-4155D01*
X22520Y-4146D01*
X22536Y-4141D01*
X22542Y-4139D01*
X22545D01*
X22560Y-4141D01*
X22581Y-4144D01*
X22595Y-4148D01*
X22597Y-4149D01*
Y-4372D01*
X23466D01*
Y-3502D01*
X22597D01*
Y-3725D01*
X22595Y-3726D01*
X22581Y-3730D01*
X22560Y-3733D01*
X22545Y-3735D01*
X22542D01*
X22536Y-3733D01*
X22520Y-3728D01*
X22498Y-3719D01*
X22475Y-3707D01*
X22334Y-3617D01*
X22293Y-3587D01*
X22285Y-3583D01*
X22251Y-3557D01*
X22145Y-3514D01*
X22032Y-3499D01*
D02*
G37*
G36*
X29765Y-3699D02*
X28896D01*
Y-4569D01*
X29765D01*
Y-3699D01*
D02*
G37*
G36*
X33474D02*
X32605D01*
Y-4185D01*
X32604Y-4189D01*
X32605Y-4193D01*
Y-4265D01*
X32603Y-4268D01*
X32586Y-4292D01*
X32538Y-4349D01*
X31974Y-4914D01*
X31969Y-4916D01*
X31956Y-4923D01*
X31909Y-4942D01*
X31883Y-4949D01*
X31766Y-4974D01*
X31720Y-4981D01*
X31711Y-4984D01*
X31671Y-4989D01*
X31570Y-5031D01*
X31484Y-5098D01*
X31417Y-5184D01*
X31375Y-5285D01*
X31361Y-5394D01*
X31375Y-5502D01*
X31417Y-5603D01*
X31484Y-5690D01*
X31570Y-5756D01*
X31671Y-5798D01*
X31780Y-5812D01*
X31888Y-5798D01*
X31989Y-5756D01*
X32075Y-5690D01*
X32142Y-5603D01*
X32184Y-5502D01*
X32189Y-5463D01*
X32192Y-5455D01*
X32207Y-5363D01*
X32215Y-5327D01*
X32232Y-5262D01*
X32241Y-5238D01*
X32249Y-5219D01*
X32257Y-5204D01*
X32260Y-5200D01*
X32815Y-4645D01*
X32851Y-4611D01*
X32880Y-4588D01*
X32905Y-4570D01*
X32908Y-4569D01*
X32981D01*
X32984Y-4569D01*
X32988Y-4569D01*
X33474D01*
Y-3699D01*
D02*
G37*
G36*
X36039Y-3695D02*
X35926Y-3710D01*
X35820Y-3754D01*
X35729Y-3824D01*
X35660Y-3915D01*
X35616Y-4020D01*
X35601Y-4134D01*
X35616Y-4247D01*
X35660Y-4353D01*
X35729Y-4444D01*
X35820Y-4514D01*
X35926Y-4557D01*
X36039Y-4572D01*
X36153Y-4557D01*
X36259Y-4514D01*
X36349Y-4444D01*
X36419Y-4353D01*
X36463Y-4247D01*
X36478Y-4134D01*
X36463Y-4020D01*
X36419Y-3915D01*
X36349Y-3824D01*
X36259Y-3754D01*
X36153Y-3710D01*
X36039Y-3695D01*
D02*
G37*
G36*
X35039D02*
X34926Y-3710D01*
X34820Y-3754D01*
X34729Y-3824D01*
X34660Y-3915D01*
X34616Y-4020D01*
X34601Y-4134D01*
X34616Y-4247D01*
X34660Y-4353D01*
X34729Y-4444D01*
X34820Y-4514D01*
X34926Y-4557D01*
X35039Y-4572D01*
X35153Y-4557D01*
X35259Y-4514D01*
X35349Y-4444D01*
X35419Y-4353D01*
X35463Y-4247D01*
X35478Y-4134D01*
X35463Y-4020D01*
X35419Y-3915D01*
X35349Y-3824D01*
X35259Y-3754D01*
X35153Y-3710D01*
X35039Y-3695D01*
D02*
G37*
G36*
X34039D02*
X33926Y-3710D01*
X33820Y-3754D01*
X33729Y-3824D01*
X33660Y-3915D01*
X33616Y-4020D01*
X33601Y-4134D01*
X33616Y-4247D01*
X33660Y-4353D01*
X33729Y-4444D01*
X33820Y-4514D01*
X33926Y-4557D01*
X34039Y-4572D01*
X34153Y-4557D01*
X34259Y-4514D01*
X34349Y-4444D01*
X34419Y-4353D01*
X34463Y-4247D01*
X34478Y-4134D01*
X34463Y-4020D01*
X34419Y-3915D01*
X34349Y-3824D01*
X34259Y-3754D01*
X34153Y-3710D01*
X34039Y-3695D01*
D02*
G37*
G36*
X7984Y-1669D02*
X5315D01*
X5237Y-1679D01*
X5165Y-1709D01*
X5103Y-1757D01*
X3571Y-3289D01*
X3524Y-3351D01*
X3494Y-3423D01*
X3484Y-3500D01*
Y-4619D01*
X3494Y-4696D01*
X3524Y-4768D01*
X3571Y-4830D01*
X3551Y-4880D01*
X3487D01*
Y-5750D01*
X4356D01*
Y-4880D01*
X4226D01*
X4221Y-4801D01*
Y-4757D01*
X4210Y-4679D01*
X4193Y-4637D01*
X4181Y-4607D01*
X4133Y-4545D01*
X4083Y-4495D01*
Y-3624D01*
X5439Y-2268D01*
X7860D01*
X9076Y-3485D01*
X9057Y-3531D01*
X8546D01*
Y-4321D01*
X9337D01*
Y-3810D01*
X9383Y-3791D01*
X9465Y-3873D01*
X9488Y-3897D01*
X9518Y-3933D01*
X9529Y-3948D01*
X9537Y-3960D01*
X9543Y-3971D01*
X9546Y-3978D01*
X9548Y-3982D01*
X9549Y-3989D01*
X9552Y-3995D01*
X9556Y-4029D01*
X9596Y-4125D01*
X9659Y-4208D01*
X9742Y-4271D01*
X9838Y-4311D01*
X9941Y-4325D01*
X10045Y-4311D01*
X10141Y-4271D01*
X10223Y-4208D01*
X10287Y-4125D01*
X10326Y-4029D01*
X10331Y-3995D01*
X10333Y-3989D01*
X10335Y-3982D01*
X10336Y-3978D01*
X10340Y-3971D01*
X10346Y-3960D01*
X10354Y-3948D01*
X10364Y-3934D01*
X10412Y-3879D01*
X11030Y-3260D01*
X27782D01*
X28031Y-3509D01*
Y-3675D01*
X28029Y-3722D01*
X28026Y-3747D01*
X28022Y-3771D01*
X28017Y-3792D01*
X28012Y-3812D01*
X28005Y-3830D01*
X27998Y-3845D01*
X27990Y-3859D01*
X27979Y-3875D01*
X27976Y-3882D01*
X27951Y-3915D01*
X27907Y-4020D01*
X27892Y-4134D01*
X27907Y-4247D01*
X27951Y-4353D01*
X28021Y-4444D01*
X28112Y-4514D01*
X28217Y-4557D01*
X28331Y-4572D01*
X28444Y-4557D01*
X28550Y-4514D01*
X28641Y-4444D01*
X28710Y-4353D01*
X28754Y-4247D01*
X28769Y-4134D01*
X28754Y-4020D01*
X28710Y-3915D01*
X28685Y-3882D01*
X28682Y-3875D01*
X28671Y-3859D01*
X28664Y-3845D01*
X28656Y-3830D01*
X28650Y-3812D01*
X28644Y-3792D01*
X28639Y-3771D01*
X28635Y-3748D01*
X28630Y-3691D01*
X28630Y-3691D01*
Y-3385D01*
X28620Y-3308D01*
X28590Y-3236D01*
X28542Y-3174D01*
X28118Y-2749D01*
X28056Y-2702D01*
X27984Y-2672D01*
X27906Y-2662D01*
X10906D01*
X10829Y-2672D01*
X10787Y-2689D01*
X10757Y-2702D01*
X10695Y-2749D01*
X9995Y-3449D01*
X9970Y-3473D01*
X9942Y-3497D01*
X9895Y-3456D01*
X9779Y-3341D01*
X9745Y-3296D01*
X9571Y-3122D01*
X9527Y-3088D01*
X8196Y-1757D01*
X8134Y-1709D01*
X8061Y-1679D01*
X7984Y-1669D01*
D02*
G37*
G36*
X9991Y-4534D02*
Y-4876D01*
X10333D01*
X10326Y-4823D01*
X10287Y-4727D01*
X10223Y-4644D01*
X10141Y-4581D01*
X10045Y-4541D01*
X9991Y-4534D01*
D02*
G37*
G36*
X9891D02*
X9838Y-4541D01*
X9742Y-4581D01*
X9659Y-4644D01*
X9596Y-4727D01*
X9556Y-4823D01*
X9549Y-4876D01*
X9891D01*
Y-4534D01*
D02*
G37*
G36*
X4971Y-4883D02*
Y-5265D01*
X5353D01*
X5345Y-5201D01*
X5301Y-5096D01*
X5231Y-5005D01*
X5140Y-4935D01*
X5035Y-4891D01*
X4971Y-4883D01*
D02*
G37*
G36*
X4871D02*
X4808Y-4891D01*
X4702Y-4935D01*
X4611Y-5005D01*
X4542Y-5096D01*
X4498Y-5201D01*
X4489Y-5265D01*
X4871D01*
Y-4883D01*
D02*
G37*
G36*
X10333Y-4976D02*
X9991D01*
Y-5318D01*
X10045Y-5311D01*
X10141Y-5271D01*
X10223Y-5208D01*
X10287Y-5125D01*
X10326Y-5029D01*
X10333Y-4976D01*
D02*
G37*
G36*
X9891D02*
X9549D01*
X9556Y-5029D01*
X9596Y-5125D01*
X9659Y-5208D01*
X9742Y-5271D01*
X9838Y-5311D01*
X9891Y-5318D01*
Y-4976D01*
D02*
G37*
G36*
X26941Y-4527D02*
X26838Y-4541D01*
X26742Y-4581D01*
X26659Y-4644D01*
X26596Y-4727D01*
X26556Y-4823D01*
X26543Y-4926D01*
X26556Y-5029D01*
X26596Y-5125D01*
X26659Y-5208D01*
X26742Y-5271D01*
X26838Y-5311D01*
X26941Y-5325D01*
X27045Y-5311D01*
X27141Y-5271D01*
X27223Y-5208D01*
X27287Y-5125D01*
X27326Y-5029D01*
X27340Y-4926D01*
X27326Y-4823D01*
X27287Y-4727D01*
X27223Y-4644D01*
X27141Y-4581D01*
X27045Y-4541D01*
X26941Y-4527D01*
D02*
G37*
G36*
X25941D02*
X25838Y-4541D01*
X25742Y-4581D01*
X25712Y-4603D01*
X25705Y-4607D01*
X25638Y-4654D01*
X25581Y-4689D01*
X25558Y-4702D01*
X25536Y-4712D01*
X25518Y-4718D01*
X25503Y-4723D01*
X25499Y-4724D01*
X20468D01*
X20390Y-4739D01*
X20325Y-4783D01*
X15880Y-9228D01*
X14720D01*
X14710Y-9178D01*
X14743Y-9164D01*
X14817Y-9108D01*
X14873Y-9035D01*
X14908Y-8950D01*
X14920Y-8858D01*
X14908Y-8767D01*
X14873Y-8682D01*
X14817Y-8609D01*
X14743Y-8553D01*
X14658Y-8517D01*
X14567Y-8505D01*
X14476Y-8517D01*
X14390Y-8553D01*
X14317Y-8609D01*
X14312Y-8616D01*
X14312Y-8616D01*
X14288Y-8641D01*
X14244Y-8681D01*
X14226Y-8695D01*
X14209Y-8707D01*
X14195Y-8715D01*
X14183Y-8721D01*
X14176Y-8724D01*
X13494D01*
X13470Y-8674D01*
X13495Y-8641D01*
X13530Y-8556D01*
X13542Y-8465D01*
X13530Y-8373D01*
X13495Y-8288D01*
X13475Y-8262D01*
X13471Y-8255D01*
X13454Y-8230D01*
X13425Y-8185D01*
X13415Y-8166D01*
X13406Y-8148D01*
X13399Y-8132D01*
X13395Y-8117D01*
X13392Y-8105D01*
X13391Y-8102D01*
Y-7087D01*
X13376Y-7009D01*
X13332Y-6944D01*
X12171Y-5783D01*
X12106Y-5739D01*
X12028Y-5724D01*
X10384D01*
X10379Y-5723D01*
X10365Y-5719D01*
X10346Y-5712D01*
X10325Y-5702D01*
X10303Y-5690D01*
X10212Y-5632D01*
X10179Y-5608D01*
X10171Y-5604D01*
X10141Y-5581D01*
X10045Y-5541D01*
X9941Y-5527D01*
X9838Y-5541D01*
X9742Y-5581D01*
X9659Y-5644D01*
X9596Y-5727D01*
X9556Y-5823D01*
X9543Y-5926D01*
X9556Y-6029D01*
X9596Y-6125D01*
X9659Y-6208D01*
X9742Y-6271D01*
X9838Y-6311D01*
X9941Y-6325D01*
X10045Y-6311D01*
X10141Y-6271D01*
X10170Y-6249D01*
X10178Y-6245D01*
X10245Y-6198D01*
X10302Y-6163D01*
X10325Y-6150D01*
X10346Y-6140D01*
X10365Y-6133D01*
X10379Y-6129D01*
X10384Y-6128D01*
X11945D01*
X12987Y-7170D01*
Y-8102D01*
X12986Y-8105D01*
X12983Y-8117D01*
X12978Y-8132D01*
X12972Y-8148D01*
X12963Y-8166D01*
X12953Y-8185D01*
X12924Y-8230D01*
X12907Y-8255D01*
X12903Y-8262D01*
X12883Y-8288D01*
X12848Y-8373D01*
X12836Y-8465D01*
X12848Y-8556D01*
X12883Y-8641D01*
X12908Y-8674D01*
X12884Y-8724D01*
X12707D01*
X12682Y-8674D01*
X12707Y-8641D01*
X12743Y-8556D01*
X12755Y-8465D01*
X12743Y-8373D01*
X12707Y-8288D01*
X12651Y-8215D01*
X12578Y-8159D01*
X12493Y-8124D01*
X12402Y-8112D01*
X12310Y-8124D01*
X12225Y-8159D01*
X12199Y-8178D01*
X12192Y-8182D01*
X12167Y-8200D01*
X12122Y-8229D01*
X12103Y-8239D01*
X12085Y-8247D01*
X12069Y-8254D01*
X12054Y-8259D01*
X12042Y-8262D01*
X12039Y-8262D01*
X10564D01*
X10397Y-8096D01*
X10395Y-8092D01*
X10387Y-8079D01*
X10379Y-8061D01*
X10371Y-8039D01*
X10364Y-8014D01*
X10341Y-7909D01*
X10334Y-7869D01*
X10331Y-7860D01*
X10326Y-7823D01*
X10287Y-7727D01*
X10223Y-7644D01*
X10141Y-7581D01*
X10045Y-7541D01*
X9941Y-7527D01*
X9838Y-7541D01*
X9742Y-7581D01*
X9659Y-7644D01*
X9596Y-7727D01*
X9556Y-7823D01*
X9543Y-7926D01*
X9556Y-8029D01*
X9596Y-8125D01*
X9659Y-8208D01*
X9742Y-8271D01*
X9838Y-8311D01*
X9875Y-8316D01*
X9883Y-8319D01*
X9964Y-8333D01*
X10029Y-8348D01*
X10054Y-8356D01*
X10076Y-8364D01*
X10094Y-8372D01*
X10107Y-8379D01*
X10111Y-8382D01*
X10337Y-8608D01*
X10402Y-8651D01*
X10480Y-8667D01*
X12019D01*
X12026Y-8674D01*
X12005Y-8724D01*
X10384D01*
X10379Y-8723D01*
X10365Y-8719D01*
X10346Y-8712D01*
X10325Y-8702D01*
X10303Y-8690D01*
X10212Y-8632D01*
X10179Y-8608D01*
X10171Y-8604D01*
X10141Y-8581D01*
X10045Y-8541D01*
X9941Y-8527D01*
X9838Y-8541D01*
X9742Y-8581D01*
X9659Y-8644D01*
X9596Y-8727D01*
X9556Y-8823D01*
X9543Y-8926D01*
X9556Y-9029D01*
X9596Y-9125D01*
X9636Y-9178D01*
X9612Y-9228D01*
X9271D01*
X9246Y-9178D01*
X9287Y-9125D01*
X9326Y-9029D01*
X9340Y-8926D01*
X9326Y-8823D01*
X9287Y-8727D01*
X9223Y-8644D01*
X9141Y-8581D01*
X9045Y-8541D01*
X9008Y-8536D01*
X9000Y-8533D01*
X8919Y-8519D01*
X8854Y-8504D01*
X8829Y-8496D01*
X8807Y-8488D01*
X8789Y-8480D01*
X8775Y-8473D01*
X8772Y-8470D01*
X8492Y-8190D01*
X8503Y-8144D01*
X8541Y-8143D01*
X8558Y-8150D01*
X8580Y-8162D01*
X8671Y-8220D01*
X8704Y-8244D01*
X8712Y-8248D01*
X8742Y-8271D01*
X8838Y-8311D01*
X8941Y-8325D01*
X9045Y-8311D01*
X9141Y-8271D01*
X9223Y-8208D01*
X9287Y-8125D01*
X9326Y-8029D01*
X9340Y-7926D01*
X9326Y-7823D01*
X9287Y-7727D01*
X9223Y-7644D01*
X9141Y-7581D01*
X9045Y-7541D01*
X8941Y-7527D01*
X8838Y-7541D01*
X8742Y-7581D01*
X8712Y-7603D01*
X8705Y-7607D01*
X8638Y-7654D01*
X8581Y-7689D01*
X8558Y-7702D01*
X8536Y-7711D01*
X8518Y-7718D01*
X8503Y-7723D01*
X8499Y-7724D01*
X5263D01*
X5186Y-7739D01*
X5120Y-7783D01*
X4133Y-8769D01*
X4087Y-8750D01*
Y-8601D01*
X6580Y-6108D01*
X8490D01*
X8493Y-6109D01*
X8507Y-6113D01*
X8524Y-6120D01*
X8545Y-6131D01*
X8567Y-6144D01*
X8657Y-6207D01*
X8690Y-6234D01*
X8699Y-6238D01*
X8742Y-6271D01*
X8838Y-6311D01*
X8941Y-6325D01*
X9045Y-6311D01*
X9141Y-6271D01*
X9223Y-6208D01*
X9287Y-6125D01*
X9326Y-6029D01*
X9340Y-5926D01*
X9326Y-5823D01*
X9287Y-5727D01*
X9223Y-5644D01*
X9141Y-5581D01*
X9045Y-5541D01*
X8941Y-5527D01*
X8838Y-5541D01*
X8742Y-5581D01*
X8723Y-5595D01*
X8719Y-5597D01*
X8652Y-5640D01*
X8624Y-5656D01*
X8571Y-5683D01*
X8550Y-5692D01*
X8531Y-5698D01*
X8515Y-5702D01*
X8510Y-5703D01*
X6496D01*
X6419Y-5719D01*
X6353Y-5762D01*
X3742Y-8374D01*
X3698Y-8439D01*
X3683Y-8517D01*
Y-9786D01*
X3558D01*
X3557Y-9784D01*
X3554Y-9770D01*
X3550Y-9749D01*
X3549Y-9734D01*
Y-8352D01*
X6772Y-5128D01*
X8499D01*
X8503Y-5129D01*
X8518Y-5133D01*
X8536Y-5140D01*
X8558Y-5150D01*
X8580Y-5162D01*
X8671Y-5220D01*
X8704Y-5244D01*
X8712Y-5248D01*
X8742Y-5271D01*
X8838Y-5311D01*
X8941Y-5325D01*
X9045Y-5311D01*
X9141Y-5271D01*
X9223Y-5208D01*
X9287Y-5125D01*
X9326Y-5029D01*
X9340Y-4926D01*
X9326Y-4823D01*
X9287Y-4727D01*
X9223Y-4644D01*
X9141Y-4581D01*
X9045Y-4541D01*
X8941Y-4527D01*
X8838Y-4541D01*
X8742Y-4581D01*
X8712Y-4603D01*
X8705Y-4607D01*
X8638Y-4654D01*
X8581Y-4689D01*
X8558Y-4702D01*
X8536Y-4712D01*
X8518Y-4718D01*
X8503Y-4723D01*
X8499Y-4724D01*
X6688D01*
X6611Y-4739D01*
X6545Y-4783D01*
X3203Y-8125D01*
X3160Y-8190D01*
X3144Y-8268D01*
Y-9734D01*
X3143Y-9749D01*
X3139Y-9770D01*
X3135Y-9784D01*
X3135Y-9786D01*
X2912D01*
Y-10655D01*
X3553D01*
X3571Y-10701D01*
X3541Y-10728D01*
X3522Y-10736D01*
X3498Y-10744D01*
X3334Y-10781D01*
X3284Y-10788D01*
X3276Y-10791D01*
X3233Y-10797D01*
X3127Y-10841D01*
X3036Y-10910D01*
X2967Y-11001D01*
X2923Y-11107D01*
X2908Y-11220D01*
X2923Y-11334D01*
X2967Y-11440D01*
X3036Y-11530D01*
X3127Y-11600D01*
X3233Y-11644D01*
X3346Y-11659D01*
X3460Y-11644D01*
X3566Y-11600D01*
X3656Y-11530D01*
X3726Y-11440D01*
X3770Y-11334D01*
X3776Y-11291D01*
X3779Y-11283D01*
X3786Y-11231D01*
X3804Y-11142D01*
X3822Y-11071D01*
X3831Y-11045D01*
X3840Y-11023D01*
X3847Y-11007D01*
X3851Y-11002D01*
X3955Y-10898D01*
X4001Y-10917D01*
Y-11279D01*
X3564Y-11716D01*
X3559Y-11720D01*
X3544Y-11727D01*
X3522Y-11736D01*
X3498Y-11744D01*
X3334Y-11781D01*
X3284Y-11788D01*
X3276Y-11791D01*
X3233Y-11797D01*
X3127Y-11841D01*
X3036Y-11910D01*
X2967Y-12001D01*
X2923Y-12107D01*
X2908Y-12220D01*
X2923Y-12334D01*
X2967Y-12440D01*
X3036Y-12530D01*
X3127Y-12600D01*
X3233Y-12644D01*
X3346Y-12659D01*
X3460Y-12644D01*
X3566Y-12600D01*
X3656Y-12530D01*
X3726Y-12440D01*
X3770Y-12334D01*
X3776Y-12291D01*
X3779Y-12283D01*
X3786Y-12231D01*
X3804Y-12142D01*
X3822Y-12071D01*
X3831Y-12045D01*
X3840Y-12023D01*
X3847Y-12007D01*
X3851Y-12002D01*
X4274Y-11579D01*
X4320Y-11598D01*
Y-11960D01*
X3564Y-12716D01*
X3559Y-12720D01*
X3544Y-12727D01*
X3522Y-12736D01*
X3498Y-12744D01*
X3334Y-12781D01*
X3284Y-12788D01*
X3276Y-12791D01*
X3233Y-12797D01*
X3127Y-12841D01*
X3036Y-12910D01*
X2967Y-13001D01*
X2923Y-13107D01*
X2908Y-13220D01*
X2923Y-13334D01*
X2967Y-13440D01*
X3036Y-13530D01*
X3127Y-13600D01*
X3233Y-13644D01*
X3346Y-13659D01*
X3460Y-13644D01*
X3566Y-13600D01*
X3656Y-13530D01*
X3726Y-13440D01*
X3770Y-13334D01*
X3776Y-13291D01*
X3779Y-13283D01*
X3786Y-13231D01*
X3804Y-13142D01*
X3822Y-13071D01*
X3831Y-13045D01*
X3840Y-13023D01*
X3847Y-13007D01*
X3851Y-13002D01*
X4571Y-12282D01*
X4617Y-12301D01*
Y-12664D01*
X3564Y-13716D01*
X3559Y-13720D01*
X3544Y-13727D01*
X3522Y-13736D01*
X3498Y-13744D01*
X3334Y-13781D01*
X3284Y-13788D01*
X3276Y-13791D01*
X3233Y-13797D01*
X3127Y-13841D01*
X3036Y-13910D01*
X2967Y-14001D01*
X2923Y-14107D01*
X2908Y-14220D01*
X2923Y-14334D01*
X2967Y-14440D01*
X3036Y-14530D01*
X3127Y-14600D01*
X3233Y-14644D01*
X3346Y-14659D01*
X3460Y-14644D01*
X3566Y-14600D01*
X3656Y-14530D01*
X3726Y-14440D01*
X3770Y-14334D01*
X3776Y-14291D01*
X3779Y-14283D01*
X3786Y-14231D01*
X3804Y-14142D01*
X3822Y-14071D01*
X3831Y-14045D01*
X3840Y-14023D01*
X3847Y-14007D01*
X3851Y-14002D01*
X4963Y-12890D01*
X5006Y-12825D01*
X5022Y-12747D01*
Y-9872D01*
X5027Y-9869D01*
X5077Y-9896D01*
Y-10639D01*
X5741D01*
X5761Y-10686D01*
X5741Y-10705D01*
X5736Y-10708D01*
X5721Y-10715D01*
X5699Y-10724D01*
X5675Y-10731D01*
X5509Y-10765D01*
X5458Y-10771D01*
X5449Y-10775D01*
X5398Y-10781D01*
X5293Y-10825D01*
X5202Y-10895D01*
X5132Y-10986D01*
X5088Y-11091D01*
X5073Y-11205D01*
X5088Y-11318D01*
X5132Y-11424D01*
X5202Y-11515D01*
X5293Y-11584D01*
X5398Y-11628D01*
X5512Y-11643D01*
X5625Y-11628D01*
X5731Y-11584D01*
X5822Y-11515D01*
X5891Y-11424D01*
X5935Y-11318D01*
X5940Y-11283D01*
X5943Y-11276D01*
X5951Y-11225D01*
X5970Y-11137D01*
X5990Y-11067D01*
X5999Y-11041D01*
X6008Y-11020D01*
X6017Y-11004D01*
X6020Y-10998D01*
X6384Y-10635D01*
X8604D01*
X8628Y-10685D01*
X8596Y-10727D01*
X8556Y-10823D01*
X8543Y-10926D01*
X8556Y-11029D01*
X8596Y-11125D01*
X8659Y-11208D01*
X8742Y-11271D01*
X8838Y-11311D01*
X8941Y-11325D01*
X9045Y-11311D01*
X9141Y-11271D01*
X9223Y-11208D01*
X9287Y-11125D01*
X9326Y-11029D01*
X9340Y-10926D01*
X9326Y-10823D01*
X9287Y-10727D01*
X9254Y-10685D01*
X9279Y-10635D01*
X9435D01*
X9512Y-10619D01*
X9578Y-10575D01*
X9772Y-10382D01*
X9775Y-10379D01*
X9789Y-10372D01*
X9807Y-10364D01*
X9829Y-10356D01*
X9853Y-10348D01*
X9958Y-10325D01*
X9999Y-10319D01*
X10007Y-10316D01*
X10045Y-10311D01*
X10141Y-10271D01*
X10223Y-10208D01*
X10287Y-10125D01*
X10326Y-10029D01*
X10340Y-9926D01*
X10326Y-9823D01*
X10287Y-9727D01*
X10253Y-9682D01*
X10277Y-9632D01*
X15964D01*
X16041Y-9617D01*
X16107Y-9573D01*
X20552Y-5128D01*
X20655D01*
X20664Y-5178D01*
X13389Y-12454D01*
X13341Y-12431D01*
X13345Y-12402D01*
X13333Y-12310D01*
X13298Y-12225D01*
X13242Y-12152D01*
X13169Y-12096D01*
X13083Y-12061D01*
X12992Y-12049D01*
X12901Y-12061D01*
X12816Y-12096D01*
X12769Y-12132D01*
X12761Y-12136D01*
X12736Y-12157D01*
X12691Y-12192D01*
X12672Y-12204D01*
X12655Y-12214D01*
X12639Y-12221D01*
X12626Y-12227D01*
X12615Y-12230D01*
X12614Y-12230D01*
X10269D01*
X10245Y-12180D01*
X10287Y-12125D01*
X10326Y-12029D01*
X10340Y-11926D01*
X10326Y-11823D01*
X10287Y-11727D01*
X10254Y-11685D01*
X10279Y-11635D01*
X12049D01*
X12052Y-11635D01*
X12065Y-11638D01*
X12081Y-11642D01*
X12097Y-11648D01*
X12116Y-11656D01*
X12134Y-11666D01*
X12179Y-11692D01*
X12202Y-11707D01*
X12208Y-11710D01*
X12225Y-11723D01*
X12310Y-11758D01*
X12402Y-11770D01*
X12493Y-11758D01*
X12578Y-11723D01*
X12651Y-11667D01*
X12707Y-11594D01*
X12743Y-11509D01*
X12755Y-11417D01*
X12743Y-11326D01*
X12707Y-11241D01*
X12651Y-11168D01*
X12578Y-11112D01*
X12493Y-11076D01*
X12402Y-11064D01*
X12310Y-11076D01*
X12225Y-11112D01*
X12190Y-11138D01*
X12181Y-11143D01*
X12157Y-11162D01*
X12111Y-11194D01*
X12092Y-11205D01*
X12074Y-11214D01*
X12058Y-11221D01*
X12044Y-11227D01*
X12033Y-11230D01*
X12031Y-11230D01*
X10269D01*
X10245Y-11180D01*
X10287Y-11125D01*
X10326Y-11029D01*
X10340Y-10926D01*
X10326Y-10823D01*
X10287Y-10727D01*
X10223Y-10644D01*
X10141Y-10581D01*
X10045Y-10541D01*
X9941Y-10527D01*
X9838Y-10541D01*
X9742Y-10581D01*
X9659Y-10644D01*
X9596Y-10727D01*
X9556Y-10823D01*
X9543Y-10926D01*
X9556Y-11029D01*
X9596Y-11125D01*
X9638Y-11180D01*
X9613Y-11230D01*
X9435D01*
X9358Y-11245D01*
X9292Y-11289D01*
X9111Y-11470D01*
X9107Y-11473D01*
X9094Y-11480D01*
X9076Y-11488D01*
X9054Y-11496D01*
X9030Y-11504D01*
X8925Y-11527D01*
X8884Y-11533D01*
X8876Y-11536D01*
X8838Y-11541D01*
X8742Y-11581D01*
X8659Y-11644D01*
X8596Y-11727D01*
X8556Y-11823D01*
X8543Y-11926D01*
X8556Y-12029D01*
X8596Y-12125D01*
X8659Y-12208D01*
X8742Y-12271D01*
X8838Y-12311D01*
X8941Y-12325D01*
X9045Y-12311D01*
X9141Y-12271D01*
X9223Y-12208D01*
X9287Y-12125D01*
X9326Y-12029D01*
X9331Y-11992D01*
X9334Y-11985D01*
X9348Y-11904D01*
X9363Y-11838D01*
X9371Y-11813D01*
X9379Y-11791D01*
X9387Y-11773D01*
X9395Y-11760D01*
X9397Y-11756D01*
X9519Y-11635D01*
X9604D01*
X9628Y-11685D01*
X9596Y-11727D01*
X9556Y-11823D01*
X9543Y-11926D01*
X9556Y-12029D01*
X9596Y-12125D01*
X9638Y-12180D01*
X9613Y-12230D01*
X9435D01*
X9358Y-12245D01*
X9292Y-12289D01*
X9111Y-12470D01*
X9107Y-12473D01*
X9094Y-12480D01*
X9076Y-12488D01*
X9054Y-12496D01*
X9030Y-12504D01*
X8925Y-12527D01*
X8884Y-12533D01*
X8876Y-12536D01*
X8838Y-12541D01*
X8742Y-12581D01*
X8659Y-12644D01*
X8596Y-12727D01*
X8556Y-12823D01*
X8543Y-12926D01*
X8556Y-13029D01*
X8596Y-13125D01*
X8628Y-13167D01*
X8604Y-13217D01*
X6811D01*
X6016Y-12423D01*
X6013Y-12418D01*
X6005Y-12402D01*
X5996Y-12380D01*
X5988Y-12356D01*
X5952Y-12192D01*
X5944Y-12142D01*
X5941Y-12134D01*
X5935Y-12091D01*
X5891Y-11986D01*
X5822Y-11895D01*
X5731Y-11825D01*
X5625Y-11781D01*
X5512Y-11766D01*
X5398Y-11781D01*
X5293Y-11825D01*
X5202Y-11895D01*
X5132Y-11986D01*
X5088Y-12091D01*
X5073Y-12205D01*
X5088Y-12318D01*
X5132Y-12424D01*
X5202Y-12515D01*
X5293Y-12584D01*
X5398Y-12628D01*
X5441Y-12634D01*
X5449Y-12637D01*
X5501Y-12645D01*
X5591Y-12662D01*
X5661Y-12680D01*
X5688Y-12689D01*
X5709Y-12698D01*
X5725Y-12706D01*
X5730Y-12709D01*
X6548Y-13527D01*
X6527Y-13577D01*
X6170D01*
X6016Y-13423D01*
X6013Y-13418D01*
X6005Y-13402D01*
X5996Y-13380D01*
X5988Y-13356D01*
X5952Y-13192D01*
X5944Y-13142D01*
X5941Y-13134D01*
X5935Y-13091D01*
X5891Y-12986D01*
X5822Y-12895D01*
X5731Y-12825D01*
X5625Y-12781D01*
X5512Y-12766D01*
X5398Y-12781D01*
X5293Y-12825D01*
X5202Y-12895D01*
X5132Y-12986D01*
X5088Y-13091D01*
X5073Y-13205D01*
X5088Y-13318D01*
X5132Y-13424D01*
X5202Y-13515D01*
X5293Y-13584D01*
X5398Y-13628D01*
X5441Y-13634D01*
X5449Y-13637D01*
X5501Y-13645D01*
X5591Y-13662D01*
X5661Y-13680D01*
X5688Y-13689D01*
X5709Y-13698D01*
X5725Y-13706D01*
X5730Y-13709D01*
X5904Y-13883D01*
X5873Y-13922D01*
X5814Y-13885D01*
X5773Y-13855D01*
X5765Y-13851D01*
X5731Y-13825D01*
X5625Y-13781D01*
X5512Y-13766D01*
X5398Y-13781D01*
X5293Y-13825D01*
X5202Y-13895D01*
X5132Y-13986D01*
X5088Y-14091D01*
X5073Y-14205D01*
X5088Y-14318D01*
X5132Y-14424D01*
X5202Y-14515D01*
X5293Y-14584D01*
X5398Y-14628D01*
X5512Y-14643D01*
X5625Y-14628D01*
X5731Y-14584D01*
X5765Y-14558D01*
X5773Y-14554D01*
X5815Y-14523D01*
X5881Y-14479D01*
X5913Y-14518D01*
X5730Y-14701D01*
X5725Y-14704D01*
X5709Y-14712D01*
X5688Y-14720D01*
X5663Y-14729D01*
X5500Y-14765D01*
X5449Y-14773D01*
X5441Y-14776D01*
X5398Y-14781D01*
X5293Y-14825D01*
X5202Y-14895D01*
X5132Y-14986D01*
X5088Y-15091D01*
X5073Y-15205D01*
X5088Y-15318D01*
X5132Y-15424D01*
X5202Y-15515D01*
X5293Y-15584D01*
X5398Y-15628D01*
X5512Y-15643D01*
X5625Y-15628D01*
X5731Y-15584D01*
X5822Y-15515D01*
X5891Y-15424D01*
X5935Y-15318D01*
X5941Y-15276D01*
X5944Y-15267D01*
X5952Y-15215D01*
X5969Y-15126D01*
X5987Y-15055D01*
X5996Y-15029D01*
X6005Y-15007D01*
X6013Y-14992D01*
X6016Y-14987D01*
X6233Y-14769D01*
X12992D01*
X13031Y-14761D01*
X13056Y-14808D01*
X10349Y-17514D01*
X5005D01*
X4336Y-16845D01*
Y-16008D01*
X4321Y-15930D01*
X4277Y-15865D01*
X3851Y-15438D01*
X3847Y-15434D01*
X3840Y-15418D01*
X3831Y-15396D01*
X3823Y-15372D01*
X3786Y-15208D01*
X3779Y-15158D01*
X3776Y-15150D01*
X3770Y-15107D01*
X3726Y-15001D01*
X3656Y-14910D01*
X3566Y-14841D01*
X3460Y-14797D01*
X3346Y-14782D01*
X3233Y-14797D01*
X3127Y-14841D01*
X3036Y-14910D01*
X2967Y-15001D01*
X2923Y-15107D01*
X2908Y-15220D01*
X2923Y-15334D01*
X2967Y-15440D01*
X3036Y-15530D01*
X3127Y-15600D01*
X3233Y-15644D01*
X3276Y-15650D01*
X3284Y-15653D01*
X3336Y-15660D01*
X3425Y-15678D01*
X3496Y-15696D01*
X3522Y-15705D01*
X3544Y-15714D01*
X3559Y-15721D01*
X3564Y-15725D01*
X3932Y-16092D01*
Y-16929D01*
X3947Y-17007D01*
X3991Y-17072D01*
X4778Y-17860D01*
X4844Y-17903D01*
X4921Y-17919D01*
X10433D01*
X10472Y-17911D01*
X10497Y-17957D01*
X10349Y-18105D01*
X4808D01*
X3549Y-16845D01*
Y-16731D01*
X3550Y-16725D01*
X3556Y-16709D01*
X3565Y-16687D01*
X3576Y-16664D01*
X3666Y-16523D01*
X3696Y-16482D01*
X3700Y-16474D01*
X3726Y-16440D01*
X3770Y-16334D01*
X3785Y-16220D01*
X3770Y-16107D01*
X3726Y-16001D01*
X3656Y-15910D01*
X3566Y-15841D01*
X3460Y-15797D01*
X3346Y-15782D01*
X3233Y-15797D01*
X3127Y-15841D01*
X3036Y-15910D01*
X2967Y-16001D01*
X2923Y-16107D01*
X2908Y-16220D01*
X2923Y-16334D01*
X2967Y-16440D01*
X2993Y-16474D01*
X2997Y-16482D01*
X3028Y-16524D01*
X3079Y-16599D01*
X3116Y-16663D01*
X3128Y-16687D01*
X3137Y-16709D01*
X3143Y-16725D01*
X3144Y-16731D01*
Y-16929D01*
X3160Y-17007D01*
X3203Y-17072D01*
X4581Y-18450D01*
X4647Y-18494D01*
X4724Y-18509D01*
X10433D01*
X10510Y-18494D01*
X10576Y-18450D01*
X15044Y-13982D01*
X15857D01*
Y-14289D01*
X16291D01*
X16726D01*
Y-13982D01*
X18965D01*
X18975Y-14009D01*
X18979Y-14032D01*
X18912Y-14119D01*
X18868Y-14225D01*
X18853Y-14339D01*
X18868Y-14452D01*
X18912Y-14558D01*
X18981Y-14649D01*
X19072Y-14718D01*
X19178Y-14762D01*
X19220Y-14768D01*
X19229Y-14771D01*
X19281Y-14779D01*
X19370Y-14796D01*
X19441Y-14814D01*
X19467Y-14823D01*
X19489Y-14832D01*
X19504Y-14840D01*
X19509Y-14843D01*
X20164Y-15497D01*
X20230Y-15541D01*
X20307Y-15557D01*
X20389D01*
X20395Y-15558D01*
X20409Y-15562D01*
X20455Y-15583D01*
X20479Y-15596D01*
X20579Y-15661D01*
X20617Y-15688D01*
X20625Y-15692D01*
X20657Y-15717D01*
X20758Y-15759D01*
X20866Y-15773D01*
X20974Y-15759D01*
X21075Y-15717D01*
X21162Y-15650D01*
X21229Y-15564D01*
X21270Y-15463D01*
X21285Y-15354D01*
X21270Y-15246D01*
X21229Y-15145D01*
X21162Y-15058D01*
X21075Y-14992D01*
X20974Y-14950D01*
X20866Y-14936D01*
X20758Y-14950D01*
X20657Y-14992D01*
X20625Y-15016D01*
X20618Y-15020D01*
X20542Y-15073D01*
X20511Y-15094D01*
X20453Y-15127D01*
X20430Y-15138D01*
X20410Y-15146D01*
X20395Y-15151D01*
X20391Y-15152D01*
X19795Y-14557D01*
X19792Y-14552D01*
X19784Y-14536D01*
X19776Y-14514D01*
X19767Y-14490D01*
X19731Y-14326D01*
X19723Y-14276D01*
X19720Y-14268D01*
X19715Y-14225D01*
X19671Y-14119D01*
X19604Y-14032D01*
X19608Y-14009D01*
X19617Y-13982D01*
X24213D01*
X24290Y-13966D01*
X24356Y-13923D01*
X25142Y-13136D01*
X25186Y-13070D01*
X25202Y-12993D01*
Y-8727D01*
X25205Y-8718D01*
X25210Y-8706D01*
X25218Y-8691D01*
X25230Y-8674D01*
X25243Y-8656D01*
X25282Y-8611D01*
X25299Y-8593D01*
X25304Y-8589D01*
X25360Y-8516D01*
X25396Y-8431D01*
X25408Y-8339D01*
X25396Y-8248D01*
X25360Y-8163D01*
X25304Y-8090D01*
X25231Y-8034D01*
X25146Y-7998D01*
X25055Y-7986D01*
X24963Y-7998D01*
X24878Y-8034D01*
X24805Y-8090D01*
X24771Y-8134D01*
X24721Y-8117D01*
Y-7354D01*
X24706Y-7276D01*
X24705Y-7276D01*
X24715Y-7263D01*
X24750Y-7178D01*
X24762Y-7087D01*
X24750Y-6995D01*
X24715Y-6910D01*
X24659Y-6837D01*
X24586Y-6781D01*
X24501Y-6746D01*
X24409Y-6734D01*
X24318Y-6746D01*
X24233Y-6781D01*
X24160Y-6837D01*
X24104Y-6910D01*
X24068Y-6995D01*
X24056Y-7087D01*
X24068Y-7178D01*
X24104Y-7263D01*
X24160Y-7336D01*
X24233Y-7392D01*
X24310Y-7424D01*
X24316Y-7433D01*
Y-12602D01*
X23735Y-13184D01*
X23389D01*
X23373Y-13141D01*
X23373Y-13134D01*
X23706Y-12801D01*
X23708Y-12799D01*
X23719Y-12793D01*
X23733Y-12786D01*
X23749Y-12779D01*
X23768Y-12772D01*
X23788Y-12766D01*
X23841Y-12754D01*
X23870Y-12750D01*
X23878Y-12747D01*
X23910Y-12743D01*
X23995Y-12707D01*
X24069Y-12651D01*
X24125Y-12578D01*
X24160Y-12493D01*
X24172Y-12402D01*
X24160Y-12310D01*
X24125Y-12225D01*
X24069Y-12152D01*
X23995Y-12096D01*
X23910Y-12061D01*
X23819Y-12049D01*
X23728Y-12061D01*
X23642Y-12096D01*
X23569Y-12152D01*
X23513Y-12225D01*
X23478Y-12310D01*
X23474Y-12342D01*
X23471Y-12350D01*
X23466Y-12380D01*
X23454Y-12432D01*
X23448Y-12453D01*
X23442Y-12472D01*
X23435Y-12488D01*
X23428Y-12502D01*
X23421Y-12513D01*
X23420Y-12515D01*
X23145Y-12790D01*
X14567D01*
X14528Y-12798D01*
X14503Y-12752D01*
X20622Y-6632D01*
X25605D01*
X25630Y-6682D01*
X25596Y-6727D01*
X25556Y-6823D01*
X25543Y-6926D01*
X25556Y-7029D01*
X25596Y-7125D01*
X25659Y-7208D01*
X25742Y-7271D01*
X25838Y-7311D01*
X25941Y-7325D01*
X26045Y-7311D01*
X26141Y-7271D01*
X26223Y-7208D01*
X26287Y-7125D01*
X26326Y-7029D01*
X26340Y-6926D01*
X26326Y-6823D01*
X26287Y-6727D01*
X26253Y-6682D01*
X26277Y-6632D01*
X26362D01*
X26485Y-6756D01*
X26488Y-6760D01*
X26495Y-6773D01*
X26503Y-6791D01*
X26511Y-6813D01*
X26519Y-6838D01*
X26542Y-6943D01*
X26548Y-6983D01*
X26551Y-6991D01*
X26556Y-7029D01*
X26596Y-7125D01*
X26638Y-7180D01*
X26613Y-7230D01*
X26435D01*
X26358Y-7245D01*
X26292Y-7289D01*
X26111Y-7470D01*
X26107Y-7473D01*
X26094Y-7480D01*
X26076Y-7488D01*
X26054Y-7496D01*
X26030Y-7504D01*
X25925Y-7527D01*
X25884Y-7533D01*
X25876Y-7536D01*
X25838Y-7541D01*
X25742Y-7581D01*
X25659Y-7644D01*
X25596Y-7727D01*
X25556Y-7823D01*
X25543Y-7926D01*
X25556Y-8029D01*
X25596Y-8125D01*
X25659Y-8208D01*
X25742Y-8271D01*
X25838Y-8311D01*
X25941Y-8325D01*
X26045Y-8311D01*
X26141Y-8271D01*
X26223Y-8208D01*
X26287Y-8125D01*
X26326Y-8029D01*
X26331Y-7992D01*
X26334Y-7985D01*
X26348Y-7904D01*
X26363Y-7838D01*
X26371Y-7813D01*
X26379Y-7791D01*
X26387Y-7773D01*
X26395Y-7760D01*
X26397Y-7756D01*
X26519Y-7635D01*
X26604D01*
X26628Y-7685D01*
X26596Y-7727D01*
X26556Y-7823D01*
X26543Y-7926D01*
X26556Y-8029D01*
X26596Y-8125D01*
X26638Y-8180D01*
X26613Y-8230D01*
X26435D01*
X26358Y-8245D01*
X26292Y-8289D01*
X26111Y-8470D01*
X26107Y-8473D01*
X26094Y-8480D01*
X26076Y-8488D01*
X26054Y-8496D01*
X26030Y-8504D01*
X25925Y-8527D01*
X25884Y-8533D01*
X25876Y-8536D01*
X25838Y-8541D01*
X25742Y-8581D01*
X25659Y-8644D01*
X25596Y-8727D01*
X25556Y-8823D01*
X25543Y-8926D01*
X25556Y-9029D01*
X25596Y-9125D01*
X25659Y-9208D01*
X25742Y-9271D01*
X25838Y-9311D01*
X25941Y-9325D01*
X26045Y-9311D01*
X26141Y-9271D01*
X26223Y-9208D01*
X26287Y-9125D01*
X26326Y-9029D01*
X26331Y-8992D01*
X26334Y-8985D01*
X26348Y-8904D01*
X26363Y-8838D01*
X26371Y-8813D01*
X26379Y-8791D01*
X26387Y-8773D01*
X26395Y-8760D01*
X26397Y-8756D01*
X26519Y-8635D01*
X26604D01*
X26628Y-8685D01*
X26596Y-8727D01*
X26556Y-8823D01*
X26543Y-8926D01*
X26556Y-9029D01*
X26596Y-9125D01*
X26659Y-9208D01*
X26742Y-9271D01*
X26838Y-9311D01*
X26941Y-9325D01*
X27045Y-9311D01*
X27141Y-9271D01*
X27223Y-9208D01*
X27230Y-9200D01*
X27256Y-9174D01*
X27285Y-9147D01*
X27340Y-9101D01*
X27361Y-9086D01*
X27381Y-9073D01*
X27396Y-9065D01*
X27407Y-9061D01*
X27863D01*
X27865Y-9062D01*
X27868Y-9067D01*
X27875Y-9080D01*
X27893Y-9127D01*
X27901Y-9153D01*
X27927Y-9270D01*
X27934Y-9315D01*
X27937Y-9323D01*
X27942Y-9360D01*
X27984Y-9461D01*
X28051Y-9548D01*
X28137Y-9614D01*
X28238Y-9656D01*
X28346Y-9671D01*
X28455Y-9656D01*
X28556Y-9614D01*
X28642Y-9548D01*
X28709Y-9461D01*
X28751Y-9360D01*
X28765Y-9252D01*
X28751Y-9144D01*
X28709Y-9043D01*
X28642Y-8956D01*
X28556Y-8889D01*
X28455Y-8848D01*
X28412Y-8842D01*
X28404Y-8839D01*
X28312Y-8824D01*
X28275Y-8817D01*
X28210Y-8800D01*
X28187Y-8792D01*
X28167Y-8784D01*
X28152Y-8776D01*
X28148Y-8773D01*
X28090Y-8715D01*
X28044Y-8685D01*
X28059Y-8635D01*
X29805D01*
X29962Y-8791D01*
X29939Y-8836D01*
X29921Y-8833D01*
X29813Y-8848D01*
X29712Y-8889D01*
X29625Y-8956D01*
X29559Y-9043D01*
X29517Y-9144D01*
X29512Y-9183D01*
X29509Y-9191D01*
X29494Y-9282D01*
X29486Y-9319D01*
X29468Y-9384D01*
X29460Y-9407D01*
X29452Y-9427D01*
X29444Y-9442D01*
X29441Y-9446D01*
X29163Y-9724D01*
X27384D01*
X27379Y-9723D01*
X27365Y-9718D01*
X27346Y-9711D01*
X27325Y-9702D01*
X27303Y-9690D01*
X27212Y-9632D01*
X27179Y-9608D01*
X27171Y-9604D01*
X27141Y-9581D01*
X27045Y-9541D01*
X26941Y-9527D01*
X26838Y-9541D01*
X26742Y-9581D01*
X26659Y-9644D01*
X26596Y-9727D01*
X26556Y-9823D01*
X26543Y-9926D01*
X26556Y-10029D01*
X26596Y-10125D01*
X26628Y-10167D01*
X26604Y-10217D01*
X26519D01*
X26397Y-10096D01*
X26395Y-10092D01*
X26387Y-10079D01*
X26379Y-10061D01*
X26371Y-10039D01*
X26364Y-10014D01*
X26341Y-9909D01*
X26334Y-9869D01*
X26331Y-9860D01*
X26326Y-9823D01*
X26287Y-9727D01*
X26223Y-9644D01*
X26141Y-9581D01*
X26045Y-9541D01*
X25941Y-9527D01*
X25838Y-9541D01*
X25742Y-9581D01*
X25659Y-9644D01*
X25596Y-9727D01*
X25556Y-9823D01*
X25543Y-9926D01*
X25556Y-10029D01*
X25596Y-10125D01*
X25659Y-10208D01*
X25742Y-10271D01*
X25838Y-10311D01*
X25875Y-10316D01*
X25883Y-10319D01*
X25964Y-10333D01*
X26029Y-10348D01*
X26054Y-10356D01*
X26076Y-10364D01*
X26094Y-10372D01*
X26107Y-10379D01*
X26111Y-10382D01*
X26292Y-10563D01*
X26358Y-10607D01*
X26435Y-10622D01*
X26613D01*
X26638Y-10672D01*
X26596Y-10727D01*
X26556Y-10823D01*
X26543Y-10926D01*
X26556Y-11029D01*
X26596Y-11125D01*
X26629Y-11168D01*
X26604Y-11218D01*
X26519D01*
X26397Y-11096D01*
X26395Y-11092D01*
X26387Y-11079D01*
X26379Y-11061D01*
X26371Y-11039D01*
X26364Y-11014D01*
X26341Y-10909D01*
X26334Y-10869D01*
X26331Y-10860D01*
X26326Y-10823D01*
X26287Y-10727D01*
X26223Y-10644D01*
X26141Y-10581D01*
X26045Y-10541D01*
X25941Y-10527D01*
X25838Y-10541D01*
X25742Y-10581D01*
X25659Y-10644D01*
X25596Y-10727D01*
X25556Y-10823D01*
X25543Y-10926D01*
X25556Y-11029D01*
X25596Y-11125D01*
X25659Y-11208D01*
X25742Y-11271D01*
X25838Y-11311D01*
X25875Y-11316D01*
X25883Y-11319D01*
X25964Y-11333D01*
X26029Y-11348D01*
X26054Y-11356D01*
X26076Y-11364D01*
X26094Y-11372D01*
X26107Y-11379D01*
X26111Y-11382D01*
X26292Y-11563D01*
X26358Y-11607D01*
X26435Y-11622D01*
X26613D01*
X26638Y-11672D01*
X26596Y-11727D01*
X26556Y-11823D01*
X26543Y-11926D01*
X26556Y-12029D01*
X26596Y-12125D01*
X26659Y-12208D01*
X26742Y-12271D01*
X26838Y-12311D01*
X26941Y-12325D01*
X27045Y-12311D01*
X27141Y-12271D01*
X27223Y-12208D01*
X27287Y-12125D01*
X27326Y-12029D01*
X27340Y-11926D01*
X27326Y-11823D01*
X27287Y-11727D01*
X27273Y-11709D01*
X27294Y-11655D01*
X27311Y-11652D01*
X27750Y-12092D01*
Y-17830D01*
X24892Y-20688D01*
X16961D01*
X16937Y-20638D01*
X16986Y-20574D01*
X17030Y-20468D01*
X17045Y-20354D01*
X17030Y-20241D01*
X16986Y-20135D01*
X16916Y-20044D01*
X16825Y-19975D01*
X16720Y-19931D01*
X16606Y-19916D01*
X16493Y-19931D01*
X16387Y-19975D01*
X16296Y-20044D01*
X16227Y-20135D01*
X16183Y-20241D01*
X16168Y-20354D01*
X16183Y-20468D01*
X16227Y-20574D01*
X16276Y-20638D01*
X16251Y-20688D01*
X15961D01*
X15937Y-20638D01*
X15986Y-20574D01*
X16030Y-20468D01*
X16045Y-20354D01*
X16030Y-20241D01*
X15986Y-20135D01*
X15916Y-20044D01*
X15826Y-19975D01*
X15720Y-19931D01*
X15606Y-19916D01*
X15493Y-19931D01*
X15387Y-19975D01*
X15296Y-20044D01*
X15227Y-20135D01*
X15183Y-20241D01*
X15168Y-20354D01*
X15183Y-20468D01*
X15227Y-20574D01*
X15256Y-20611D01*
X15234Y-20665D01*
X15206Y-20668D01*
X15110Y-20572D01*
X15107Y-20567D01*
X15099Y-20552D01*
X15091Y-20530D01*
X15082Y-20506D01*
X15046Y-20342D01*
X15038Y-20292D01*
X15035Y-20283D01*
X15030Y-20241D01*
X14986Y-20135D01*
X14916Y-20044D01*
X14826Y-19975D01*
X14720Y-19931D01*
X14606Y-19916D01*
X14493Y-19931D01*
X14387Y-19975D01*
X14296Y-20044D01*
X14227Y-20135D01*
X14183Y-20241D01*
X14168Y-20354D01*
X14183Y-20468D01*
X14227Y-20574D01*
X14296Y-20664D01*
X14387Y-20734D01*
X14493Y-20778D01*
X14535Y-20783D01*
X14544Y-20786D01*
X14596Y-20794D01*
X14685Y-20811D01*
X14756Y-20830D01*
X14782Y-20839D01*
X14804Y-20847D01*
X14819Y-20855D01*
X14824Y-20858D01*
X14937Y-20971D01*
X14918Y-21018D01*
X14556D01*
X14110Y-20572D01*
X14107Y-20567D01*
X14099Y-20552D01*
X14091Y-20530D01*
X14082Y-20506D01*
X14046Y-20342D01*
X14038Y-20292D01*
X14035Y-20283D01*
X14030Y-20241D01*
X13986Y-20135D01*
X13916Y-20044D01*
X13826Y-19975D01*
X13720Y-19931D01*
X13606Y-19916D01*
X13493Y-19931D01*
X13387Y-19975D01*
X13296Y-20044D01*
X13227Y-20135D01*
X13183Y-20241D01*
X13168Y-20354D01*
X13183Y-20468D01*
X13227Y-20574D01*
X13296Y-20664D01*
X13387Y-20734D01*
X13493Y-20778D01*
X13535Y-20783D01*
X13544Y-20786D01*
X13596Y-20794D01*
X13685Y-20811D01*
X13756Y-20830D01*
X13782Y-20839D01*
X13804Y-20847D01*
X13819Y-20855D01*
X13824Y-20858D01*
X14329Y-21363D01*
X14395Y-21407D01*
X14472Y-21422D01*
X25237D01*
X25314Y-21407D01*
X25380Y-21363D01*
X28393Y-18350D01*
X28437Y-18285D01*
X28452Y-18207D01*
Y-11536D01*
X28437Y-11459D01*
X28393Y-11393D01*
X27276Y-10277D01*
X27247Y-10257D01*
X27245Y-10198D01*
X27302Y-10163D01*
X27325Y-10150D01*
X27346Y-10140D01*
X27365Y-10133D01*
X27379Y-10129D01*
X27384Y-10128D01*
X29247D01*
X29325Y-10113D01*
X29390Y-10069D01*
X29727Y-9732D01*
X29732Y-9729D01*
X29745Y-9722D01*
X29792Y-9704D01*
X29818Y-9696D01*
X29935Y-9672D01*
X29981Y-9665D01*
X29989Y-9662D01*
X30030Y-9656D01*
X30131Y-9614D01*
X30217Y-9548D01*
X30284Y-9461D01*
X30326Y-9360D01*
X30340Y-9252D01*
X30337Y-9234D01*
X30382Y-9212D01*
X30703Y-9533D01*
Y-14567D01*
X30719Y-14644D01*
X30762Y-14710D01*
X32203Y-16151D01*
X32180Y-16191D01*
X32176Y-16194D01*
X32146Y-16190D01*
X32138Y-16187D01*
X32108Y-16183D01*
X32056Y-16171D01*
X32035Y-16165D01*
X32017Y-16158D01*
X32000Y-16151D01*
X31987Y-16144D01*
X31975Y-16138D01*
X31974Y-16136D01*
X29336Y-13499D01*
X29335Y-13497D01*
X29328Y-13486D01*
X29321Y-13472D01*
X29314Y-13456D01*
X29307Y-13437D01*
X29301Y-13417D01*
X29290Y-13364D01*
X29285Y-13335D01*
X29282Y-13326D01*
X29278Y-13294D01*
X29243Y-13209D01*
X29187Y-13136D01*
X29114Y-13080D01*
X29028Y-13045D01*
X28937Y-13033D01*
X28846Y-13045D01*
X28760Y-13080D01*
X28687Y-13136D01*
X28631Y-13209D01*
X28596Y-13294D01*
X28584Y-13386D01*
X28596Y-13477D01*
X28631Y-13562D01*
X28687Y-13635D01*
X28760Y-13692D01*
X28846Y-13727D01*
X28878Y-13731D01*
X28886Y-13734D01*
X28915Y-13739D01*
X28968Y-13750D01*
X28988Y-13756D01*
X29007Y-13763D01*
X29023Y-13770D01*
X29037Y-13777D01*
X29048Y-13784D01*
X29050Y-13785D01*
X31688Y-16422D01*
X31689Y-16424D01*
X31696Y-16435D01*
X31703Y-16449D01*
X31709Y-16465D01*
X31716Y-16484D01*
X31722Y-16505D01*
X31734Y-16557D01*
X31738Y-16587D01*
X31741Y-16595D01*
X31746Y-16627D01*
X31781Y-16712D01*
X31837Y-16785D01*
X31910Y-16841D01*
X31995Y-16876D01*
X32087Y-16888D01*
X32178Y-16876D01*
X32263Y-16841D01*
X32336Y-16785D01*
X32392Y-16712D01*
X32428Y-16627D01*
X32440Y-16535D01*
X32428Y-16446D01*
X32431Y-16442D01*
X32471Y-16419D01*
X34873Y-18820D01*
X34938Y-18864D01*
X35016Y-18879D01*
X35671D01*
X35676Y-18881D01*
X35693Y-18886D01*
X35714Y-18895D01*
X35737Y-18907D01*
X35879Y-18997D01*
X35920Y-19027D01*
X35928Y-19031D01*
X35962Y-19057D01*
X36068Y-19101D01*
X36181Y-19116D01*
X36295Y-19101D01*
X36400Y-19057D01*
X36491Y-18987D01*
X36561Y-18896D01*
X36605Y-18791D01*
X36620Y-18677D01*
X36605Y-18564D01*
X36561Y-18458D01*
X36491Y-18367D01*
X36400Y-18297D01*
X36295Y-18254D01*
X36181Y-18239D01*
X36068Y-18254D01*
X35962Y-18297D01*
X35928Y-18324D01*
X35920Y-18327D01*
X35878Y-18358D01*
X35802Y-18410D01*
X35739Y-18447D01*
X35714Y-18459D01*
X35693Y-18468D01*
X35676Y-18474D01*
X35671Y-18475D01*
X35100D01*
X31108Y-14483D01*
Y-9449D01*
X31092Y-9371D01*
X31049Y-9306D01*
X30032Y-8289D01*
X29966Y-8245D01*
X29889Y-8230D01*
X27269D01*
X27245Y-8180D01*
X27287Y-8125D01*
X27326Y-8029D01*
X27340Y-7926D01*
X27326Y-7823D01*
X27287Y-7727D01*
X27254Y-7685D01*
X27279Y-7635D01*
X31019D01*
X31863Y-8479D01*
X31840Y-8526D01*
X31780Y-8518D01*
X31671Y-8533D01*
X31570Y-8575D01*
X31484Y-8641D01*
X31417Y-8728D01*
X31375Y-8829D01*
X31361Y-8937D01*
X31375Y-9045D01*
X31417Y-9146D01*
X31484Y-9233D01*
X31570Y-9299D01*
X31671Y-9341D01*
X31780Y-9356D01*
X31888Y-9341D01*
X31989Y-9299D01*
X32075Y-9233D01*
X32142Y-9146D01*
X32184Y-9045D01*
X32198Y-8937D01*
X32190Y-8877D01*
X32238Y-8854D01*
X32278Y-8894D01*
Y-15157D01*
X32293Y-15235D01*
X32337Y-15301D01*
X34857Y-17820D01*
X34923Y-17864D01*
X35000Y-17879D01*
X35671D01*
X35676Y-17881D01*
X35693Y-17886D01*
X35714Y-17895D01*
X35737Y-17907D01*
X35879Y-17997D01*
X35920Y-18027D01*
X35928Y-18031D01*
X35962Y-18057D01*
X36068Y-18101D01*
X36181Y-18116D01*
X36295Y-18101D01*
X36400Y-18057D01*
X36491Y-17987D01*
X36561Y-17896D01*
X36605Y-17791D01*
X36620Y-17677D01*
X36605Y-17564D01*
X36561Y-17458D01*
X36491Y-17367D01*
X36400Y-17298D01*
X36295Y-17254D01*
X36181Y-17239D01*
X36068Y-17254D01*
X35962Y-17298D01*
X35928Y-17324D01*
X35920Y-17327D01*
X35878Y-17358D01*
X35802Y-17410D01*
X35739Y-17447D01*
X35714Y-17459D01*
X35693Y-17468D01*
X35676Y-17474D01*
X35671Y-17475D01*
X35084D01*
X32683Y-15074D01*
Y-8810D01*
X32667Y-8733D01*
X32623Y-8667D01*
X31245Y-7289D01*
X31180Y-7245D01*
X31102Y-7230D01*
X27269D01*
X27245Y-7180D01*
X27287Y-7125D01*
X27326Y-7029D01*
X27340Y-6926D01*
X27326Y-6823D01*
X27287Y-6727D01*
X27223Y-6644D01*
X27141Y-6581D01*
X27045Y-6541D01*
X27008Y-6536D01*
X27000Y-6533D01*
X26919Y-6519D01*
X26854Y-6504D01*
X26829Y-6496D01*
X26807Y-6488D01*
X26789Y-6480D01*
X26775Y-6473D01*
X26772Y-6470D01*
X26588Y-6287D01*
X26523Y-6243D01*
X26445Y-6228D01*
X26271D01*
X26246Y-6178D01*
X26287Y-6125D01*
X26326Y-6029D01*
X26340Y-5926D01*
X26326Y-5823D01*
X26287Y-5727D01*
X26223Y-5644D01*
X26141Y-5581D01*
X26045Y-5541D01*
X26008Y-5536D01*
X26000Y-5533D01*
X25919Y-5519D01*
X25854Y-5504D01*
X25829Y-5496D01*
X25807Y-5488D01*
X25789Y-5480D01*
X25775Y-5473D01*
X25772Y-5470D01*
X25507Y-5205D01*
X25520Y-5148D01*
X25536Y-5140D01*
X25558Y-5150D01*
X25580Y-5162D01*
X25671Y-5220D01*
X25704Y-5244D01*
X25712Y-5248D01*
X25742Y-5271D01*
X25838Y-5311D01*
X25941Y-5325D01*
X26045Y-5311D01*
X26141Y-5271D01*
X26223Y-5208D01*
X26287Y-5125D01*
X26326Y-5029D01*
X26340Y-4926D01*
X26326Y-4823D01*
X26287Y-4727D01*
X26223Y-4644D01*
X26141Y-4581D01*
X26045Y-4541D01*
X25941Y-4527D01*
D02*
G37*
G36*
X29921Y-5290D02*
X29813Y-5304D01*
X29712Y-5346D01*
X29680Y-5370D01*
X29673Y-5374D01*
X29597Y-5428D01*
X29566Y-5448D01*
X29508Y-5482D01*
X29485Y-5492D01*
X29465Y-5500D01*
X29450Y-5505D01*
X29445Y-5506D01*
X28823D01*
X28818Y-5505D01*
X28804Y-5501D01*
X28758Y-5480D01*
X28734Y-5467D01*
X28633Y-5402D01*
X28596Y-5375D01*
X28588Y-5371D01*
X28556Y-5346D01*
X28455Y-5304D01*
X28346Y-5290D01*
X28238Y-5304D01*
X28137Y-5346D01*
X28051Y-5413D01*
X27984Y-5499D01*
X27942Y-5600D01*
X27928Y-5709D01*
X27942Y-5817D01*
X27984Y-5918D01*
X28051Y-6005D01*
X28137Y-6071D01*
X28238Y-6113D01*
X28346Y-6127D01*
X28455Y-6113D01*
X28556Y-6071D01*
X28587Y-6047D01*
X28595Y-6043D01*
X28670Y-5990D01*
X28702Y-5969D01*
X28760Y-5936D01*
X28782Y-5925D01*
X28802Y-5917D01*
X28818Y-5912D01*
X28823Y-5911D01*
X29445D01*
X29450Y-5912D01*
X29464Y-5916D01*
X29510Y-5937D01*
X29534Y-5950D01*
X29634Y-6015D01*
X29672Y-6043D01*
X29680Y-6046D01*
X29712Y-6071D01*
X29813Y-6113D01*
X29921Y-6127D01*
X30030Y-6113D01*
X30131Y-6071D01*
X30217Y-6005D01*
X30284Y-5918D01*
X30326Y-5817D01*
X30340Y-5709D01*
X30326Y-5600D01*
X30284Y-5499D01*
X30217Y-5413D01*
X30131Y-5346D01*
X30030Y-5304D01*
X29921Y-5290D01*
D02*
G37*
G36*
X5353Y-5365D02*
X4971D01*
Y-5747D01*
X5035Y-5738D01*
X5140Y-5695D01*
X5231Y-5625D01*
X5301Y-5534D01*
X5345Y-5428D01*
X5353Y-5365D01*
D02*
G37*
G36*
X4871D02*
X4489D01*
X4498Y-5428D01*
X4542Y-5534D01*
X4611Y-5625D01*
X4702Y-5695D01*
X4808Y-5738D01*
X4871Y-5747D01*
Y-5365D01*
D02*
G37*
G36*
X36929Y-4975D02*
X36821Y-4989D01*
X36720Y-5031D01*
X36633Y-5098D01*
X36567Y-5184D01*
X36525Y-5285D01*
X36511Y-5394D01*
X36525Y-5502D01*
X36567Y-5603D01*
X36633Y-5690D01*
X36720Y-5756D01*
X36821Y-5798D01*
X36929Y-5812D01*
X37037Y-5798D01*
X37138Y-5756D01*
X37225Y-5690D01*
X37292Y-5603D01*
X37333Y-5502D01*
X37348Y-5394D01*
X37333Y-5285D01*
X37292Y-5184D01*
X37225Y-5098D01*
X37138Y-5031D01*
X37037Y-4989D01*
X36929Y-4975D01*
D02*
G37*
G36*
X35213D02*
X35104Y-4989D01*
X35003Y-5031D01*
X34917Y-5098D01*
X34850Y-5184D01*
X34808Y-5285D01*
X34794Y-5394D01*
X34808Y-5502D01*
X34850Y-5603D01*
X34917Y-5690D01*
X35003Y-5756D01*
X35104Y-5798D01*
X35213Y-5812D01*
X35321Y-5798D01*
X35422Y-5756D01*
X35509Y-5690D01*
X35575Y-5603D01*
X35617Y-5502D01*
X35631Y-5394D01*
X35617Y-5285D01*
X35575Y-5184D01*
X35509Y-5098D01*
X35422Y-5031D01*
X35321Y-4989D01*
X35213Y-4975D01*
D02*
G37*
G36*
X33496D02*
X33388Y-4989D01*
X33287Y-5031D01*
X33200Y-5098D01*
X33134Y-5184D01*
X33092Y-5285D01*
X33078Y-5394D01*
X33092Y-5502D01*
X33134Y-5603D01*
X33200Y-5690D01*
X33287Y-5756D01*
X33388Y-5798D01*
X33496Y-5812D01*
X33604Y-5798D01*
X33705Y-5756D01*
X33792Y-5690D01*
X33859Y-5603D01*
X33900Y-5502D01*
X33915Y-5394D01*
X33900Y-5285D01*
X33859Y-5184D01*
X33792Y-5098D01*
X33705Y-5031D01*
X33604Y-4989D01*
X33496Y-4975D01*
D02*
G37*
G36*
X26941Y-5527D02*
X26838Y-5541D01*
X26742Y-5581D01*
X26659Y-5644D01*
X26596Y-5727D01*
X26556Y-5823D01*
X26543Y-5926D01*
X26556Y-6029D01*
X26596Y-6125D01*
X26659Y-6208D01*
X26742Y-6271D01*
X26838Y-6311D01*
X26941Y-6325D01*
X27045Y-6311D01*
X27141Y-6271D01*
X27223Y-6208D01*
X27287Y-6125D01*
X27326Y-6029D01*
X27340Y-5926D01*
X27326Y-5823D01*
X27287Y-5727D01*
X27223Y-5644D01*
X27141Y-5581D01*
X27045Y-5541D01*
X26941Y-5527D01*
D02*
G37*
G36*
X8941Y-6527D02*
X8838Y-6541D01*
X8742Y-6581D01*
X8659Y-6644D01*
X8596Y-6727D01*
X8556Y-6823D01*
X8543Y-6926D01*
X8556Y-7029D01*
X8596Y-7125D01*
X8659Y-7208D01*
X8742Y-7271D01*
X8838Y-7311D01*
X8941Y-7325D01*
X9045Y-7311D01*
X9141Y-7271D01*
X9223Y-7208D01*
X9287Y-7125D01*
X9326Y-7029D01*
X9340Y-6926D01*
X9326Y-6823D01*
X9287Y-6727D01*
X9223Y-6644D01*
X9141Y-6581D01*
X9045Y-6541D01*
X8941Y-6527D01*
D02*
G37*
G36*
X23794Y-7517D02*
Y-7899D01*
X24176D01*
X24168Y-7835D01*
X24124Y-7730D01*
X24054Y-7639D01*
X23963Y-7569D01*
X23858Y-7525D01*
X23794Y-7517D01*
D02*
G37*
G36*
X23694D02*
X23631Y-7525D01*
X23525Y-7569D01*
X23434Y-7639D01*
X23364Y-7730D01*
X23321Y-7835D01*
X23312Y-7899D01*
X23694D01*
Y-7517D01*
D02*
G37*
G36*
X9941Y-6527D02*
X9838Y-6541D01*
X9742Y-6581D01*
X9659Y-6644D01*
X9596Y-6727D01*
X9556Y-6823D01*
X9543Y-6926D01*
X9556Y-7029D01*
X9596Y-7125D01*
X9659Y-7208D01*
X9742Y-7271D01*
X9838Y-7311D01*
X9941Y-7325D01*
X10045Y-7311D01*
X10141Y-7271D01*
X10170Y-7249D01*
X10178Y-7245D01*
X10245Y-7198D01*
X10302Y-7163D01*
X10325Y-7150D01*
X10346Y-7140D01*
X10365Y-7133D01*
X10379Y-7129D01*
X10384Y-7128D01*
X11567D01*
X12002Y-7564D01*
X12004Y-7566D01*
X12011Y-7577D01*
X12018Y-7591D01*
X12024Y-7607D01*
X12031Y-7626D01*
X12037Y-7646D01*
X12049Y-7699D01*
X12053Y-7728D01*
X12056Y-7737D01*
X12061Y-7769D01*
X12096Y-7854D01*
X12152Y-7927D01*
X12225Y-7983D01*
X12310Y-8018D01*
X12402Y-8030D01*
X12493Y-8018D01*
X12578Y-7983D01*
X12651Y-7927D01*
X12707Y-7854D01*
X12743Y-7769D01*
X12755Y-7677D01*
X12743Y-7586D01*
X12707Y-7501D01*
X12651Y-7428D01*
X12578Y-7371D01*
X12493Y-7336D01*
X12461Y-7332D01*
X12453Y-7329D01*
X12423Y-7324D01*
X12371Y-7313D01*
X12350Y-7307D01*
X12331Y-7300D01*
X12315Y-7293D01*
X12301Y-7286D01*
X12290Y-7279D01*
X12289Y-7278D01*
X11793Y-6783D01*
X11728Y-6739D01*
X11650Y-6724D01*
X10384D01*
X10379Y-6723D01*
X10365Y-6719D01*
X10346Y-6712D01*
X10325Y-6702D01*
X10303Y-6690D01*
X10212Y-6632D01*
X10179Y-6608D01*
X10171Y-6604D01*
X10141Y-6581D01*
X10045Y-6541D01*
X9941Y-6527D01*
D02*
G37*
G36*
X24176Y-7999D02*
X23794D01*
Y-8381D01*
X23858Y-8372D01*
X23963Y-8328D01*
X24054Y-8259D01*
X24124Y-8168D01*
X24168Y-8062D01*
X24176Y-7999D01*
D02*
G37*
G36*
X23694D02*
X23312D01*
X23321Y-8062D01*
X23364Y-8168D01*
X23434Y-8259D01*
X23525Y-8328D01*
X23631Y-8372D01*
X23694Y-8381D01*
Y-7999D01*
D02*
G37*
G36*
X21179Y-7514D02*
X20309D01*
Y-8383D01*
X21179D01*
Y-7514D01*
D02*
G37*
G36*
X36929Y-8518D02*
X36821Y-8533D01*
X36720Y-8575D01*
X36633Y-8641D01*
X36567Y-8728D01*
X36525Y-8829D01*
X36511Y-8937D01*
X36525Y-9045D01*
X36567Y-9146D01*
X36633Y-9233D01*
X36720Y-9299D01*
X36821Y-9341D01*
X36929Y-9356D01*
X37037Y-9341D01*
X37138Y-9299D01*
X37225Y-9233D01*
X37292Y-9146D01*
X37333Y-9045D01*
X37348Y-8937D01*
X37333Y-8829D01*
X37292Y-8728D01*
X37225Y-8641D01*
X37138Y-8575D01*
X37037Y-8533D01*
X36929Y-8518D01*
D02*
G37*
G36*
X35213D02*
X35104Y-8533D01*
X35003Y-8575D01*
X34917Y-8641D01*
X34850Y-8728D01*
X34808Y-8829D01*
X34794Y-8937D01*
X34808Y-9045D01*
X34850Y-9146D01*
X34917Y-9233D01*
X35003Y-9299D01*
X35104Y-9341D01*
X35213Y-9356D01*
X35321Y-9341D01*
X35422Y-9299D01*
X35509Y-9233D01*
X35575Y-9146D01*
X35617Y-9045D01*
X35631Y-8937D01*
X35617Y-8829D01*
X35575Y-8728D01*
X35509Y-8641D01*
X35422Y-8575D01*
X35321Y-8533D01*
X35213Y-8518D01*
D02*
G37*
G36*
X33496D02*
X33388Y-8533D01*
X33287Y-8575D01*
X33200Y-8641D01*
X33134Y-8728D01*
X33092Y-8829D01*
X33078Y-8937D01*
X33092Y-9045D01*
X33134Y-9146D01*
X33200Y-9233D01*
X33287Y-9299D01*
X33388Y-9341D01*
X33496Y-9356D01*
X33604Y-9341D01*
X33705Y-9299D01*
X33792Y-9233D01*
X33859Y-9146D01*
X33900Y-9045D01*
X33915Y-8937D01*
X33900Y-8829D01*
X33859Y-8728D01*
X33792Y-8641D01*
X33705Y-8575D01*
X33604Y-8533D01*
X33496Y-8518D01*
D02*
G37*
G36*
X23744Y-8510D02*
X23631Y-8525D01*
X23525Y-8569D01*
X23434Y-8639D01*
X23364Y-8730D01*
X23321Y-8835D01*
X23306Y-8949D01*
X23321Y-9062D01*
X23364Y-9168D01*
X23434Y-9259D01*
X23525Y-9328D01*
X23631Y-9372D01*
X23744Y-9387D01*
X23858Y-9372D01*
X23963Y-9328D01*
X24054Y-9259D01*
X24124Y-9168D01*
X24168Y-9062D01*
X24183Y-8949D01*
X24168Y-8835D01*
X24124Y-8730D01*
X24054Y-8639D01*
X23963Y-8569D01*
X23858Y-8525D01*
X23744Y-8510D01*
D02*
G37*
G36*
X20744D02*
X20631Y-8525D01*
X20525Y-8569D01*
X20434Y-8639D01*
X20364Y-8730D01*
X20321Y-8835D01*
X20306Y-8949D01*
X20321Y-9062D01*
X20364Y-9168D01*
X20434Y-9259D01*
X20525Y-9328D01*
X20631Y-9372D01*
X20744Y-9387D01*
X20858Y-9372D01*
X20963Y-9328D01*
X21054Y-9259D01*
X21124Y-9168D01*
X21168Y-9062D01*
X21182Y-8949D01*
X21168Y-8835D01*
X21124Y-8730D01*
X21054Y-8639D01*
X20963Y-8569D01*
X20858Y-8525D01*
X20744Y-8510D01*
D02*
G37*
G36*
X23744Y-9510D02*
X23631Y-9525D01*
X23525Y-9569D01*
X23434Y-9639D01*
X23364Y-9730D01*
X23321Y-9835D01*
X23306Y-9949D01*
X23321Y-10062D01*
X23364Y-10168D01*
X23434Y-10259D01*
X23525Y-10328D01*
X23631Y-10372D01*
X23744Y-10387D01*
X23858Y-10372D01*
X23963Y-10328D01*
X24054Y-10259D01*
X24124Y-10168D01*
X24168Y-10062D01*
X24183Y-9949D01*
X24168Y-9835D01*
X24124Y-9730D01*
X24054Y-9639D01*
X23963Y-9569D01*
X23858Y-9525D01*
X23744Y-9510D01*
D02*
G37*
G36*
X20744D02*
X20631Y-9525D01*
X20525Y-9569D01*
X20434Y-9639D01*
X20364Y-9730D01*
X20321Y-9835D01*
X20306Y-9949D01*
X20321Y-10062D01*
X20364Y-10168D01*
X20434Y-10259D01*
X20525Y-10328D01*
X20631Y-10372D01*
X20744Y-10387D01*
X20858Y-10372D01*
X20963Y-10328D01*
X21054Y-10259D01*
X21124Y-10168D01*
X21168Y-10062D01*
X21182Y-9949D01*
X21168Y-9835D01*
X21124Y-9730D01*
X21054Y-9639D01*
X20963Y-9569D01*
X20858Y-9525D01*
X20744Y-9510D01*
D02*
G37*
G36*
X23794Y-10517D02*
Y-10899D01*
X24176D01*
X24168Y-10835D01*
X24124Y-10730D01*
X24054Y-10639D01*
X23963Y-10569D01*
X23858Y-10525D01*
X23794Y-10517D01*
D02*
G37*
G36*
X23694D02*
X23631Y-10525D01*
X23525Y-10569D01*
X23434Y-10639D01*
X23364Y-10730D01*
X23321Y-10835D01*
X23312Y-10899D01*
X23694D01*
Y-10517D01*
D02*
G37*
G36*
X24176Y-10999D02*
X23794D01*
Y-11381D01*
X23858Y-11372D01*
X23963Y-11328D01*
X24054Y-11259D01*
X24124Y-11168D01*
X24168Y-11062D01*
X24176Y-10999D01*
D02*
G37*
G36*
X23694D02*
X23312D01*
X23321Y-11062D01*
X23364Y-11168D01*
X23434Y-11259D01*
X23525Y-11328D01*
X23631Y-11372D01*
X23694Y-11381D01*
Y-10999D01*
D02*
G37*
G36*
X20744Y-10510D02*
X20631Y-10525D01*
X20525Y-10569D01*
X20434Y-10639D01*
X20364Y-10730D01*
X20321Y-10835D01*
X20306Y-10949D01*
X20321Y-11062D01*
X20364Y-11168D01*
X20434Y-11259D01*
X20525Y-11328D01*
X20631Y-11372D01*
X20744Y-11387D01*
X20858Y-11372D01*
X20963Y-11328D01*
X21054Y-11259D01*
X21124Y-11168D01*
X21168Y-11062D01*
X21182Y-10949D01*
X21168Y-10835D01*
X21124Y-10730D01*
X21054Y-10639D01*
X20963Y-10569D01*
X20858Y-10525D01*
X20744Y-10510D01*
D02*
G37*
G36*
X33491Y-11141D02*
X33403Y-11153D01*
X33321Y-11187D01*
X33251Y-11240D01*
X33197Y-11311D01*
X33163Y-11393D01*
X33152Y-11480D01*
X33163Y-11568D01*
X33197Y-11650D01*
X33251Y-11720D01*
X33321Y-11774D01*
X33403Y-11808D01*
X33491Y-11819D01*
X33579Y-11808D01*
X33660Y-11774D01*
X33731Y-11720D01*
X33784Y-11650D01*
X33818Y-11568D01*
X33830Y-11480D01*
X33818Y-11393D01*
X33784Y-11311D01*
X33731Y-11240D01*
X33660Y-11187D01*
X33579Y-11153D01*
X33491Y-11141D01*
D02*
G37*
G36*
X37323Y-11141D02*
X37235Y-11153D01*
X37153Y-11187D01*
X37083Y-11241D01*
X37029Y-11311D01*
X36995Y-11393D01*
X36984Y-11480D01*
X36995Y-11568D01*
X37029Y-11650D01*
X37083Y-11720D01*
X37153Y-11774D01*
X37235Y-11808D01*
X37323Y-11819D01*
X37411Y-11808D01*
X37492Y-11774D01*
X37563Y-11720D01*
X37617Y-11650D01*
X37650Y-11568D01*
X37662Y-11480D01*
X37650Y-11393D01*
X37617Y-11311D01*
X37563Y-11241D01*
X37492Y-11187D01*
X37411Y-11153D01*
X37323Y-11141D01*
D02*
G37*
G36*
X31575D02*
X31487Y-11153D01*
X31405Y-11187D01*
X31335Y-11241D01*
X31281Y-11311D01*
X31247Y-11393D01*
X31236Y-11480D01*
X31247Y-11568D01*
X31281Y-11650D01*
X31335Y-11720D01*
X31405Y-11774D01*
X31487Y-11808D01*
X31575Y-11819D01*
X31663Y-11808D01*
X31744Y-11774D01*
X31815Y-11720D01*
X31868Y-11650D01*
X31902Y-11568D01*
X31914Y-11480D01*
X31902Y-11393D01*
X31868Y-11311D01*
X31815Y-11241D01*
X31744Y-11187D01*
X31663Y-11153D01*
X31575Y-11141D01*
D02*
G37*
G36*
X35407Y-11141D02*
X35319Y-11153D01*
X35237Y-11187D01*
X35167Y-11241D01*
X35113Y-11311D01*
X35079Y-11393D01*
X35068Y-11480D01*
X35079Y-11568D01*
X35113Y-11650D01*
X35167Y-11720D01*
X35237Y-11774D01*
X35319Y-11808D01*
X35407Y-11819D01*
X35495Y-11808D01*
X35576Y-11774D01*
X35647Y-11720D01*
X35701Y-11650D01*
X35734Y-11568D01*
X35746Y-11480D01*
X35734Y-11393D01*
X35701Y-11311D01*
X35647Y-11241D01*
X35576Y-11187D01*
X35495Y-11153D01*
X35407Y-11141D01*
D02*
G37*
G36*
X22885Y-11832D02*
Y-12155D01*
X23207D01*
X23201Y-12107D01*
X23163Y-12015D01*
X23103Y-11937D01*
X23024Y-11877D01*
X22933Y-11839D01*
X22885Y-11832D01*
D02*
G37*
G36*
X22785D02*
X22737Y-11839D01*
X22645Y-11877D01*
X22567Y-11937D01*
X22507Y-12015D01*
X22469Y-12107D01*
X22462Y-12155D01*
X22785D01*
Y-11832D01*
D02*
G37*
G36*
X25941Y-11527D02*
X25838Y-11541D01*
X25742Y-11581D01*
X25659Y-11644D01*
X25596Y-11727D01*
X25556Y-11823D01*
X25543Y-11926D01*
X25556Y-12029D01*
X25596Y-12125D01*
X25659Y-12208D01*
X25742Y-12271D01*
X25838Y-12311D01*
X25941Y-12325D01*
X26045Y-12311D01*
X26141Y-12271D01*
X26223Y-12208D01*
X26287Y-12125D01*
X26326Y-12029D01*
X26340Y-11926D01*
X26326Y-11823D01*
X26287Y-11727D01*
X26223Y-11644D01*
X26141Y-11581D01*
X26045Y-11541D01*
X25941Y-11527D01*
D02*
G37*
G36*
X33541Y-12148D02*
Y-12430D01*
X33823D01*
X33818Y-12393D01*
X33784Y-12311D01*
X33731Y-12240D01*
X33660Y-12187D01*
X33579Y-12153D01*
X33541Y-12148D01*
D02*
G37*
G36*
X33441D02*
X33403Y-12153D01*
X33321Y-12187D01*
X33251Y-12240D01*
X33251Y-12241D01*
X33197Y-12311D01*
X33163Y-12393D01*
X33158Y-12430D01*
X33441D01*
Y-12148D01*
D02*
G37*
G36*
X31625Y-12148D02*
Y-12430D01*
X31907D01*
X31902Y-12393D01*
X31868Y-12311D01*
X31815Y-12241D01*
X31744Y-12187D01*
X31663Y-12153D01*
X31625Y-12148D01*
D02*
G37*
G36*
X37273D02*
X37235Y-12153D01*
X37201Y-12167D01*
X37153Y-12187D01*
X37083Y-12241D01*
X37029Y-12311D01*
X37009Y-12359D01*
X36995Y-12393D01*
X36990Y-12430D01*
X37273D01*
Y-12148D01*
D02*
G37*
G36*
X31525D02*
X31487Y-12153D01*
X31405Y-12187D01*
X31335Y-12241D01*
X31281Y-12311D01*
X31247Y-12393D01*
X31242Y-12430D01*
X31525D01*
Y-12148D01*
D02*
G37*
G36*
X23207Y-12255D02*
X22885D01*
Y-12577D01*
X22933Y-12571D01*
X23024Y-12533D01*
X23103Y-12473D01*
X23163Y-12394D01*
X23201Y-12303D01*
X23207Y-12255D01*
D02*
G37*
G36*
X22785D02*
X22462D01*
X22469Y-12303D01*
X22507Y-12394D01*
X22567Y-12473D01*
X22645Y-12533D01*
X22737Y-12571D01*
X22785Y-12577D01*
Y-12255D01*
D02*
G37*
G36*
X21835Y-11826D02*
X21737Y-11839D01*
X21645Y-11877D01*
X21567Y-11937D01*
X21507Y-12015D01*
X21469Y-12107D01*
X21456Y-12205D01*
X21469Y-12303D01*
X21507Y-12394D01*
X21567Y-12473D01*
X21645Y-12533D01*
X21737Y-12571D01*
X21835Y-12584D01*
X21933Y-12571D01*
X22024Y-12533D01*
X22103Y-12473D01*
X22163Y-12394D01*
X22201Y-12303D01*
X22213Y-12205D01*
X22201Y-12107D01*
X22163Y-12015D01*
X22103Y-11937D01*
X22024Y-11877D01*
X21933Y-11839D01*
X21835Y-11826D01*
D02*
G37*
G36*
X33823Y-12530D02*
X33541D01*
Y-12813D01*
X33579Y-12808D01*
X33660Y-12774D01*
X33731Y-12720D01*
X33731Y-12720D01*
X33784Y-12650D01*
X33818Y-12568D01*
X33823Y-12530D01*
D02*
G37*
G36*
X31907Y-12530D02*
X31625D01*
Y-12813D01*
X31663Y-12808D01*
X31744Y-12774D01*
X31815Y-12720D01*
X31868Y-12650D01*
X31902Y-12568D01*
X31907Y-12530D01*
D02*
G37*
G36*
X31525D02*
X31242D01*
X31247Y-12568D01*
X31281Y-12650D01*
X31335Y-12720D01*
X31405Y-12774D01*
X31487Y-12808D01*
X31525Y-12813D01*
Y-12530D01*
D02*
G37*
G36*
X33441Y-12530D02*
X33158D01*
X33163Y-12568D01*
X33197Y-12650D01*
X33251Y-12720D01*
X33321Y-12774D01*
X33403Y-12808D01*
X33441Y-12813D01*
Y-12530D01*
D02*
G37*
G36*
X35739Y-12530D02*
X35457D01*
Y-12813D01*
X35495Y-12808D01*
X35528Y-12794D01*
X35576Y-12774D01*
X35647Y-12720D01*
X35701Y-12650D01*
X35720Y-12602D01*
X35734Y-12568D01*
X35739Y-12530D01*
D02*
G37*
G36*
X35407Y-12141D02*
X35319Y-12153D01*
X35237Y-12187D01*
X35167Y-12240D01*
X35113Y-12311D01*
X35079Y-12393D01*
X35068Y-12480D01*
X35079Y-12568D01*
X35113Y-12650D01*
X35167Y-12720D01*
X35167Y-12720D01*
X35167Y-12720D01*
X35237Y-12774D01*
X35319Y-12808D01*
X35357Y-12813D01*
Y-12480D01*
X35407D01*
Y-12430D01*
X35739D01*
X35734Y-12393D01*
X35701Y-12311D01*
X35647Y-12241D01*
X35647Y-12241D01*
X35647Y-12240D01*
X35576Y-12187D01*
X35495Y-12153D01*
X35407Y-12141D01*
D02*
G37*
G36*
X26941Y-12527D02*
X26838Y-12541D01*
X26742Y-12581D01*
X26659Y-12644D01*
X26596Y-12727D01*
X26556Y-12823D01*
X26543Y-12926D01*
X26556Y-13029D01*
X26596Y-13125D01*
X26659Y-13208D01*
X26742Y-13271D01*
X26838Y-13311D01*
X26941Y-13325D01*
X27045Y-13311D01*
X27141Y-13271D01*
X27223Y-13208D01*
X27287Y-13125D01*
X27326Y-13029D01*
X27340Y-12926D01*
X27326Y-12823D01*
X27287Y-12727D01*
X27223Y-12644D01*
X27141Y-12581D01*
X27045Y-12541D01*
X26941Y-12527D01*
D02*
G37*
G36*
X25941D02*
X25838Y-12541D01*
X25742Y-12581D01*
X25659Y-12644D01*
X25596Y-12727D01*
X25556Y-12823D01*
X25543Y-12926D01*
X25556Y-13029D01*
X25596Y-13125D01*
X25659Y-13208D01*
X25742Y-13271D01*
X25838Y-13311D01*
X25941Y-13325D01*
X26045Y-13311D01*
X26141Y-13271D01*
X26223Y-13208D01*
X26287Y-13125D01*
X26326Y-13029D01*
X26340Y-12926D01*
X26326Y-12823D01*
X26287Y-12727D01*
X26223Y-12644D01*
X26141Y-12581D01*
X26045Y-12541D01*
X25941Y-12527D01*
D02*
G37*
G36*
X16726Y-14389D02*
X16341D01*
Y-14773D01*
X16726D01*
Y-14389D01*
D02*
G37*
G36*
X16241D02*
X15857D01*
Y-14773D01*
X16241D01*
Y-14389D01*
D02*
G37*
G36*
X27583Y-13906D02*
X26714D01*
Y-14775D01*
X27583D01*
Y-13906D01*
D02*
G37*
G36*
X26025Y-13935D02*
X25156D01*
Y-14805D01*
X26025D01*
Y-13935D01*
D02*
G37*
G36*
X36616Y-14243D02*
X35746D01*
Y-15112D01*
X36616D01*
Y-14243D01*
D02*
G37*
G36*
X25591Y-14932D02*
X25477Y-14947D01*
X25371Y-14990D01*
X25337Y-15017D01*
X25329Y-15020D01*
X25287Y-15051D01*
X25212Y-15103D01*
X25149Y-15140D01*
X25124Y-15152D01*
X25102Y-15161D01*
X25086Y-15166D01*
X25080Y-15168D01*
X25068D01*
X25067Y-15167D01*
X24990Y-15152D01*
X24886D01*
X24881Y-15151D01*
X24867Y-15147D01*
X24821Y-15126D01*
X24797Y-15113D01*
X24696Y-15048D01*
X24659Y-15020D01*
X24651Y-15017D01*
X24619Y-14992D01*
X24518Y-14950D01*
X24409Y-14936D01*
X24301Y-14950D01*
X24200Y-14992D01*
X24113Y-15058D01*
X24047Y-15145D01*
X24005Y-15246D01*
X24000Y-15286D01*
X23997Y-15293D01*
X23982Y-15385D01*
X23974Y-15421D01*
X23956Y-15486D01*
X23948Y-15510D01*
X23940Y-15529D01*
X23932Y-15544D01*
X23929Y-15548D01*
X23341Y-16136D01*
X19802D01*
X19796Y-16135D01*
X19780Y-16129D01*
X19758Y-16120D01*
X19735Y-16109D01*
X19594Y-16019D01*
X19553Y-15989D01*
X19545Y-15985D01*
X19511Y-15959D01*
X19405Y-15915D01*
X19291Y-15900D01*
X19178Y-15915D01*
X19072Y-15959D01*
X18981Y-16029D01*
X18912Y-16119D01*
X18868Y-16225D01*
X18853Y-16339D01*
X18868Y-16452D01*
X18912Y-16558D01*
X18981Y-16649D01*
X19072Y-16718D01*
X19178Y-16762D01*
X19291Y-16777D01*
X19405Y-16762D01*
X19511Y-16718D01*
X19545Y-16692D01*
X19553Y-16688D01*
X19595Y-16657D01*
X19660Y-16613D01*
X19692Y-16652D01*
X19509Y-16834D01*
X19504Y-16838D01*
X19489Y-16846D01*
X19467Y-16854D01*
X19443Y-16862D01*
X19279Y-16899D01*
X19229Y-16906D01*
X19220Y-16910D01*
X19178Y-16915D01*
X19072Y-16959D01*
X18981Y-17029D01*
X18912Y-17119D01*
X18868Y-17225D01*
X18853Y-17339D01*
X18868Y-17452D01*
X18912Y-17558D01*
X18981Y-17649D01*
X19072Y-17718D01*
X19178Y-17762D01*
X19291Y-17777D01*
X19405Y-17762D01*
X19511Y-17718D01*
X19601Y-17649D01*
X19671Y-17558D01*
X19715Y-17452D01*
X19720Y-17409D01*
X19723Y-17401D01*
X19731Y-17349D01*
X19748Y-17260D01*
X19767Y-17189D01*
X19776Y-17163D01*
X19784Y-17141D01*
X19792Y-17126D01*
X19795Y-17121D01*
X19954Y-16962D01*
X21008D01*
X21022Y-17006D01*
X21022D01*
Y-17876D01*
X21891D01*
Y-17653D01*
X21893Y-17652D01*
X21908Y-17648D01*
X21929Y-17645D01*
X21943Y-17643D01*
X22836D01*
X22913Y-17628D01*
X22979Y-17584D01*
X23038Y-17525D01*
X23145D01*
X23150Y-17526D01*
X23165Y-17531D01*
X23211Y-17551D01*
X23235Y-17564D01*
X23335Y-17629D01*
X23373Y-17657D01*
X23381Y-17661D01*
X23413Y-17685D01*
X23514Y-17727D01*
X23622Y-17741D01*
X23730Y-17727D01*
X23831Y-17685D01*
X23918Y-17619D01*
X23985Y-17532D01*
X24026Y-17431D01*
X24041Y-17323D01*
X24026Y-17215D01*
X23985Y-17114D01*
X23918Y-17027D01*
X23896Y-17010D01*
X23912Y-16962D01*
X26519D01*
X26685Y-17129D01*
X26688Y-17133D01*
X26695Y-17146D01*
X26713Y-17194D01*
X26721Y-17220D01*
X26746Y-17337D01*
X26753Y-17383D01*
X26756Y-17391D01*
X26761Y-17431D01*
X26803Y-17532D01*
X26869Y-17619D01*
X26956Y-17685D01*
X27057Y-17727D01*
X27165Y-17741D01*
X27274Y-17727D01*
X27375Y-17685D01*
X27461Y-17619D01*
X27528Y-17532D01*
X27570Y-17431D01*
X27584Y-17323D01*
X27570Y-17215D01*
X27528Y-17114D01*
X27461Y-17027D01*
X27375Y-16960D01*
X27274Y-16919D01*
X27234Y-16913D01*
X27226Y-16910D01*
X27135Y-16895D01*
X27099Y-16887D01*
X27034Y-16870D01*
X27010Y-16862D01*
X26990Y-16853D01*
X26976Y-16846D01*
X26971Y-16843D01*
X26746Y-16617D01*
X26680Y-16573D01*
X26603Y-16558D01*
X23544D01*
X23529Y-16508D01*
X23568Y-16482D01*
X24215Y-15834D01*
X24220Y-15832D01*
X24233Y-15825D01*
X24280Y-15807D01*
X24306Y-15799D01*
X24423Y-15774D01*
X24469Y-15767D01*
X24478Y-15764D01*
X24518Y-15759D01*
X24619Y-15717D01*
X24650Y-15693D01*
X24658Y-15689D01*
X24733Y-15635D01*
X24764Y-15615D01*
X24823Y-15581D01*
X24845Y-15571D01*
X24865Y-15563D01*
X24881Y-15558D01*
X24886Y-15557D01*
X24928D01*
X24928Y-15557D01*
X25006Y-15572D01*
X25080D01*
X25086Y-15574D01*
X25102Y-15579D01*
X25124Y-15588D01*
X25147Y-15600D01*
X25288Y-15690D01*
X25329Y-15720D01*
X25337Y-15724D01*
X25371Y-15750D01*
X25477Y-15794D01*
X25591Y-15808D01*
X25704Y-15794D01*
X25810Y-15750D01*
X25901Y-15680D01*
X25970Y-15589D01*
X26014Y-15484D01*
X26029Y-15370D01*
X26014Y-15257D01*
X25970Y-15151D01*
X25901Y-15060D01*
X25810Y-14990D01*
X25704Y-14947D01*
X25591Y-14932D01*
D02*
G37*
G36*
X19341Y-14907D02*
Y-15289D01*
X19723D01*
X19715Y-15225D01*
X19671Y-15119D01*
X19601Y-15029D01*
X19511Y-14959D01*
X19405Y-14915D01*
X19341Y-14907D01*
D02*
G37*
G36*
X16241D02*
X16178Y-14915D01*
X16072Y-14959D01*
X15981Y-15029D01*
X15912Y-15119D01*
X15868Y-15225D01*
X15860Y-15289D01*
X16241D01*
Y-14907D01*
D02*
G37*
G36*
X19723Y-15389D02*
X19341D01*
Y-15770D01*
X19405Y-15762D01*
X19511Y-15718D01*
X19601Y-15649D01*
X19671Y-15558D01*
X19715Y-15452D01*
X19723Y-15389D01*
D02*
G37*
G36*
X16341Y-14907D02*
Y-15339D01*
Y-15770D01*
X16405Y-15762D01*
X16511Y-15718D01*
X16541Y-15695D01*
X16545Y-15693D01*
X16548Y-15692D01*
X16549Y-15691D01*
X16556Y-15689D01*
X16569Y-15686D01*
X16583Y-15684D01*
X16685Y-15678D01*
X18906D01*
X18950Y-15679D01*
X18998Y-15684D01*
X19014Y-15686D01*
X19026Y-15689D01*
X19034Y-15691D01*
X19035Y-15692D01*
X19038Y-15693D01*
X19042Y-15695D01*
X19072Y-15718D01*
X19178Y-15762D01*
X19241Y-15770D01*
Y-15339D01*
Y-14907D01*
X19178Y-14915D01*
X19072Y-14959D01*
X19042Y-14982D01*
X19038Y-14984D01*
X19035Y-14986D01*
X19034Y-14986D01*
X19026Y-14988D01*
X19014Y-14991D01*
X18999Y-14993D01*
X18898Y-14999D01*
X16677D01*
X16633Y-14998D01*
X16585Y-14993D01*
X16569Y-14991D01*
X16556Y-14988D01*
X16549Y-14986D01*
X16548Y-14986D01*
X16545Y-14984D01*
X16541Y-14982D01*
X16511Y-14959D01*
X16405Y-14915D01*
X16341Y-14907D01*
D02*
G37*
G36*
X16241Y-15389D02*
X15860D01*
X15868Y-15452D01*
X15912Y-15558D01*
X15981Y-15649D01*
X16072Y-15718D01*
X16178Y-15762D01*
X16241Y-15770D01*
Y-15389D01*
D02*
G37*
G36*
X27149Y-14902D02*
X27035Y-14917D01*
X26929Y-14961D01*
X26839Y-15030D01*
X26769Y-15121D01*
X26725Y-15227D01*
X26710Y-15340D01*
X26725Y-15454D01*
X26769Y-15560D01*
X26839Y-15650D01*
X26929Y-15720D01*
X27035Y-15764D01*
X27149Y-15779D01*
X27262Y-15764D01*
X27368Y-15720D01*
X27459Y-15650D01*
X27528Y-15560D01*
X27572Y-15454D01*
X27587Y-15340D01*
X27572Y-15227D01*
X27528Y-15121D01*
X27459Y-15030D01*
X27368Y-14961D01*
X27262Y-14917D01*
X27149Y-14902D01*
D02*
G37*
G36*
X36181Y-15239D02*
X36068Y-15254D01*
X35962Y-15297D01*
X35871Y-15367D01*
X35801Y-15458D01*
X35758Y-15564D01*
X35743Y-15677D01*
X35758Y-15791D01*
X35801Y-15896D01*
X35871Y-15987D01*
X35962Y-16057D01*
X36068Y-16101D01*
X36181Y-16116D01*
X36295Y-16101D01*
X36400Y-16057D01*
X36491Y-15987D01*
X36561Y-15896D01*
X36605Y-15791D01*
X36620Y-15677D01*
X36605Y-15564D01*
X36561Y-15458D01*
X36491Y-15367D01*
X36400Y-15297D01*
X36295Y-15254D01*
X36181Y-15239D01*
D02*
G37*
G36*
X16341Y-15907D02*
Y-16289D01*
X16723D01*
X16715Y-16225D01*
X16671Y-16119D01*
X16601Y-16029D01*
X16511Y-15959D01*
X16405Y-15915D01*
X16341Y-15907D01*
D02*
G37*
G36*
X16241D02*
X16178Y-15915D01*
X16072Y-15959D01*
X15981Y-16029D01*
X15912Y-16119D01*
X15868Y-16225D01*
X15860Y-16289D01*
X16241D01*
Y-15907D01*
D02*
G37*
G36*
X5512Y-15766D02*
X5398Y-15781D01*
X5293Y-15825D01*
X5202Y-15895D01*
X5132Y-15986D01*
X5088Y-16091D01*
X5073Y-16205D01*
X5088Y-16318D01*
X5132Y-16424D01*
X5202Y-16515D01*
X5293Y-16584D01*
X5398Y-16628D01*
X5512Y-16643D01*
X5625Y-16628D01*
X5731Y-16584D01*
X5765Y-16558D01*
X5773Y-16554D01*
X5815Y-16523D01*
X5891Y-16472D01*
X5954Y-16435D01*
X5979Y-16423D01*
X6000Y-16414D01*
X6017Y-16408D01*
X6022Y-16407D01*
X9624D01*
X9626Y-16407D01*
X9642Y-16410D01*
X9657Y-16413D01*
X9694Y-16425D01*
X9711Y-16432D01*
X9753Y-16453D01*
X9770Y-16462D01*
X9776Y-16467D01*
X9861Y-16502D01*
X9952Y-16514D01*
X10044Y-16502D01*
X10129Y-16467D01*
X10202Y-16411D01*
X10258Y-16338D01*
X10293Y-16252D01*
X10305Y-16161D01*
X10293Y-16070D01*
X10258Y-15984D01*
X10202Y-15911D01*
X10129Y-15855D01*
X10044Y-15820D01*
X9952Y-15808D01*
X9861Y-15820D01*
X9776Y-15855D01*
X9715Y-15902D01*
X9713Y-15903D01*
X9709Y-15906D01*
X9703Y-15911D01*
X9700Y-15914D01*
X9688Y-15926D01*
X9643Y-15962D01*
X9624Y-15975D01*
X9607Y-15986D01*
X9592Y-15994D01*
X9579Y-15999D01*
X9569Y-16002D01*
X9569Y-16002D01*
X6022D01*
X6017Y-16001D01*
X6000Y-15996D01*
X5979Y-15987D01*
X5956Y-15975D01*
X5814Y-15885D01*
X5773Y-15855D01*
X5765Y-15851D01*
X5731Y-15825D01*
X5625Y-15781D01*
X5512Y-15766D01*
D02*
G37*
G36*
X16723Y-16389D02*
X16341D01*
Y-16770D01*
X16405Y-16762D01*
X16511Y-16718D01*
X16601Y-16649D01*
X16671Y-16558D01*
X16715Y-16452D01*
X16723Y-16389D01*
D02*
G37*
G36*
X16241D02*
X15860D01*
X15868Y-16452D01*
X15912Y-16558D01*
X15981Y-16649D01*
X16072Y-16718D01*
X16178Y-16762D01*
X16241Y-16770D01*
Y-16389D01*
D02*
G37*
G36*
Y-16907D02*
X16178Y-16915D01*
X16072Y-16959D01*
X16042Y-16982D01*
X16038Y-16984D01*
X16035Y-16986D01*
X16034Y-16986D01*
X16026Y-16988D01*
X16014Y-16991D01*
X15999Y-16993D01*
X15898Y-16999D01*
X13370D01*
X13370Y-16999D01*
X13326Y-17005D01*
X13282Y-17011D01*
X13201Y-17045D01*
X13130Y-17099D01*
X13130Y-17099D01*
X11489Y-18740D01*
X11425Y-18766D01*
X11346Y-18827D01*
X11286Y-18905D01*
X11248Y-18996D01*
X11242Y-19044D01*
X11614D01*
Y-19094D01*
X11664D01*
Y-19467D01*
X11712Y-19460D01*
X11804Y-19423D01*
X11882Y-19362D01*
X11942Y-19284D01*
X11969Y-19219D01*
X12199Y-18989D01*
X12246Y-19013D01*
X12235Y-19094D01*
X12248Y-19193D01*
X12286Y-19284D01*
X12346Y-19362D01*
X12425Y-19423D01*
X12516Y-19460D01*
X12614Y-19473D01*
X12712Y-19460D01*
X12804Y-19423D01*
X12882Y-19362D01*
X12942Y-19284D01*
X12980Y-19193D01*
X12984Y-19162D01*
X12985Y-19161D01*
X12985Y-19160D01*
X12987Y-19157D01*
X12990Y-19152D01*
X13056Y-19076D01*
X13392Y-18740D01*
X20997D01*
X21045Y-18742D01*
X21069Y-18745D01*
X21093Y-18749D01*
X21115Y-18754D01*
X21135Y-18760D01*
X21153Y-18767D01*
X21168Y-18774D01*
X21182Y-18782D01*
X21198Y-18793D01*
X21205Y-18796D01*
X21237Y-18821D01*
X21343Y-18864D01*
X21457Y-18879D01*
X21570Y-18864D01*
X21676Y-18821D01*
X21767Y-18751D01*
X21836Y-18660D01*
X21880Y-18554D01*
X21895Y-18441D01*
X21880Y-18327D01*
X21836Y-18222D01*
X21767Y-18131D01*
X21676Y-18061D01*
X21570Y-18017D01*
X21457Y-18003D01*
X21343Y-18017D01*
X21237Y-18061D01*
X21205Y-18086D01*
X21198Y-18089D01*
X21182Y-18100D01*
X21168Y-18108D01*
X21153Y-18115D01*
X21135Y-18122D01*
X21115Y-18128D01*
X21093Y-18133D01*
X21071Y-18137D01*
X21014Y-18142D01*
X21014Y-18142D01*
X13268D01*
X13190Y-18152D01*
X13148Y-18169D01*
X13118Y-18182D01*
X13056Y-18229D01*
X12640Y-18646D01*
X12599Y-18685D01*
X12577Y-18703D01*
X12556Y-18703D01*
X12541Y-18678D01*
X12538Y-18652D01*
X12538Y-18650D01*
X13511Y-17678D01*
X15906D01*
X15950Y-17679D01*
X15998Y-17684D01*
X16014Y-17686D01*
X16026Y-17689D01*
X16034Y-17691D01*
X16035Y-17692D01*
X16038Y-17693D01*
X16042Y-17695D01*
X16072Y-17718D01*
X16178Y-17762D01*
X16241Y-17770D01*
Y-17339D01*
Y-16907D01*
D02*
G37*
G36*
X36181Y-16239D02*
X36068Y-16254D01*
X35962Y-16298D01*
X35871Y-16367D01*
X35801Y-16458D01*
X35758Y-16564D01*
X35743Y-16677D01*
X35758Y-16791D01*
X35801Y-16896D01*
X35871Y-16987D01*
X35962Y-17057D01*
X36068Y-17101D01*
X36181Y-17116D01*
X36295Y-17101D01*
X36400Y-17057D01*
X36491Y-16987D01*
X36561Y-16896D01*
X36605Y-16791D01*
X36620Y-16677D01*
X36605Y-16564D01*
X36561Y-16458D01*
X36491Y-16367D01*
X36400Y-16298D01*
X36295Y-16254D01*
X36181Y-16239D01*
D02*
G37*
G36*
X16341Y-16907D02*
Y-17289D01*
X16723D01*
X16715Y-17225D01*
X16671Y-17119D01*
X16601Y-17029D01*
X16511Y-16959D01*
X16405Y-16915D01*
X16341Y-16907D01*
D02*
G37*
G36*
X16723Y-17389D02*
X16341D01*
Y-17770D01*
X16405Y-17762D01*
X16511Y-17718D01*
X16601Y-17649D01*
X16671Y-17558D01*
X16715Y-17452D01*
X16723Y-17389D01*
D02*
G37*
G36*
X11564Y-19144D02*
X11242D01*
X11248Y-19193D01*
X11286Y-19284D01*
X11346Y-19362D01*
X11425Y-19423D01*
X11516Y-19460D01*
X11564Y-19467D01*
Y-19144D01*
D02*
G37*
G36*
X36181Y-19239D02*
X36068Y-19254D01*
X35962Y-19297D01*
X35871Y-19367D01*
X35801Y-19458D01*
X35758Y-19564D01*
X35743Y-19677D01*
X35758Y-19791D01*
X35801Y-19896D01*
X35871Y-19987D01*
X35962Y-20057D01*
X36068Y-20101D01*
X36181Y-20116D01*
X36295Y-20101D01*
X36400Y-20057D01*
X36491Y-19987D01*
X36561Y-19896D01*
X36605Y-19791D01*
X36620Y-19677D01*
X36605Y-19564D01*
X36561Y-19458D01*
X36491Y-19367D01*
X36400Y-19297D01*
X36295Y-19254D01*
X36181Y-19239D01*
D02*
G37*
G36*
X11656Y-19923D02*
Y-20304D01*
X12038D01*
X12030Y-20241D01*
X11986Y-20135D01*
X11916Y-20044D01*
X11825Y-19975D01*
X11720Y-19931D01*
X11656Y-19923D01*
D02*
G37*
G36*
X37373Y-12148D02*
Y-12480D01*
X37323D01*
Y-12530D01*
X36990D01*
X36995Y-12568D01*
X37009Y-12602D01*
X37029Y-12650D01*
X37083Y-12720D01*
X37850Y-13487D01*
Y-19529D01*
X36662Y-20717D01*
X36617Y-20694D01*
X36620Y-20677D01*
X36605Y-20564D01*
X36561Y-20458D01*
X36491Y-20367D01*
X36400Y-20298D01*
X36295Y-20254D01*
X36181Y-20239D01*
X36068Y-20254D01*
X35962Y-20298D01*
X35871Y-20367D01*
X35801Y-20458D01*
X35758Y-20564D01*
X35743Y-20677D01*
X35758Y-20791D01*
X35801Y-20896D01*
X35871Y-20987D01*
X35962Y-21057D01*
X36068Y-21101D01*
X36181Y-21116D01*
X36198Y-21113D01*
X36221Y-21158D01*
X36214Y-21165D01*
X36181Y-21195D01*
X36145Y-21225D01*
X36131Y-21235D01*
X36121Y-21242D01*
X36114Y-21246D01*
X36113Y-21246D01*
X36109Y-21247D01*
X36106Y-21249D01*
X36068Y-21254D01*
X35962Y-21298D01*
X35871Y-21367D01*
X35801Y-21458D01*
X35758Y-21564D01*
X35753Y-21602D01*
X35751Y-21606D01*
X35750Y-21609D01*
X35750Y-21610D01*
X35746Y-21617D01*
X35739Y-21627D01*
X35730Y-21639D01*
X35663Y-21716D01*
X35525Y-21853D01*
X31152D01*
X31107Y-21852D01*
X31060Y-21847D01*
X31044Y-21845D01*
X31031Y-21842D01*
X31024Y-21840D01*
X31023Y-21840D01*
X31020Y-21838D01*
X31016Y-21836D01*
X30985Y-21813D01*
X30880Y-21769D01*
X30816Y-21761D01*
Y-22193D01*
Y-22624D01*
X30880Y-22616D01*
X30985Y-22572D01*
X31016Y-22549D01*
X31020Y-22547D01*
X31023Y-22546D01*
X31024Y-22545D01*
X31031Y-22543D01*
X31044Y-22540D01*
X31058Y-22538D01*
X31160Y-22532D01*
X35666D01*
X35753Y-22520D01*
X35787Y-22506D01*
X35835Y-22486D01*
X35905Y-22432D01*
X36148Y-22190D01*
X36181Y-22159D01*
X36218Y-22129D01*
X36231Y-22119D01*
X36242Y-22112D01*
X36248Y-22109D01*
X36249Y-22108D01*
X36253Y-22107D01*
X36257Y-22106D01*
X36295Y-22101D01*
X36400Y-22057D01*
X36491Y-21987D01*
X36561Y-21896D01*
X36605Y-21791D01*
X36610Y-21753D01*
X36611Y-21749D01*
X36612Y-21745D01*
X36613Y-21744D01*
X36616Y-21738D01*
X36623Y-21727D01*
X36632Y-21715D01*
X36699Y-21639D01*
X38429Y-19909D01*
X38429Y-19909D01*
X38483Y-19839D01*
X38517Y-19757D01*
X38528Y-19669D01*
Y-13346D01*
X38517Y-13259D01*
X38483Y-13177D01*
X38429Y-13107D01*
X37563Y-12241D01*
X37492Y-12187D01*
X37444Y-12167D01*
X37411Y-12153D01*
X37373Y-12148D01*
D02*
G37*
G36*
X12606Y-19916D02*
X12493Y-19931D01*
X12387Y-19975D01*
X12296Y-20044D01*
X12227Y-20135D01*
X12183Y-20241D01*
X12168Y-20354D01*
X12183Y-20468D01*
X12227Y-20574D01*
X12296Y-20664D01*
X12387Y-20734D01*
X12493Y-20778D01*
X12606Y-20793D01*
X12720Y-20778D01*
X12825Y-20734D01*
X12916Y-20664D01*
X12986Y-20574D01*
X13030Y-20468D01*
X13045Y-20354D01*
X13030Y-20241D01*
X12986Y-20135D01*
X12916Y-20044D01*
X12825Y-19975D01*
X12720Y-19931D01*
X12606Y-19916D01*
D02*
G37*
G36*
X7545Y-20589D02*
X6676D01*
Y-20812D01*
X6674Y-20813D01*
X6659Y-20817D01*
X6638Y-20820D01*
X6624Y-20821D01*
X5624D01*
X5546Y-20837D01*
X5534Y-20845D01*
X4628D01*
X4622Y-20844D01*
X4605Y-20838D01*
X4584Y-20829D01*
X4561Y-20818D01*
X4419Y-20728D01*
X4378Y-20697D01*
X4370Y-20694D01*
X4336Y-20668D01*
X4230Y-20624D01*
X4117Y-20609D01*
X4003Y-20624D01*
X3898Y-20668D01*
X3807Y-20737D01*
X3737Y-20828D01*
X3693Y-20934D01*
X3679Y-21047D01*
X3693Y-21161D01*
X3737Y-21266D01*
X3807Y-21357D01*
X3898Y-21427D01*
X4003Y-21471D01*
X4117Y-21486D01*
X4230Y-21471D01*
X4336Y-21427D01*
X4370Y-21401D01*
X4378Y-21397D01*
X4421Y-21366D01*
X4496Y-21315D01*
X4559Y-21278D01*
X4584Y-21265D01*
X4605Y-21256D01*
X4622Y-21251D01*
X4628Y-21250D01*
X5600D01*
X5677Y-21234D01*
X5690Y-21226D01*
X6624D01*
X6638Y-21227D01*
X6659Y-21231D01*
X6674Y-21235D01*
X6676Y-21235D01*
Y-21458D01*
X7545D01*
Y-20589D01*
D02*
G37*
G36*
X8110Y-20585D02*
X7997Y-20600D01*
X7891Y-20644D01*
X7800Y-20714D01*
X7731Y-20804D01*
X7687Y-20910D01*
X7672Y-21024D01*
X7687Y-21137D01*
X7731Y-21243D01*
X7800Y-21334D01*
X7891Y-21403D01*
X7997Y-21447D01*
X8110Y-21462D01*
X8224Y-21447D01*
X8329Y-21403D01*
X8420Y-21334D01*
X8490Y-21243D01*
X8534Y-21137D01*
X8549Y-21024D01*
X8534Y-20910D01*
X8490Y-20804D01*
X8420Y-20714D01*
X8329Y-20644D01*
X8224Y-20600D01*
X8110Y-20585D01*
D02*
G37*
G36*
X11556Y-19923D02*
X11493Y-19931D01*
X11387Y-19975D01*
X11296Y-20044D01*
X11227Y-20135D01*
X11183Y-20241D01*
X11178Y-20279D01*
X11176Y-20283D01*
X11175Y-20286D01*
X11175Y-20287D01*
X11171Y-20294D01*
X11164Y-20305D01*
X11155Y-20317D01*
X11088Y-20393D01*
X9773Y-21708D01*
X4503D01*
X4458Y-21706D01*
X4411Y-21702D01*
X4394Y-21699D01*
X4382Y-21697D01*
X4375Y-21695D01*
X4374Y-21694D01*
X4371Y-21692D01*
X4367Y-21691D01*
X4336Y-21668D01*
X4230Y-21624D01*
X4167Y-21615D01*
Y-22047D01*
Y-22479D01*
X4230Y-22471D01*
X4336Y-22427D01*
X4367Y-22404D01*
X4371Y-22402D01*
X4374Y-22400D01*
X4375Y-22400D01*
X4382Y-22398D01*
X4394Y-22395D01*
X4409Y-22393D01*
X4511Y-22386D01*
X9913D01*
X10001Y-22375D01*
X10083Y-22341D01*
X10153Y-22287D01*
X11573Y-20867D01*
X11606Y-20837D01*
X11643Y-20806D01*
X11656Y-20796D01*
X11667Y-20789D01*
X11673Y-20786D01*
X11674Y-20786D01*
X11678Y-20785D01*
X11682Y-20783D01*
X11720Y-20778D01*
X11825Y-20734D01*
X11916Y-20664D01*
X11986Y-20574D01*
X12030Y-20468D01*
X12038Y-20404D01*
X11606D01*
Y-20354D01*
X11556D01*
Y-19923D01*
D02*
G37*
G36*
X30716Y-21761D02*
X30653Y-21769D01*
X30547Y-21813D01*
X30478Y-21866D01*
X30312Y-21873D01*
X28458D01*
X28414Y-21872D01*
X28366Y-21867D01*
X28350Y-21865D01*
X28337Y-21862D01*
X28330Y-21860D01*
X28329Y-21860D01*
X28326Y-21858D01*
X28322Y-21856D01*
X28292Y-21833D01*
X28186Y-21789D01*
X28122Y-21781D01*
Y-22213D01*
Y-22644D01*
X28186Y-22636D01*
X28292Y-22592D01*
X28322Y-22569D01*
X28326Y-22567D01*
X28329Y-22566D01*
X28330Y-22565D01*
X28337Y-22563D01*
X28350Y-22560D01*
X28365Y-22558D01*
X28466Y-22552D01*
X30320D01*
X30328Y-22551D01*
X30335Y-22551D01*
X30510Y-22544D01*
X30547Y-22572D01*
X30653Y-22616D01*
X30716Y-22624D01*
Y-22193D01*
Y-21761D01*
D02*
G37*
G36*
X23707D02*
X23643Y-21769D01*
X23537Y-21813D01*
X23507Y-21836D01*
X23503Y-21838D01*
X23500Y-21840D01*
X23499Y-21840D01*
X23492Y-21842D01*
X23479Y-21845D01*
X23465Y-21847D01*
X23363Y-21853D01*
X22410D01*
X22322Y-21865D01*
X22302Y-21873D01*
X21449D01*
X21404Y-21872D01*
X21357Y-21867D01*
X21340Y-21865D01*
X21328Y-21862D01*
X21321Y-21860D01*
X21320Y-21860D01*
X21317Y-21858D01*
X21313Y-21856D01*
X21282Y-21833D01*
X21176Y-21789D01*
X21113Y-21781D01*
Y-22213D01*
Y-22644D01*
X21176Y-22636D01*
X21282Y-22592D01*
X21313Y-22569D01*
X21317Y-22567D01*
X21320Y-22566D01*
X21321Y-22565D01*
X21328Y-22563D01*
X21340Y-22560D01*
X21355Y-22558D01*
X21457Y-22552D01*
X22390D01*
X22478Y-22540D01*
X22498Y-22532D01*
X23371D01*
X23415Y-22533D01*
X23463Y-22538D01*
X23479Y-22540D01*
X23492Y-22543D01*
X23499Y-22545D01*
X23500Y-22546D01*
X23503Y-22547D01*
X23507Y-22549D01*
X23537Y-22572D01*
X23643Y-22616D01*
X23707Y-22624D01*
Y-22193D01*
Y-21761D01*
D02*
G37*
G36*
X4067Y-21615D02*
X4003Y-21624D01*
X3898Y-21668D01*
X3807Y-21737D01*
X3737Y-21828D01*
X3693Y-21934D01*
X3685Y-21997D01*
X4067D01*
Y-21615D01*
D02*
G37*
G36*
X21013Y-21781D02*
X20950Y-21789D01*
X20844Y-21833D01*
X20753Y-21903D01*
X20683Y-21993D01*
X20640Y-22099D01*
X20631Y-22163D01*
X21013D01*
Y-21781D01*
D02*
G37*
G36*
X11220Y-21497D02*
X11129Y-21509D01*
X11044Y-21545D01*
X10971Y-21601D01*
X10915Y-21674D01*
X10879Y-21759D01*
X10867Y-21850D01*
X10879Y-21942D01*
X10915Y-22027D01*
X10971Y-22100D01*
X11044Y-22156D01*
X11129Y-22191D01*
X11220Y-22203D01*
X11312Y-22191D01*
X11397Y-22156D01*
X11423Y-22136D01*
X11430Y-22133D01*
X11455Y-22115D01*
X11500Y-22086D01*
X11519Y-22076D01*
X11537Y-22068D01*
X11553Y-22061D01*
X11568Y-22056D01*
X11580Y-22053D01*
X11583Y-22053D01*
X16677D01*
X17024Y-22400D01*
X16992Y-22439D01*
X16966Y-22421D01*
X16888Y-22406D01*
X12277D01*
X12275Y-22406D01*
X12262Y-22403D01*
X12247Y-22398D01*
X12231Y-22391D01*
X12213Y-22383D01*
X12194Y-22372D01*
X12149Y-22343D01*
X12124Y-22326D01*
X12117Y-22322D01*
X12091Y-22303D01*
X12006Y-22267D01*
X11915Y-22255D01*
X11823Y-22267D01*
X11738Y-22303D01*
X11665Y-22359D01*
X11609Y-22432D01*
X11574Y-22517D01*
X11561Y-22608D01*
X11574Y-22700D01*
X11609Y-22785D01*
X11665Y-22858D01*
X11738Y-22914D01*
X11823Y-22949D01*
X11915Y-22961D01*
X12006Y-22949D01*
X12091Y-22914D01*
X12117Y-22894D01*
X12124Y-22891D01*
X12149Y-22873D01*
X12194Y-22844D01*
X12213Y-22834D01*
X12231Y-22825D01*
X12247Y-22819D01*
X12262Y-22814D01*
X12275Y-22811D01*
X12277Y-22811D01*
X16805D01*
X16979Y-22985D01*
X16954Y-23031D01*
X16929Y-23026D01*
X10205D01*
X10203Y-23026D01*
X10190Y-23023D01*
X10175Y-23018D01*
X10159Y-23011D01*
X10141Y-23003D01*
X10122Y-22992D01*
X10077Y-22963D01*
X10052Y-22946D01*
X10045Y-22942D01*
X10019Y-22923D01*
X9934Y-22887D01*
X9843Y-22875D01*
X9751Y-22887D01*
X9666Y-22923D01*
X9593Y-22979D01*
X9537Y-23052D01*
X9502Y-23137D01*
X9489Y-23228D01*
X9502Y-23320D01*
X9537Y-23405D01*
X9593Y-23478D01*
X9666Y-23534D01*
X9751Y-23569D01*
X9843Y-23581D01*
X9934Y-23569D01*
X10019Y-23534D01*
X10045Y-23514D01*
X10052Y-23511D01*
X10077Y-23493D01*
X10122Y-23464D01*
X10141Y-23454D01*
X10159Y-23445D01*
X10175Y-23439D01*
X10190Y-23434D01*
X10203Y-23431D01*
X10205Y-23431D01*
X16845D01*
X19148Y-25734D01*
X19214Y-25777D01*
X19291Y-25793D01*
X33184D01*
X35615Y-28224D01*
X35619Y-28229D01*
X35645Y-28271D01*
X35656Y-28293D01*
X35711Y-28434D01*
X35717Y-28453D01*
X35718Y-28460D01*
X35724Y-28475D01*
X35725Y-28476D01*
X35725Y-28477D01*
X35762Y-28566D01*
X35832Y-28656D01*
X35923Y-28726D01*
X36028Y-28770D01*
X36142Y-28785D01*
X36255Y-28770D01*
X36361Y-28726D01*
X36452Y-28656D01*
X36521Y-28566D01*
X36565Y-28460D01*
X36580Y-28346D01*
X36565Y-28233D01*
X36521Y-28127D01*
X36452Y-28036D01*
X36361Y-27967D01*
X36255Y-27923D01*
X36142Y-27908D01*
X36128Y-27910D01*
X36028Y-27909D01*
X35942Y-27904D01*
X35909Y-27900D01*
X35882Y-27895D01*
X35861Y-27890D01*
X35848Y-27885D01*
X33412Y-25449D01*
X33413Y-25442D01*
X33428Y-25399D01*
X33908D01*
X35638Y-27128D01*
X35641Y-27133D01*
X35649Y-27149D01*
X35657Y-27171D01*
X35666Y-27195D01*
X35702Y-27359D01*
X35710Y-27409D01*
X35713Y-27417D01*
X35718Y-27460D01*
X35762Y-27566D01*
X35832Y-27656D01*
X35923Y-27726D01*
X36028Y-27770D01*
X36142Y-27785D01*
X36255Y-27770D01*
X36361Y-27726D01*
X36452Y-27656D01*
X36521Y-27566D01*
X36565Y-27460D01*
X36580Y-27346D01*
X36565Y-27233D01*
X36521Y-27127D01*
X36452Y-27036D01*
X36361Y-26967D01*
X36255Y-26923D01*
X36213Y-26917D01*
X36204Y-26914D01*
X36152Y-26906D01*
X36063Y-26889D01*
X35992Y-26871D01*
X35966Y-26862D01*
X35944Y-26853D01*
X35929Y-26846D01*
X35924Y-26842D01*
X34137Y-25055D01*
X34137Y-25048D01*
X34153Y-25005D01*
X34515D01*
X35638Y-26128D01*
X35641Y-26133D01*
X35649Y-26149D01*
X35657Y-26171D01*
X35666Y-26195D01*
X35702Y-26359D01*
X35710Y-26409D01*
X35713Y-26417D01*
X35718Y-26460D01*
X35762Y-26566D01*
X35832Y-26656D01*
X35923Y-26726D01*
X36028Y-26770D01*
X36142Y-26785D01*
X36255Y-26770D01*
X36361Y-26726D01*
X36452Y-26656D01*
X36521Y-26566D01*
X36565Y-26460D01*
X36580Y-26346D01*
X36565Y-26233D01*
X36521Y-26127D01*
X36452Y-26036D01*
X36361Y-25967D01*
X36255Y-25923D01*
X36213Y-25917D01*
X36204Y-25914D01*
X36152Y-25906D01*
X36063Y-25889D01*
X35992Y-25871D01*
X35966Y-25862D01*
X35944Y-25853D01*
X35929Y-25846D01*
X35924Y-25842D01*
X34741Y-24660D01*
X34676Y-24616D01*
X34598Y-24601D01*
X19797D01*
X16903Y-21707D01*
X16838Y-21663D01*
X16760Y-21648D01*
X11583D01*
X11580Y-21648D01*
X11568Y-21645D01*
X11553Y-21640D01*
X11537Y-21633D01*
X11519Y-21625D01*
X11500Y-21614D01*
X11455Y-21585D01*
X11430Y-21568D01*
X11423Y-21564D01*
X11397Y-21545D01*
X11312Y-21509D01*
X11220Y-21497D01*
D02*
G37*
G36*
X4067Y-22097D02*
X3685D01*
X3693Y-22161D01*
X3737Y-22266D01*
X3807Y-22357D01*
X3898Y-22427D01*
X4003Y-22471D01*
X4067Y-22479D01*
Y-22097D01*
D02*
G37*
G36*
X21013Y-22263D02*
X20631D01*
X20640Y-22326D01*
X20683Y-22432D01*
X20753Y-22523D01*
X20844Y-22592D01*
X20950Y-22636D01*
X21013Y-22644D01*
Y-22263D01*
D02*
G37*
G36*
X23807Y-21761D02*
Y-22193D01*
Y-22624D01*
X23870Y-22616D01*
X23976Y-22572D01*
X24006Y-22549D01*
X24010Y-22547D01*
X24014Y-22546D01*
X24014Y-22545D01*
X24022Y-22543D01*
X24034Y-22540D01*
X24049Y-22538D01*
X24150Y-22532D01*
X25812D01*
X25832Y-22540D01*
X25920Y-22552D01*
X27687D01*
X27731Y-22553D01*
X27779Y-22558D01*
X27795Y-22560D01*
X27808Y-22563D01*
X27815Y-22565D01*
X27816Y-22566D01*
X27819Y-22567D01*
X27823Y-22569D01*
X27853Y-22592D01*
X27959Y-22636D01*
X28022Y-22644D01*
Y-22213D01*
Y-21781D01*
X27959Y-21789D01*
X27853Y-21833D01*
X27823Y-21856D01*
X27819Y-21858D01*
X27816Y-21860D01*
X27815Y-21860D01*
X27808Y-21862D01*
X27795Y-21865D01*
X27780Y-21867D01*
X27679Y-21873D01*
X26008D01*
X25988Y-21865D01*
X25900Y-21853D01*
X24143D01*
X24098Y-21852D01*
X24050Y-21847D01*
X24034Y-21845D01*
X24022Y-21842D01*
X24014Y-21840D01*
X24014Y-21840D01*
X24010Y-21838D01*
X24006Y-21836D01*
X23976Y-21813D01*
X23870Y-21769D01*
X23807Y-21761D01*
D02*
G37*
G36*
X4552Y-22613D02*
X3682D01*
Y-23482D01*
X4552D01*
Y-23282D01*
X4553Y-23282D01*
X4568Y-23278D01*
X4589Y-23274D01*
X4603Y-23273D01*
X6624D01*
X6638Y-23274D01*
X6659Y-23278D01*
X6674Y-23282D01*
X6676Y-23282D01*
Y-23505D01*
X7545D01*
Y-22636D01*
X6676D01*
Y-22859D01*
X6674Y-22860D01*
X6659Y-22864D01*
X6638Y-22867D01*
X6624Y-22869D01*
X4603D01*
X4589Y-22867D01*
X4568Y-22864D01*
X4553Y-22860D01*
X4552Y-22859D01*
Y-22613D01*
D02*
G37*
G36*
X8110Y-22632D02*
X7997Y-22647D01*
X7891Y-22691D01*
X7800Y-22761D01*
X7731Y-22852D01*
X7687Y-22957D01*
X7672Y-23071D01*
X7687Y-23184D01*
X7731Y-23290D01*
X7800Y-23381D01*
X7891Y-23451D01*
X7997Y-23494D01*
X8110Y-23509D01*
X8224Y-23494D01*
X8329Y-23451D01*
X8420Y-23381D01*
X8490Y-23290D01*
X8534Y-23184D01*
X8549Y-23071D01*
X8534Y-22957D01*
X8490Y-22852D01*
X8420Y-22761D01*
X8329Y-22691D01*
X8224Y-22647D01*
X8110Y-22632D01*
D02*
G37*
G36*
X30776Y-23484D02*
X30663Y-23499D01*
X30557Y-23543D01*
X30523Y-23569D01*
X30515Y-23573D01*
X30473Y-23604D01*
X30397Y-23655D01*
X30334Y-23692D01*
X30309Y-23704D01*
X30288Y-23713D01*
X30271Y-23719D01*
X30266Y-23720D01*
X28583D01*
X28577Y-23719D01*
X28561Y-23713D01*
X28539Y-23704D01*
X28516Y-23693D01*
X28375Y-23603D01*
X28334Y-23573D01*
X28326Y-23569D01*
X28292Y-23543D01*
X28186Y-23499D01*
X28073Y-23484D01*
X27959Y-23499D01*
X27853Y-23543D01*
X27763Y-23613D01*
X27693Y-23703D01*
X27649Y-23809D01*
X27634Y-23923D01*
X27649Y-24036D01*
X27693Y-24142D01*
X27763Y-24233D01*
X27853Y-24302D01*
X27959Y-24346D01*
X28073Y-24361D01*
X28186Y-24346D01*
X28292Y-24302D01*
X28326Y-24276D01*
X28334Y-24272D01*
X28376Y-24241D01*
X28451Y-24190D01*
X28515Y-24153D01*
X28539Y-24141D01*
X28561Y-24132D01*
X28577Y-24126D01*
X28583Y-24125D01*
X30266D01*
X30271Y-24126D01*
X30288Y-24132D01*
X30309Y-24141D01*
X30333Y-24152D01*
X30474Y-24242D01*
X30515Y-24272D01*
X30523Y-24276D01*
X30557Y-24302D01*
X30663Y-24346D01*
X30776Y-24361D01*
X30890Y-24346D01*
X30995Y-24302D01*
X31086Y-24233D01*
X31156Y-24142D01*
X31200Y-24036D01*
X31215Y-23923D01*
X31200Y-23809D01*
X31156Y-23703D01*
X31086Y-23613D01*
X30995Y-23543D01*
X30890Y-23499D01*
X30776Y-23484D01*
D02*
G37*
G36*
X23767D02*
X23653Y-23499D01*
X23547Y-23543D01*
X23513Y-23569D01*
X23505Y-23573D01*
X23463Y-23604D01*
X23388Y-23655D01*
X23325Y-23692D01*
X23300Y-23704D01*
X23279Y-23713D01*
X23262Y-23719D01*
X23256Y-23720D01*
X21574D01*
X21568Y-23719D01*
X21551Y-23713D01*
X21530Y-23704D01*
X21507Y-23693D01*
X21365Y-23603D01*
X21324Y-23573D01*
X21316Y-23569D01*
X21282Y-23543D01*
X21176Y-23499D01*
X21063Y-23484D01*
X20950Y-23499D01*
X20844Y-23543D01*
X20753Y-23613D01*
X20683Y-23703D01*
X20640Y-23809D01*
X20625Y-23923D01*
X20640Y-24036D01*
X20683Y-24142D01*
X20753Y-24233D01*
X20844Y-24302D01*
X20950Y-24346D01*
X21063Y-24361D01*
X21176Y-24346D01*
X21282Y-24302D01*
X21316Y-24276D01*
X21324Y-24272D01*
X21367Y-24241D01*
X21442Y-24190D01*
X21505Y-24153D01*
X21530Y-24141D01*
X21551Y-24132D01*
X21568Y-24126D01*
X21574Y-24125D01*
X23256D01*
X23262Y-24126D01*
X23279Y-24132D01*
X23300Y-24141D01*
X23323Y-24152D01*
X23464Y-24242D01*
X23505Y-24272D01*
X23513Y-24276D01*
X23547Y-24302D01*
X23653Y-24346D01*
X23767Y-24361D01*
X23880Y-24346D01*
X23986Y-24302D01*
X24077Y-24233D01*
X24146Y-24142D01*
X24190Y-24036D01*
X24205Y-23923D01*
X24190Y-23809D01*
X24146Y-23703D01*
X24077Y-23613D01*
X23986Y-23543D01*
X23880Y-23499D01*
X23767Y-23484D01*
D02*
G37*
G36*
X36142Y-23908D02*
X36028Y-23923D01*
X35923Y-23967D01*
X35832Y-24036D01*
X35762Y-24127D01*
X35718Y-24233D01*
X35703Y-24346D01*
X35718Y-24460D01*
X35762Y-24566D01*
X35832Y-24656D01*
X35923Y-24726D01*
X36028Y-24770D01*
X36142Y-24785D01*
X36255Y-24770D01*
X36361Y-24726D01*
X36452Y-24656D01*
X36521Y-24566D01*
X36565Y-24460D01*
X36580Y-24346D01*
X36565Y-24233D01*
X36521Y-24127D01*
X36452Y-24036D01*
X36361Y-23967D01*
X36255Y-23923D01*
X36142Y-23908D01*
D02*
G37*
G36*
X12041Y-24920D02*
X11656D01*
Y-25304D01*
X12041D01*
Y-24920D01*
D02*
G37*
G36*
X11556D02*
X11172D01*
Y-25304D01*
X11556D01*
Y-24920D01*
D02*
G37*
G36*
X12606Y-24916D02*
X12493Y-24931D01*
X12387Y-24975D01*
X12296Y-25044D01*
X12227Y-25135D01*
X12183Y-25241D01*
X12171Y-25330D01*
X12170Y-25333D01*
X12170Y-25341D01*
X12168Y-25354D01*
X12168Y-25358D01*
X12168Y-25359D01*
X12165Y-25380D01*
X12160Y-25400D01*
X12154Y-25420D01*
X12146Y-25440D01*
X12136Y-25459D01*
X12124Y-25479D01*
X12110Y-25498D01*
X12095Y-25517D01*
X12091Y-25521D01*
X12084Y-25520D01*
X12041Y-25500D01*
Y-25404D01*
X11656D01*
Y-25789D01*
X11772D01*
X11791Y-25835D01*
X11745Y-25882D01*
X9061D01*
X8784Y-25605D01*
X8655Y-25465D01*
X8603Y-25401D01*
X8563Y-25344D01*
X8545Y-25311D01*
Y-25135D01*
X8546Y-25131D01*
X8545Y-25127D01*
Y-24920D01*
X7676D01*
Y-25560D01*
X7630Y-25579D01*
X7602Y-25549D01*
X7595Y-25530D01*
X7586Y-25506D01*
X7550Y-25342D01*
X7542Y-25292D01*
X7539Y-25283D01*
X7534Y-25241D01*
X7490Y-25135D01*
X7420Y-25044D01*
X7329Y-24975D01*
X7224Y-24931D01*
X7110Y-24916D01*
X6997Y-24931D01*
X6891Y-24975D01*
X6857Y-25001D01*
X6849Y-25005D01*
X6807Y-25036D01*
X6731Y-25087D01*
X6668Y-25124D01*
X6644Y-25136D01*
X6622Y-25145D01*
X6605Y-25151D01*
X6600Y-25152D01*
X4748D01*
X4671Y-25167D01*
X4605Y-25211D01*
X4352Y-25464D01*
X4347Y-25468D01*
X4331Y-25475D01*
X4310Y-25484D01*
X4285Y-25492D01*
X4122Y-25529D01*
X4071Y-25536D01*
X4063Y-25539D01*
X4020Y-25545D01*
X3915Y-25589D01*
X3824Y-25659D01*
X3754Y-25749D01*
X3710Y-25855D01*
X3695Y-25968D01*
X3710Y-26082D01*
X3754Y-26188D01*
X3824Y-26278D01*
X3915Y-26348D01*
X4020Y-26392D01*
X4134Y-26407D01*
X4247Y-26392D01*
X4353Y-26348D01*
X4444Y-26278D01*
X4514Y-26188D01*
X4557Y-26082D01*
X4563Y-26039D01*
X4566Y-26031D01*
X4574Y-25979D01*
X4591Y-25890D01*
X4609Y-25819D01*
X4618Y-25793D01*
X4627Y-25771D01*
X4635Y-25755D01*
X4638Y-25751D01*
X4832Y-25557D01*
X6600D01*
X6605Y-25558D01*
X6622Y-25563D01*
X6644Y-25573D01*
X6667Y-25584D01*
X6808Y-25674D01*
X6849Y-25704D01*
X6857Y-25708D01*
X6891Y-25734D01*
X6997Y-25778D01*
X7039Y-25783D01*
X7048Y-25786D01*
X7100Y-25794D01*
X7189Y-25811D01*
X7260Y-25830D01*
X7286Y-25839D01*
X7308Y-25847D01*
X7323Y-25855D01*
X7328Y-25858D01*
X8542Y-27072D01*
X8608Y-27116D01*
X8685Y-27131D01*
X10429D01*
X10434Y-27133D01*
X10448Y-27137D01*
X10494Y-27157D01*
X10518Y-27170D01*
X10619Y-27236D01*
X10656Y-27263D01*
X10664Y-27267D01*
X10696Y-27292D01*
X10797Y-27333D01*
X10906Y-27348D01*
X11014Y-27333D01*
X11115Y-27292D01*
X11201Y-27225D01*
X11268Y-27138D01*
X11310Y-27037D01*
X11324Y-26929D01*
X11310Y-26821D01*
X11268Y-26720D01*
X11201Y-26633D01*
X11115Y-26567D01*
X11027Y-26531D01*
X11037Y-26481D01*
X11869D01*
X11946Y-26470D01*
X12018Y-26440D01*
X12080Y-26393D01*
X12487Y-25986D01*
X12534Y-25924D01*
X12535Y-25924D01*
X12584Y-25875D01*
X12624Y-25838D01*
X12663Y-25807D01*
X12677Y-25796D01*
X12691Y-25788D01*
X12701Y-25782D01*
X12708Y-25779D01*
X12708Y-25779D01*
X12720Y-25778D01*
X12825Y-25734D01*
X12916Y-25664D01*
X12986Y-25574D01*
X13030Y-25468D01*
X13045Y-25354D01*
X13030Y-25241D01*
X12986Y-25135D01*
X12916Y-25044D01*
X12825Y-24975D01*
X12720Y-24931D01*
X12606Y-24916D01*
D02*
G37*
G36*
X36142Y-24908D02*
X36028Y-24923D01*
X35923Y-24967D01*
X35832Y-25036D01*
X35762Y-25127D01*
X35718Y-25233D01*
X35703Y-25346D01*
X35718Y-25460D01*
X35762Y-25566D01*
X35832Y-25656D01*
X35923Y-25726D01*
X36028Y-25770D01*
X36142Y-25785D01*
X36255Y-25770D01*
X36361Y-25726D01*
X36452Y-25656D01*
X36521Y-25566D01*
X36565Y-25460D01*
X36580Y-25346D01*
X36565Y-25233D01*
X36521Y-25127D01*
X36452Y-25036D01*
X36361Y-24967D01*
X36255Y-24923D01*
X36142Y-24908D01*
D02*
G37*
G36*
X11556Y-25404D02*
X11172D01*
Y-25789D01*
X11556D01*
Y-25404D01*
D02*
G37*
G36*
X16606Y-24916D02*
X16493Y-24931D01*
X16387Y-24975D01*
X16296Y-25044D01*
X16227Y-25135D01*
X16183Y-25241D01*
X16168Y-25354D01*
X16183Y-25468D01*
X16227Y-25574D01*
X16296Y-25664D01*
X16387Y-25734D01*
X16493Y-25778D01*
X16606Y-25793D01*
X16720Y-25778D01*
X16825Y-25734D01*
X16916Y-25664D01*
X16986Y-25574D01*
X17030Y-25468D01*
X17045Y-25354D01*
X17030Y-25241D01*
X16986Y-25135D01*
X16916Y-25044D01*
X16825Y-24975D01*
X16720Y-24931D01*
X16606Y-24916D01*
D02*
G37*
G36*
X15606D02*
X15493Y-24931D01*
X15387Y-24975D01*
X15296Y-25044D01*
X15227Y-25135D01*
X15183Y-25241D01*
X15168Y-25354D01*
X15183Y-25468D01*
X15227Y-25574D01*
X15296Y-25664D01*
X15387Y-25734D01*
X15493Y-25778D01*
X15606Y-25793D01*
X15720Y-25778D01*
X15826Y-25734D01*
X15916Y-25664D01*
X15986Y-25574D01*
X16030Y-25468D01*
X16045Y-25354D01*
X16030Y-25241D01*
X15986Y-25135D01*
X15916Y-25044D01*
X15826Y-24975D01*
X15720Y-24931D01*
X15606Y-24916D01*
D02*
G37*
G36*
X14606D02*
X14493Y-24931D01*
X14387Y-24975D01*
X14296Y-25044D01*
X14227Y-25135D01*
X14183Y-25241D01*
X14168Y-25354D01*
X14183Y-25468D01*
X14227Y-25574D01*
X14296Y-25664D01*
X14387Y-25734D01*
X14493Y-25778D01*
X14606Y-25793D01*
X14720Y-25778D01*
X14826Y-25734D01*
X14916Y-25664D01*
X14986Y-25574D01*
X15030Y-25468D01*
X15045Y-25354D01*
X15030Y-25241D01*
X14986Y-25135D01*
X14916Y-25044D01*
X14826Y-24975D01*
X14720Y-24931D01*
X14606Y-24916D01*
D02*
G37*
G36*
X8858Y-23860D02*
X8767Y-23872D01*
X8682Y-23907D01*
X8609Y-23963D01*
X8553Y-24036D01*
X8517Y-24121D01*
X8505Y-24213D01*
X8517Y-24304D01*
X8553Y-24389D01*
X8609Y-24462D01*
X8682Y-24518D01*
X8767Y-24554D01*
X8858Y-24566D01*
X8950Y-24554D01*
X9035Y-24518D01*
X9060Y-24499D01*
X9068Y-24495D01*
X9092Y-24478D01*
X9138Y-24449D01*
X9156Y-24438D01*
X9175Y-24430D01*
X9191Y-24423D01*
X9206Y-24418D01*
X9218Y-24415D01*
X9220Y-24415D01*
X12381D01*
X13102Y-25136D01*
X13105Y-25141D01*
X13113Y-25157D01*
X13122Y-25179D01*
X13130Y-25203D01*
X13167Y-25367D01*
X13174Y-25417D01*
X13177Y-25425D01*
X13183Y-25468D01*
X13227Y-25574D01*
X13296Y-25664D01*
X13387Y-25734D01*
X13493Y-25778D01*
X13606Y-25793D01*
X13720Y-25778D01*
X13826Y-25734D01*
X13916Y-25664D01*
X13986Y-25574D01*
X14030Y-25468D01*
X14045Y-25354D01*
X14030Y-25241D01*
X13986Y-25135D01*
X13916Y-25044D01*
X13826Y-24975D01*
X13720Y-24931D01*
X13677Y-24925D01*
X13669Y-24922D01*
X13617Y-24914D01*
X13528Y-24897D01*
X13457Y-24879D01*
X13431Y-24870D01*
X13409Y-24861D01*
X13393Y-24853D01*
X13388Y-24850D01*
X12608Y-24070D01*
X12542Y-24026D01*
X12465Y-24010D01*
X9220D01*
X9218Y-24010D01*
X9206Y-24007D01*
X9191Y-24002D01*
X9175Y-23995D01*
X9156Y-23987D01*
X9138Y-23977D01*
X9092Y-23948D01*
X9068Y-23930D01*
X9060Y-23927D01*
X9035Y-23907D01*
X8950Y-23872D01*
X8858Y-23860D01*
D02*
G37*
G36*
X7362Y-26511D02*
X7254Y-26525D01*
X7153Y-26567D01*
X7121Y-26591D01*
X7114Y-26594D01*
X7038Y-26648D01*
X7007Y-26669D01*
X6949Y-26702D01*
X6926Y-26713D01*
X6906Y-26721D01*
X6891Y-26726D01*
X6886Y-26727D01*
X4625D01*
X4617Y-26725D01*
X4598Y-26720D01*
X4576Y-26712D01*
X4552Y-26703D01*
X4409Y-26626D01*
X4369Y-26600D01*
X4368Y-26600D01*
X4353Y-26589D01*
X4247Y-26545D01*
X4134Y-26530D01*
X4020Y-26545D01*
X3915Y-26589D01*
X3824Y-26659D01*
X3754Y-26749D01*
X3710Y-26855D01*
X3695Y-26969D01*
X3710Y-27082D01*
X3754Y-27188D01*
X3824Y-27278D01*
X3915Y-27348D01*
X4020Y-27392D01*
X4134Y-27407D01*
X4247Y-27392D01*
X4353Y-27348D01*
X4413Y-27303D01*
X4419Y-27299D01*
X4441Y-27280D01*
X4444Y-27278D01*
X4444Y-27278D01*
X4501Y-27231D01*
X4535Y-27205D01*
X4597Y-27162D01*
X4620Y-27148D01*
X4640Y-27138D01*
X4655Y-27132D01*
X4658Y-27131D01*
X6886D01*
X6891Y-27133D01*
X6905Y-27137D01*
X6951Y-27157D01*
X6975Y-27170D01*
X7075Y-27236D01*
X7113Y-27263D01*
X7121Y-27267D01*
X7153Y-27292D01*
X7254Y-27333D01*
X7362Y-27348D01*
X7471Y-27333D01*
X7571Y-27292D01*
X7658Y-27225D01*
X7725Y-27138D01*
X7766Y-27037D01*
X7781Y-26929D01*
X7766Y-26821D01*
X7725Y-26720D01*
X7658Y-26633D01*
X7571Y-26567D01*
X7471Y-26525D01*
X7362Y-26511D01*
D02*
G37*
G36*
X30716Y-27014D02*
X30653Y-27022D01*
X30547Y-27066D01*
X30478Y-27119D01*
X30312Y-27127D01*
X28458D01*
X28414Y-27125D01*
X28366Y-27121D01*
X28350Y-27118D01*
X28337Y-27115D01*
X28330Y-27113D01*
X28329Y-27113D01*
X28326Y-27111D01*
X28322Y-27110D01*
X28292Y-27086D01*
X28186Y-27042D01*
X28122Y-27034D01*
Y-27466D01*
Y-27898D01*
X28186Y-27889D01*
X28292Y-27846D01*
X28322Y-27822D01*
X28326Y-27821D01*
X28329Y-27819D01*
X28330Y-27819D01*
X28337Y-27816D01*
X28350Y-27814D01*
X28365Y-27811D01*
X28466Y-27805D01*
X30320D01*
X30328Y-27804D01*
X30335Y-27805D01*
X30510Y-27797D01*
X30547Y-27826D01*
X30653Y-27869D01*
X30716Y-27878D01*
Y-27446D01*
Y-27014D01*
D02*
G37*
G36*
X23707D02*
X23643Y-27022D01*
X23537Y-27066D01*
X23468Y-27119D01*
X23302Y-27127D01*
X21449D01*
X21404Y-27125D01*
X21357Y-27121D01*
X21340Y-27118D01*
X21328Y-27115D01*
X21321Y-27113D01*
X21320Y-27113D01*
X21317Y-27111D01*
X21313Y-27110D01*
X21282Y-27086D01*
X21176Y-27042D01*
X21113Y-27034D01*
Y-27466D01*
Y-27898D01*
X21176Y-27889D01*
X21282Y-27846D01*
X21313Y-27822D01*
X21317Y-27821D01*
X21320Y-27819D01*
X21321Y-27819D01*
X21328Y-27816D01*
X21340Y-27814D01*
X21355Y-27811D01*
X21457Y-27805D01*
X23310D01*
X23318Y-27804D01*
X23325Y-27805D01*
X23500Y-27797D01*
X23537Y-27826D01*
X23643Y-27869D01*
X23707Y-27878D01*
Y-27446D01*
Y-27014D01*
D02*
G37*
G36*
X30816D02*
Y-27396D01*
X31198D01*
X31190Y-27332D01*
X31146Y-27227D01*
X31076Y-27136D01*
X30985Y-27066D01*
X30880Y-27022D01*
X30816Y-27014D01*
D02*
G37*
G36*
X21013Y-27034D02*
X20950Y-27042D01*
X20844Y-27086D01*
X20753Y-27156D01*
X20683Y-27247D01*
X20640Y-27352D01*
X20631Y-27416D01*
X21013D01*
Y-27034D01*
D02*
G37*
G36*
X13931Y-26967D02*
X13140D01*
Y-27757D01*
X13931D01*
Y-26967D01*
D02*
G37*
G36*
X16535Y-26964D02*
X16432Y-26977D01*
X16336Y-27017D01*
X16254Y-27080D01*
X16190Y-27163D01*
X16150Y-27259D01*
X16137Y-27362D01*
X16150Y-27465D01*
X16190Y-27562D01*
X16254Y-27644D01*
X16336Y-27707D01*
X16432Y-27747D01*
X16535Y-27761D01*
X16639Y-27747D01*
X16735Y-27707D01*
X16817Y-27644D01*
X16881Y-27562D01*
X16921Y-27465D01*
X16934Y-27362D01*
X16921Y-27259D01*
X16881Y-27163D01*
X16817Y-27080D01*
X16735Y-27017D01*
X16639Y-26977D01*
X16535Y-26964D01*
D02*
G37*
G36*
X15535D02*
X15432Y-26977D01*
X15336Y-27017D01*
X15254Y-27080D01*
X15190Y-27163D01*
X15150Y-27259D01*
X15137Y-27362D01*
X15150Y-27465D01*
X15190Y-27562D01*
X15254Y-27644D01*
X15336Y-27707D01*
X15432Y-27747D01*
X15535Y-27761D01*
X15639Y-27747D01*
X15735Y-27707D01*
X15817Y-27644D01*
X15881Y-27562D01*
X15921Y-27465D01*
X15934Y-27362D01*
X15921Y-27259D01*
X15881Y-27163D01*
X15817Y-27080D01*
X15735Y-27017D01*
X15639Y-26977D01*
X15535Y-26964D01*
D02*
G37*
G36*
X14535D02*
X14432Y-26977D01*
X14336Y-27017D01*
X14254Y-27080D01*
X14190Y-27163D01*
X14150Y-27259D01*
X14137Y-27362D01*
X14150Y-27465D01*
X14190Y-27562D01*
X14254Y-27644D01*
X14336Y-27707D01*
X14432Y-27747D01*
X14535Y-27761D01*
X14639Y-27747D01*
X14735Y-27707D01*
X14817Y-27644D01*
X14881Y-27562D01*
X14921Y-27465D01*
X14934Y-27362D01*
X14921Y-27259D01*
X14881Y-27163D01*
X14817Y-27080D01*
X14735Y-27017D01*
X14639Y-26977D01*
X14535Y-26964D01*
D02*
G37*
G36*
X31198Y-27496D02*
X30816D01*
Y-27878D01*
X30880Y-27869D01*
X30985Y-27826D01*
X31076Y-27756D01*
X31146Y-27665D01*
X31190Y-27559D01*
X31198Y-27496D01*
D02*
G37*
G36*
X23807Y-27014D02*
Y-27446D01*
Y-27878D01*
X23870Y-27869D01*
X23976Y-27826D01*
X24006Y-27802D01*
X24010Y-27801D01*
X24014Y-27799D01*
X24014Y-27799D01*
X24022Y-27796D01*
X24034Y-27794D01*
X24049Y-27791D01*
X24150Y-27785D01*
X25812D01*
X25832Y-27793D01*
X25920Y-27805D01*
X27687D01*
X27731Y-27807D01*
X27779Y-27811D01*
X27795Y-27814D01*
X27808Y-27816D01*
X27815Y-27819D01*
X27816Y-27819D01*
X27819Y-27821D01*
X27823Y-27822D01*
X27853Y-27846D01*
X27959Y-27889D01*
X28022Y-27898D01*
Y-27466D01*
Y-27034D01*
X27959Y-27042D01*
X27853Y-27086D01*
X27823Y-27110D01*
X27819Y-27111D01*
X27816Y-27113D01*
X27815Y-27113D01*
X27808Y-27115D01*
X27795Y-27118D01*
X27780Y-27120D01*
X27679Y-27127D01*
X26008D01*
X25988Y-27118D01*
X25900Y-27107D01*
X24143D01*
X24098Y-27105D01*
X24050Y-27101D01*
X24034Y-27098D01*
X24022Y-27095D01*
X24014Y-27093D01*
X24014Y-27093D01*
X24010Y-27091D01*
X24006Y-27090D01*
X23976Y-27066D01*
X23870Y-27022D01*
X23807Y-27014D01*
D02*
G37*
G36*
X21013Y-27516D02*
X20631D01*
X20640Y-27579D01*
X20683Y-27685D01*
X20753Y-27776D01*
X20844Y-27846D01*
X20950Y-27889D01*
X21013Y-27898D01*
Y-27516D01*
D02*
G37*
G36*
X4569Y-27534D02*
X4184D01*
Y-27919D01*
X4569D01*
Y-27534D01*
D02*
G37*
G36*
X4084D02*
X3699D01*
Y-27919D01*
X4084D01*
Y-27534D01*
D02*
G37*
G36*
X4569Y-28019D02*
X4184D01*
Y-28403D01*
X4569D01*
Y-28019D01*
D02*
G37*
G36*
X4084D02*
X3699D01*
Y-28403D01*
X4084D01*
Y-28019D01*
D02*
G37*
G36*
X30776Y-28737D02*
X30663Y-28752D01*
X30557Y-28796D01*
X30523Y-28822D01*
X30515Y-28826D01*
X30473Y-28857D01*
X30397Y-28908D01*
X30334Y-28945D01*
X30309Y-28958D01*
X30288Y-28967D01*
X30271Y-28972D01*
X30266Y-28974D01*
X28583D01*
X28577Y-28972D01*
X28561Y-28967D01*
X28539Y-28958D01*
X28516Y-28946D01*
X28375Y-28856D01*
X28334Y-28826D01*
X28326Y-28822D01*
X28292Y-28796D01*
X28186Y-28752D01*
X28073Y-28737D01*
X27959Y-28752D01*
X27853Y-28796D01*
X27763Y-28866D01*
X27693Y-28957D01*
X27649Y-29062D01*
X27634Y-29176D01*
X27649Y-29289D01*
X27693Y-29395D01*
X27763Y-29486D01*
X27853Y-29556D01*
X27959Y-29599D01*
X28073Y-29614D01*
X28186Y-29599D01*
X28292Y-29556D01*
X28326Y-29529D01*
X28334Y-29526D01*
X28376Y-29495D01*
X28451Y-29443D01*
X28515Y-29406D01*
X28539Y-29394D01*
X28561Y-29385D01*
X28577Y-29379D01*
X28583Y-29378D01*
X30266D01*
X30271Y-29379D01*
X30288Y-29385D01*
X30309Y-29394D01*
X30333Y-29406D01*
X30474Y-29496D01*
X30515Y-29526D01*
X30523Y-29529D01*
X30557Y-29556D01*
X30663Y-29599D01*
X30776Y-29614D01*
X30890Y-29599D01*
X30995Y-29556D01*
X31086Y-29486D01*
X31156Y-29395D01*
X31200Y-29289D01*
X31215Y-29176D01*
X31200Y-29062D01*
X31156Y-28957D01*
X31086Y-28866D01*
X30995Y-28796D01*
X30890Y-28752D01*
X30776Y-28737D01*
D02*
G37*
G36*
X23767D02*
X23653Y-28752D01*
X23547Y-28796D01*
X23513Y-28822D01*
X23505Y-28826D01*
X23463Y-28857D01*
X23388Y-28908D01*
X23325Y-28945D01*
X23300Y-28958D01*
X23279Y-28967D01*
X23262Y-28972D01*
X23256Y-28974D01*
X21574D01*
X21568Y-28972D01*
X21551Y-28967D01*
X21530Y-28958D01*
X21507Y-28946D01*
X21365Y-28856D01*
X21324Y-28826D01*
X21316Y-28822D01*
X21282Y-28796D01*
X21176Y-28752D01*
X21063Y-28737D01*
X20950Y-28752D01*
X20844Y-28796D01*
X20753Y-28866D01*
X20683Y-28957D01*
X20640Y-29062D01*
X20625Y-29176D01*
X20640Y-29289D01*
X20683Y-29395D01*
X20753Y-29486D01*
X20844Y-29556D01*
X20950Y-29599D01*
X21063Y-29614D01*
X21176Y-29599D01*
X21282Y-29556D01*
X21316Y-29529D01*
X21324Y-29526D01*
X21367Y-29495D01*
X21442Y-29443D01*
X21505Y-29406D01*
X21530Y-29394D01*
X21551Y-29385D01*
X21568Y-29379D01*
X21574Y-29378D01*
X23256D01*
X23262Y-29379D01*
X23279Y-29385D01*
X23300Y-29394D01*
X23323Y-29406D01*
X23464Y-29496D01*
X23505Y-29526D01*
X23513Y-29529D01*
X23547Y-29556D01*
X23653Y-29599D01*
X23767Y-29614D01*
X23880Y-29599D01*
X23986Y-29556D01*
X24077Y-29486D01*
X24146Y-29395D01*
X24190Y-29289D01*
X24205Y-29176D01*
X24190Y-29062D01*
X24146Y-28957D01*
X24077Y-28866D01*
X23986Y-28796D01*
X23880Y-28752D01*
X23767Y-28737D01*
D02*
G37*
G36*
X9490Y-28306D02*
X8620D01*
Y-29175D01*
X9490D01*
Y-28306D01*
D02*
G37*
G36*
X8055Y-28302D02*
X7942Y-28317D01*
X7836Y-28361D01*
X7745Y-28430D01*
X7675Y-28521D01*
X7632Y-28627D01*
X7617Y-28740D01*
X7632Y-28854D01*
X7675Y-28959D01*
X7745Y-29050D01*
X7836Y-29120D01*
X7942Y-29164D01*
X8055Y-29179D01*
X8169Y-29164D01*
X8274Y-29120D01*
X8365Y-29050D01*
X8435Y-28959D01*
X8479Y-28854D01*
X8494Y-28740D01*
X8479Y-28627D01*
X8435Y-28521D01*
X8365Y-28430D01*
X8274Y-28361D01*
X8169Y-28317D01*
X8055Y-28302D01*
D02*
G37*
G36*
X36142Y-28908D02*
X36028Y-28923D01*
X35923Y-28967D01*
X35890Y-28992D01*
X35883Y-28995D01*
X35867Y-29006D01*
X35853Y-29014D01*
X35838Y-29021D01*
X35820Y-29027D01*
X35800Y-29033D01*
X35778Y-29038D01*
X35756Y-29042D01*
X35699Y-29047D01*
X35699Y-29047D01*
X34684D01*
X34606Y-29057D01*
X34534Y-29087D01*
X34472Y-29135D01*
X33356Y-30251D01*
X25915D01*
X25837Y-30261D01*
X25795Y-30278D01*
X25765Y-30291D01*
X25703Y-30338D01*
X24818Y-31223D01*
X24678Y-31354D01*
X24614Y-31405D01*
X24556Y-31445D01*
X24525Y-31463D01*
X24211D01*
Y-32254D01*
X25002D01*
Y-31940D01*
X25020Y-31909D01*
X25059Y-31852D01*
X25176Y-31713D01*
X25227Y-31660D01*
X26039Y-30849D01*
X33480D01*
X33557Y-30839D01*
X33630Y-30809D01*
X33692Y-30762D01*
X34808Y-29646D01*
X35682D01*
X35730Y-29648D01*
X35754Y-29651D01*
X35778Y-29655D01*
X35800Y-29660D01*
X35820Y-29666D01*
X35838Y-29672D01*
X35853Y-29679D01*
X35867Y-29687D01*
X35883Y-29698D01*
X35890Y-29701D01*
X35923Y-29726D01*
X36028Y-29770D01*
X36142Y-29785D01*
X36255Y-29770D01*
X36361Y-29726D01*
X36452Y-29656D01*
X36521Y-29566D01*
X36565Y-29460D01*
X36580Y-29346D01*
X36565Y-29233D01*
X36521Y-29127D01*
X36452Y-29036D01*
X36361Y-28967D01*
X36255Y-28923D01*
X36142Y-28908D01*
D02*
G37*
G36*
X36576Y-29912D02*
X36192D01*
Y-30296D01*
X36576D01*
Y-29912D01*
D02*
G37*
G36*
X35808Y-29911D02*
X35804Y-29912D01*
X35707D01*
Y-30005D01*
X35706Y-30008D01*
X35703Y-30069D01*
X35695Y-30126D01*
X35680Y-30183D01*
X35660Y-30242D01*
X35634Y-30301D01*
X35601Y-30360D01*
X35561Y-30421D01*
X35515Y-30483D01*
X35462Y-30545D01*
X35427Y-30582D01*
X34908Y-31101D01*
X32340D01*
X32340Y-31101D01*
X32252Y-31112D01*
X32170Y-31146D01*
X32100Y-31200D01*
X31805Y-31494D01*
X31494D01*
Y-31840D01*
X31890D01*
Y-31890D01*
X31940D01*
Y-32285D01*
X32285D01*
Y-31974D01*
X32480Y-31779D01*
X35048D01*
X35136Y-31768D01*
X35170Y-31754D01*
X35218Y-31734D01*
X35288Y-31680D01*
X35906Y-31062D01*
X35943Y-31026D01*
X36006Y-30973D01*
X36067Y-30927D01*
X36128Y-30888D01*
X36188Y-30855D01*
X36247Y-30828D01*
X36305Y-30808D01*
X36362Y-30793D01*
X36419Y-30785D01*
X36480Y-30782D01*
X36483Y-30781D01*
X36576D01*
Y-30684D01*
X36577Y-30680D01*
X36577Y-30677D01*
X36577Y-30675D01*
X36576Y-30672D01*
Y-30396D01*
X36192D01*
X36475Y-30680D01*
X36409Y-30683D01*
X36342Y-30693D01*
X36275Y-30710D01*
X36209Y-30733D01*
X36142Y-30763D01*
X36075Y-30800D01*
X36009Y-30844D01*
X35942Y-30894D01*
X35875Y-30951D01*
X35808Y-31014D01*
X35474Y-30680D01*
X35538Y-30613D01*
X35594Y-30546D01*
X35645Y-30480D01*
X35688Y-30413D01*
X35725Y-30346D01*
X35755Y-30279D01*
X35778Y-30213D01*
X35795Y-30146D01*
X35805Y-30080D01*
X35808Y-30013D01*
X36092Y-30296D01*
Y-29912D01*
X35816D01*
X35813Y-29911D01*
X35811Y-29912D01*
X35808Y-29911D01*
D02*
G37*
G36*
X9080Y-30471D02*
X8211D01*
Y-30694D01*
X8210Y-30694D01*
X8195Y-30698D01*
X8174Y-30702D01*
X8159Y-30703D01*
X7563D01*
X7558Y-30702D01*
X7544Y-30698D01*
X7498Y-30677D01*
X7474Y-30664D01*
X7373Y-30599D01*
X7336Y-30571D01*
X7328Y-30568D01*
X7296Y-30543D01*
X7195Y-30501D01*
X7087Y-30487D01*
X6978Y-30501D01*
X6877Y-30543D01*
X6791Y-30610D01*
X6724Y-30696D01*
X6682Y-30797D01*
X6668Y-30906D01*
X6682Y-31014D01*
X6724Y-31115D01*
X6791Y-31201D01*
X6877Y-31268D01*
X6978Y-31310D01*
X7087Y-31324D01*
X7195Y-31310D01*
X7296Y-31268D01*
X7327Y-31244D01*
X7335Y-31240D01*
X7411Y-31186D01*
X7442Y-31166D01*
X7500Y-31133D01*
X7523Y-31122D01*
X7542Y-31114D01*
X7558Y-31109D01*
X7563Y-31108D01*
X8159D01*
X8174Y-31109D01*
X8195Y-31113D01*
X8210Y-31117D01*
X8211Y-31117D01*
Y-31340D01*
X9080D01*
Y-30471D01*
D02*
G37*
G36*
X5168Y-31462D02*
Y-31824D01*
X5530D01*
X5522Y-31766D01*
X5481Y-31665D01*
X5414Y-31578D01*
X5327Y-31512D01*
X5226Y-31470D01*
X5168Y-31462D01*
D02*
G37*
G36*
X5068D02*
X5010Y-31470D01*
X4909Y-31512D01*
X4822Y-31578D01*
X4756Y-31665D01*
X4714Y-31766D01*
X4706Y-31824D01*
X5068D01*
Y-31462D01*
D02*
G37*
G36*
X17521Y-31447D02*
X16731D01*
Y-32238D01*
X17521D01*
Y-31447D01*
D02*
G37*
G36*
X31840Y-31940D02*
X31494D01*
Y-32285D01*
X31840D01*
Y-31940D01*
D02*
G37*
G36*
X5530Y-31924D02*
X5168D01*
Y-32286D01*
X5226Y-32278D01*
X5327Y-32236D01*
X5414Y-32170D01*
X5481Y-32083D01*
X5522Y-31982D01*
X5530Y-31924D01*
D02*
G37*
G36*
X5068D02*
X4706D01*
X4714Y-31982D01*
X4756Y-32083D01*
X4822Y-32170D01*
X4909Y-32236D01*
X5010Y-32278D01*
X5068Y-32286D01*
Y-31924D01*
D02*
G37*
G36*
X31940Y-32498D02*
Y-32840D01*
X32282D01*
X32275Y-32787D01*
X32235Y-32690D01*
X32172Y-32608D01*
X32089Y-32544D01*
X31993Y-32505D01*
X31940Y-32498D01*
D02*
G37*
G36*
X31840D02*
X31787Y-32505D01*
X31690Y-32544D01*
X31608Y-32608D01*
X31544Y-32690D01*
X31505Y-32787D01*
X31503Y-32797D01*
X31371Y-32929D01*
X30832D01*
X30812Y-32928D01*
X30773Y-32922D01*
X30732Y-32912D01*
X30687Y-32898D01*
X30640Y-32879D01*
X30591Y-32856D01*
X30540Y-32828D01*
X30427Y-32756D01*
X30367Y-32713D01*
X30363Y-32711D01*
X30338Y-32691D01*
X30218Y-32627D01*
X30088Y-32587D01*
X30003Y-32579D01*
Y-33268D01*
Y-33957D01*
X30088Y-33948D01*
X30218Y-33909D01*
X30338Y-33845D01*
X30363Y-33825D01*
X30367Y-33823D01*
X30427Y-33779D01*
X30540Y-33708D01*
X30591Y-33680D01*
X30640Y-33656D01*
X30687Y-33638D01*
X30732Y-33623D01*
X30773Y-33614D01*
X30812Y-33608D01*
X30832Y-33607D01*
X31512D01*
X31549Y-33602D01*
X31576Y-33649D01*
X31544Y-33690D01*
X31505Y-33787D01*
X31498Y-33840D01*
X31840D01*
Y-33498D01*
X31831Y-33499D01*
X31808Y-33451D01*
X31983Y-33276D01*
X31993Y-33275D01*
X32089Y-33235D01*
X32172Y-33172D01*
X32235Y-33089D01*
X32275Y-32993D01*
X32282Y-32940D01*
X31890D01*
Y-32890D01*
X31840D01*
Y-32498D01*
D02*
G37*
G36*
X17126Y-32444D02*
X17023Y-32457D01*
X16927Y-32497D01*
X16844Y-32561D01*
X16781Y-32643D01*
X16741Y-32739D01*
X16727Y-32843D01*
X16741Y-32946D01*
X16781Y-33042D01*
X16829Y-33104D01*
X16791Y-33137D01*
X16710Y-33056D01*
X16648Y-33008D01*
X16575Y-32979D01*
X16498Y-32968D01*
X16063D01*
X16042Y-32967D01*
X16010Y-32961D01*
X15971Y-32949D01*
X15928Y-32933D01*
X15880Y-32911D01*
X15829Y-32884D01*
X15641Y-32764D01*
X15572Y-32713D01*
X15568Y-32711D01*
X15543Y-32691D01*
X15423Y-32627D01*
X15293Y-32587D01*
X15157Y-32574D01*
X15022Y-32587D01*
X14892Y-32627D01*
X14772Y-32691D01*
X14748Y-32711D01*
X14744Y-32712D01*
X14607Y-32810D01*
X14487Y-32883D01*
X14435Y-32911D01*
X14387Y-32933D01*
X14344Y-32949D01*
X14305Y-32961D01*
X14273Y-32967D01*
X14252Y-32968D01*
X14119D01*
X14071Y-32967D01*
X14011Y-32962D01*
X13961Y-32953D01*
X13920Y-32943D01*
X13890Y-32930D01*
X13871Y-32918D01*
X13859Y-32908D01*
X13853Y-32899D01*
X13850Y-32889D01*
X13848Y-32873D01*
Y-32577D01*
X12467D01*
Y-33958D01*
X13848D01*
Y-33663D01*
X13850Y-33647D01*
X13853Y-33637D01*
X13859Y-33628D01*
X13871Y-33617D01*
X13890Y-33605D01*
X13920Y-33593D01*
X13961Y-33582D01*
X14011Y-33574D01*
X14071Y-33568D01*
X14119Y-33567D01*
X14252D01*
X14273Y-33569D01*
X14305Y-33575D01*
X14344Y-33586D01*
X14387Y-33603D01*
X14435Y-33625D01*
X14486Y-33652D01*
X14674Y-33772D01*
X14743Y-33822D01*
X14747Y-33824D01*
X14772Y-33845D01*
X14892Y-33909D01*
X15022Y-33948D01*
X15157Y-33962D01*
X15293Y-33948D01*
X15423Y-33909D01*
X15543Y-33845D01*
X15567Y-33825D01*
X15571Y-33823D01*
X15708Y-33726D01*
X15828Y-33652D01*
X15880Y-33625D01*
X15928Y-33603D01*
X15971Y-33586D01*
X16010Y-33575D01*
X16042Y-33569D01*
X16063Y-33567D01*
X16374D01*
X16664Y-33857D01*
X16697Y-33891D01*
X16736Y-33935D01*
X16740Y-33941D01*
X16741Y-33946D01*
X16781Y-34042D01*
X16844Y-34124D01*
X16927Y-34188D01*
X17023Y-34228D01*
X17126Y-34241D01*
X17229Y-34228D01*
X17325Y-34188D01*
X17408Y-34124D01*
X17471Y-34042D01*
X17511Y-33946D01*
X17525Y-33843D01*
X17511Y-33739D01*
X17471Y-33643D01*
X17408Y-33561D01*
X17325Y-33497D01*
X17229Y-33457D01*
X17162Y-33449D01*
X17156Y-33447D01*
X17142Y-33445D01*
X17133Y-33443D01*
X17123Y-33439D01*
X17110Y-33434D01*
X17097Y-33427D01*
X17081Y-33417D01*
X17066Y-33406D01*
X17029Y-33375D01*
X16831Y-33178D01*
X16864Y-33140D01*
X16927Y-33188D01*
X17023Y-33228D01*
X17126Y-33241D01*
X17229Y-33228D01*
X17325Y-33188D01*
X17408Y-33124D01*
X17471Y-33042D01*
X17511Y-32946D01*
X17525Y-32843D01*
X17511Y-32739D01*
X17471Y-32643D01*
X17408Y-32561D01*
X17325Y-32497D01*
X17229Y-32457D01*
X17126Y-32444D01*
D02*
G37*
G36*
X27903Y-32577D02*
X27262D01*
Y-33218D01*
X27903D01*
Y-32577D01*
D02*
G37*
G36*
X2953Y-31475D02*
X2850Y-31489D01*
X2753Y-31529D01*
X2671Y-31592D01*
X2607Y-31675D01*
X2568Y-31771D01*
X2554Y-31874D01*
X2568Y-31977D01*
X2607Y-32073D01*
X2630Y-32103D01*
X2634Y-32110D01*
X2681Y-32177D01*
X2716Y-32234D01*
X2728Y-32258D01*
X2738Y-32279D01*
X2745Y-32297D01*
X2750Y-32312D01*
X2750Y-32316D01*
Y-32427D01*
X2749Y-32442D01*
X2746Y-32463D01*
X2742Y-32477D01*
X2741Y-32479D01*
X2557D01*
Y-33269D01*
X3348D01*
Y-33086D01*
X3349Y-33085D01*
X3364Y-33081D01*
X3385Y-33078D01*
X3400Y-33076D01*
X4641D01*
X4647Y-33077D01*
X4661Y-33082D01*
X4707Y-33102D01*
X4731Y-33115D01*
X4831Y-33181D01*
X4869Y-33208D01*
X4877Y-33212D01*
X4909Y-33236D01*
X5010Y-33278D01*
X5118Y-33293D01*
X5226Y-33278D01*
X5327Y-33236D01*
X5414Y-33170D01*
X5481Y-33083D01*
X5522Y-32982D01*
X5537Y-32874D01*
X5522Y-32766D01*
X5481Y-32665D01*
X5414Y-32578D01*
X5327Y-32512D01*
X5226Y-32470D01*
X5118Y-32455D01*
X5010Y-32470D01*
X4909Y-32512D01*
X4877Y-32536D01*
X4870Y-32539D01*
X4794Y-32593D01*
X4763Y-32613D01*
X4705Y-32647D01*
X4682Y-32658D01*
X4662Y-32666D01*
X4647Y-32671D01*
X4641Y-32672D01*
X3400D01*
X3385Y-32670D01*
X3364Y-32667D01*
X3349Y-32663D01*
X3348Y-32662D01*
Y-32479D01*
X3164D01*
X3164Y-32477D01*
X3160Y-32463D01*
X3156Y-32442D01*
X3155Y-32427D01*
Y-32316D01*
X3156Y-32312D01*
X3160Y-32297D01*
X3167Y-32279D01*
X3177Y-32258D01*
X3189Y-32235D01*
X3247Y-32145D01*
X3271Y-32112D01*
X3275Y-32104D01*
X3298Y-32073D01*
X3338Y-31977D01*
X3351Y-31874D01*
X3338Y-31771D01*
X3298Y-31675D01*
X3235Y-31592D01*
X3152Y-31529D01*
X3056Y-31489D01*
X2953Y-31475D01*
D02*
G37*
G36*
X31940Y-33498D02*
Y-33840D01*
X32282D01*
X32275Y-33787D01*
X32235Y-33690D01*
X32172Y-33608D01*
X32089Y-33544D01*
X31993Y-33505D01*
X31940Y-33498D01*
D02*
G37*
G36*
X28643Y-32577D02*
X28003D01*
Y-33268D01*
Y-33958D01*
X28643D01*
Y-33741D01*
X28646Y-33718D01*
X28652Y-33701D01*
X28662Y-33686D01*
X28678Y-33671D01*
X28705Y-33654D01*
X28744Y-33639D01*
X28795Y-33625D01*
X28857Y-33615D01*
X28930Y-33608D01*
X28980Y-33607D01*
X29073D01*
X29093Y-33608D01*
X29132Y-33614D01*
X29174Y-33623D01*
X29218Y-33638D01*
X29265Y-33656D01*
X29315Y-33680D01*
X29366Y-33708D01*
X29479Y-33779D01*
X29538Y-33823D01*
X29543Y-33825D01*
X29567Y-33845D01*
X29687Y-33909D01*
X29817Y-33948D01*
X29903Y-33957D01*
Y-33268D01*
Y-32579D01*
X29817Y-32587D01*
X29687Y-32627D01*
X29567Y-32691D01*
X29543Y-32711D01*
X29538Y-32713D01*
X29479Y-32756D01*
X29366Y-32828D01*
X29315Y-32856D01*
X29265Y-32879D01*
X29218Y-32898D01*
X29174Y-32912D01*
X29132Y-32922D01*
X29093Y-32928D01*
X29073Y-32929D01*
X28980D01*
X28930Y-32927D01*
X28857Y-32921D01*
X28795Y-32910D01*
X28744Y-32897D01*
X28705Y-32881D01*
X28678Y-32865D01*
X28662Y-32849D01*
X28652Y-32834D01*
X28646Y-32817D01*
X28643Y-32794D01*
Y-32577D01*
D02*
G37*
G36*
X27903Y-33318D02*
X27262D01*
Y-33958D01*
X27903D01*
Y-33318D01*
D02*
G37*
G36*
X9646Y-30467D02*
X9532Y-30482D01*
X9426Y-30526D01*
X9336Y-30596D01*
X9266Y-30686D01*
X9222Y-30792D01*
X9207Y-30906D01*
X9222Y-31019D01*
X9266Y-31125D01*
X9336Y-31216D01*
X9426Y-31285D01*
X9532Y-31329D01*
X9646Y-31344D01*
X9759Y-31329D01*
X9865Y-31285D01*
X9898Y-31260D01*
X9904Y-31257D01*
X9920Y-31246D01*
X9934Y-31238D01*
X9950Y-31231D01*
X9967Y-31225D01*
X9987Y-31219D01*
X10009Y-31214D01*
X10032Y-31210D01*
X10088Y-31205D01*
X10089Y-31205D01*
X18152D01*
X19708Y-32761D01*
X19838Y-32901D01*
X19889Y-32965D01*
X19929Y-33023D01*
X19947Y-33054D01*
Y-33958D01*
X21328D01*
Y-33663D01*
X21330Y-33647D01*
X21334Y-33637D01*
X21340Y-33628D01*
X21351Y-33617D01*
X21371Y-33605D01*
X21401Y-33593D01*
X21441Y-33582D01*
X21492Y-33574D01*
X21552Y-33568D01*
X21599Y-33567D01*
X21732D01*
X21753Y-33569D01*
X21786Y-33575D01*
X21824Y-33586D01*
X21867Y-33603D01*
X21916Y-33625D01*
X21967Y-33652D01*
X22154Y-33772D01*
X22223Y-33822D01*
X22228Y-33824D01*
X22252Y-33845D01*
X22372Y-33909D01*
X22502Y-33948D01*
X22638Y-33962D01*
X22773Y-33948D01*
X22903Y-33909D01*
X23023Y-33845D01*
X23047Y-33825D01*
X23051Y-33823D01*
X23188Y-33726D01*
X23308Y-33652D01*
X23360Y-33625D01*
X23408Y-33603D01*
X23452Y-33586D01*
X23490Y-33575D01*
X23522Y-33569D01*
X23544Y-33567D01*
X24197D01*
X24274Y-33557D01*
X24277Y-33556D01*
X24309Y-33597D01*
X24261Y-33659D01*
X24221Y-33755D01*
X24208Y-33858D01*
X24221Y-33961D01*
X24261Y-34058D01*
X24324Y-34140D01*
X24407Y-34204D01*
X24503Y-34243D01*
X24606Y-34257D01*
X24709Y-34243D01*
X24806Y-34204D01*
X24888Y-34140D01*
X24952Y-34058D01*
X24991Y-33961D01*
X25005Y-33858D01*
X24991Y-33755D01*
X24952Y-33659D01*
X24888Y-33576D01*
X24806Y-33513D01*
X24709Y-33473D01*
X24606Y-33460D01*
X24503Y-33473D01*
X24473Y-33486D01*
X24445Y-33443D01*
X24553Y-33335D01*
X24578Y-33311D01*
X24614Y-33281D01*
X24628Y-33271D01*
X24641Y-33262D01*
X24651Y-33257D01*
X24658Y-33253D01*
X24662Y-33252D01*
X24670Y-33250D01*
X24675Y-33248D01*
X24709Y-33243D01*
X24806Y-33204D01*
X24888Y-33140D01*
X24952Y-33058D01*
X24991Y-32961D01*
X25005Y-32858D01*
X24991Y-32755D01*
X24952Y-32659D01*
X24888Y-32576D01*
X24806Y-32513D01*
X24709Y-32473D01*
X24606Y-32460D01*
X24503Y-32473D01*
X24407Y-32513D01*
X24324Y-32576D01*
X24261Y-32659D01*
X24221Y-32755D01*
X24217Y-32790D01*
X24214Y-32795D01*
X24213Y-32802D01*
X24211Y-32806D01*
X24208Y-32814D01*
X24202Y-32824D01*
X24194Y-32837D01*
X24184Y-32850D01*
X24136Y-32905D01*
X24073Y-32968D01*
X23544D01*
X23522Y-32967D01*
X23490Y-32961D01*
X23452Y-32949D01*
X23408Y-32933D01*
X23360Y-32911D01*
X23309Y-32884D01*
X23122Y-32764D01*
X23053Y-32713D01*
X23048Y-32711D01*
X23023Y-32691D01*
X22903Y-32627D01*
X22773Y-32587D01*
X22638Y-32574D01*
X22502Y-32587D01*
X22372Y-32627D01*
X22252Y-32691D01*
X22228Y-32711D01*
X22224Y-32712D01*
X22087Y-32810D01*
X21968Y-32883D01*
X21916Y-32911D01*
X21867Y-32933D01*
X21824Y-32949D01*
X21786Y-32961D01*
X21753Y-32967D01*
X21732Y-32968D01*
X21599D01*
X21552Y-32967D01*
X21492Y-32962D01*
X21441Y-32953D01*
X21401Y-32943D01*
X21371Y-32930D01*
X21351Y-32918D01*
X21340Y-32908D01*
X21334Y-32899D01*
X21330Y-32889D01*
X21328Y-32873D01*
Y-32577D01*
X20424D01*
X20393Y-32559D01*
X20336Y-32520D01*
X20198Y-32402D01*
X20145Y-32351D01*
X18487Y-30694D01*
X18425Y-30646D01*
X18353Y-30616D01*
X18276Y-30606D01*
X10105D01*
X10058Y-30604D01*
X10033Y-30601D01*
X10009Y-30597D01*
X9987Y-30592D01*
X9967Y-30586D01*
X9950Y-30580D01*
X9934Y-30573D01*
X9920Y-30565D01*
X9904Y-30554D01*
X9898Y-30551D01*
X9865Y-30526D01*
X9759Y-30482D01*
X9646Y-30467D01*
D02*
G37*
G36*
X32282Y-33940D02*
X31940D01*
Y-34282D01*
X31993Y-34275D01*
X32089Y-34235D01*
X32172Y-34172D01*
X32235Y-34089D01*
X32275Y-33993D01*
X32282Y-33940D01*
D02*
G37*
G36*
X31840D02*
X31498D01*
X31505Y-33993D01*
X31544Y-34089D01*
X31608Y-34172D01*
X31690Y-34235D01*
X31787Y-34275D01*
X31840Y-34282D01*
Y-33940D01*
D02*
G37*
G36*
X31940Y-34498D02*
Y-34840D01*
X32282D01*
X32275Y-34787D01*
X32235Y-34690D01*
X32172Y-34608D01*
X32089Y-34544D01*
X31993Y-34505D01*
X31940Y-34498D01*
D02*
G37*
G36*
X31840D02*
X31787Y-34505D01*
X31690Y-34544D01*
X31608Y-34608D01*
X31544Y-34690D01*
X31505Y-34787D01*
X31498Y-34840D01*
X31840D01*
Y-34498D01*
D02*
G37*
G36*
X5118Y-33455D02*
X5010Y-33470D01*
X4909Y-33512D01*
X4822Y-33578D01*
X4756Y-33665D01*
X4714Y-33766D01*
X4700Y-33874D01*
X4714Y-33982D01*
X4756Y-34083D01*
X4822Y-34170D01*
X4909Y-34236D01*
X5010Y-34278D01*
X5049Y-34283D01*
X5057Y-34286D01*
X5149Y-34302D01*
X5185Y-34309D01*
X5250Y-34327D01*
X5273Y-34335D01*
X5293Y-34344D01*
X5308Y-34351D01*
X5312Y-34354D01*
X5550Y-34592D01*
X5615Y-34636D01*
X5615Y-34636D01*
X5693Y-34651D01*
X6610D01*
X6615Y-34652D01*
X6629Y-34657D01*
X6675Y-34677D01*
X6699Y-34690D01*
X6800Y-34755D01*
X6837Y-34783D01*
X6845Y-34787D01*
X6877Y-34811D01*
X6978Y-34853D01*
X7087Y-34867D01*
X7195Y-34853D01*
X7296Y-34811D01*
X7383Y-34745D01*
X7449Y-34658D01*
X7491Y-34557D01*
X7505Y-34449D01*
X7491Y-34340D01*
X7449Y-34240D01*
X7383Y-34153D01*
X7296Y-34086D01*
X7195Y-34045D01*
X7087Y-34030D01*
X6978Y-34045D01*
X6877Y-34086D01*
X6846Y-34111D01*
X6838Y-34114D01*
X6763Y-34168D01*
X6732Y-34188D01*
X6673Y-34222D01*
X6651Y-34233D01*
X6631Y-34241D01*
X6615Y-34245D01*
X6610Y-34247D01*
X5777D01*
X5598Y-34068D01*
X5595Y-34064D01*
X5589Y-34051D01*
X5570Y-34003D01*
X5563Y-33977D01*
X5538Y-33860D01*
X5531Y-33814D01*
X5528Y-33806D01*
X5522Y-33766D01*
X5481Y-33665D01*
X5414Y-33578D01*
X5327Y-33512D01*
X5226Y-33470D01*
X5118Y-33455D01*
D02*
G37*
G36*
X17126Y-34444D02*
X17023Y-34457D01*
X16927Y-34497D01*
X16844Y-34561D01*
X16781Y-34643D01*
X16741Y-34739D01*
X16727Y-34843D01*
X16741Y-34946D01*
X16781Y-35042D01*
X16844Y-35124D01*
X16927Y-35188D01*
X17023Y-35228D01*
X17126Y-35241D01*
X17229Y-35228D01*
X17325Y-35188D01*
X17408Y-35124D01*
X17471Y-35042D01*
X17511Y-34946D01*
X17525Y-34843D01*
X17511Y-34739D01*
X17471Y-34643D01*
X17408Y-34561D01*
X17325Y-34497D01*
X17229Y-34457D01*
X17126Y-34444D01*
D02*
G37*
G36*
X24606Y-34460D02*
X24503Y-34473D01*
X24407Y-34513D01*
X24324Y-34576D01*
X24261Y-34659D01*
X24221Y-34755D01*
X24208Y-34858D01*
X24221Y-34961D01*
X24261Y-35058D01*
X24324Y-35140D01*
X24407Y-35204D01*
X24503Y-35243D01*
X24606Y-35257D01*
X24709Y-35243D01*
X24806Y-35204D01*
X24888Y-35140D01*
X24952Y-35058D01*
X24991Y-34961D01*
X25005Y-34858D01*
X24991Y-34755D01*
X24952Y-34659D01*
X24888Y-34576D01*
X24806Y-34513D01*
X24709Y-34473D01*
X24606Y-34460D01*
D02*
G37*
G36*
X32282Y-34940D02*
X31940D01*
Y-35282D01*
X31993Y-35275D01*
X32089Y-35235D01*
X32172Y-35172D01*
X32235Y-35089D01*
X32275Y-34993D01*
X32282Y-34940D01*
D02*
G37*
G36*
X31840D02*
X31498D01*
X31505Y-34993D01*
X31544Y-35089D01*
X31608Y-35172D01*
X31690Y-35235D01*
X31787Y-35275D01*
X31840Y-35282D01*
Y-34940D01*
D02*
G37*
G36*
X37402Y-36708D02*
X37266Y-36721D01*
X37136Y-36761D01*
X37016Y-36825D01*
X36911Y-36911D01*
X36825Y-37016D01*
X36761Y-37136D01*
X36721Y-37266D01*
X36708Y-37402D01*
X36721Y-37537D01*
X36761Y-37667D01*
X36825Y-37787D01*
X36911Y-37892D01*
X37016Y-37979D01*
X37136Y-38043D01*
X37266Y-38082D01*
X37402Y-38095D01*
X37537Y-38082D01*
X37667Y-38043D01*
X37787Y-37979D01*
X37892Y-37892D01*
X37979Y-37787D01*
X38043Y-37667D01*
X38082Y-37537D01*
X38095Y-37402D01*
X38082Y-37266D01*
X38043Y-37136D01*
X37979Y-37016D01*
X37892Y-36911D01*
X37787Y-36825D01*
X37667Y-36761D01*
X37537Y-36721D01*
X37402Y-36708D01*
D02*
G37*
G36*
X1969D02*
X1833Y-36721D01*
X1703Y-36761D01*
X1583Y-36825D01*
X1478Y-36911D01*
X1392Y-37016D01*
X1327Y-37136D01*
X1288Y-37266D01*
X1275Y-37402D01*
X1288Y-37537D01*
X1327Y-37667D01*
X1392Y-37787D01*
X1478Y-37892D01*
X1583Y-37979D01*
X1703Y-38043D01*
X1833Y-38082D01*
X1969Y-38095D01*
X2104Y-38082D01*
X2234Y-38043D01*
X2354Y-37979D01*
X2459Y-37892D01*
X2545Y-37787D01*
X2610Y-37667D01*
X2649Y-37537D01*
X2662Y-37402D01*
X2649Y-37266D01*
X2610Y-37136D01*
X2545Y-37016D01*
X2459Y-36911D01*
X2354Y-36825D01*
X2234Y-36761D01*
X2104Y-36721D01*
X1969Y-36708D01*
D02*
G37*
%LPD*%
G36*
X22276Y-3702D02*
X22425Y-3796D01*
X22456Y-3812D01*
X22484Y-3823D01*
X22509Y-3832D01*
X22532Y-3837D01*
X22540Y-3838D01*
X22573Y-3835D01*
X22602Y-3830D01*
X22628Y-3823D01*
X22650Y-3814D01*
X22668Y-3803D01*
X22681Y-3790D01*
X22691Y-3776D01*
X22697Y-3759D01*
X22699Y-3740D01*
Y-4134D01*
X22697Y-4115D01*
X22691Y-4098D01*
X22681Y-4084D01*
X22668Y-4071D01*
X22650Y-4060D01*
X22628Y-4051D01*
X22602Y-4044D01*
X22573Y-4039D01*
X22540Y-4036D01*
X22532Y-4037D01*
X22509Y-4042D01*
X22484Y-4051D01*
X22456Y-4062D01*
X22425Y-4078D01*
X22356Y-4118D01*
X22276Y-4172D01*
X22232Y-4205D01*
Y-3669D01*
X22276Y-3702D01*
D02*
G37*
G36*
X32984Y-4467D02*
X32969Y-4456D01*
X32951Y-4451D01*
X32930D01*
X32906Y-4456D01*
X32880Y-4467D01*
X32851Y-4484D01*
X32819Y-4506D01*
X32784Y-4534D01*
X32706Y-4606D01*
X32567Y-4467D01*
X32606Y-4427D01*
X32667Y-4355D01*
X32689Y-4323D01*
X32706Y-4293D01*
X32717Y-4267D01*
X32723Y-4243D01*
Y-4222D01*
X32717Y-4204D01*
X32706Y-4189D01*
X32984Y-4467D01*
D02*
G37*
G36*
X32194Y-5118D02*
X32181Y-5133D01*
X32169Y-5152D01*
X32157Y-5175D01*
X32146Y-5201D01*
X32135Y-5232D01*
X32116Y-5303D01*
X32107Y-5344D01*
X32091Y-5438D01*
X31735Y-5082D01*
X31784Y-5074D01*
X31908Y-5048D01*
X31942Y-5038D01*
X31998Y-5016D01*
X32021Y-5004D01*
X32040Y-4992D01*
X32055Y-4979D01*
X32194Y-5118D01*
D02*
G37*
G36*
X10361Y-3784D02*
X10339Y-3807D01*
X10284Y-3871D01*
X10270Y-3889D01*
X10259Y-3907D01*
X10249Y-3924D01*
X10242Y-3940D01*
X10237Y-3954D01*
X10234Y-3968D01*
X9941Y-3675D01*
X9649Y-3968D01*
X9646Y-3954D01*
X9641Y-3940D01*
X9634Y-3924D01*
X9624Y-3907D01*
X9612Y-3889D01*
X9599Y-3871D01*
X9564Y-3830D01*
X9521Y-3784D01*
X9800Y-3506D01*
X9823Y-3528D01*
X9886Y-3583D01*
X9905Y-3597D01*
X9923Y-3609D01*
X9939Y-3618D01*
X9941Y-3619D01*
X9943Y-3618D01*
X9960Y-3609D01*
X9978Y-3597D01*
X9997Y-3583D01*
X10038Y-3549D01*
X10083Y-3506D01*
X10361Y-3784D01*
D02*
G37*
G36*
X28528Y-3697D02*
X28534Y-3761D01*
X28539Y-3790D01*
X28545Y-3818D01*
X28553Y-3844D01*
X28562Y-3869D01*
X28573Y-3892D01*
X28585Y-3913D01*
X28598Y-3933D01*
X28063D01*
X28077Y-3913D01*
X28089Y-3892D01*
X28099Y-3869D01*
X28108Y-3844D01*
X28116Y-3818D01*
X28123Y-3790D01*
X28127Y-3761D01*
X28131Y-3730D01*
X28134Y-3662D01*
X28528D01*
X28528Y-3697D01*
D02*
G37*
G36*
X4118Y-4800D02*
X4128Y-4947D01*
X4132Y-4962D01*
X4136Y-4974D01*
X4141Y-4980D01*
X4146Y-4983D01*
X3697D01*
X3702Y-4980D01*
X3707Y-4974D01*
X3711Y-4962D01*
X3714Y-4947D01*
X3717Y-4926D01*
X3722Y-4872D01*
X3724Y-4757D01*
X4118D01*
X4118Y-4800D01*
D02*
G37*
G36*
X25764Y-5162D02*
X25728Y-5136D01*
X25631Y-5074D01*
X25603Y-5059D01*
X25576Y-5046D01*
X25551Y-5037D01*
X25527Y-5030D01*
X25506Y-5026D01*
X25486Y-5024D01*
Y-4828D01*
X25506Y-4826D01*
X25527Y-4822D01*
X25551Y-4815D01*
X25576Y-4806D01*
X25603Y-4793D01*
X25631Y-4778D01*
X25694Y-4739D01*
X25764Y-4690D01*
Y-5162D01*
D02*
G37*
G36*
X8764D02*
X8728Y-5136D01*
X8632Y-5074D01*
X8603Y-5059D01*
X8576Y-5046D01*
X8551Y-5037D01*
X8527Y-5030D01*
X8506Y-5026D01*
X8486Y-5024D01*
Y-4828D01*
X8506Y-4826D01*
X8527Y-4822D01*
X8551Y-4815D01*
X8576Y-4806D01*
X8603Y-4793D01*
X8632Y-4778D01*
X8694Y-4739D01*
X8764Y-4690D01*
Y-5162D01*
D02*
G37*
G36*
X25704Y-5547D02*
X25722Y-5560D01*
X25743Y-5571D01*
X25768Y-5582D01*
X25796Y-5593D01*
X25827Y-5602D01*
X25899Y-5619D01*
X25983Y-5634D01*
X25649Y-5968D01*
X25642Y-5924D01*
X25618Y-5812D01*
X25608Y-5781D01*
X25598Y-5753D01*
X25587Y-5728D01*
X25575Y-5707D01*
X25563Y-5688D01*
X25550Y-5673D01*
X25689Y-5534D01*
X25704Y-5547D01*
D02*
G37*
G36*
X24456Y-6105D02*
X24430Y-6086D01*
X24379Y-6054D01*
X24355Y-6040D01*
X24331Y-6029D01*
X24309Y-6020D01*
X24287Y-6013D01*
X24266Y-6008D01*
X24246Y-6005D01*
X24226Y-6004D01*
Y-5807D01*
X24246Y-5806D01*
X24266Y-5803D01*
X24287Y-5798D01*
X24309Y-5791D01*
X24331Y-5782D01*
X24355Y-5771D01*
X24379Y-5757D01*
X24430Y-5725D01*
X24456Y-5706D01*
Y-6105D01*
D02*
G37*
G36*
X8754Y-6154D02*
X8718Y-6126D01*
X8622Y-6058D01*
X8594Y-6041D01*
X8567Y-6028D01*
X8543Y-6017D01*
X8520Y-6010D01*
X8499Y-6005D01*
X8479Y-6004D01*
X8494Y-5807D01*
X8514Y-5806D01*
X8537Y-5802D01*
X8561Y-5796D01*
X8586Y-5787D01*
X8613Y-5776D01*
X8673Y-5746D01*
X8705Y-5727D01*
X8774Y-5682D01*
X8754Y-6154D01*
D02*
G37*
G36*
X10154Y-5716D02*
X10251Y-5778D01*
X10280Y-5793D01*
X10307Y-5806D01*
X10332Y-5815D01*
X10355Y-5822D01*
X10377Y-5826D01*
X10397Y-5828D01*
Y-6024D01*
X10377Y-6026D01*
X10355Y-6030D01*
X10332Y-6037D01*
X10307Y-6046D01*
X10280Y-6059D01*
X10251Y-6074D01*
X10188Y-6113D01*
X10119Y-6162D01*
Y-5690D01*
X10154Y-5716D01*
D02*
G37*
G36*
X26704Y-6547D02*
X26722Y-6560D01*
X26743Y-6571D01*
X26768Y-6582D01*
X26796Y-6593D01*
X26827Y-6602D01*
X26899Y-6619D01*
X26983Y-6634D01*
X26649Y-6968D01*
X26642Y-6924D01*
X26618Y-6812D01*
X26608Y-6781D01*
X26598Y-6753D01*
X26587Y-6728D01*
X26575Y-6707D01*
X26563Y-6688D01*
X26550Y-6673D01*
X26689Y-6534D01*
X26704Y-6547D01*
D02*
G37*
G36*
X26333Y-7673D02*
X26320Y-7688D01*
X26308Y-7707D01*
X26296Y-7728D01*
X26285Y-7753D01*
X26275Y-7781D01*
X26265Y-7812D01*
X26248Y-7883D01*
X26234Y-7968D01*
X25900Y-7634D01*
X25944Y-7627D01*
X26056Y-7602D01*
X26087Y-7593D01*
X26115Y-7582D01*
X26139Y-7571D01*
X26161Y-7560D01*
X26179Y-7547D01*
X26194Y-7534D01*
X26333Y-7673D01*
D02*
G37*
G36*
X8764Y-8162D02*
X8728Y-8136D01*
X8632Y-8074D01*
X8603Y-8059D01*
X8576Y-8046D01*
X8551Y-8037D01*
X8527Y-8030D01*
X8506Y-8026D01*
X8486Y-8024D01*
Y-7828D01*
X8506Y-7826D01*
X8527Y-7822D01*
X8551Y-7815D01*
X8576Y-7806D01*
X8603Y-7793D01*
X8632Y-7778D01*
X8694Y-7739D01*
X8764Y-7690D01*
Y-8162D01*
D02*
G37*
G36*
X13288Y-8104D02*
X13291Y-8124D01*
X13297Y-8145D01*
X13304Y-8167D01*
X13313Y-8189D01*
X13324Y-8213D01*
X13337Y-8237D01*
X13370Y-8288D01*
X13389Y-8314D01*
X12989D01*
X13008Y-8288D01*
X13041Y-8237D01*
X13054Y-8213D01*
X13065Y-8189D01*
X13074Y-8167D01*
X13081Y-8145D01*
X13087Y-8124D01*
X13090Y-8104D01*
X13091Y-8085D01*
X13287D01*
X13288Y-8104D01*
D02*
G37*
G36*
X10240Y-7928D02*
X10265Y-8040D01*
X10275Y-8071D01*
X10285Y-8099D01*
X10296Y-8124D01*
X10308Y-8145D01*
X10320Y-8163D01*
X10333Y-8179D01*
X10194Y-8318D01*
X10179Y-8305D01*
X10161Y-8292D01*
X10139Y-8281D01*
X10115Y-8270D01*
X10087Y-8259D01*
X10056Y-8250D01*
X9984Y-8233D01*
X9900Y-8218D01*
X10234Y-7884D01*
X10240Y-7928D01*
D02*
G37*
G36*
X12251Y-8664D02*
X12225Y-8645D01*
X12174Y-8613D01*
X12150Y-8600D01*
X12126Y-8588D01*
X12104Y-8579D01*
X12082Y-8572D01*
X12061Y-8567D01*
X12041Y-8564D01*
X12022Y-8563D01*
Y-8366D01*
X12041Y-8365D01*
X12061Y-8362D01*
X12082Y-8357D01*
X12104Y-8350D01*
X12126Y-8341D01*
X12150Y-8330D01*
X12174Y-8316D01*
X12225Y-8284D01*
X12251Y-8265D01*
Y-8664D01*
D02*
G37*
G36*
X25232Y-8516D02*
X25206Y-8542D01*
X25163Y-8592D01*
X25146Y-8616D01*
X25131Y-8638D01*
X25119Y-8660D01*
X25110Y-8680D01*
X25103Y-8700D01*
X25099Y-8718D01*
X25098Y-8736D01*
X24901Y-8687D01*
X24900Y-8665D01*
X24898Y-8643D01*
X24895Y-8621D01*
X24890Y-8598D01*
X24885Y-8576D01*
X24869Y-8530D01*
X24859Y-8507D01*
X24836Y-8460D01*
X25232Y-8516D01*
D02*
G37*
G36*
X26333Y-8673D02*
X26320Y-8688D01*
X26308Y-8707D01*
X26296Y-8728D01*
X26285Y-8753D01*
X26275Y-8781D01*
X26265Y-8812D01*
X26248Y-8883D01*
X26234Y-8968D01*
X25900Y-8634D01*
X25944Y-8627D01*
X26056Y-8602D01*
X26087Y-8593D01*
X26115Y-8582D01*
X26139Y-8571D01*
X26161Y-8560D01*
X26179Y-8547D01*
X26194Y-8534D01*
X26333Y-8673D01*
D02*
G37*
G36*
X8704Y-8547D02*
X8722Y-8560D01*
X8743Y-8571D01*
X8768Y-8582D01*
X8796Y-8593D01*
X8827Y-8602D01*
X8899Y-8619D01*
X8983Y-8634D01*
X8649Y-8968D01*
X8642Y-8924D01*
X8618Y-8812D01*
X8608Y-8781D01*
X8598Y-8753D01*
X8587Y-8728D01*
X8575Y-8707D01*
X8563Y-8688D01*
X8550Y-8673D01*
X8689Y-8534D01*
X8704Y-8547D01*
D02*
G37*
G36*
X7724Y-9058D02*
X7697Y-9039D01*
X7646Y-9006D01*
X7622Y-8993D01*
X7599Y-8982D01*
X7576Y-8973D01*
X7555Y-8966D01*
X7534Y-8961D01*
X7514Y-8958D01*
X7494Y-8957D01*
Y-8760D01*
X7514Y-8759D01*
X7534Y-8756D01*
X7555Y-8751D01*
X7576Y-8744D01*
X7599Y-8734D01*
X7622Y-8723D01*
X7646Y-8710D01*
X7697Y-8678D01*
X7724Y-8658D01*
Y-9058D01*
D02*
G37*
G36*
X14453Y-9081D02*
X14431Y-9070D01*
X14387Y-9052D01*
X14364Y-9045D01*
X14320Y-9033D01*
X14297Y-9029D01*
X14253Y-9025D01*
X14230Y-9024D01*
X14169Y-8828D01*
X14186Y-8826D01*
X14204Y-8822D01*
X14223Y-8815D01*
X14244Y-8805D01*
X14265Y-8792D01*
X14287Y-8777D01*
X14310Y-8759D01*
X14359Y-8714D01*
X14385Y-8687D01*
X14453Y-9081D01*
D02*
G37*
G36*
X27116Y-8684D02*
X27209Y-8726D01*
X27238Y-8737D01*
X27292Y-8751D01*
X27316Y-8756D01*
X27340Y-8759D01*
X27363Y-8760D01*
X27412Y-8957D01*
X27394Y-8958D01*
X27374Y-8964D01*
X27353Y-8973D01*
X27329Y-8985D01*
X27304Y-9001D01*
X27277Y-9021D01*
X27218Y-9070D01*
X27185Y-9100D01*
X27151Y-9134D01*
X27083Y-8667D01*
X27116Y-8684D01*
D02*
G37*
G36*
X10154Y-8716D02*
X10251Y-8778D01*
X10280Y-8793D01*
X10307Y-8806D01*
X10332Y-8815D01*
X10355Y-8822D01*
X10377Y-8826D01*
X10397Y-8828D01*
Y-9024D01*
X10377Y-9026D01*
X10355Y-9030D01*
X10332Y-9037D01*
X10307Y-9046D01*
X10280Y-9059D01*
X10251Y-9074D01*
X10188Y-9113D01*
X10119Y-9162D01*
Y-8690D01*
X10154Y-8716D01*
D02*
G37*
G36*
X28082Y-8852D02*
X28101Y-8864D01*
X28124Y-8876D01*
X28150Y-8887D01*
X28181Y-8898D01*
X28252Y-8916D01*
X28294Y-8925D01*
X28388Y-8940D01*
X28035Y-9299D01*
X28027Y-9250D01*
X28000Y-9127D01*
X27990Y-9094D01*
X27968Y-9037D01*
X27956Y-9015D01*
X27943Y-8996D01*
X27930Y-8980D01*
X28067Y-8839D01*
X28082Y-8852D01*
D02*
G37*
G36*
X29966Y-9564D02*
X29917Y-9571D01*
X29793Y-9598D01*
X29759Y-9608D01*
X29703Y-9629D01*
X29680Y-9641D01*
X29661Y-9654D01*
X29646Y-9667D01*
X29506Y-9528D01*
X29520Y-9512D01*
X29532Y-9493D01*
X29544Y-9471D01*
X29555Y-9444D01*
X29566Y-9414D01*
X29585Y-9343D01*
X29594Y-9301D01*
X29609Y-9208D01*
X29966Y-9564D01*
D02*
G37*
G36*
X3446Y-9728D02*
X3449Y-9761D01*
X3454Y-9791D01*
X3461Y-9817D01*
X3469Y-9839D01*
X3480Y-9857D01*
X3493Y-9870D01*
X3508Y-9880D01*
X3525Y-9886D01*
X3543Y-9888D01*
X3150D01*
X3168Y-9886D01*
X3185Y-9880D01*
X3200Y-9870D01*
X3213Y-9857D01*
X3223Y-9839D01*
X3232Y-9817D01*
X3239Y-9791D01*
X3244Y-9761D01*
X3247Y-9728D01*
X3248Y-9690D01*
X3445D01*
X3446Y-9728D01*
D02*
G37*
G36*
X5984Y-9871D02*
X5945Y-9912D01*
X5884Y-9984D01*
X5861Y-10016D01*
X5845Y-10046D01*
X5833Y-10072D01*
X5828Y-10096D01*
X5828Y-10116D01*
X5833Y-10134D01*
X5844Y-10150D01*
X5567Y-9872D01*
X5582Y-9883D01*
X5600Y-9889D01*
X5621Y-9889D01*
X5645Y-9883D01*
X5671Y-9872D01*
X5700Y-9855D01*
X5732Y-9833D01*
X5767Y-9805D01*
X5845Y-9732D01*
X5984Y-9871D01*
D02*
G37*
G36*
X27154Y-9716D02*
X27251Y-9778D01*
X27280Y-9793D01*
X27307Y-9806D01*
X27332Y-9815D01*
X27355Y-9822D01*
X27377Y-9826D01*
X27397Y-9828D01*
Y-10024D01*
X27377Y-10026D01*
X27355Y-10030D01*
X27332Y-10037D01*
X27307Y-10046D01*
X27280Y-10059D01*
X27251Y-10074D01*
X27188Y-10113D01*
X27119Y-10162D01*
Y-9690D01*
X27154Y-9716D01*
D02*
G37*
G36*
X26240Y-9928D02*
X26265Y-10040D01*
X26275Y-10071D01*
X26285Y-10099D01*
X26296Y-10124D01*
X26308Y-10145D01*
X26320Y-10163D01*
X26333Y-10179D01*
X26194Y-10318D01*
X26179Y-10305D01*
X26161Y-10292D01*
X26139Y-10281D01*
X26115Y-10270D01*
X26087Y-10259D01*
X26056Y-10250D01*
X25984Y-10233D01*
X25900Y-10218D01*
X26234Y-9884D01*
X26240Y-9928D01*
D02*
G37*
G36*
X9983Y-10218D02*
X9939Y-10225D01*
X9827Y-10250D01*
X9796Y-10259D01*
X9768Y-10270D01*
X9743Y-10281D01*
X9722Y-10292D01*
X9704Y-10305D01*
X9689Y-10318D01*
X9550Y-10179D01*
X9563Y-10163D01*
X9575Y-10145D01*
X9587Y-10124D01*
X9598Y-10099D01*
X9608Y-10071D01*
X9618Y-10040D01*
X9635Y-9969D01*
X9649Y-9884D01*
X9983Y-10218D01*
D02*
G37*
G36*
X5955Y-10917D02*
X5941Y-10932D01*
X5929Y-10952D01*
X5916Y-10976D01*
X5904Y-11004D01*
X5893Y-11036D01*
X5871Y-11113D01*
X5851Y-11206D01*
X5842Y-11259D01*
X5472Y-10872D01*
X5526Y-10865D01*
X5700Y-10830D01*
X5733Y-10820D01*
X5762Y-10809D01*
X5786Y-10798D01*
X5805Y-10785D01*
X5821Y-10773D01*
X5955Y-10917D01*
D02*
G37*
G36*
X3784Y-10922D02*
X3771Y-10937D01*
X3759Y-10957D01*
X3747Y-10981D01*
X3735Y-11009D01*
X3724Y-11042D01*
X3704Y-11119D01*
X3686Y-11214D01*
X3678Y-11268D01*
X3299Y-10889D01*
X3353Y-10881D01*
X3525Y-10843D01*
X3558Y-10832D01*
X3586Y-10820D01*
X3610Y-10808D01*
X3630Y-10796D01*
X3645Y-10783D01*
X3784Y-10922D01*
D02*
G37*
G36*
X26240Y-10928D02*
X26265Y-11040D01*
X26275Y-11071D01*
X26285Y-11099D01*
X26296Y-11124D01*
X26308Y-11145D01*
X26320Y-11163D01*
X26333Y-11179D01*
X26194Y-11318D01*
X26179Y-11305D01*
X26161Y-11292D01*
X26139Y-11281D01*
X26115Y-11270D01*
X26087Y-11259D01*
X26056Y-11250D01*
X25984Y-11233D01*
X25900Y-11218D01*
X26234Y-10884D01*
X26240Y-10928D01*
D02*
G37*
G36*
X12259Y-11623D02*
X12233Y-11605D01*
X12183Y-11576D01*
X12159Y-11564D01*
X12135Y-11554D01*
X12113Y-11545D01*
X12091Y-11539D01*
X12069Y-11534D01*
X12049Y-11532D01*
X12029Y-11531D01*
X12016Y-11334D01*
X12035Y-11333D01*
X12054Y-11329D01*
X12075Y-11324D01*
X12096Y-11316D01*
X12119Y-11306D01*
X12142Y-11294D01*
X12166Y-11280D01*
X12217Y-11244D01*
X12244Y-11223D01*
X12259Y-11623D01*
D02*
G37*
G36*
X9333Y-11673D02*
X9320Y-11688D01*
X9308Y-11707D01*
X9296Y-11728D01*
X9285Y-11753D01*
X9275Y-11781D01*
X9265Y-11812D01*
X9248Y-11883D01*
X9234Y-11968D01*
X8900Y-11634D01*
X8944Y-11627D01*
X9056Y-11602D01*
X9087Y-11593D01*
X9115Y-11582D01*
X9139Y-11571D01*
X9161Y-11560D01*
X9179Y-11547D01*
X9194Y-11534D01*
X9333Y-11673D01*
D02*
G37*
G36*
X3784Y-11922D02*
X3771Y-11937D01*
X3759Y-11957D01*
X3747Y-11981D01*
X3735Y-12009D01*
X3724Y-12042D01*
X3704Y-12119D01*
X3686Y-12214D01*
X3678Y-12268D01*
X3299Y-11889D01*
X3353Y-11881D01*
X3525Y-11843D01*
X3558Y-11832D01*
X3586Y-11820D01*
X3610Y-11808D01*
X3630Y-11796D01*
X3645Y-11783D01*
X3784Y-11922D01*
D02*
G37*
G36*
X12858Y-12612D02*
X12832Y-12597D01*
X12783Y-12571D01*
X12759Y-12560D01*
X12714Y-12544D01*
X12691Y-12538D01*
X12670Y-12534D01*
X12649Y-12532D01*
X12628Y-12531D01*
X12601Y-12334D01*
X12620Y-12333D01*
X12639Y-12329D01*
X12659Y-12323D01*
X12680Y-12315D01*
X12702Y-12304D01*
X12725Y-12291D01*
X12749Y-12275D01*
X12800Y-12237D01*
X12827Y-12214D01*
X12858Y-12612D01*
D02*
G37*
G36*
X5851Y-12211D02*
X5890Y-12383D01*
X5900Y-12416D01*
X5912Y-12444D01*
X5924Y-12468D01*
X5936Y-12488D01*
X5950Y-12503D01*
X5810Y-12642D01*
X5795Y-12629D01*
X5775Y-12617D01*
X5751Y-12605D01*
X5723Y-12593D01*
X5691Y-12582D01*
X5613Y-12562D01*
X5518Y-12544D01*
X5465Y-12536D01*
X5843Y-12158D01*
X5851Y-12211D01*
D02*
G37*
G36*
X23854Y-12649D02*
X23822Y-12654D01*
X23763Y-12667D01*
X23736Y-12675D01*
X23712Y-12684D01*
X23689Y-12693D01*
X23669Y-12703D01*
X23651Y-12715D01*
X23634Y-12727D01*
X23620Y-12740D01*
X23481Y-12601D01*
X23494Y-12586D01*
X23506Y-12570D01*
X23517Y-12551D01*
X23527Y-12531D01*
X23537Y-12509D01*
X23545Y-12484D01*
X23553Y-12458D01*
X23566Y-12399D01*
X23571Y-12366D01*
X23854Y-12649D01*
D02*
G37*
G36*
X9333Y-12673D02*
X9320Y-12688D01*
X9308Y-12707D01*
X9296Y-12728D01*
X9285Y-12753D01*
X9275Y-12781D01*
X9265Y-12812D01*
X9248Y-12883D01*
X9234Y-12968D01*
X8900Y-12634D01*
X8944Y-12627D01*
X9056Y-12602D01*
X9087Y-12593D01*
X9115Y-12582D01*
X9139Y-12571D01*
X9161Y-12560D01*
X9179Y-12547D01*
X9194Y-12534D01*
X9333Y-12673D01*
D02*
G37*
G36*
X3784Y-12922D02*
X3771Y-12937D01*
X3759Y-12957D01*
X3747Y-12981D01*
X3735Y-13009D01*
X3724Y-13042D01*
X3704Y-13119D01*
X3686Y-13214D01*
X3678Y-13268D01*
X3299Y-12889D01*
X3353Y-12881D01*
X3525Y-12843D01*
X3558Y-12832D01*
X3586Y-12820D01*
X3610Y-12808D01*
X3630Y-12796D01*
X3645Y-12783D01*
X3784Y-12922D01*
D02*
G37*
G36*
X5851Y-13211D02*
X5890Y-13383D01*
X5900Y-13416D01*
X5912Y-13444D01*
X5924Y-13468D01*
X5936Y-13488D01*
X5950Y-13503D01*
X5810Y-13642D01*
X5795Y-13629D01*
X5775Y-13617D01*
X5751Y-13605D01*
X5723Y-13593D01*
X5691Y-13582D01*
X5613Y-13562D01*
X5518Y-13544D01*
X5465Y-13536D01*
X5843Y-13158D01*
X5851Y-13211D01*
D02*
G37*
G36*
X29190Y-13383D02*
X29203Y-13442D01*
X29210Y-13468D01*
X29219Y-13493D01*
X29229Y-13515D01*
X29239Y-13536D01*
X29250Y-13554D01*
X29262Y-13570D01*
X29275Y-13585D01*
X29136Y-13724D01*
X29122Y-13711D01*
X29105Y-13699D01*
X29087Y-13688D01*
X29066Y-13677D01*
X29044Y-13668D01*
X29020Y-13659D01*
X28993Y-13651D01*
X28934Y-13639D01*
X28902Y-13633D01*
X29185Y-13351D01*
X29190Y-13383D01*
D02*
G37*
G36*
X3784Y-13922D02*
X3771Y-13937D01*
X3759Y-13957D01*
X3747Y-13981D01*
X3735Y-14009D01*
X3724Y-14042D01*
X3704Y-14119D01*
X3686Y-14214D01*
X3678Y-14268D01*
X3299Y-13889D01*
X3353Y-13881D01*
X3525Y-13843D01*
X3558Y-13832D01*
X3586Y-13820D01*
X3610Y-13808D01*
X3630Y-13796D01*
X3645Y-13783D01*
X3784Y-13922D01*
D02*
G37*
G36*
X5757Y-13969D02*
X5905Y-14064D01*
X5936Y-14079D01*
X5964Y-14091D01*
X5989Y-14100D01*
X6012Y-14105D01*
X6032Y-14106D01*
Y-14303D01*
X6012Y-14305D01*
X5989Y-14310D01*
X5964Y-14318D01*
X5936Y-14330D01*
X5905Y-14345D01*
X5836Y-14386D01*
X5757Y-14440D01*
X5713Y-14472D01*
Y-13937D01*
X5757Y-13969D01*
D02*
G37*
G36*
X19631Y-14345D02*
X19669Y-14517D01*
X19680Y-14550D01*
X19691Y-14578D01*
X19703Y-14602D01*
X19716Y-14622D01*
X19729Y-14637D01*
X19590Y-14776D01*
X19574Y-14763D01*
X19555Y-14751D01*
X19531Y-14739D01*
X19503Y-14727D01*
X19470Y-14716D01*
X19392Y-14696D01*
X19298Y-14678D01*
X19244Y-14670D01*
X19623Y-14291D01*
X19631Y-14345D01*
D02*
G37*
G36*
X5950Y-14906D02*
X5936Y-14922D01*
X5924Y-14941D01*
X5912Y-14965D01*
X5900Y-14994D01*
X5890Y-15026D01*
X5869Y-15104D01*
X5851Y-15198D01*
X5843Y-15252D01*
X5465Y-14873D01*
X5518Y-14865D01*
X5691Y-14827D01*
X5723Y-14816D01*
X5751Y-14805D01*
X5775Y-14793D01*
X5795Y-14780D01*
X5810Y-14767D01*
X5950Y-14906D01*
D02*
G37*
G36*
X20677Y-15606D02*
X20637Y-15577D01*
X20531Y-15508D01*
X20500Y-15491D01*
X20445Y-15467D01*
X20420Y-15459D01*
X20398Y-15454D01*
X20378Y-15453D01*
Y-15256D01*
X20398Y-15254D01*
X20420Y-15250D01*
X20445Y-15242D01*
X20471Y-15231D01*
X20500Y-15218D01*
X20564Y-15181D01*
X20600Y-15158D01*
X20677Y-15102D01*
Y-15606D01*
D02*
G37*
G36*
X3686Y-15227D02*
X3724Y-15399D01*
X3735Y-15432D01*
X3747Y-15460D01*
X3759Y-15484D01*
X3771Y-15504D01*
X3784Y-15519D01*
X3645Y-15658D01*
X3630Y-15645D01*
X3610Y-15633D01*
X3586Y-15621D01*
X3558Y-15609D01*
X3525Y-15598D01*
X3448Y-15578D01*
X3353Y-15560D01*
X3299Y-15552D01*
X3678Y-15173D01*
X3686Y-15227D01*
D02*
G37*
G36*
X31902Y-16210D02*
X31918Y-16222D01*
X31937Y-16234D01*
X31957Y-16244D01*
X31980Y-16253D01*
X32004Y-16262D01*
X32030Y-16270D01*
X32089Y-16283D01*
X32122Y-16288D01*
X31839Y-16571D01*
X31834Y-16538D01*
X31821Y-16479D01*
X31813Y-16453D01*
X31805Y-16428D01*
X31795Y-16406D01*
X31785Y-16386D01*
X31773Y-16367D01*
X31761Y-16351D01*
X31748Y-16336D01*
X31888Y-16197D01*
X31902Y-16210D01*
D02*
G37*
G36*
X3582Y-16465D02*
X3487Y-16614D01*
X3472Y-16645D01*
X3460Y-16673D01*
X3452Y-16698D01*
X3447Y-16721D01*
X3445Y-16741D01*
X3248D01*
X3246Y-16721D01*
X3241Y-16698D01*
X3233Y-16673D01*
X3221Y-16645D01*
X3206Y-16614D01*
X3165Y-16545D01*
X3111Y-16465D01*
X3079Y-16421D01*
X3614D01*
X3582Y-16465D01*
D02*
G37*
G36*
X35980Y-17945D02*
X35936Y-17913D01*
X35788Y-17818D01*
X35757Y-17803D01*
X35729Y-17791D01*
X35703Y-17782D01*
X35681Y-17777D01*
X35660Y-17776D01*
Y-17579D01*
X35681Y-17577D01*
X35703Y-17572D01*
X35729Y-17564D01*
X35757Y-17552D01*
X35788Y-17536D01*
X35857Y-17496D01*
X35936Y-17442D01*
X35980Y-17410D01*
Y-17945D01*
D02*
G37*
G36*
Y-18945D02*
X35936Y-18913D01*
X35788Y-18818D01*
X35757Y-18803D01*
X35729Y-18791D01*
X35703Y-18782D01*
X35681Y-18777D01*
X35660Y-18776D01*
Y-18579D01*
X35681Y-18577D01*
X35703Y-18572D01*
X35729Y-18564D01*
X35757Y-18552D01*
X35788Y-18536D01*
X35857Y-18496D01*
X35936Y-18442D01*
X35980Y-18410D01*
Y-18945D01*
D02*
G37*
G36*
X14946Y-20361D02*
X14984Y-20533D01*
X14995Y-20566D01*
X15006Y-20594D01*
X15018Y-20618D01*
X15031Y-20637D01*
X15044Y-20653D01*
X14905Y-20792D01*
X14889Y-20779D01*
X14870Y-20766D01*
X14846Y-20754D01*
X14817Y-20743D01*
X14785Y-20732D01*
X14707Y-20712D01*
X14613Y-20694D01*
X14559Y-20686D01*
X14938Y-20307D01*
X14946Y-20361D01*
D02*
G37*
G36*
X13946D02*
X13984Y-20533D01*
X13995Y-20566D01*
X14006Y-20594D01*
X14018Y-20618D01*
X14031Y-20637D01*
X14044Y-20653D01*
X13905Y-20792D01*
X13889Y-20779D01*
X13870Y-20766D01*
X13846Y-20754D01*
X13817Y-20743D01*
X13785Y-20732D01*
X13707Y-20712D01*
X13613Y-20694D01*
X13559Y-20686D01*
X13938Y-20307D01*
X13946Y-20361D01*
D02*
G37*
G36*
X29732Y-5961D02*
X29692Y-5931D01*
X29586Y-5862D01*
X29555Y-5845D01*
X29500Y-5821D01*
X29475Y-5813D01*
X29453Y-5809D01*
X29433Y-5807D01*
Y-5610D01*
X29453Y-5609D01*
X29475Y-5604D01*
X29500Y-5596D01*
X29526Y-5586D01*
X29555Y-5572D01*
X29619Y-5535D01*
X29655Y-5512D01*
X29732Y-5457D01*
Y-5961D01*
D02*
G37*
G36*
X28575Y-5486D02*
X28681Y-5555D01*
X28712Y-5572D01*
X28768Y-5596D01*
X28792Y-5604D01*
X28815Y-5609D01*
X28835Y-5610D01*
Y-5807D01*
X28815Y-5809D01*
X28792Y-5813D01*
X28768Y-5821D01*
X28741Y-5832D01*
X28712Y-5845D01*
X28648Y-5882D01*
X28613Y-5905D01*
X28536Y-5961D01*
Y-5457D01*
X28575Y-5486D01*
D02*
G37*
G36*
X10154Y-6716D02*
X10251Y-6778D01*
X10280Y-6793D01*
X10307Y-6806D01*
X10332Y-6815D01*
X10355Y-6822D01*
X10377Y-6826D01*
X10397Y-6828D01*
Y-7024D01*
X10377Y-7026D01*
X10355Y-7030D01*
X10332Y-7037D01*
X10307Y-7046D01*
X10280Y-7059D01*
X10251Y-7074D01*
X10188Y-7113D01*
X10119Y-7162D01*
Y-6690D01*
X10154Y-6716D01*
D02*
G37*
G36*
X12217Y-7352D02*
X12233Y-7364D01*
X12252Y-7375D01*
X12272Y-7386D01*
X12295Y-7395D01*
X12319Y-7404D01*
X12345Y-7412D01*
X12404Y-7424D01*
X12437Y-7430D01*
X12154Y-7712D01*
X12149Y-7680D01*
X12136Y-7621D01*
X12128Y-7595D01*
X12119Y-7570D01*
X12110Y-7548D01*
X12100Y-7527D01*
X12088Y-7509D01*
X12076Y-7493D01*
X12063Y-7478D01*
X12203Y-7339D01*
X12217Y-7352D01*
D02*
G37*
G36*
X24638Y-15132D02*
X24744Y-15201D01*
X24775Y-15218D01*
X24831Y-15242D01*
X24855Y-15250D01*
X24878Y-15254D01*
X24898Y-15256D01*
Y-15453D01*
X24878Y-15454D01*
X24855Y-15459D01*
X24831Y-15467D01*
X24804Y-15477D01*
X24775Y-15491D01*
X24711Y-15528D01*
X24676Y-15551D01*
X24599Y-15606D01*
Y-15102D01*
X24638Y-15132D01*
D02*
G37*
G36*
X25390Y-15638D02*
X25346Y-15606D01*
X25197Y-15511D01*
X25166Y-15496D01*
X25138Y-15484D01*
X25113Y-15475D01*
X25090Y-15470D01*
X25070Y-15469D01*
Y-15272D01*
X25090Y-15270D01*
X25113Y-15265D01*
X25138Y-15256D01*
X25166Y-15245D01*
X25197Y-15229D01*
X25266Y-15189D01*
X25346Y-15135D01*
X25390Y-15102D01*
Y-15638D01*
D02*
G37*
G36*
X24454Y-15666D02*
X24405Y-15674D01*
X24281Y-15700D01*
X24247Y-15710D01*
X24191Y-15732D01*
X24168Y-15744D01*
X24149Y-15756D01*
X24134Y-15769D01*
X23995Y-15630D01*
X24008Y-15615D01*
X24020Y-15596D01*
X24032Y-15573D01*
X24043Y-15547D01*
X24054Y-15516D01*
X24073Y-15445D01*
X24082Y-15404D01*
X24098Y-15310D01*
X24454Y-15666D01*
D02*
G37*
G36*
X19536Y-16103D02*
X19685Y-16198D01*
X19715Y-16213D01*
X19744Y-16225D01*
X19769Y-16233D01*
X19792Y-16238D01*
X19812Y-16240D01*
Y-16437D01*
X19792Y-16439D01*
X19769Y-16444D01*
X19744Y-16452D01*
X19715Y-16464D01*
X19685Y-16479D01*
X19616Y-16520D01*
X19536Y-16574D01*
X19492Y-16606D01*
Y-16071D01*
X19536Y-16103D01*
D02*
G37*
G36*
X26905Y-16921D02*
X26924Y-16934D01*
X26947Y-16945D01*
X26973Y-16957D01*
X27003Y-16967D01*
X27075Y-16987D01*
X27116Y-16995D01*
X27210Y-17011D01*
X26854Y-17367D01*
X26846Y-17318D01*
X26820Y-17195D01*
X26810Y-17161D01*
X26788Y-17104D01*
X26776Y-17081D01*
X26764Y-17063D01*
X26751Y-17047D01*
X26890Y-16908D01*
X26905Y-16921D01*
D02*
G37*
G36*
X19729Y-17040D02*
X19716Y-17056D01*
X19703Y-17075D01*
X19691Y-17099D01*
X19680Y-17127D01*
X19669Y-17160D01*
X19649Y-17237D01*
X19631Y-17332D01*
X19623Y-17386D01*
X19244Y-17007D01*
X19298Y-16999D01*
X19470Y-16961D01*
X19503Y-16950D01*
X19531Y-16938D01*
X19555Y-16926D01*
X19574Y-16914D01*
X19590Y-16901D01*
X19729Y-17040D01*
D02*
G37*
G36*
X23433Y-17575D02*
X23393Y-17546D01*
X23287Y-17477D01*
X23256Y-17460D01*
X23201Y-17435D01*
X23176Y-17427D01*
X23154Y-17423D01*
X23134Y-17421D01*
Y-17224D01*
X23154Y-17223D01*
X23176Y-17218D01*
X23201Y-17211D01*
X23227Y-17200D01*
X23256Y-17186D01*
X23320Y-17149D01*
X23356Y-17126D01*
X23433Y-17071D01*
Y-17575D01*
D02*
G37*
G36*
X21791Y-17263D02*
X21797Y-17280D01*
X21807Y-17294D01*
X21821Y-17307D01*
X21838Y-17318D01*
X21860Y-17327D01*
X21886Y-17334D01*
X21916Y-17339D01*
X21949Y-17342D01*
X21987Y-17343D01*
Y-17539D01*
X21949Y-17540D01*
X21916Y-17543D01*
X21886Y-17548D01*
X21860Y-17555D01*
X21838Y-17564D01*
X21821Y-17575D01*
X21807Y-17588D01*
X21797Y-17602D01*
X21791Y-17619D01*
X21789Y-17638D01*
Y-17244D01*
X21791Y-17263D01*
D02*
G37*
G36*
X19090Y-15606D02*
X19080Y-15600D01*
X19068Y-15595D01*
X19052Y-15590D01*
X19032Y-15586D01*
X19010Y-15583D01*
X18957Y-15578D01*
X18891Y-15575D01*
X18854Y-15575D01*
Y-15102D01*
X18891Y-15102D01*
X19010Y-15095D01*
X19032Y-15091D01*
X19052Y-15087D01*
X19068Y-15082D01*
X19080Y-15077D01*
X19090Y-15071D01*
Y-15606D01*
D02*
G37*
G36*
X16502Y-15077D02*
X16515Y-15082D01*
X16531Y-15087D01*
X16550Y-15091D01*
X16572Y-15095D01*
X16626Y-15100D01*
X16692Y-15102D01*
X16729Y-15102D01*
Y-15575D01*
X16692Y-15575D01*
X16572Y-15583D01*
X16550Y-15586D01*
X16531Y-15590D01*
X16515Y-15595D01*
X16502Y-15600D01*
X16492Y-15606D01*
Y-15071D01*
X16502Y-15077D01*
D02*
G37*
G36*
X9825Y-16376D02*
X9801Y-16362D01*
X9753Y-16339D01*
X9729Y-16329D01*
X9684Y-16315D01*
X9661Y-16310D01*
X9639Y-16306D01*
X9618Y-16304D01*
X9597Y-16303D01*
X9558Y-16106D01*
X9576Y-16105D01*
X9595Y-16101D01*
X9615Y-16095D01*
X9636Y-16086D01*
X9658Y-16074D01*
X9680Y-16060D01*
X9704Y-16044D01*
X9754Y-16003D01*
X9781Y-15979D01*
X9825Y-16376D01*
D02*
G37*
G36*
X5757Y-15969D02*
X5905Y-16064D01*
X5936Y-16079D01*
X5964Y-16091D01*
X5989Y-16100D01*
X6012Y-16105D01*
X6032Y-16106D01*
X6032Y-16303D01*
X6012Y-16305D01*
X5989Y-16310D01*
X5964Y-16318D01*
X5936Y-16330D01*
X5905Y-16345D01*
X5836Y-16386D01*
X5757Y-16440D01*
X5713Y-16472D01*
X5713Y-15937D01*
X5757Y-15969D01*
D02*
G37*
G36*
X16090Y-17606D02*
X16080Y-17600D01*
X16068Y-17595D01*
X16052Y-17590D01*
X16032Y-17586D01*
X16010Y-17583D01*
X15957Y-17578D01*
X15891Y-17575D01*
X15854Y-17575D01*
Y-17102D01*
X15891Y-17102D01*
X16010Y-17095D01*
X16032Y-17091D01*
X16052Y-17087D01*
X16068Y-17082D01*
X16080Y-17077D01*
X16090Y-17071D01*
Y-17606D01*
D02*
G37*
G36*
X21256Y-18709D02*
X21236Y-18695D01*
X21215Y-18683D01*
X21192Y-18672D01*
X21167Y-18663D01*
X21141Y-18655D01*
X21113Y-18649D01*
X21084Y-18644D01*
X21053Y-18641D01*
X20985Y-18638D01*
Y-18244D01*
X21020Y-18243D01*
X21084Y-18238D01*
X21113Y-18233D01*
X21141Y-18226D01*
X21167Y-18219D01*
X21192Y-18209D01*
X21215Y-18199D01*
X21236Y-18187D01*
X21256Y-18173D01*
Y-18709D01*
D02*
G37*
G36*
X13007Y-18980D02*
X12985Y-19002D01*
X12909Y-19090D01*
X12900Y-19103D01*
X12894Y-19115D01*
X12889Y-19125D01*
X12887Y-19133D01*
X12575Y-18822D01*
X12584Y-18819D01*
X12594Y-18815D01*
X12605Y-18809D01*
X12618Y-18800D01*
X12633Y-18789D01*
X12667Y-18761D01*
X12728Y-18702D01*
X13007Y-18980D01*
D02*
G37*
G36*
X36658Y-21535D02*
X36631Y-21561D01*
X36552Y-21651D01*
X36539Y-21669D01*
X36529Y-21685D01*
X36521Y-21700D01*
X36515Y-21713D01*
X36512Y-21724D01*
X36134Y-21346D01*
X36145Y-21343D01*
X36158Y-21338D01*
X36173Y-21330D01*
X36189Y-21319D01*
X36207Y-21306D01*
X36249Y-21272D01*
X36297Y-21227D01*
X36324Y-21201D01*
X36658Y-21535D01*
D02*
G37*
G36*
X36228Y-22008D02*
X36217Y-22011D01*
X36204Y-22017D01*
X36189Y-22025D01*
X36173Y-22035D01*
X36155Y-22048D01*
X36114Y-22083D01*
X36065Y-22127D01*
X36039Y-22154D01*
X35704Y-21820D01*
X35731Y-21793D01*
X35810Y-21703D01*
X35823Y-21685D01*
X35834Y-21669D01*
X35842Y-21654D01*
X35847Y-21641D01*
X35850Y-21630D01*
X36228Y-22008D01*
D02*
G37*
G36*
X30977Y-21931D02*
X30990Y-21936D01*
X31006Y-21941D01*
X31025Y-21945D01*
X31047Y-21949D01*
X31101Y-21954D01*
X31167Y-21956D01*
X31204Y-21956D01*
Y-22429D01*
X31167Y-22429D01*
X31047Y-22437D01*
X31025Y-22440D01*
X31006Y-22444D01*
X30990Y-22449D01*
X30977Y-22454D01*
X30967Y-22460D01*
Y-21925D01*
X30977Y-21931D01*
D02*
G37*
G36*
X6778Y-21220D02*
X6776Y-21202D01*
X6770Y-21185D01*
X6760Y-21170D01*
X6746Y-21157D01*
X6728Y-21147D01*
X6707Y-21138D01*
X6681Y-21131D01*
X6651Y-21126D01*
X6618Y-21123D01*
X6580Y-21122D01*
Y-20925D01*
X6618Y-20924D01*
X6651Y-20921D01*
X6681Y-20916D01*
X6707Y-20909D01*
X6728Y-20901D01*
X6746Y-20890D01*
X6760Y-20877D01*
X6770Y-20862D01*
X6776Y-20845D01*
X6778Y-20827D01*
Y-21220D01*
D02*
G37*
G36*
X4362Y-20812D02*
X4510Y-20907D01*
X4541Y-20922D01*
X4569Y-20934D01*
X4595Y-20942D01*
X4617Y-20947D01*
X4638Y-20949D01*
Y-21146D01*
X4617Y-21147D01*
X4595Y-21152D01*
X4569Y-21161D01*
X4541Y-21173D01*
X4510Y-21188D01*
X4441Y-21229D01*
X4362Y-21283D01*
X4318Y-21315D01*
Y-20780D01*
X4362Y-20812D01*
D02*
G37*
G36*
X11653Y-20686D02*
X11642Y-20688D01*
X11629Y-20694D01*
X11615Y-20702D01*
X11598Y-20712D01*
X11580Y-20726D01*
X11539Y-20760D01*
X11490Y-20805D01*
X11464Y-20831D01*
X11130Y-20497D01*
X11156Y-20470D01*
X11235Y-20380D01*
X11248Y-20362D01*
X11259Y-20346D01*
X11267Y-20331D01*
X11272Y-20318D01*
X11275Y-20307D01*
X11653Y-20686D01*
D02*
G37*
G36*
X4328Y-21786D02*
X4341Y-21791D01*
X4357Y-21796D01*
X4376Y-21800D01*
X4398Y-21803D01*
X4452Y-21808D01*
X4517Y-21811D01*
X4555Y-21811D01*
Y-22283D01*
X4517Y-22284D01*
X4398Y-22291D01*
X4376Y-22295D01*
X4357Y-22299D01*
X4341Y-22304D01*
X4328Y-22309D01*
X4318Y-22315D01*
Y-21780D01*
X4328Y-21786D01*
D02*
G37*
G36*
X28283Y-21951D02*
X28296Y-21956D01*
X28312Y-21961D01*
X28331Y-21965D01*
X28354Y-21969D01*
X28407Y-21974D01*
X28473Y-21976D01*
X28510Y-21976D01*
Y-22449D01*
X28473Y-22449D01*
X28354Y-22457D01*
X28331Y-22460D01*
X28312Y-22464D01*
X28296Y-22469D01*
X28283Y-22474D01*
X28273Y-22480D01*
Y-21945D01*
X28283Y-21951D01*
D02*
G37*
G36*
X23556Y-22460D02*
X23546Y-22454D01*
X23533Y-22449D01*
X23517Y-22444D01*
X23498Y-22440D01*
X23476Y-22437D01*
X23422Y-22432D01*
X23356Y-22429D01*
X23319Y-22429D01*
Y-21956D01*
X23356Y-21956D01*
X23476Y-21949D01*
X23498Y-21945D01*
X23517Y-21941D01*
X23533Y-21936D01*
X23546Y-21931D01*
X23556Y-21925D01*
Y-22460D01*
D02*
G37*
G36*
X21274Y-21951D02*
X21287Y-21956D01*
X21303Y-21961D01*
X21322Y-21965D01*
X21344Y-21969D01*
X21398Y-21974D01*
X21463Y-21976D01*
X21501Y-21976D01*
Y-22449D01*
X21463Y-22449D01*
X21344Y-22457D01*
X21322Y-22460D01*
X21303Y-22464D01*
X21287Y-22469D01*
X21274Y-22474D01*
X21264Y-22480D01*
Y-21945D01*
X21274Y-21951D01*
D02*
G37*
G36*
X11397Y-21670D02*
X11448Y-21702D01*
X11472Y-21715D01*
X11496Y-21727D01*
X11518Y-21736D01*
X11540Y-21743D01*
X11561Y-21748D01*
X11581Y-21751D01*
X11600Y-21752D01*
Y-21949D01*
X11581Y-21950D01*
X11561Y-21953D01*
X11540Y-21958D01*
X11518Y-21965D01*
X11496Y-21974D01*
X11472Y-21985D01*
X11448Y-21999D01*
X11397Y-22031D01*
X11371Y-22050D01*
Y-21650D01*
X11397Y-21670D01*
D02*
G37*
G36*
X12091Y-22428D02*
X12142Y-22460D01*
X12166Y-22473D01*
X12190Y-22485D01*
X12212Y-22494D01*
X12234Y-22501D01*
X12255Y-22506D01*
X12275Y-22509D01*
X12294Y-22510D01*
Y-22707D01*
X12275Y-22708D01*
X12255Y-22711D01*
X12234Y-22716D01*
X12212Y-22723D01*
X12190Y-22732D01*
X12166Y-22743D01*
X12142Y-22756D01*
X12091Y-22789D01*
X12065Y-22808D01*
Y-22408D01*
X12091Y-22428D01*
D02*
G37*
G36*
X10019Y-23048D02*
X10070Y-23080D01*
X10094Y-23093D01*
X10118Y-23105D01*
X10140Y-23114D01*
X10162Y-23121D01*
X10183Y-23126D01*
X10203Y-23129D01*
X10222Y-23130D01*
Y-23327D01*
X10203Y-23328D01*
X10183Y-23331D01*
X10162Y-23336D01*
X10140Y-23343D01*
X10118Y-23352D01*
X10094Y-23363D01*
X10070Y-23377D01*
X10019Y-23409D01*
X9993Y-23428D01*
Y-23028D01*
X10019Y-23048D01*
D02*
G37*
G36*
X35859Y-25922D02*
X35878Y-25934D01*
X35902Y-25946D01*
X35931Y-25958D01*
X35963Y-25969D01*
X36041Y-25989D01*
X36135Y-26007D01*
X36189Y-26015D01*
X35810Y-26394D01*
X35802Y-26340D01*
X35764Y-26168D01*
X35753Y-26135D01*
X35742Y-26107D01*
X35730Y-26083D01*
X35717Y-26063D01*
X35704Y-26048D01*
X35843Y-25909D01*
X35859Y-25922D01*
D02*
G37*
G36*
Y-26922D02*
X35878Y-26934D01*
X35902Y-26946D01*
X35931Y-26958D01*
X35963Y-26969D01*
X36041Y-26989D01*
X36135Y-27007D01*
X36189Y-27015D01*
X35810Y-27394D01*
X35802Y-27340D01*
X35764Y-27168D01*
X35753Y-27135D01*
X35742Y-27107D01*
X35730Y-27083D01*
X35717Y-27063D01*
X35704Y-27048D01*
X35843Y-26909D01*
X35859Y-26922D01*
D02*
G37*
G36*
X35788Y-27969D02*
X35807Y-27979D01*
X35831Y-27987D01*
X35860Y-27995D01*
X35894Y-28001D01*
X35933Y-28006D01*
X36025Y-28011D01*
X36136Y-28012D01*
X35822Y-28445D01*
X35808Y-28400D01*
X35749Y-28251D01*
X35734Y-28222D01*
X35703Y-28172D01*
X35688Y-28152D01*
X35673Y-28135D01*
X35774Y-27958D01*
X35788Y-27969D01*
D02*
G37*
G36*
X23968Y-21931D02*
X23981Y-21936D01*
X23997Y-21941D01*
X24016Y-21945D01*
X24038Y-21949D01*
X24091Y-21954D01*
X24157Y-21956D01*
X24195Y-21956D01*
Y-22429D01*
X24157Y-22429D01*
X24038Y-22437D01*
X24016Y-22440D01*
X23997Y-22444D01*
X23981Y-22449D01*
X23968Y-22454D01*
X23958Y-22460D01*
Y-21925D01*
X23968Y-21931D01*
D02*
G37*
G36*
X27872Y-22480D02*
X27862Y-22474D01*
X27849Y-22469D01*
X27833Y-22464D01*
X27814Y-22460D01*
X27791Y-22457D01*
X27738Y-22452D01*
X27672Y-22449D01*
X27635Y-22449D01*
Y-21976D01*
X27672Y-21976D01*
X27791Y-21969D01*
X27814Y-21965D01*
X27833Y-21961D01*
X27849Y-21956D01*
X27862Y-21951D01*
X27872Y-21945D01*
Y-22480D01*
D02*
G37*
G36*
X6778Y-23268D02*
X6776Y-23249D01*
X6770Y-23232D01*
X6760Y-23218D01*
X6746Y-23205D01*
X6728Y-23194D01*
X6707Y-23185D01*
X6681Y-23178D01*
X6651Y-23173D01*
X6618Y-23170D01*
X6580Y-23169D01*
Y-22972D01*
X6618Y-22971D01*
X6651Y-22968D01*
X6681Y-22964D01*
X6707Y-22957D01*
X6728Y-22948D01*
X6746Y-22937D01*
X6760Y-22924D01*
X6770Y-22909D01*
X6776Y-22893D01*
X6778Y-22874D01*
Y-23268D01*
D02*
G37*
G36*
X4451Y-22893D02*
X4457Y-22909D01*
X4467Y-22924D01*
X4481Y-22937D01*
X4499Y-22948D01*
X4520Y-22957D01*
X4546Y-22964D01*
X4576Y-22968D01*
X4610Y-22971D01*
X4647Y-22972D01*
Y-23169D01*
X4610Y-23170D01*
X4576Y-23173D01*
X4546Y-23178D01*
X4520Y-23185D01*
X4499Y-23194D01*
X4481Y-23205D01*
X4467Y-23218D01*
X4457Y-23232D01*
X4451Y-23249D01*
X4449Y-23268D01*
Y-22874D01*
X4451Y-22893D01*
D02*
G37*
G36*
X30575Y-24190D02*
X30531Y-24158D01*
X30383Y-24063D01*
X30352Y-24048D01*
X30324Y-24036D01*
X30299Y-24028D01*
X30276Y-24023D01*
X30256Y-24021D01*
Y-23824D01*
X30276Y-23822D01*
X30299Y-23817D01*
X30324Y-23809D01*
X30352Y-23797D01*
X30383Y-23782D01*
X30452Y-23741D01*
X30531Y-23687D01*
X30575Y-23655D01*
Y-24190D01*
D02*
G37*
G36*
X28317Y-23687D02*
X28466Y-23782D01*
X28497Y-23797D01*
X28525Y-23809D01*
X28550Y-23817D01*
X28573Y-23822D01*
X28593Y-23824D01*
Y-24021D01*
X28573Y-24023D01*
X28550Y-24028D01*
X28525Y-24036D01*
X28497Y-24048D01*
X28466Y-24063D01*
X28397Y-24104D01*
X28317Y-24158D01*
X28273Y-24190D01*
Y-23655D01*
X28317Y-23687D01*
D02*
G37*
G36*
X23566Y-24190D02*
X23522Y-24158D01*
X23373Y-24063D01*
X23343Y-24048D01*
X23314Y-24036D01*
X23289Y-24028D01*
X23266Y-24023D01*
X23246Y-24021D01*
Y-23824D01*
X23266Y-23822D01*
X23289Y-23817D01*
X23314Y-23809D01*
X23343Y-23797D01*
X23373Y-23782D01*
X23442Y-23741D01*
X23522Y-23687D01*
X23566Y-23655D01*
Y-24190D01*
D02*
G37*
G36*
X21308Y-23687D02*
X21457Y-23782D01*
X21487Y-23797D01*
X21515Y-23809D01*
X21541Y-23817D01*
X21563Y-23822D01*
X21584Y-23824D01*
Y-24021D01*
X21563Y-24023D01*
X21541Y-24028D01*
X21515Y-24036D01*
X21487Y-24048D01*
X21457Y-24063D01*
X21387Y-24104D01*
X21308Y-24158D01*
X21264Y-24190D01*
Y-23655D01*
X21308Y-23687D01*
D02*
G37*
G36*
X6909Y-25622D02*
X6866Y-25590D01*
X6717Y-25495D01*
X6686Y-25480D01*
X6658Y-25468D01*
X6633Y-25460D01*
X6610Y-25454D01*
X6590Y-25453D01*
Y-25256D01*
X6610Y-25254D01*
X6633Y-25249D01*
X6658Y-25241D01*
X6686Y-25229D01*
X6717Y-25214D01*
X6786Y-25173D01*
X6866Y-25119D01*
X6909Y-25087D01*
Y-25622D01*
D02*
G37*
G36*
X7450Y-25361D02*
X7488Y-25533D01*
X7499Y-25566D01*
X7510Y-25594D01*
X7522Y-25618D01*
X7535Y-25637D01*
X7548Y-25653D01*
X7409Y-25792D01*
X7393Y-25779D01*
X7374Y-25766D01*
X7350Y-25754D01*
X7321Y-25743D01*
X7289Y-25732D01*
X7211Y-25712D01*
X7117Y-25694D01*
X7063Y-25686D01*
X7442Y-25307D01*
X7450Y-25361D01*
D02*
G37*
G36*
X12686Y-25679D02*
X12672Y-25684D01*
X12656Y-25691D01*
X12639Y-25700D01*
X12621Y-25712D01*
X12601Y-25726D01*
X12558Y-25760D01*
X12509Y-25805D01*
X12483Y-25830D01*
X12149Y-25608D01*
X12171Y-25584D01*
X12191Y-25560D01*
X12209Y-25535D01*
X12225Y-25509D01*
X12238Y-25483D01*
X12249Y-25456D01*
X12258Y-25428D01*
X12265Y-25400D01*
X12270Y-25371D01*
X12272Y-25341D01*
X12686Y-25679D01*
D02*
G37*
G36*
X8421Y-25162D02*
X8410Y-25198D01*
Y-25240D01*
X8421Y-25287D01*
X8444Y-25340D01*
X8477Y-25398D01*
X8522Y-25462D01*
X8577Y-25532D01*
X8722Y-25688D01*
X8444Y-25966D01*
X8363Y-25888D01*
X8218Y-25766D01*
X8154Y-25721D01*
X8096Y-25688D01*
X8043Y-25666D01*
X7995Y-25654D01*
X7954D01*
X7918Y-25666D01*
X7887Y-25688D01*
X8444Y-25131D01*
X8421Y-25162D01*
D02*
G37*
G36*
X4572Y-25670D02*
X4559Y-25685D01*
X4546Y-25705D01*
X4534Y-25729D01*
X4523Y-25757D01*
X4512Y-25790D01*
X4491Y-25867D01*
X4473Y-25962D01*
X4465Y-26016D01*
X4087Y-25637D01*
X4140Y-25629D01*
X4313Y-25591D01*
X4345Y-25580D01*
X4373Y-25568D01*
X4397Y-25556D01*
X4417Y-25544D01*
X4432Y-25531D01*
X4572Y-25670D01*
D02*
G37*
G36*
X10716Y-27181D02*
X10677Y-27152D01*
X10570Y-27083D01*
X10539Y-27066D01*
X10484Y-27041D01*
X10460Y-27034D01*
X10437Y-27029D01*
X10417Y-27028D01*
Y-26831D01*
X10437Y-26829D01*
X10460Y-26825D01*
X10484Y-26817D01*
X10511Y-26806D01*
X10539Y-26792D01*
X10604Y-26756D01*
X10639Y-26733D01*
X10716Y-26677D01*
Y-27181D01*
D02*
G37*
G36*
X9035Y-24032D02*
X9086Y-24064D01*
X9110Y-24078D01*
X9133Y-24089D01*
X9156Y-24098D01*
X9178Y-24105D01*
X9199Y-24110D01*
X9219Y-24113D01*
X9238Y-24114D01*
Y-24311D01*
X9219Y-24312D01*
X9199Y-24315D01*
X9178Y-24320D01*
X9156Y-24327D01*
X9133Y-24336D01*
X9110Y-24348D01*
X9086Y-24361D01*
X9035Y-24393D01*
X9008Y-24413D01*
Y-24013D01*
X9035Y-24032D01*
D02*
G37*
G36*
X13323Y-24930D02*
X13343Y-24942D01*
X13367Y-24954D01*
X13395Y-24966D01*
X13428Y-24977D01*
X13505Y-24997D01*
X13600Y-25015D01*
X13653Y-25023D01*
X13275Y-25401D01*
X13267Y-25348D01*
X13229Y-25176D01*
X13218Y-25143D01*
X13206Y-25115D01*
X13194Y-25091D01*
X13182Y-25071D01*
X13169Y-25056D01*
X13308Y-24917D01*
X13323Y-24930D01*
D02*
G37*
G36*
X7173Y-27181D02*
X7133Y-27152D01*
X7027Y-27083D01*
X6996Y-27066D01*
X6941Y-27041D01*
X6916Y-27034D01*
X6894Y-27029D01*
X6874Y-27028D01*
Y-26831D01*
X6894Y-26829D01*
X6916Y-26825D01*
X6941Y-26817D01*
X6967Y-26806D01*
X6996Y-26792D01*
X7060Y-26756D01*
X7096Y-26733D01*
X7173Y-26677D01*
Y-27181D01*
D02*
G37*
G36*
X4358Y-26714D02*
X4508Y-26795D01*
X4539Y-26808D01*
X4568Y-26818D01*
X4594Y-26825D01*
X4618Y-26829D01*
X4640Y-26831D01*
X4664Y-27028D01*
X4645Y-27030D01*
X4623Y-27035D01*
X4599Y-27045D01*
X4572Y-27058D01*
X4542Y-27076D01*
X4475Y-27122D01*
X4437Y-27151D01*
X4354Y-27221D01*
X4315Y-26687D01*
X4358Y-26714D01*
D02*
G37*
G36*
X28283Y-27204D02*
X28296Y-27210D01*
X28312Y-27214D01*
X28331Y-27218D01*
X28354Y-27222D01*
X28407Y-27227D01*
X28473Y-27229D01*
X28510Y-27230D01*
Y-27702D01*
X28473Y-27702D01*
X28354Y-27710D01*
X28331Y-27713D01*
X28312Y-27717D01*
X28296Y-27722D01*
X28283Y-27728D01*
X28273Y-27733D01*
Y-27198D01*
X28283Y-27204D01*
D02*
G37*
G36*
X21274D02*
X21287Y-27210D01*
X21303Y-27214D01*
X21322Y-27218D01*
X21344Y-27222D01*
X21398Y-27227D01*
X21463Y-27229D01*
X21501Y-27230D01*
Y-27702D01*
X21463Y-27702D01*
X21344Y-27710D01*
X21322Y-27713D01*
X21303Y-27717D01*
X21287Y-27722D01*
X21274Y-27728D01*
X21264Y-27733D01*
Y-27198D01*
X21274Y-27204D01*
D02*
G37*
G36*
X23968Y-27184D02*
X23981Y-27190D01*
X23997Y-27194D01*
X24016Y-27198D01*
X24038Y-27202D01*
X24091Y-27207D01*
X24157Y-27209D01*
X24195Y-27210D01*
Y-27682D01*
X24157Y-27682D01*
X24038Y-27690D01*
X24016Y-27693D01*
X23997Y-27697D01*
X23981Y-27702D01*
X23968Y-27708D01*
X23958Y-27713D01*
Y-27178D01*
X23968Y-27184D01*
D02*
G37*
G36*
X27872Y-27733D02*
X27862Y-27728D01*
X27849Y-27722D01*
X27833Y-27717D01*
X27814Y-27713D01*
X27791Y-27710D01*
X27738Y-27705D01*
X27672Y-27702D01*
X27635Y-27702D01*
Y-27230D01*
X27672Y-27229D01*
X27791Y-27222D01*
X27814Y-27218D01*
X27833Y-27214D01*
X27849Y-27210D01*
X27862Y-27204D01*
X27872Y-27198D01*
Y-27733D01*
D02*
G37*
G36*
X30575Y-29443D02*
X30531Y-29411D01*
X30383Y-29317D01*
X30352Y-29301D01*
X30324Y-29290D01*
X30299Y-29281D01*
X30276Y-29276D01*
X30256Y-29274D01*
Y-29077D01*
X30276Y-29076D01*
X30299Y-29071D01*
X30324Y-29062D01*
X30352Y-29050D01*
X30383Y-29035D01*
X30452Y-28995D01*
X30531Y-28940D01*
X30575Y-28908D01*
Y-29443D01*
D02*
G37*
G36*
X28317Y-28940D02*
X28466Y-29035D01*
X28497Y-29050D01*
X28525Y-29062D01*
X28550Y-29071D01*
X28573Y-29076D01*
X28593Y-29077D01*
Y-29274D01*
X28573Y-29276D01*
X28550Y-29281D01*
X28525Y-29290D01*
X28497Y-29301D01*
X28466Y-29317D01*
X28397Y-29357D01*
X28317Y-29411D01*
X28273Y-29443D01*
Y-28908D01*
X28317Y-28940D01*
D02*
G37*
G36*
X23566Y-29443D02*
X23522Y-29411D01*
X23373Y-29317D01*
X23343Y-29301D01*
X23314Y-29290D01*
X23289Y-29281D01*
X23266Y-29276D01*
X23246Y-29274D01*
Y-29077D01*
X23266Y-29076D01*
X23289Y-29071D01*
X23314Y-29062D01*
X23343Y-29050D01*
X23373Y-29035D01*
X23442Y-28995D01*
X23522Y-28940D01*
X23566Y-28908D01*
Y-29443D01*
D02*
G37*
G36*
X21308Y-28940D02*
X21457Y-29035D01*
X21487Y-29050D01*
X21515Y-29062D01*
X21541Y-29071D01*
X21563Y-29076D01*
X21584Y-29077D01*
Y-29274D01*
X21563Y-29276D01*
X21541Y-29281D01*
X21515Y-29290D01*
X21487Y-29301D01*
X21457Y-29317D01*
X21387Y-29357D01*
X21308Y-29411D01*
X21264Y-29443D01*
Y-28908D01*
X21308Y-28940D01*
D02*
G37*
G36*
X35941Y-29614D02*
X35921Y-29601D01*
X35900Y-29589D01*
X35877Y-29578D01*
X35852Y-29569D01*
X35826Y-29561D01*
X35798Y-29555D01*
X35769Y-29550D01*
X35738Y-29546D01*
X35670Y-29543D01*
Y-29150D01*
X35705Y-29149D01*
X35769Y-29143D01*
X35798Y-29138D01*
X35826Y-29132D01*
X35852Y-29124D01*
X35877Y-29115D01*
X35900Y-29104D01*
X35921Y-29092D01*
X35941Y-29079D01*
Y-29614D01*
D02*
G37*
G36*
X25179Y-31564D02*
X25101Y-31645D01*
X24978Y-31790D01*
X24933Y-31854D01*
X24900Y-31912D01*
X24877Y-31965D01*
X24866Y-32013D01*
X24866Y-32054D01*
X24877Y-32090D01*
X24899Y-32121D01*
X24344Y-31565D01*
X24374Y-31588D01*
X24410Y-31599D01*
X24452Y-31598D01*
X24499Y-31587D01*
X24552Y-31565D01*
X24611Y-31531D01*
X24675Y-31487D01*
X24744Y-31431D01*
X24900Y-31286D01*
X25179Y-31564D01*
D02*
G37*
G36*
X8313Y-31102D02*
X8311Y-31084D01*
X8305Y-31067D01*
X8296Y-31052D01*
X8282Y-31039D01*
X8264Y-31029D01*
X8242Y-31020D01*
X8216Y-31013D01*
X8187Y-31008D01*
X8153Y-31005D01*
X8115Y-31004D01*
Y-30807D01*
X8153Y-30806D01*
X8187Y-30803D01*
X8216Y-30798D01*
X8242Y-30791D01*
X8264Y-30782D01*
X8282Y-30772D01*
X8296Y-30759D01*
X8305Y-30744D01*
X8311Y-30727D01*
X8313Y-30709D01*
Y-31102D01*
D02*
G37*
G36*
X7316Y-30683D02*
X7422Y-30752D01*
X7453Y-30769D01*
X7508Y-30793D01*
X7533Y-30801D01*
X7555Y-30806D01*
X7575Y-30807D01*
Y-31004D01*
X7555Y-31005D01*
X7533Y-31010D01*
X7508Y-31018D01*
X7481Y-31028D01*
X7453Y-31042D01*
X7388Y-31079D01*
X7353Y-31102D01*
X7276Y-31157D01*
Y-30654D01*
X7316Y-30683D01*
D02*
G37*
G36*
X30369Y-32840D02*
X30488Y-32916D01*
X30545Y-32947D01*
X30600Y-32973D01*
X30653Y-32994D01*
X30704Y-33010D01*
X30754Y-33022D01*
X30802Y-33029D01*
X30848Y-33031D01*
Y-33504D01*
X30802Y-33506D01*
X30754Y-33513D01*
X30704Y-33525D01*
X30653Y-33542D01*
X30600Y-33563D01*
X30545Y-33589D01*
X30488Y-33620D01*
X30369Y-33695D01*
X30307Y-33740D01*
Y-32796D01*
X30369Y-32840D01*
D02*
G37*
G36*
X13750Y-32911D02*
X13761Y-32945D01*
X13781Y-32974D01*
X13809Y-33000D01*
X13844Y-33022D01*
X13888Y-33039D01*
X13939Y-33053D01*
X13998Y-33063D01*
X14066Y-33069D01*
X14141Y-33071D01*
Y-33465D01*
X14066Y-33467D01*
X13998Y-33472D01*
X13939Y-33482D01*
X13888Y-33496D01*
X13844Y-33514D01*
X13809Y-33535D01*
X13781Y-33561D01*
X13761Y-33591D01*
X13750Y-33624D01*
X13746Y-33661D01*
Y-32874D01*
X13750Y-32911D01*
D02*
G37*
G36*
X15584Y-32848D02*
X15777Y-32972D01*
X15835Y-33002D01*
X15888Y-33027D01*
X15939Y-33046D01*
X15986Y-33060D01*
X16029Y-33068D01*
X16069Y-33071D01*
Y-33465D01*
X16029Y-33467D01*
X15986Y-33476D01*
X15939Y-33489D01*
X15888Y-33509D01*
X15835Y-33533D01*
X15777Y-33564D01*
X15652Y-33641D01*
X15512Y-33740D01*
Y-32796D01*
X15584Y-32848D01*
D02*
G37*
G36*
X14803Y-33740D02*
X14731Y-33688D01*
X14538Y-33564D01*
X14480Y-33533D01*
X14427Y-33509D01*
X14376Y-33489D01*
X14329Y-33476D01*
X14286Y-33467D01*
X14246Y-33465D01*
Y-33071D01*
X14286Y-33068D01*
X14329Y-33060D01*
X14376Y-33046D01*
X14427Y-33027D01*
X14480Y-33002D01*
X14538Y-32972D01*
X14663Y-32895D01*
X14803Y-32796D01*
Y-33740D01*
D02*
G37*
G36*
X16960Y-33450D02*
X17004Y-33487D01*
X17025Y-33502D01*
X17046Y-33515D01*
X17066Y-33526D01*
X17086Y-33535D01*
X17106Y-33541D01*
X17125Y-33546D01*
X17144Y-33548D01*
X16838Y-33907D01*
X16835Y-33901D01*
X16831Y-33892D01*
X16824Y-33882D01*
X16814Y-33870D01*
X16772Y-33822D01*
X16708Y-33756D01*
X16937Y-33429D01*
X16960Y-33450D01*
D02*
G37*
G36*
X3163Y-32087D02*
X3101Y-32184D01*
X3086Y-32213D01*
X3073Y-32239D01*
X3064Y-32265D01*
X3057Y-32288D01*
X3053Y-32310D01*
X3051Y-32330D01*
X2854D01*
X2853Y-32310D01*
X2849Y-32288D01*
X2842Y-32265D01*
X2832Y-32239D01*
X2820Y-32213D01*
X2805Y-32184D01*
X2766Y-32121D01*
X2717Y-32051D01*
X3189D01*
X3163Y-32087D01*
D02*
G37*
G36*
X3052Y-32421D02*
X3055Y-32454D01*
X3060Y-32484D01*
X3067Y-32510D01*
X3076Y-32532D01*
X3087Y-32549D01*
X3099Y-32563D01*
X3114Y-32573D01*
X3131Y-32579D01*
X3150Y-32581D01*
X2756D01*
X2775Y-32579D01*
X2791Y-32573D01*
X2806Y-32563D01*
X2819Y-32549D01*
X2830Y-32532D01*
X2839Y-32510D01*
X2845Y-32484D01*
X2850Y-32454D01*
X2853Y-32421D01*
X2854Y-32383D01*
X3051D01*
X3052Y-32421D01*
D02*
G37*
G36*
X3248Y-32696D02*
X3254Y-32713D01*
X3263Y-32727D01*
X3277Y-32740D01*
X3295Y-32751D01*
X3317Y-32760D01*
X3343Y-32767D01*
X3372Y-32772D01*
X3406Y-32775D01*
X3444Y-32776D01*
Y-32972D01*
X3406Y-32973D01*
X3372Y-32976D01*
X3343Y-32981D01*
X3317Y-32988D01*
X3295Y-32997D01*
X3277Y-33008D01*
X3263Y-33021D01*
X3254Y-33035D01*
X3248Y-33052D01*
X3246Y-33071D01*
Y-32677D01*
X3248Y-32696D01*
D02*
G37*
G36*
X4929Y-33126D02*
X4889Y-33097D01*
X4783Y-33028D01*
X4752Y-33011D01*
X4697Y-32986D01*
X4672Y-32979D01*
X4650Y-32974D01*
X4630Y-32972D01*
Y-32776D01*
X4650Y-32774D01*
X4672Y-32769D01*
X4697Y-32762D01*
X4723Y-32751D01*
X4752Y-32737D01*
X4816Y-32700D01*
X4852Y-32677D01*
X4929Y-32622D01*
Y-33126D01*
D02*
G37*
G36*
X29598Y-33740D02*
X29536Y-33695D01*
X29417Y-33620D01*
X29361Y-33589D01*
X29306Y-33563D01*
X29253Y-33542D01*
X29201Y-33525D01*
X29151Y-33513D01*
X29103Y-33506D01*
X29057Y-33504D01*
Y-33031D01*
X29103Y-33029D01*
X29151Y-33022D01*
X29201Y-33010D01*
X29253Y-32994D01*
X29306Y-32973D01*
X29361Y-32947D01*
X29417Y-32916D01*
X29536Y-32840D01*
X29598Y-32796D01*
Y-33740D01*
D02*
G37*
G36*
X28546Y-32840D02*
X28560Y-32880D01*
X28584Y-32916D01*
X28617Y-32946D01*
X28659Y-32972D01*
X28711Y-32994D01*
X28773Y-33010D01*
X28844Y-33022D01*
X28925Y-33029D01*
X29015Y-33031D01*
Y-33504D01*
X28925Y-33506D01*
X28844Y-33513D01*
X28773Y-33525D01*
X28711Y-33542D01*
X28659Y-33563D01*
X28617Y-33589D01*
X28584Y-33620D01*
X28560Y-33655D01*
X28546Y-33695D01*
X28541Y-33740D01*
Y-32795D01*
X28546Y-32840D01*
D02*
G37*
G36*
X9866Y-30651D02*
X9888Y-30663D01*
X9911Y-30674D01*
X9935Y-30683D01*
X9961Y-30691D01*
X9989Y-30697D01*
X10019Y-30702D01*
X10050Y-30706D01*
X10117Y-30709D01*
Y-31102D01*
X10083Y-31103D01*
X10019Y-31109D01*
X9989Y-31114D01*
X9961Y-31120D01*
X9935Y-31128D01*
X9911Y-31137D01*
X9888Y-31148D01*
X9866Y-31160D01*
X9847Y-31173D01*
Y-30638D01*
X9866Y-30651D01*
D02*
G37*
G36*
X20129Y-32478D02*
X20274Y-32601D01*
X20338Y-32645D01*
X20397Y-32679D01*
X20450Y-32701D01*
X20497Y-32713D01*
X20539Y-32713D01*
X20575Y-32702D01*
X20605Y-32680D01*
X20050Y-33235D01*
X20072Y-33205D01*
X20083Y-33169D01*
X20083Y-33127D01*
X20071Y-33080D01*
X20049Y-33027D01*
X20016Y-32968D01*
X19971Y-32904D01*
X19915Y-32834D01*
X19770Y-32678D01*
X20048Y-32400D01*
X20129Y-32478D01*
D02*
G37*
G36*
X24648Y-33151D02*
X24634Y-33154D01*
X24620Y-33159D01*
X24604Y-33166D01*
X24587Y-33175D01*
X24570Y-33187D01*
X24551Y-33201D01*
X24510Y-33235D01*
X24465Y-33278D01*
X24186Y-33000D01*
X24209Y-32977D01*
X24264Y-32914D01*
X24277Y-32895D01*
X24289Y-32877D01*
X24299Y-32860D01*
X24306Y-32845D01*
X24311Y-32830D01*
X24314Y-32817D01*
X24648Y-33151D01*
D02*
G37*
G36*
X21230Y-32911D02*
X21242Y-32945D01*
X21261Y-32974D01*
X21289Y-33000D01*
X21325Y-33022D01*
X21368Y-33039D01*
X21419Y-33053D01*
X21479Y-33063D01*
X21546Y-33069D01*
X21621Y-33071D01*
Y-33465D01*
X21546Y-33467D01*
X21479Y-33472D01*
X21419Y-33482D01*
X21368Y-33496D01*
X21325Y-33514D01*
X21289Y-33535D01*
X21261Y-33561D01*
X21242Y-33591D01*
X21230Y-33624D01*
X21226Y-33661D01*
Y-32874D01*
X21230Y-32911D01*
D02*
G37*
G36*
X23064Y-32848D02*
X23257Y-32972D01*
X23315Y-33002D01*
X23369Y-33027D01*
X23419Y-33046D01*
X23466Y-33060D01*
X23509Y-33068D01*
X23549Y-33071D01*
Y-33465D01*
X23509Y-33467D01*
X23466Y-33476D01*
X23419Y-33489D01*
X23369Y-33509D01*
X23315Y-33533D01*
X23257Y-33564D01*
X23132Y-33641D01*
X22992Y-33740D01*
Y-32796D01*
X23064Y-32848D01*
D02*
G37*
G36*
X22283Y-33740D02*
X22212Y-33688D01*
X22018Y-33564D01*
X21961Y-33533D01*
X21907Y-33509D01*
X21856Y-33489D01*
X21810Y-33476D01*
X21766Y-33467D01*
X21727Y-33465D01*
Y-33071D01*
X21766Y-33068D01*
X21810Y-33060D01*
X21856Y-33046D01*
X21907Y-33027D01*
X21961Y-33002D01*
X22018Y-32972D01*
X22144Y-32895D01*
X22283Y-32796D01*
Y-33740D01*
D02*
G37*
G36*
X5437Y-33878D02*
X5464Y-34002D01*
X5474Y-34036D01*
X5495Y-34093D01*
X5507Y-34115D01*
X5520Y-34134D01*
X5533Y-34150D01*
X5394Y-34289D01*
X5378Y-34276D01*
X5359Y-34263D01*
X5337Y-34251D01*
X5310Y-34240D01*
X5280Y-34230D01*
X5209Y-34210D01*
X5168Y-34201D01*
X5074Y-34186D01*
X5430Y-33830D01*
X5437Y-33878D01*
D02*
G37*
G36*
X6897Y-34701D02*
X6858Y-34672D01*
X6752Y-34602D01*
X6721Y-34586D01*
X6665Y-34561D01*
X6641Y-34553D01*
X6618Y-34549D01*
X6598Y-34547D01*
Y-34350D01*
X6618Y-34349D01*
X6641Y-34344D01*
X6665Y-34337D01*
X6692Y-34326D01*
X6721Y-34312D01*
X6785Y-34275D01*
X6820Y-34252D01*
X6897Y-34197D01*
Y-34701D01*
D02*
G37*
D15*
X12606Y-25429D02*
Y-25354D01*
X12275Y-25760D02*
X12606Y-25429D01*
X12275Y-25775D02*
Y-25760D01*
X11869Y-26181D02*
X12275Y-25775D01*
X8110Y-25354D02*
X8937Y-26181D01*
X11869D01*
X13268Y-18441D02*
X21457D01*
X12614Y-19094D02*
X13268Y-18441D01*
X3783Y-3500D02*
X5315Y-1969D01*
X7984D01*
X9349Y-3334D01*
X9533Y-3518D02*
X9941Y-3926D01*
X9533Y-3518D02*
Y-3508D01*
X9360Y-3334D02*
X9533Y-3508D01*
X9349Y-3334D02*
X9360D01*
X3783Y-4619D02*
Y-3500D01*
Y-4619D02*
X3921Y-4757D01*
Y-5315D02*
Y-4757D01*
X13157Y-33268D02*
X15157D01*
X16498D01*
X17073Y-33843D01*
X17126D01*
X20638Y-33268D02*
X22638D01*
X18276Y-30906D02*
X20638Y-33268D01*
X9646Y-30906D02*
X18276D01*
X22638Y-33268D02*
X24197D01*
X24606Y-32858D01*
Y-31858D02*
X25915Y-30550D01*
X33480D01*
X34684Y-29346D01*
X36142D01*
X28331Y-4134D02*
Y-3385D01*
X27906Y-2961D02*
X28331Y-3385D01*
X10906Y-2961D02*
X27906D01*
X9941Y-3926D02*
X10906Y-2961D01*
D17*
X9843Y-23228D02*
X16929D01*
X14485Y-8858D02*
X14567D01*
X9941Y-8926D02*
X14417D01*
X14485Y-8858D01*
X16888Y-22608D02*
X19477Y-25197D01*
X11915Y-22608D02*
X16888D01*
X16929Y-23228D02*
X19291Y-25591D01*
X33268D01*
X19477Y-25197D02*
X33992D01*
X36024Y-28346D02*
X36142D01*
X33268Y-25591D02*
X36024Y-28346D01*
X12465Y-24213D02*
X13606Y-25354D01*
X8858Y-24213D02*
X12465D01*
X11220Y-21850D02*
X16760D01*
X19713Y-24803D01*
X11650Y-6926D02*
X12402Y-7677D01*
X9941Y-6926D02*
X11650D01*
X5512Y-16205D02*
X9909D01*
X9952Y-16161D01*
X33992Y-25197D02*
X36142Y-27346D01*
X19713Y-24803D02*
X34598D01*
X36142Y-26346D01*
X3346Y-8268D02*
X6688Y-4926D01*
X3346Y-10226D02*
Y-8268D01*
X6688Y-4926D02*
X8941D01*
X3885Y-10682D02*
Y-8517D01*
X6496Y-5906D01*
X8921D01*
X4204Y-11363D02*
Y-8985D01*
X5263Y-7926D01*
X8941D01*
X4523Y-9257D02*
X5512Y-8268D01*
X8283D01*
X4523Y-12044D02*
Y-9257D01*
X4820Y-12747D02*
Y-9747D01*
X5709Y-8858D01*
X7874D01*
X8283Y-8268D02*
X8941Y-8926D01*
X3346Y-14220D02*
X4820Y-12747D01*
X3346Y-13220D02*
X4523Y-12044D01*
X3346Y-12220D02*
X4204Y-11363D01*
X3346Y-11220D02*
X3885Y-10682D01*
X3346Y-15220D02*
X4134Y-16008D01*
Y-16929D02*
X4921Y-17717D01*
X4134Y-16929D02*
Y-16008D01*
X20538Y-6430D02*
X26445D01*
X20814Y-5315D02*
X25330D01*
X12769Y-13780D02*
X20643Y-5906D01*
X6087Y-13780D02*
X12769D01*
X5512Y-14205D02*
X12764D01*
X20538Y-6430D01*
X20643Y-5906D02*
X24606D01*
X12709Y-13420D02*
X20814Y-5315D01*
X6727Y-13420D02*
X12709D01*
X4724Y-18307D02*
X10433D01*
X14961Y-13780D02*
X24213D01*
X10433Y-18307D02*
X14961Y-13780D01*
X10433Y-17717D02*
X14764Y-13386D01*
X4921Y-17717D02*
X10433D01*
X14764Y-13386D02*
X23819D01*
X12992Y-14567D02*
X14567Y-12992D01*
X6150Y-14567D02*
X12992D01*
X14567Y-12992D02*
X23228D01*
X12961Y-12432D02*
X12992Y-12402D01*
X9435Y-12432D02*
X12961D01*
X23819Y-13386D02*
X24519Y-12686D01*
X24409Y-7087D02*
X24467Y-7145D01*
Y-7302D02*
Y-7145D01*
Y-7302D02*
X24519Y-7354D01*
Y-12686D02*
Y-7354D01*
X23819Y-12402D02*
X23819D01*
X23228Y-12992D02*
X23819Y-12402D01*
X24999Y-8395D02*
X25055Y-8339D01*
X24999Y-12993D02*
Y-8395D01*
X26445Y-6430D02*
X26941Y-6926D01*
X25330Y-5315D02*
X25941Y-5926D01*
X24213Y-13780D02*
X24999Y-12993D01*
X5512Y-15205D02*
X6150Y-14567D01*
X5512Y-13205D02*
X6087Y-13780D01*
X3346Y-16929D02*
X4724Y-18307D01*
X3346Y-16929D02*
Y-16220D01*
X6287Y-9430D02*
X15964D01*
X20468Y-4926D01*
X25941D01*
X5512Y-12205D02*
X6727Y-13420D01*
X5509Y-11205D02*
X5528D01*
X6300Y-10432D02*
X9435D01*
X5528Y-11205D02*
X6300Y-10432D01*
X5512Y-10205D02*
X6287Y-9430D01*
X9435Y-10432D02*
X9941Y-9926D01*
X3346Y-12220D02*
X3346D01*
X8921Y-5906D02*
X8941Y-5926D01*
Y-12926D02*
X9435Y-12432D01*
X31780Y-5394D02*
X32803Y-4370D01*
X32803D01*
X33039Y-4134D01*
X29921Y-5709D02*
X29951D01*
X28346D02*
X29921D01*
X28234D02*
X28346D01*
X26435Y-8432D02*
X29889D01*
X30906Y-9449D01*
Y-14567D02*
Y-9449D01*
X25941Y-8926D02*
X26435Y-8432D01*
X27947Y-8858D02*
X28341Y-9252D01*
X27009Y-8858D02*
X27947D01*
X28341Y-9252D02*
X28346D01*
X26941Y-9926D02*
X29247D01*
X29921Y-9252D01*
X30906Y-14567D02*
X35016Y-18677D01*
X4117Y-23047D02*
X4141Y-23071D01*
X7110D01*
Y-25354D02*
X8685Y-26929D01*
X10906D01*
X4134Y-26969D02*
X4173Y-26929D01*
X7362D01*
X14472Y-21220D02*
X25237D01*
X28250Y-18207D01*
Y-11536D01*
X27953Y-17913D02*
Y-12008D01*
X24976Y-20890D02*
X27953Y-17913D01*
X15142Y-20890D02*
X24976D01*
X27133Y-10420D02*
X28250Y-11536D01*
X27365Y-11420D02*
X27953Y-12008D01*
X26435Y-11420D02*
X27365D01*
X28937Y-13386D02*
X32087Y-16535D01*
X35016Y-18677D02*
X36181D01*
X32480Y-15157D02*
Y-8810D01*
X35000Y-17677D02*
X36181D01*
X32480Y-15157D02*
X35000Y-17677D01*
X26435Y-7432D02*
X31102D01*
X32480Y-8810D01*
X8941Y-11926D02*
X9435Y-11432D01*
X12387D01*
X12402Y-11417D01*
X25941Y-7926D02*
X26435Y-7432D01*
X25941Y-9926D02*
X26435Y-10420D01*
X27133D01*
X25941Y-10926D02*
X26435Y-11420D01*
X13189Y-8465D02*
Y-7087D01*
X9941Y-5926D02*
X12028D01*
X13189Y-7087D01*
X4134Y-25968D02*
X4748Y-25354D01*
X7110D01*
X20307Y-15354D02*
X20866D01*
X19291Y-14339D02*
X20307Y-15354D01*
X21457Y-17441D02*
X22836D01*
X22954Y-17323D01*
X23622D01*
X4117Y-21047D02*
X5600D01*
X5624Y-21024D01*
X7110D01*
X19291Y-16339D02*
X23425D01*
X24409Y-15354D01*
X24990D01*
X25006Y-15370D01*
X25591D01*
X19291Y-17339D02*
X19870Y-16760D01*
X26603D01*
X27165Y-17323D01*
X7087Y-30906D02*
X8646D01*
X22032Y-3937D02*
X23031D01*
X2953Y-32874D02*
Y-31874D01*
Y-32874D02*
X5118D01*
Y-33874D02*
X5693Y-34449D01*
X7087D01*
X14606Y-20354D02*
X15142Y-20890D01*
X13606Y-20354D02*
X14472Y-21220D01*
X21063Y-23923D02*
X23767D01*
X28073D02*
X30776D01*
X9941Y-7926D02*
X10480Y-8465D01*
X12402D01*
X21063Y-29176D02*
X23767D01*
X28073D02*
X30776D01*
D33*
X11614Y-19094D02*
X13370Y-17339D01*
X16291D01*
X4117Y-22047D02*
X9913D01*
X11606Y-20354D02*
X11606D01*
X9913Y-22047D02*
X11606Y-20354D01*
X36181Y-21677D02*
X38189Y-19669D01*
Y-13346D01*
X37323Y-12480D02*
X38189Y-13346D01*
X16291Y-15339D02*
X19291D01*
X21063Y-22213D02*
X22390D01*
X22410Y-22193D01*
X23757D01*
X25900D01*
X25920Y-22213D01*
X28073D01*
X30320D01*
X30766Y-22193D01*
X35666D01*
X36181Y-21677D01*
X28073Y-27466D02*
X30320D01*
X30766Y-27446D01*
X25920Y-27466D02*
X28073D01*
X25900Y-27446D02*
X25920Y-27466D01*
X23757Y-27446D02*
X25900D01*
X23310Y-27466D02*
X23757Y-27446D01*
X21063Y-27466D02*
X23310D01*
X35407Y-12480D02*
X35407Y-12480D01*
X33491Y-12480D02*
X33491Y-12480D01*
X31512Y-33268D02*
X31890Y-32890D01*
X29953Y-33268D02*
X31512D01*
X31890Y-31890D02*
X32340Y-31440D01*
X35048D01*
X36142Y-30346D01*
X27953Y-33268D02*
X29953D01*
D34*
X3346Y-10220D02*
D03*
X5512Y-10205D02*
D03*
X4134Y-27968D02*
D03*
X36142Y-30346D02*
D03*
X36181Y-14677D02*
D03*
X4117Y-23047D02*
D03*
X27149Y-14340D02*
D03*
X25591Y-14370D02*
D03*
X21457Y-17441D02*
D03*
X11606Y-25354D02*
D03*
D35*
X3346Y-11220D02*
D03*
Y-12220D02*
D03*
Y-13220D02*
D03*
Y-14220D02*
D03*
Y-15220D02*
D03*
Y-16220D02*
D03*
X5512Y-11205D02*
D03*
Y-12205D02*
D03*
Y-13205D02*
D03*
Y-14205D02*
D03*
Y-15205D02*
D03*
Y-16205D02*
D03*
X4921Y-5315D02*
D03*
X22032Y-3937D02*
D03*
X19291Y-14339D02*
D03*
Y-15339D02*
D03*
Y-16339D02*
D03*
Y-17339D02*
D03*
X16291D02*
D03*
Y-16339D02*
D03*
Y-15339D02*
D03*
X23744Y-7949D02*
D03*
Y-8949D02*
D03*
Y-9949D02*
D03*
Y-10949D02*
D03*
X20744D02*
D03*
Y-9949D02*
D03*
Y-8949D02*
D03*
X4134Y-25968D02*
D03*
Y-26969D02*
D03*
X28073Y-29176D02*
D03*
X30776D02*
D03*
X30766Y-27446D02*
D03*
X28073Y-27466D02*
D03*
X36142Y-29346D02*
D03*
Y-28346D02*
D03*
Y-27346D02*
D03*
Y-26346D02*
D03*
Y-25346D02*
D03*
Y-24346D02*
D03*
X36181Y-21677D02*
D03*
Y-20677D02*
D03*
Y-19677D02*
D03*
Y-18677D02*
D03*
Y-17677D02*
D03*
Y-16677D02*
D03*
Y-15677D02*
D03*
X4117Y-22047D02*
D03*
Y-21047D02*
D03*
X21063Y-29176D02*
D03*
X23767D02*
D03*
X23757Y-27446D02*
D03*
X21063Y-27466D02*
D03*
X28073Y-23923D02*
D03*
X30776D02*
D03*
X30766Y-22193D02*
D03*
X28073Y-22213D02*
D03*
X21063Y-23923D02*
D03*
X23767D02*
D03*
X23757Y-22193D02*
D03*
X21063Y-22213D02*
D03*
X27149Y-15340D02*
D03*
X25591Y-15370D02*
D03*
X21457Y-18441D02*
D03*
X34039Y-4134D02*
D03*
X35039D02*
D03*
X36039D02*
D03*
X9646Y-30906D02*
D03*
X28331Y-4134D02*
D03*
X7110Y-25354D02*
D03*
X8110Y-23071D02*
D03*
Y-21024D02*
D03*
X8055Y-28740D02*
D03*
X14606Y-25354D02*
D03*
X12606D02*
D03*
X13606D02*
D03*
X15606D02*
D03*
X16606D02*
D03*
Y-20354D02*
D03*
X13606D02*
D03*
X11606D02*
D03*
X15606D02*
D03*
X14606D02*
D03*
X12606D02*
D03*
D36*
X3921Y-5315D02*
D03*
X23031Y-3937D02*
D03*
X16291Y-14339D02*
D03*
X20744Y-7949D02*
D03*
X33039Y-4134D02*
D03*
X8646Y-30906D02*
D03*
X29331Y-4134D02*
D03*
X8110Y-25354D02*
D03*
X7110Y-23071D02*
D03*
Y-21024D02*
D03*
X9055Y-28740D02*
D03*
D37*
X13535Y-27362D02*
D03*
D38*
X14535D02*
D03*
X15535D02*
D03*
X16535D02*
D03*
X24606Y-34858D02*
D03*
Y-33858D02*
D03*
Y-32858D02*
D03*
X9941Y-12926D02*
D03*
X8941D02*
D03*
X9941Y-11926D02*
D03*
X8941D02*
D03*
X9941Y-10926D02*
D03*
X8941D02*
D03*
X9941Y-9926D02*
D03*
X8941D02*
D03*
X9941Y-8926D02*
D03*
X8941D02*
D03*
X9941Y-7926D02*
D03*
X8941D02*
D03*
X9941Y-6926D02*
D03*
X8941D02*
D03*
X9941Y-5926D02*
D03*
X8941D02*
D03*
X9941Y-4926D02*
D03*
X8941D02*
D03*
X9941Y-3926D02*
D03*
X26941Y-12926D02*
D03*
X25941D02*
D03*
X26941Y-11926D02*
D03*
X25941D02*
D03*
X26941Y-10926D02*
D03*
X25941D02*
D03*
X26941Y-9926D02*
D03*
X25941D02*
D03*
X26941Y-8926D02*
D03*
X25941D02*
D03*
X26941Y-7926D02*
D03*
X25941D02*
D03*
X26941Y-6926D02*
D03*
X25941D02*
D03*
X26941Y-5926D02*
D03*
X25941D02*
D03*
X26941Y-4926D02*
D03*
X25941D02*
D03*
X26941Y-3926D02*
D03*
X2953Y-31874D02*
D03*
X17126Y-32843D02*
D03*
Y-33843D02*
D03*
Y-34843D02*
D03*
X31890Y-32890D02*
D03*
Y-33890D02*
D03*
Y-34890D02*
D03*
D39*
X24606Y-31858D02*
D03*
X8941Y-3926D02*
D03*
X25941D02*
D03*
X2953Y-32874D02*
D03*
X17126Y-31843D02*
D03*
X31890Y-31890D02*
D03*
D40*
X7087Y-30906D02*
D03*
Y-34449D02*
D03*
X31780Y-8937D02*
D03*
Y-5394D02*
D03*
X33496Y-8937D02*
D03*
Y-5394D02*
D03*
X36929Y-8937D02*
D03*
Y-5394D02*
D03*
X35213Y-8937D02*
D03*
Y-5394D02*
D03*
X29921Y-9252D02*
D03*
Y-5709D02*
D03*
X28346Y-9252D02*
D03*
Y-5709D02*
D03*
X7362Y-26929D02*
D03*
X10906D02*
D03*
X24409Y-15354D02*
D03*
X20866D02*
D03*
X27165Y-17323D02*
D03*
X23622D02*
D03*
X5118Y-32874D02*
D03*
Y-33874D02*
D03*
Y-31874D02*
D03*
D41*
X12614Y-19094D02*
D03*
X11614D02*
D03*
X22835Y-12205D02*
D03*
X21835D02*
D03*
D42*
X37323Y-11480D02*
D03*
Y-12480D02*
D03*
X35407Y-11480D02*
D03*
Y-12480D02*
D03*
X33491Y-12480D02*
D03*
Y-11480D02*
D03*
X31575Y-12480D02*
D03*
Y-11480D02*
D03*
D43*
X13157Y-33268D02*
D03*
X20638D02*
D03*
X27953D02*
D03*
D44*
X15157D02*
D03*
X22638D02*
D03*
X29953D02*
D03*
X1969Y-37402D02*
D03*
Y-1969D02*
D03*
X37402Y-37402D02*
D03*
Y-1969D02*
D03*
D45*
X9843Y-23228D02*
D03*
X11915Y-22608D02*
D03*
X8858Y-24213D02*
D03*
X11220Y-21850D02*
D03*
X9952Y-16161D02*
D03*
X7874Y-8858D02*
D03*
X12992Y-12402D02*
D03*
X23819D02*
D03*
X24606Y-5906D02*
D03*
X24409Y-7087D02*
D03*
X25055Y-8339D02*
D03*
X32087Y-16535D02*
D03*
X28937Y-13386D02*
D03*
X14567Y-8858D02*
D03*
X13189Y-8465D02*
D03*
X12402Y-7677D02*
D03*
Y-11417D02*
D03*
X12402Y-8465D02*
D03*
M02*
